<?xml version="1.0" encoding="UTF-8" standalone="no"?><!DOCTYPE svg PUBLIC "-//W3C//DTD SVG 1.1//EN" "http://www.w3.org/Graphics/SVG/1.1/DTD/svg11.dtd"><svg width="100%" height="100%" viewBox="0 0 359 501" version="1.1" xmlns="http://www.w3.org/2000/svg" xmlns:xlink="http://www.w3.org/1999/xlink" xml:space="preserve" style="fill-rule:evenodd;clip-rule:evenodd;stroke-linejoin:round;stroke-miterlimit:1.41421;"><path d="M179.676,0c9.755,0.039 19.497,2.504 27.638,7.398l42.082,25.297l81.625,49.071c16.412,9.865 27.869,30.532 27.869,50.261l0,148.735c0,19.726 -11.457,40.394 -27.864,50.259l-81.619,49.064l-42.093,25.303c-16.409,9.865 -39.328,9.865 -55.737,0l-123.709,-74.367c-16.408,-9.863 -27.868,-30.532 -27.868,-50.259l0,-148.735c0,-19.729 11.46,-40.396 27.868,-50.262l123.709,-74.367c8.205,-4.932 18.037,-7.398 27.868,-7.398l0.231,0Zm10.669,52.035l-21.855,0l-5.042,0.381l-6.074,0.759l-4.664,0.759l-6.453,1.519l-5.694,1.897l-4.663,1.519l-7.158,3.09l-3.904,1.899l-4.989,2.711l-4.664,2.712l-4.663,3.09l-4.284,3.47l-5.369,4.23l-4.989,4.99l-4.989,5.368l-3.199,3.47l-2.495,3.092l-3.578,5.368l-2.495,3.471l-2.875,4.608l-2.168,4.611l-2.874,5.368l-2.17,4.989l-2.874,7.32l-1.789,6.128l-0.705,3.851l-1.41,4.608l-0.704,4.99l-0.598,4.989l-0.704,5.585l-0.326,3.525l0,6.344c0,0.488 -0.162,1.464 0.109,1.844c1.193,-1.627 2.385,-2.82 4.121,-3.958c1.627,-1.086 3.199,-2.116 4.609,-3.363c1.465,-1.193 2.658,-2.712 3.634,-4.283c2.385,-4.014 4.392,-9.545 4.718,-14.209c0.324,-4.392 0.921,-8.729 1.843,-13.014c1.79,-8.405 4.772,-16.539 8.731,-24.185c7.917,-15.239 19.738,-28.253 33.783,-38.068c-11.605,13.34 -21.528,26.029 -27.33,43.056c-2.657,7.755 -4.392,15.834 -5.206,24.023c-0.433,4.175 -0.597,8.352 -0.488,12.58c0.055,1.736 1.573,8.406 0.543,9.762c-4.068,5.423 -8.46,10.52 -13.504,15.075c-3.145,2.821 -9.598,5.803 -11.279,9.707c0,0.055 -2.223,5.097 -2.223,5.097l-2.007,5.694c0.379,6.074 1.357,12.147 3.526,18.438c3.578,10.358 8.459,20.227 11.387,30.855c2.603,9.544 3.795,20.118 9.815,27.656c3.742,4.718 9.003,7.701 13.883,11.062c6.941,2.657 13.718,5.423 20.497,8.515c2.603,1.192 5.369,2.223 8.244,2.547c1.68,0.164 3.741,0 5.042,1.194c1.573,1.41 2.603,4.447 3.47,6.345c2.062,4.501 3.635,9.273 5.315,13.937c1.301,3.523 2.657,6.994 4.447,10.302c0.922,1.736 1.952,3.416 3.09,4.99c0.869,1.192 2.657,2.33 2.766,3.849c-1.897,-0.488 -4.013,-3.09 -5.368,-4.501c-1.735,-1.898 -3.308,-3.904 -4.663,-6.073c-2.766,-4.284 -4.882,-8.948 -6.834,-13.666c-1.03,-2.494 -2.006,-5.097 -3.904,-6.994c-1.464,-1.465 -3.308,-2.442 -5.097,-3.363c-4.989,-2.602 -9.761,-4.88 -15.455,-4.718c4.88,10.25 4.175,23.861 11.713,32.212c5.368,5.965 13.611,7.7 19.793,12.58c7.918,6.291 11.713,17.137 19.468,23.59c4.501,3.742 10.14,5.585 15.834,5.53c0.814,0 1.626,-0.053 2.44,-0.108c0.814,0.055 1.628,0.108 2.44,0.108c5.64,0.055 11.334,-1.788 15.835,-5.53c7.755,-6.453 11.604,-17.299 19.468,-23.59c6.182,-4.934 14.424,-6.67 19.792,-12.58c7.538,-8.351 6.834,-21.962 11.714,-32.212c-5.64,-0.162 -10.467,2.116 -15.454,4.718c-1.845,0.921 -3.688,1.898 -5.099,3.363c-1.897,1.897 -2.873,4.5 -3.904,6.994c-1.897,4.718 -4.067,9.382 -6.832,13.666c-1.411,2.169 -2.929,4.175 -4.665,6.073c-1.355,1.411 -3.469,4.013 -5.368,4.501c0.109,-1.519 1.952,-2.657 2.766,-3.849c1.138,-1.574 2.169,-3.254 3.092,-4.99c1.734,-3.308 3.145,-6.779 4.446,-10.302c1.681,-4.665 3.253,-9.436 5.314,-13.937c0.868,-1.898 1.898,-4.935 3.471,-6.345c1.301,-1.194 3.416,-1.03 5.043,-1.194c2.874,-0.324 5.64,-1.355 8.242,-2.547c6.779,-3.092 13.557,-5.858 20.498,-8.515c4.934,-3.361 10.14,-6.344 13.882,-11.062c6.02,-7.538 7.213,-18.112 9.816,-27.656c2.929,-10.628 7.809,-20.497 11.387,-30.855c2.17,-6.291 3.146,-12.364 3.525,-18.438l-2.007,-5.694c0.11,-0.107 -2.114,-5.206 -2.114,-5.26c-1.681,-3.904 -8.134,-6.887 -11.279,-9.706c-5.043,-4.556 -9.435,-9.652 -13.503,-15.075c-1.031,-1.356 0.488,-7.972 0.542,-9.762c0.11,-4.175 -0.054,-8.405 -0.488,-12.58c-0.813,-8.189 -2.603,-16.214 -5.205,-24.023c-5.803,-17.028 -15.726,-29.717 -27.33,-43.057c14.044,9.816 25.866,22.885 33.783,38.067c3.958,7.646 6.941,15.78 8.731,24.186c0.921,4.284 1.517,8.623 1.843,13.015c0.326,4.664 2.385,10.195 4.718,14.207c0.976,1.628 2.168,3.092 3.633,4.284c1.41,1.302 2.982,2.333 4.61,3.362c1.735,1.14 2.928,2.332 4.121,3.959c0.271,-0.379 0.109,-1.355 0.109,-1.843l0,-6.344l-0.326,-3.526l-0.705,-5.586l-0.705,-4.988l-0.704,-4.989l-1.411,-4.61l-0.705,-3.85l-1.79,-6.127l-2.873,-7.322l-2.169,-4.987l-2.875,-5.37l-2.169,-4.609l-2.873,-4.609l-2.495,-3.47l-3.58,-5.37l-2.494,-3.09l-3.2,-3.471l-4.989,-5.368l-4.988,-4.989l-5.369,-4.23l-4.283,-3.47l-4.663,-3.092l-4.665,-2.711l-4.988,-2.712l-3.906,-1.897l-7.157,-3.092l-4.664,-1.3l-5.694,-1.899l-6.453,-1.517l-4.663,-0.814l-6.073,-0.759l-4.989,-0.381Zm6.56,289.955c0,0.163 -0.216,0.379 -0.541,0.379c-1.627,-2.494 -14.37,-2.223 -17.679,-2.385c0,0 -14.587,0.162 -15.996,2.385c-0.326,0 -0.543,-0.216 -0.543,-0.379c0,-0.162 0.108,-0.325 0.272,-0.488c2.277,-2.44 6.615,-3.253 11.116,-3.579c1.572,-0.108 3.09,-0.217 4.663,-0.217l0,-0.055c2.441,0.055 4.881,0.11 7.375,0.326c4.447,0.326 8.839,1.139 11.117,3.58c0.054,0.053 0.216,0.217 0.216,0.433Zm-22.254,-30.788c-0.229,-0.406 -0.747,-0.621 -1.009,-0.99c-0.325,-0.488 -0.65,-1.029 -1.029,-1.464c-0.76,-0.976 -1.628,-1.843 -2.604,-2.656c-0.488,-0.434 -1.031,-0.814 -1.355,-1.355c-0.597,-1.031 -0.326,-2.333 0.324,-3.254c0.272,-0.381 0.652,-0.705 1.14,-0.759c0.379,-0.055 0.759,0.054 1.084,0.271c0.488,0.324 0.651,0.705 0.704,1.193c0.11,0.595 -0.053,1.247 0.164,1.842c0.217,0.76 0.324,1.465 0.705,2.171c0.542,0.976 0.976,1.897 1.247,3.035c0.159,0.637 0.319,1.377 0.629,1.966c0.007,0.014 0.014,0.027 0.021,0.041l-0.021,-0.041Zm10.162,-2.073c0.271,-1.14 0.652,-2.061 1.247,-3.037c0.381,-0.651 0.543,-1.41 0.705,-2.169c0.164,-0.597 0.054,-1.302 0.164,-1.845c0.053,-0.433 0.216,-0.812 0.704,-1.192c0.325,-0.217 0.705,-0.326 1.084,-0.272c0.488,0.055 0.868,0.381 1.14,0.76c0.704,1.03 0.976,2.332 0.324,3.308c-0.324,0.543 -0.867,0.922 -1.355,1.355c-0.976,0.759 -1.844,1.681 -2.604,2.658c-0.379,0.488 -0.704,0.976 -1.029,1.464c-0.271,0.379 -0.814,0.596 -1.03,0.976c0.325,-0.597 0.488,-1.356 0.65,-2.006Zm12.202,-35.357c-0.488,1.627 -0.869,3.307 -1.193,4.99c-0.705,3.523 -0.543,7.211 -1.357,10.681c-0.813,-0.704 -1.518,-1.3 -2.223,-2.114c-0.542,-0.597 -1.247,-1.193 -2.061,-1.03c-0.324,0.054 -0.65,0.271 -0.921,0.433c-1.139,0.868 -2.169,1.844 -3.362,2.658c0.379,-6.562 1.302,-13.123 3.85,-19.143c1.247,-3.037 2.928,-5.91 4.989,-8.459c1.627,-2.007 4.555,-5.585 7.212,-6.182c-0.65,1.464 -2.169,2.387 -3.091,3.634c-1.084,1.571 -2.06,3.199 -2.874,4.934c-0.759,1.627 -1.409,3.362 -1.952,5.097c-0.38,1.41 -1.356,3.904 -0.922,5.314c0.651,-0.108 1.248,-1.355 1.681,-1.898l1.626,-2.656c0.652,-0.326 1.411,-0.814 2.116,-0.976c-0.164,1.464 -1.085,3.253 -1.518,4.717Zm-36.659,-4.772c0.705,0.162 1.464,0.65 2.116,0.976l1.626,2.657c0.434,0.597 0.976,1.79 1.681,1.899c0.434,-1.411 -0.488,-3.906 -0.921,-5.315c-0.488,-1.736 -1.139,-3.471 -1.952,-5.097c-0.814,-1.735 -1.79,-3.363 -2.875,-4.935c-0.922,-1.302 -2.44,-2.223 -3.091,-3.634c2.657,0.597 5.585,4.122 7.213,6.182c2.06,2.549 3.742,5.423 4.989,8.46c2.495,6.074 3.471,12.635 3.85,19.143c-1.193,-0.814 -2.224,-1.79 -3.362,-2.657c-0.271,-0.218 -0.597,-0.38 -0.923,-0.435c-0.867,-0.108 -1.626,0.488 -2.114,1.085c-0.705,0.814 -1.464,1.41 -2.223,2.114c-0.814,-3.47 -0.598,-7.158 -1.357,-10.681c-0.324,-1.683 -0.759,-3.309 -1.193,-4.99c-0.433,-1.464 -1.355,-3.253 -1.464,-4.772Zm48.154,11.876l-3.252,2.169l-2.983,4.339l-3.525,1.68l0,-3.742l0.596,-3.849l2.386,-8.352l3.145,-8.459l2.766,-5.91l3.145,-5.803l3.037,-5.261l3.904,-5.368l6.996,-8.079l4.283,-3.309l9.274,-5.694l8.026,-3.525l9.651,-2.602l7.538,-1.573l8.622,-1.138l10.738,0l-3.092,5.313l-2.223,5.477l-1.031,6.508l-0.976,6.29l-1.626,4.772l-1.844,5.477l-2.874,6.508l-4.392,5.802l-4.122,4.446l-4.771,3.851l-4.773,2.495l-5.856,2.602l-7.05,1.736l-6.237,1.247l-7.048,1.138l-7.158,0.814l-9.274,0Zm-113.227,-63.284l7.538,1.574l9.653,2.602l8.025,3.525l9.274,5.694l4.283,3.307l6.995,8.081l3.904,5.368l3.038,5.26l3.144,5.802l2.766,5.911l3.145,8.459l2.387,8.351l0.596,3.851l0,3.687l-3.471,-1.68l-2.981,-4.339l-3.254,-2.169l-9.274,0l-7.158,-0.814l-7.049,-1.138l-6.236,-1.247l-7.05,-1.736l-5.856,-2.602l-4.773,-2.495l-4.771,-3.851l-4.122,-4.446l-4.392,-5.802l-2.874,-6.508l-1.844,-5.477l-1.626,-4.772l-0.976,-6.29l-1.031,-6.508l-2.223,-5.477l-3.145,-5.259l10.736,0l8.622,1.138Z" style="fill:#fff;"/><path id="bresilla" d="M19.966,415.147l-7.742,0l0,83.392l7.742,0l0,2.36l-10.101,0l0,-85.752l-0.001,0l0,-2.36l10.102,0l0,2.36Zm318.958,83.392l7.742,0l0,-83.392l-7.742,0l0,-2.36l10.101,0l0,2.36l0,0l0,83.392l0,0l0,2.36l-10.101,0l0,-2.36Zm-310.801,-45.874l46.412,0l0,0.268l0,0l0,31.572l-0.448,0l0,0.013l-48.324,0l0,-55.189l2.36,0l0,23.336Zm161.88,18.199l-0.005,0l0,0.003l-46.407,0l0,11.291l45.963,0l0,2.36l-48.323,0l0,-2.36l0,0l0,-11.291l0,0l0,-2.36l0,0l0,-15.837l0.619,0l0,-0.005l45.793,0l0,-0.001l2.36,0l0,18.2Zm56.207,-15.839l-46.411,0l0,13.482l44.052,0l0,-0.002l2.36,0l0,16.01l-0.449,0l0,0.003l-48.323,0l0,-2.36l46.412,0l0,-11.291l-46.412,0l0,-18.202l48.771,0l0,2.36Zm86.721,-1.696l0.001,0l0,31.186l-0.448,0l0,0.003l-48.323,0l0,-16.011l46.412,0l0,-13.482l-45.794,0l0,-2.36l48.152,0l0,0.664Zm-67.127,31.029l-2.36,0l0,-55.029l2.36,0l0,55.029Zm10.278,0l-2.36,0l0,-55.029l2.36,0l0,55.029Zm-19.913,0l-2.36,0l0,-31.698l2.36,0l0,31.698Zm-124.623,-29.333l-46.411,0l0,29.333l-2.36,0l0,-31.69l0.618,0l0,-0.003l48.153,0l0,2.36Zm154.975,15.842l0,11.291l44.052,0l0,-11.291l-44.052,0Zm-258.398,-15.842l0,27.133l44.052,0l0,-27.133l-44.052,0Zm115.468,0l0,13.482l44.052,0l0,-13.482l-44.052,0Z" style="fill:#fff;"/></svg>