<?xml version="1.0" encoding="UTF-8" standalone="no"?>
<svg
   xmlns:dc="http://purl.org/dc/elements/1.1/"
   xmlns:cc="http://creativecommons.org/ns#"
   xmlns:rdf="http://www.w3.org/1999/02/22-rdf-syntax-ns#"
   xmlns:svg="http://www.w3.org/2000/svg"
   xmlns="http://www.w3.org/2000/svg"
   xmlns:sodipodi="http://sodipodi.sourceforge.net/DTD/sodipodi-0.dtd"
   xmlns:inkscape="http://www.inkscape.org/namespaces/inkscape"
   height="16"
   width="16"
   version="1.1"
   id="svg6"
   sodipodi:docname="5.svg"
   inkscape:version="0.92.2 (unknown)">
  <metadata
     id="metadata12">
    <rdf:RDF>
      <cc:Work
         rdf:about="">
        <dc:format>image/svg+xml</dc:format>
        <dc:type
           rdf:resource="http://purl.org/dc/dcmitype/StillImage" />
        <dc:title></dc:title>
      </cc:Work>
    </rdf:RDF>
  </metadata>
  <defs
     id="defs10" />
  <sodipodi:namedview
     pagecolor="#ffffff"
     bordercolor="#666666"
     borderopacity="1"
     objecttolerance="10"
     gridtolerance="10"
     guidetolerance="10"
     inkscape:pageopacity="0"
     inkscape:pageshadow="2"
     inkscape:window-width="1181"
     inkscape:window-height="561"
     id="namedview8"
     showgrid="false"
     inkscape:zoom="14.75"
     inkscape:cx="8"
     inkscape:cy="8"
     inkscape:window-x="0"
     inkscape:window-y="34"
     inkscape:window-maximized="0"
     inkscape:current-layer="g4" />
  <g
     color="#000"
     transform="translate(-552 -52)"
     id="g4">
    <path
       d="m 555.994,53 c -1.258,0.015 -2.179,-0.029 -2.932,0.387 -0.38989,0.22112 -0.68783,0.574396 -0.84,0.996 C 552.058,54.821 552,55.343 552,56 v 8 c 0,0.658 0.058,1.179 0.223,1.617 0.164,0.439 0.463,0.79 0.84,0.998 0.752,0.416 1.673,0.37 2.931,0.385 h 8.012 c 1.258,-0.015 2.179,0.03 2.932,-0.385 0.376,-0.207 0.675,-0.56 0.84,-0.998 C 567.942,65.179 568,64.657 568,64 v -6 c 0,-0.658 -0.058,-1.179 -0.223,-1.617 -0.02,-0.055 -0.048,-0.104 -0.074,-0.154 l -0.027,-0.057 c -0.16173,-0.330253 -0.41881,-0.604399 -0.738,-0.787 -0.753,-0.416 -1.674,-0.37 -2.932,-0.385 h -3.039 l -2.022,-2 h -2.949 z m 0.012,1 h 2.53 l 1.765,1.746 -1.268,1.254 h -3.039 c -1.258,0.015 -2.179,-0.03 -2.932,0.385 -0.022,0.012 -0.04,0.03 -0.062,0.043 V 56 c 0,-0.592 0.062,-1.006 0.16,-1.266 0.098,-0.26 0.203,-0.371 0.387,-0.472 0.366,-0.203 1.195,-0.247 2.459,-0.262 z"
       font-weight="400"
       overflow="visible"
       style="font-weight:400;line-height:normal;font-family:sans-serif;font-variant-ligatures:none;font-variant-position:normal;font-variant-caps:normal;font-variant-numeric:normal;font-variant-alternates:normal;font-feature-settings:normal;text-indent:0;text-align:start;text-decoration:none;text-decoration-line:none;text-decoration-style:solid;text-decoration-color:#000000;text-transform:none;white-space:normal;shape-padding:0;overflow:visible;isolation:auto;mix-blend-mode:normal;fill:#808080;marker:none"
       id="path2"
       inkscape:connector-curvature="0"
       sodipodi:nodetypes="cccssccccccssccccccccccccccccsscc" />
  </g>
</svg>
