<?xml version="1.0" encoding="UTF-8" standalone="no"?>
<svg
   xmlns:dc="http://purl.org/dc/elements/1.1/"
   xmlns:cc="http://creativecommons.org/ns#"
   xmlns:rdf="http://www.w3.org/1999/02/22-rdf-syntax-ns#"
   xmlns:svg="http://www.w3.org/2000/svg"
   xmlns="http://www.w3.org/2000/svg"
   xmlns:sodipodi="http://sodipodi.sourceforge.net/DTD/sodipodi-0.dtd"
   xmlns:inkscape="http://www.inkscape.org/namespaces/inkscape"
   height="16"
   width="16"
   version="1.1"
   id="svg4"
   sodipodi:docname="4137_winhlp32.0.svg"
   inkscape:version="0.92.2 (unknown)">
  <metadata
     id="metadata10">
    <rdf:RDF>
      <cc:Work
         rdf:about="">
        <dc:format>image/svg+xml</dc:format>
        <dc:type
           rdf:resource="http://purl.org/dc/dcmitype/StillImage" />
        <dc:title></dc:title>
      </cc:Work>
    </rdf:RDF>
  </metadata>
  <defs
     id="defs8" />
  <sodipodi:namedview
     pagecolor="#ffffff"
     bordercolor="#666666"
     borderopacity="1"
     objecttolerance="10"
     gridtolerance="10"
     guidetolerance="10"
     inkscape:pageopacity="0"
     inkscape:pageshadow="2"
     inkscape:window-width="1340"
     inkscape:window-height="826"
     id="namedview6"
     showgrid="true"
     inkscape:zoom="40.1875"
     inkscape:cx="8"
     inkscape:cy="8"
     inkscape:window-x="118"
     inkscape:window-y="62"
     inkscape:window-maximized="0"
     inkscape:current-layer="svg4">
    <inkscape:grid
       type="xygrid"
       id="grid812" />
  </sodipodi:namedview>
  <path
     d="M 8,0 C 3.576,0 0,3.576 0,8 c 0,4.424 3.576,8 8,8 4.424,0 8,-3.576 8,-8 C 16,3.576 12.424,0 8,0 Z m 0,1 c 3.87,0 7,3.13 7,7 0,3.87 -3.13,7 -7,7 C 4.13,15 1,11.87 1,8 1,4.13 4.13,1 8,1 Z"
     overflow="visible"
     style="color:#bebebe;text-indent:0;text-transform:none;overflow:visible;fill:#808080;fill-opacity:1;marker:none"
     id="path2"
     inkscape:connector-curvature="0"
     sodipodi:nodetypes="ssssssssss" />
  <path
     style="fill:#808080;fill-opacity:1;stroke:none;stroke-width:1px;stroke-linecap:butt;stroke-linejoin:miter;stroke-opacity:1"
     d="M 7.4751166,0.72674961 7.3622215,8 H 0.70139969 L 1,9 H 7.4416668 L 7.5,15.1 h 1 v -6 l 5,4 0.751166,-0.55832 L 8.5248834,8 8.5746501,1 C 8.5746501,1 8.7612753,0.52301711 8.5,0.54790047 8.2387247,0.57278387 7.4751166,0.72674961 7.4751166,0.72674961 Z"
     id="path814"
     inkscape:connector-curvature="0"
     sodipodi:nodetypes="ccccccccccccsc" />
</svg>
