<?xml version="1.0" encoding="UTF-8" standalone="no"?>
<svg
   xmlns:dc="http://purl.org/dc/elements/1.1/"
   xmlns:cc="http://creativecommons.org/ns#"
   xmlns:rdf="http://www.w3.org/1999/02/22-rdf-syntax-ns#"
   xmlns:svg="http://www.w3.org/2000/svg"
   xmlns="http://www.w3.org/2000/svg"
   xmlns:sodipodi="http://sodipodi.sourceforge.net/DTD/sodipodi-0.dtd"
   xmlns:inkscape="http://www.inkscape.org/namespaces/inkscape"
   height="16.003"
   style="enable-background:new"
   version="1.1"
   width="16"
   id="svg8"
   sodipodi:docname="mixxx-symbolic.svg"
   inkscape:version="0.92.2 (unknown)">
  <metadata
     id="metadata14">
    <rdf:RDF>
      <cc:Work
         rdf:about="">
        <dc:format>image/svg+xml</dc:format>
        <dc:type
           rdf:resource="http://purl.org/dc/dcmitype/StillImage" />
        <dc:title>
  Paper Symbolic Icon Theme
 </dc:title>
      </cc:Work>
    </rdf:RDF>
  </metadata>
  <defs
     id="defs12" />
  <sodipodi:namedview
     pagecolor="#ffffff"
     bordercolor="#666666"
     borderopacity="1"
     objecttolerance="10"
     gridtolerance="10"
     guidetolerance="10"
     inkscape:pageopacity="0"
     inkscape:pageshadow="2"
     inkscape:window-width="1838"
     inkscape:window-height="884"
     id="namedview10"
     showgrid="false"
     inkscape:zoom="14.747235"
     inkscape:cx="-16.343547"
     inkscape:cy="8.0015005"
     inkscape:window-x="1"
     inkscape:window-y="34"
     inkscape:window-maximized="0"
     inkscape:current-layer="svg8" />
  <title
     id="title2">
  Paper Symbolic Icon Theme
 </title>
  <path
     style="opacity:1;fill:#808080;fill-opacity:1;stroke:none;stroke-width:14.99999809;stroke-linecap:round;stroke-linejoin:bevel;stroke-miterlimit:4;stroke-dasharray:none;stroke-opacity:1"
     d="M 3.3593746,0.50300149 C 1.7752848,0.50300149 0.5,1.7782863 0.5,3.3623761 v 0.28125 c 0,1.5840904 1.2752848,2.8593752 2.8593746,2.8593752 h 9.2812484 c 1.58409,0 2.859375,-1.2752848 2.859375,-2.8593752 v -0.28125 c 0,-1.5840898 -1.275285,-2.85937461 -2.859375,-2.85937461 z m 0.140625,1.49999981 c 0.8284199,0 1.4999998,0.6715725 1.4999998,1.4999998 0,0.8284274 -0.6715799,1.5000004 -1.4999998,1.5000004 -0.8284199,0 -1.4999998,-0.671573 -1.4999998,-1.5000004 0,-0.8284273 0.6715799,-1.4999998 1.4999998,-1.4999998 z m -0.08496,7.4999995 C 1.8000348,9.5030008 0.500015,10.803019 0.5,12.41804 v 0.169922 C 0.5,14.202982 1.8000198,15.503 3.4150396,15.503 H 12.584959 C 14.19998,15.503 15.5,14.202982 15.5,12.587962 V 12.41804 c 0,-1.615021 -1.30002,-2.9150392 -2.915041,-2.9150392 z M 12.499998,11.003 c 0.82842,0 1.5,0.671573 1.5,1.5 0,0.828428 -0.67158,1.500001 -1.5,1.500001 -0.82842,0 -1.5,-0.671573 -1.5,-1.500001 0,-0.828427 0.67158,-1.5 1.5,-1.5 z"
     id="rect814"
     inkscape:connector-curvature="0"
     sodipodi:nodetypes="ssssssssssssssscssssssssssss" />
  <g
     transform="translate(-256,-75.996643)"
     id="g6"
     style="fill:#000000;fill-opacity:1;stroke:#000000;stroke-opacity:1" />
</svg>
