<?xml version="1.0" encoding="UTF-8" standalone="no"?>
<!-- Created with Inkscape (http://www.inkscape.org/) -->

<svg
   xmlns:dc="http://purl.org/dc/elements/1.1/"
   xmlns:cc="http://creativecommons.org/ns#"
   xmlns:rdf="http://www.w3.org/1999/02/22-rdf-syntax-ns#"
   xmlns:svg="http://www.w3.org/2000/svg"
   xmlns="http://www.w3.org/2000/svg"
   xmlns:xlink="http://www.w3.org/1999/xlink"
   xmlns:sodipodi="http://sodipodi.sourceforge.net/DTD/sodipodi-0.dtd"
   xmlns:inkscape="http://www.inkscape.org/namespaces/inkscape"
   width="256"
   height="256"
   viewBox="0 0 67.733332 67.733335"
   version="1.1"
   id="svg1488"
   inkscape:version="0.92.2 (unknown)"
   sodipodi:docname="gnome-boxes.svg">
  <defs
     id="defs1482">
    <clipPath
       clipPathUnits="userSpaceOnUse"
       id="clipPath1025">
      <path
         id="path1027"
         d="M 111.94141,84 C 99.359506,84.145 90.1531,83.713998 82.625,87.867188 c -3.7641,2.0768 -6.751838,5.574737 -8.398438,9.960937 C 72.580062,102.21433 72,107.4241 72,114 v 42 h 160 v -26 c 0,-6.5759 -0.57996,-11.78566 -2.22656,-16.17188 -0.205,-0.5455 -0.47919,-1.03993 -0.74219,-1.54296 -0.1,-0.1848 -0.17844,-0.38051 -0.27344,-0.56641 -1.727,-3.38752 -4.25471,-6.14522 -7.38281,-7.87109 C 213.8463,99.694146 204.64049,100.1454 192.05859,100 H 192 151.66797 L 135.45312,84 h -23.49218 z"
         style="color:#000000;font-style:normal;font-variant:normal;font-weight:normal;font-stretch:normal;font-size:medium;line-height:normal;font-family:sans-serif;font-variant-ligatures:none;font-variant-position:normal;font-variant-caps:normal;font-variant-numeric:normal;font-variant-alternates:normal;font-feature-settings:normal;text-indent:0;text-align:start;text-decoration:none;text-decoration-line:none;text-decoration-style:solid;text-decoration-color:#000000;letter-spacing:normal;word-spacing:normal;text-transform:none;writing-mode:lr-tb;direction:ltr;baseline-shift:baseline;text-anchor:start;white-space:normal;shape-padding:0;clip-rule:nonzero;display:inline;overflow:visible;visibility:visible;opacity:1;isolation:auto;mix-blend-mode:normal;color-interpolation:sRGB;color-interpolation-filters:linearRGB;solid-color:#000000;solid-opacity:1;fill:#e3dfd5;fill-opacity:1;fill-rule:nonzero;stroke:none;stroke-width:4.00000048;stroke-linecap:butt;stroke-linejoin:miter;stroke-miterlimit:4;stroke-dasharray:none;stroke-dashoffset:0;stroke-opacity:1;marker:none;color-rendering:auto;image-rendering:auto;shape-rendering:auto;text-rendering:auto;enable-background:accumulate"
         inkscape:connector-curvature="0" />
    </clipPath>
    <linearGradient
       id="linearGradient1013"
       inkscape:collect="always">
      <stop
         id="stop1005"
         offset="0"
         style="stop-color:#ffffff;stop-opacity:1;" />
      <stop
         style="stop-color:#ffffff;stop-opacity:0.09803922"
         offset="0.125"
         id="stop1007" />
      <stop
         style="stop-color:#000000;stop-opacity:0.09803922"
         offset="0.92500001"
         id="stop1009" />
      <stop
         id="stop1011"
         offset="1"
         style="stop-color:#000000;stop-opacity:0.49803922" />
    </linearGradient>
    <clipPath
       clipPathUnits="userSpaceOnUse"
       id="clipPath1082-3">
      <path
         sodipodi:nodetypes="sssssssss"
         inkscape:connector-curvature="0"
         id="path1084-6"
         d="M 361.9375,-212 C 507.2348,-212 528,-191.28677 528,-46.125 V 70.125 C 528,215.28618 507.2348,236 361.9375,236 H 214.0625 C 68.7652,236 48,215.28618 48,70.125 V -46.125 C 48,-191.28677 68.7652,-212 214.0625,-212 Z"
         style="display:inline;opacity:1;fill:#8c59d9;fill-opacity:1;stroke:none;stroke-width:2;stroke-linecap:round;stroke-linejoin:round;stroke-miterlimit:4;stroke-dasharray:none;stroke-dashoffset:0;stroke-opacity:1;enable-background:new" />
    </clipPath>
    <clipPath
       clipPathUnits="userSpaceOnUse"
       id="clipPath1082-3-5">
      <path
         sodipodi:nodetypes="sssssssss"
         inkscape:connector-curvature="0"
         id="path1084-6-6"
         d="M 361.9375,-212 C 507.2348,-212 528,-191.28677 528,-46.125 V 70.125 C 528,215.28618 507.2348,236 361.9375,236 H 214.0625 C 68.7652,236 48,215.28618 48,70.125 V -46.125 C 48,-191.28677 68.7652,-212 214.0625,-212 Z"
         style="display:inline;opacity:1;fill:#8c59d9;fill-opacity:1;stroke:none;stroke-width:2;stroke-linecap:round;stroke-linejoin:round;stroke-miterlimit:4;stroke-dasharray:none;stroke-dashoffset:0;stroke-opacity:1;enable-background:new" />
    </clipPath>
    <filter
       inkscape:collect="always"
       style="color-interpolation-filters:sRGB"
       id="filter4569-2"
       x="-0.0116"
       width="1.0232"
       y="-0.012428571"
       height="1.024857">
      <feGaussianBlur
         inkscape:collect="always"
         stdDeviation="1.16"
         id="feGaussianBlur4571-9" />
    </filter>
    <filter
       inkscape:collect="always"
       style="color-interpolation-filters:sRGB"
       id="filter913"
       x="-0.0232"
       width="1.0464"
       y="-0.024857143"
       height="1.0497143">
      <feGaussianBlur
         inkscape:collect="always"
         stdDeviation="2.32"
         id="feGaussianBlur915" />
    </filter>
    <linearGradient
       inkscape:collect="always"
       xlink:href="#linearGradient1013"
       id="linearGradient906"
       gradientUnits="userSpaceOnUse"
       x1="296"
       y1="-212"
       x2="296"
       y2="236" />
    <filter
       inkscape:collect="always"
       style="color-interpolation-filters:sRGB"
       id="filter1626"
       x="-0.11158822"
       width="1.2231764"
       y="-0.11158822"
       height="1.2231764">
      <feGaussianBlur
         inkscape:collect="always"
         stdDeviation="0.60894042"
         id="feGaussianBlur1628" />
    </filter>
    <filter
       inkscape:collect="always"
       style="color-interpolation-filters:sRGB"
       id="filter1630"
       x="-0.11158822"
       width="1.2231764"
       y="-0.11158822"
       height="1.2231764">
      <feGaussianBlur
         inkscape:collect="always"
         stdDeviation="0.60894042"
         id="feGaussianBlur1632" />
    </filter>
    <filter
       inkscape:collect="always"
       style="color-interpolation-filters:sRGB"
       id="filter1634"
       x="-0.11158822"
       width="1.2231764"
       y="-0.11158822"
       height="1.2231764">
      <feGaussianBlur
         inkscape:collect="always"
         stdDeviation="0.60894042"
         id="feGaussianBlur1636" />
    </filter>
    <filter
       inkscape:collect="always"
       style="color-interpolation-filters:sRGB"
       id="filter1638"
       x="-0.11158822"
       width="1.2231764"
       y="-0.11158822"
       height="1.2231764">
      <feGaussianBlur
         inkscape:collect="always"
         stdDeviation="0.60894042"
         id="feGaussianBlur1640" />
    </filter>
    <filter
       inkscape:collect="always"
       style="color-interpolation-filters:sRGB"
       id="filter1642"
       x="-0.16840296"
       width="1.3368059"
       y="-0.16840296"
       height="1.3368059">
      <feGaussianBlur
         inkscape:collect="always"
         stdDeviation="0.60894042"
         id="feGaussianBlur1644" />
    </filter>
    <filter
       inkscape:collect="always"
       style="color-interpolation-filters:sRGB"
       id="filter1646"
       x="-0.16840296"
       width="1.3368059"
       y="-0.16840296"
       height="1.3368059">
      <feGaussianBlur
         inkscape:collect="always"
         stdDeviation="0.60894042"
         id="feGaussianBlur1648" />
    </filter>
    <filter
       inkscape:collect="always"
       style="color-interpolation-filters:sRGB"
       id="filter1650"
       x="-0.16840296"
       width="1.3368059"
       y="-0.16840296"
       height="1.3368059">
      <feGaussianBlur
         inkscape:collect="always"
         stdDeviation="0.60894042"
         id="feGaussianBlur1652" />
    </filter>
    <filter
       inkscape:collect="always"
       style="color-interpolation-filters:sRGB"
       id="filter1654"
       x="-0.16840296"
       width="1.3368059"
       y="-0.16840296"
       height="1.3368059">
      <feGaussianBlur
         inkscape:collect="always"
         stdDeviation="0.60894042"
         id="feGaussianBlur1656" />
    </filter>
    <filter
       inkscape:collect="always"
       style="color-interpolation-filters:sRGB"
       id="filter1664"
       x="-0.02400248"
       width="1.048005"
       y="-0.02399752"
       height="1.047995">
      <feGaussianBlur
         inkscape:collect="always"
         stdDeviation="0.60860466"
         id="feGaussianBlur1666" />
    </filter>
  </defs>
  <sodipodi:namedview
     id="base"
     pagecolor="#ffffff"
     bordercolor="#666666"
     borderopacity="1.0"
     inkscape:pageopacity="0.0"
     inkscape:pageshadow="2"
     inkscape:zoom="3.4628043"
     inkscape:cx="86.605817"
     inkscape:cy="127.84507"
     inkscape:document-units="px"
     inkscape:current-layer="g1543"
     showgrid="false"
     units="px"
     inkscape:window-width="1920"
     inkscape:window-height="1013"
     inkscape:window-x="0"
     inkscape:window-y="34"
     inkscape:window-maximized="1">
    <inkscape:grid
       type="xygrid"
       id="grid2168" />
  </sodipodi:namedview>
  <metadata
     id="metadata1485">
    <rdf:RDF>
      <cc:Work
         rdf:about="">
        <dc:format>image/svg+xml</dc:format>
        <dc:type
           rdf:resource="http://purl.org/dc/dcmitype/StillImage" />
        <dc:title />
      </cc:Work>
    </rdf:RDF>
  </metadata>
  <g
     inkscape:label="Livello 1"
     inkscape:groupmode="layer"
     id="layer1"
     transform="translate(0,-229.26666)">
    <path
       style="display:inline;opacity:0.2;fill:#000000;fill-opacity:1;stroke:none;stroke-width:2;stroke-linecap:round;stroke-linejoin:round;stroke-miterlimit:4;stroke-dasharray:none;stroke-dashoffset:0;stroke-opacity:1;filter:url(#filter913);enable-background:new"
       d="m 188.96876,45.999995 c 72.64865,0 83.03125,10.356615 83.03125,82.937505 v 58.125 c 0,72.58059 -10.3826,82.9375 -83.03125,82.9375 h -73.9375 C 42.382606,270 32.000006,259.64309 32.000006,187.0625 v -58.125 c 0,-72.58089 10.3826,-82.937505 83.031254,-82.937505 z"
       id="path899"
       inkscape:connector-curvature="0"
       sodipodi:nodetypes="sssssssss"
       transform="matrix(0.26970778,0,0,0.26970778,-7.1289177,220.56049)" />
    <path
       sodipodi:nodetypes="sssssssss"
       inkscape:connector-curvature="0"
       id="path4567-1"
       d="m 188.96876,43.999995 c 72.64865,0 83.03125,10.356615 83.03125,82.937505 v 58.125 c 0,72.58059 -10.3826,82.9375 -83.03125,82.9375 h -73.9375 C 42.382606,268 32.000006,257.64309 32.000006,185.0625 v -58.125 c 0,-72.58089 10.3826,-82.937505 83.031254,-82.937505 z"
       style="display:inline;opacity:0.1;fill:#000000;fill-opacity:1;stroke:none;stroke-width:2;stroke-linecap:round;stroke-linejoin:round;stroke-miterlimit:4;stroke-dasharray:none;stroke-dashoffset:0;stroke-opacity:1;filter:url(#filter4569-2);enable-background:new"
       transform="matrix(0.26970778,0,0,0.26970778,-7.1289177,220.56049)" />
    <path
       style="display:inline;opacity:1;fill:#4d4d4d;fill-opacity:1;stroke:none;stroke-width:0.5394156;stroke-linecap:round;stroke-linejoin:round;stroke-miterlimit:4;stroke-dasharray:none;stroke-dashoffset:0;stroke-opacity:1;enable-background:new"
       d="m 23.895905,232.42763 c -9.797337,0 -15.3941297,0.69699 -18.5445167,3.84334 -3.150381,3.14634 -3.849657,8.73736 -3.849657,18.52555 v 15.67677 c 0,9.78815 0.699276,15.3792 3.849657,18.52555 3.150387,3.14636 8.7471787,3.84333 18.5445167,3.84333 h 19.94152 c 9.797339,0 15.394134,-0.69697 18.544517,-3.84333 3.150384,-3.14635 3.849659,-8.7374 3.849659,-18.52555 v -15.67677 c 0,-9.78819 -0.699275,-15.37921 -3.849659,-18.52555 -3.150383,-3.14635 -8.74718,-3.84334 -18.544517,-3.84334 z"
       id="rect877-2"
       inkscape:connector-curvature="0" />
    <path
       style="display:inline;opacity:0.2;fill:#131313;fill-opacity:1;stroke:none;stroke-width:0.5394156;stroke-linecap:round;stroke-linejoin:round;stroke-miterlimit:4;stroke-dasharray:none;stroke-dashoffset:0;stroke-opacity:1;enable-background:new"
       d="m 1.5017313,269.93387 v 0.53942 c 0,9.78815 0.699276,15.3792 3.849657,18.52555 3.150387,3.14636 8.7471787,3.84333 18.5445167,3.84333 h 19.94152 c 9.797339,0 15.394134,-0.69697 18.544517,-3.84333 3.150384,-3.14635 3.849659,-8.7374 3.849659,-18.52555 v -0.53942 c 0,9.78815 -0.699275,15.3792 -3.849659,18.52555 -3.150383,3.14636 -8.747178,3.84334 -18.544517,3.84334 h -19.94152 c -9.797338,0 -15.3941297,-0.69698 -18.5445167,-3.84334 -3.150381,-3.14635 -3.849657,-8.7374 -3.849657,-18.52555 z"
       id="path917"
       inkscape:connector-curvature="0" />
    <path
       sodipodi:nodetypes="sssssssss"
       inkscape:connector-curvature="0"
       id="path1068-7"
       d="M 361.9375,-212 C 507.2348,-212 528,-191.28677 528,-46.125 V 70.125 C 528,215.28618 507.2348,236 361.9375,236 H 214.0625 C 68.7652,236 48,215.28618 48,70.125 V -46.125 C 48,-191.28677 68.7652,-212 214.0625,-212 Z"
       style="display:inline;opacity:0.4;fill:none;fill-opacity:1;stroke:url(#linearGradient906);stroke-width:8;stroke-linecap:round;stroke-linejoin:round;stroke-miterlimit:4;stroke-dasharray:none;stroke-dashoffset:0;stroke-opacity:1;enable-background:new"
       clip-path="url(#clipPath1082-3-5)"
       transform="matrix(0.13485389,0,0,0.13485389,-4.9712557,261.01666)" />
    <g
       id="g1543"
       transform="matrix(0.91264544,0,0,0.91264544,4.3712681,23.368568)">
      <path
         style="fill:#000000;fill-opacity:1;stroke-width:0.13584997;filter:url(#filter1664);opacity:0.3"
         d="m 6.7762238,292.41175 c -1.182188,-0.33208 -1.969147,-0.80678 -2.927824,-1.76611 -1.348836,-1.34975 -1.962775,-2.79007 -1.962775,-4.60474 0,-2.26662 1.449746,-4.63746 3.47661,-5.68548 l 0.869585,-0.44963 5.02e-4,-17.73816 5.03e-4,-17.73817 -0.713212,-0.31941 c -0.948929,-0.42497 -2.515017,-1.99731 -2.977521,-2.98942 -1.75924403,-3.77373 0.282073,-8.1171 4.307714,-9.16564 2.806806,-0.73108 5.9486672,0.67798 7.2881742,3.2686 l 0.44963,0.86958 h 17.728422 17.728419 l 0.44963,-0.86958 c 0.80857,-1.56378 2.401242,-2.80662 4.19553,-3.27397 4.628174,-1.20549 9.056627,3.23763 7.848801,7.87479 -0.465148,1.78582 -1.926018,3.60764 -3.45554,4.30932 l -0.683647,0.31363 5.3e-4,17.72922 5.29e-4,17.72921 0.869585,0.44963 c 0.508193,0.26277 1.17892,0.77394 1.61391,1.22998 2.561966,2.68595 2.454051,6.71316 -0.247618,9.24043 -2.048573,1.91634 -4.718243,2.31528 -7.331257,1.09553 -0.903333,-0.42167 -2.50711,-2.03149 -2.930981,-2.94201 L 50.044507,288.2717 H 32.3161 14.58768 l -0.329422,0.70765 c -0.413029,0.88724 -2.022287,2.51821 -2.897821,2.93691 -1.4151642,0.67676 -3.2375582,0.87374 -4.5841312,0.49549 z m 43.6785382,-9.31928 0.39235,-0.82089 -2.710783,-2.70488 -2.710786,-2.70488 -0.815099,0.27991 c -1.003374,0.34455 -2.276237,0.29263 -3.236211,-0.13202 -0.357879,-0.1583 -0.980832,-0.62598 -1.384345,-1.03928 l -0.733656,-0.75146 h -6.940211 -6.940214 l -0.733655,0.75146 c -0.403514,0.4133 -1.026467,0.88098 -1.384343,1.03928 -0.959977,0.42465 -2.23284,0.47657 -3.236214,0.13202 l -0.815099,-0.27991 -2.710785,2.70488 -2.710784,2.70488 0.392351,0.82089 0.392352,0.8209 h 17.746391 17.746387 z m -33.103094,-8.62068 c -0.572422,-1.66692 -0.138148,-3.34146 1.202119,-4.63533 l 0.720635,-0.69569 v -6.9634 -6.9634 l -0.720635,-0.69569 c -1.340264,-1.29387 -1.774538,-2.9684 -1.202122,-4.63533 l 0.279902,-0.8151 -2.699502,-2.70541 -2.6995,-2.70541 -0.824485,0.39596 -0.824486,0.39596 -0.0014,17.72842 -0.0014,17.72842 0.78075,0.41753 0.780752,0.41753 2.744637,-2.72698 2.744638,-2.72698 -0.279906,-0.8151 z m 36.699249,-12.29908 0.0011,-17.73307 -0.825521,-0.39206 -0.825522,-0.39205 -2.70025,2.70616 -2.700253,2.70616 0.279903,0.8151 c 0.572416,1.66693 0.138142,3.34146 -1.202124,4.63533 l -0.720635,0.69569 v 6.9634 6.9634 l 0.720635,0.69569 c 1.340078,1.29369 1.774389,2.96798 1.202407,4.63533 l -0.279622,0.8151 2.720525,2.72836 2.720523,2.72836 0.80387,-0.41891 0.803868,-0.41891 0.0011,-17.73308 z m -14.358601,8.30153 c 0.129154,-0.21864 0.478562,-0.59057 0.776462,-0.82651 l 0.541639,-0.42899 v -6.99383 -6.99383 l -0.887058,-0.87405 -0.887058,-0.87406 h -6.92028 -6.920283 l -0.887058,0.87406 -0.887058,0.87405 v 6.99383 6.99383 l 0.541639,0.42899 c 0.2979,0.23594 0.647308,0.60787 0.776465,0.82651 l 0.234825,0.39753 h 7.14147 7.141467 z m 0.05597,-21.8053 c 0.606933,-0.9372 2.15974,-1.70677 3.443869,-1.70677 0.372843,0 1.026925,0.12268 1.453518,0.27261 l 0.775621,0.27261 2.738551,-2.73611 2.738551,-2.7361 -0.393017,-0.61973 c -0.216157,-0.34084 -0.393015,-0.69945 -0.393015,-0.7969 0,-0.14477 -3.255259,-0.17718 -17.796346,-0.17718 -14.541091,0 -17.796348,0.0324 -17.796348,0.17718 0,0.0975 -0.176858,0.45606 -0.393017,0.7969 l -0.393017,0.61973 2.738553,2.7361 2.738551,2.73611 0.77562,-0.27261 c 0.426593,-0.14993 1.080675,-0.27261 1.453518,-0.27261 1.284129,0 2.836937,0.76957 3.44387,1.70677 l 0.300146,0.46347 h 7.132124 7.132122 z"
         id="path1658"
         inkscape:connector-curvature="0" />
      <path
         inkscape:connector-curvature="0"
         id="path1477"
         d="m 6.7762238,292.41175 c -1.182188,-0.33208 -1.969147,-0.80678 -2.927824,-1.76611 -1.348836,-1.34975 -1.962775,-2.79007 -1.962775,-4.60474 0,-2.26662 1.449746,-4.63746 3.47661,-5.68548 l 0.869585,-0.44963 5.02e-4,-17.73816 5.03e-4,-17.73817 -0.713212,-0.31941 c -0.948929,-0.42497 -2.515017,-1.99731 -2.977521,-2.98942 -1.75924403,-3.77373 0.282073,-8.1171 4.307714,-9.16564 2.806806,-0.73108 5.9486672,0.67798 7.2881742,3.2686 l 0.44963,0.86958 h 17.728422 17.728419 l 0.44963,-0.86958 c 0.80857,-1.56378 2.401242,-2.80662 4.19553,-3.27397 4.628174,-1.20549 9.056627,3.23763 7.848801,7.87479 -0.465148,1.78582 -1.926018,3.60764 -3.45554,4.30932 l -0.683647,0.31363 5.3e-4,17.72922 5.29e-4,17.72921 0.869585,0.44963 c 0.508193,0.26277 1.17892,0.77394 1.61391,1.22998 2.561966,2.68595 2.454051,6.71316 -0.247618,9.24043 -2.048573,1.91634 -4.718243,2.31528 -7.331257,1.09553 -0.903333,-0.42167 -2.50711,-2.03149 -2.930981,-2.94201 L 50.044507,288.2717 H 32.3161 14.58768 l -0.329422,0.70765 c -0.413029,0.88724 -2.022287,2.51821 -2.897821,2.93691 -1.4151642,0.67676 -3.2375582,0.87374 -4.5841312,0.49549 z m 43.6785382,-9.31928 0.39235,-0.82089 -2.710783,-2.70488 -2.710786,-2.70488 -0.815099,0.27991 c -1.003374,0.34455 -2.276237,0.29263 -3.236211,-0.13202 -0.357879,-0.1583 -0.980832,-0.62598 -1.384345,-1.03928 l -0.733656,-0.75146 h -6.940211 -6.940214 l -0.733655,0.75146 c -0.403514,0.4133 -1.026467,0.88098 -1.384343,1.03928 -0.959977,0.42465 -2.23284,0.47657 -3.236214,0.13202 l -0.815099,-0.27991 -2.710785,2.70488 -2.710784,2.70488 0.392351,0.82089 0.392352,0.8209 h 17.746391 17.746387 z m -33.103094,-8.62068 c -0.572422,-1.66692 -0.138148,-3.34146 1.202119,-4.63533 l 0.720635,-0.69569 v -6.9634 -6.9634 l -0.720635,-0.69569 c -1.340264,-1.29387 -1.774538,-2.9684 -1.202122,-4.63533 l 0.279902,-0.8151 -2.699502,-2.70541 -2.6995,-2.70541 -0.824485,0.39596 -0.824486,0.39596 -0.0014,17.72842 -0.0014,17.72842 0.78075,0.41753 0.780752,0.41753 2.744637,-2.72698 2.744638,-2.72698 -0.279906,-0.8151 z m 36.699249,-12.29908 0.0011,-17.73307 -0.825521,-0.39206 -0.825522,-0.39205 -2.70025,2.70616 -2.700253,2.70616 0.279903,0.8151 c 0.572416,1.66693 0.138142,3.34146 -1.202124,4.63533 l -0.720635,0.69569 v 6.9634 6.9634 l 0.720635,0.69569 c 1.340078,1.29369 1.774389,2.96798 1.202407,4.63533 l -0.279622,0.8151 2.720525,2.72836 2.720523,2.72836 0.80387,-0.41891 0.803868,-0.41891 0.0011,-17.73308 z m -14.358601,8.30153 c 0.129154,-0.21864 0.478562,-0.59057 0.776462,-0.82651 l 0.541639,-0.42899 v -6.99383 -6.99383 l -0.887058,-0.87405 -0.887058,-0.87406 h -6.92028 -6.920283 l -0.887058,0.87406 -0.887058,0.87405 v 6.99383 6.99383 l 0.541639,0.42899 c 0.2979,0.23594 0.647308,0.60787 0.776465,0.82651 l 0.234825,0.39753 h 7.14147 7.141467 z m 0.05597,-21.8053 c 0.606933,-0.9372 2.15974,-1.70677 3.443869,-1.70677 0.372843,0 1.026925,0.12268 1.453518,0.27261 l 0.775621,0.27261 2.738551,-2.73611 2.738551,-2.7361 -0.393017,-0.61973 c -0.216157,-0.34084 -0.393015,-0.69945 -0.393015,-0.7969 0,-0.14477 -3.255259,-0.17718 -17.796346,-0.17718 -14.541091,0 -17.796348,0.0324 -17.796348,0.17718 0,0.0975 -0.176858,0.45606 -0.393017,0.7969 l -0.393017,0.61973 2.738553,2.7361 2.738551,2.73611 0.77562,-0.27261 c 0.426593,-0.14993 1.080675,-0.27261 1.453518,-0.27261 1.284129,0 2.836937,0.76957 3.44387,1.70677 l 0.300146,0.46347 h 7.132124 7.132122 z"
         style="fill:#eaeaea;fill-opacity:1;stroke-width:0.13584997" />
      <circle
         style="opacity:0.4;fill:#000000;fill-opacity:1;stroke:none;stroke-width:0.2619375;stroke-opacity:1;filter:url(#filter1626)"
         id="circle1578"
         cx="8.4266548"
         cy="238.26265"
         r="6.5484376" />
      <circle
         r="6.5484376"
         cy="238.26265"
         cx="8.4266548"
         id="path1518"
         style="opacity:1;fill:#d4d4d4;fill-opacity:1;stroke:none;stroke-width:0.2619375;stroke-opacity:1" />
      <circle
         r="6.5484376"
         cy="238.26265"
         cx="56.210487"
         id="circle1580"
         style="opacity:0.4;fill:#000000;fill-opacity:1;stroke:none;stroke-width:0.2619375;stroke-opacity:1;filter:url(#filter1630)" />
      <circle
         style="opacity:1;fill:#d4d4d4;fill-opacity:1;stroke:none;stroke-width:0.2619375;stroke-opacity:1"
         id="circle1520"
         cx="56.210487"
         cy="238.26265"
         r="6.5484376" />
      <circle
         r="6.5484376"
         cy="286.07315"
         cx="8.4266548"
         id="circle1582"
         style="opacity:0.4;fill:#000000;fill-opacity:1;stroke:none;stroke-width:0.2619375;stroke-opacity:1;filter:url(#filter1634)" />
      <circle
         style="opacity:1;fill:#d4d4d4;fill-opacity:1;stroke:none;stroke-width:0.2619375;stroke-opacity:1"
         id="circle1522"
         cx="8.4266548"
         cy="286.07315"
         r="6.5484376" />
      <circle
         style="opacity:0.4;fill:#000000;fill-opacity:1;stroke:none;stroke-width:0.2619375;stroke-opacity:1;filter:url(#filter1638)"
         id="circle1584"
         cx="56.210487"
         cy="286.07315"
         r="6.5484376" />
      <circle
         r="6.5484376"
         cy="286.07315"
         cx="56.210487"
         id="circle1524"
         style="opacity:1;fill:#d4d4d4;fill-opacity:1;stroke:none;stroke-width:0.2619375;stroke-opacity:1" />
      <circle
         r="4.3391666"
         cy="273.03329"
         cx="43.166"
         id="circle1586"
         style="opacity:0.4;fill:#000000;fill-opacity:1;stroke:none;stroke-width:0.17356667;stroke-opacity:1;filter:url(#filter1642)" />
      <circle
         style="opacity:1;fill:#d4d4d4;fill-opacity:1;stroke:none;stroke-width:0.17356667;stroke-opacity:1"
         id="circle1526"
         cx="43.166"
         cy="273.03329"
         r="4.3391666" />
      <circle
         style="opacity:0.4;fill:#000000;fill-opacity:1;stroke:none;stroke-width:0.17356667;stroke-opacity:1;filter:url(#filter1646)"
         id="circle1588"
         cx="21.470146"
         cy="273.03329"
         r="4.3391666" />
      <circle
         r="4.3391666"
         cy="273.03329"
         cx="21.470146"
         id="circle1528"
         style="opacity:1;fill:#d4d4d4;fill-opacity:1;stroke:none;stroke-width:0.17356667;stroke-opacity:1" />
      <circle
         style="opacity:0.4;fill:#000000;fill-opacity:1;stroke:none;stroke-width:0.17356667;stroke-opacity:1;filter:url(#filter1650)"
         id="circle1590"
         cx="43.166"
         cy="251.33714"
         r="4.3391666" />
      <circle
         r="4.3391666"
         cy="251.33714"
         cx="43.166"
         id="circle1530"
         style="opacity:1;fill:#d4d4d4;fill-opacity:1;stroke:none;stroke-width:0.17356667;stroke-opacity:1" />
      <circle
         r="4.3391666"
         cy="251.33714"
         cx="21.470146"
         id="circle1592"
         style="opacity:0.4;fill:#000000;fill-opacity:1;stroke:none;stroke-width:0.17356667;stroke-opacity:1;filter:url(#filter1654)" />
      <circle
         style="opacity:1;fill:#d4d4d4;fill-opacity:1;stroke:none;stroke-width:0.17356667;stroke-opacity:1"
         id="circle1532"
         cx="21.470146"
         cy="251.33714"
         r="4.3391666" />
    </g>
    <path
       style="display:inline;opacity:0.05;fill:#ffffff;fill-opacity:1;stroke:none;stroke-width:0.52139008;stroke-linecap:round;stroke-linejoin:round;stroke-miterlimit:4;stroke-dasharray:none;stroke-dashoffset:0;stroke-opacity:1;enable-background:new"
       d="m 1.5017313,262.60416 v 9.33914 c 0,9.14491 0.699276,14.36853 3.849657,17.30811 3.150387,2.93959 8.7471787,3.59076 18.5445167,3.59076 h 19.94152 c 9.797339,0 15.394134,-0.65117 18.544517,-3.59076 3.150384,-2.93958 3.849659,-8.1632 3.849659,-17.30811 v -9.33914 z"
       id="path897"
       inkscape:connector-curvature="0" />
  </g>
</svg>
