<?xml version="1.0" encoding="UTF-8" standalone="no"?>
<!-- Created with Inkscape (http://www.inkscape.org/) -->

<svg
   xmlns:dc="http://purl.org/dc/elements/1.1/"
   xmlns:cc="http://creativecommons.org/ns#"
   xmlns:rdf="http://www.w3.org/1999/02/22-rdf-syntax-ns#"
   xmlns:svg="http://www.w3.org/2000/svg"
   xmlns="http://www.w3.org/2000/svg"
   xmlns:xlink="http://www.w3.org/1999/xlink"
   xmlns:sodipodi="http://sodipodi.sourceforge.net/DTD/sodipodi-0.dtd"
   xmlns:inkscape="http://www.inkscape.org/namespaces/inkscape"
   width="256"
   height="256"
   viewBox="0 0 67.733332 67.733335"
   version="1.1"
   id="svg1488"
   inkscape:version="0.92.2 (unknown)"
   sodipodi:docname="34.svg">
  <defs
     id="defs1482">
    <clipPath
       clipPathUnits="userSpaceOnUse"
       id="clipPath1025">
      <path
         id="path1027"
         d="M 111.94141,84 C 99.359506,84.145 90.1531,83.713998 82.625,87.867188 c -3.7641,2.0768 -6.751838,5.574737 -8.398438,9.960937 C 72.580062,102.21433 72,107.4241 72,114 v 42 h 160 v -26 c 0,-6.5759 -0.57996,-11.78566 -2.22656,-16.17188 -0.205,-0.5455 -0.47919,-1.03993 -0.74219,-1.54296 -0.1,-0.1848 -0.17844,-0.38051 -0.27344,-0.56641 -1.727,-3.38752 -4.25471,-6.14522 -7.38281,-7.87109 C 213.8463,99.694146 204.64049,100.1454 192.05859,100 H 192 151.66797 L 135.45312,84 h -23.49218 z"
         style="color:#000000;font-style:normal;font-variant:normal;font-weight:normal;font-stretch:normal;font-size:medium;line-height:normal;font-family:sans-serif;font-variant-ligatures:none;font-variant-position:normal;font-variant-caps:normal;font-variant-numeric:normal;font-variant-alternates:normal;font-feature-settings:normal;text-indent:0;text-align:start;text-decoration:none;text-decoration-line:none;text-decoration-style:solid;text-decoration-color:#000000;letter-spacing:normal;word-spacing:normal;text-transform:none;writing-mode:lr-tb;direction:ltr;baseline-shift:baseline;text-anchor:start;white-space:normal;shape-padding:0;clip-rule:nonzero;display:inline;overflow:visible;visibility:visible;opacity:1;isolation:auto;mix-blend-mode:normal;color-interpolation:sRGB;color-interpolation-filters:linearRGB;solid-color:#000000;solid-opacity:1;fill:#e3dfd5;fill-opacity:1;fill-rule:nonzero;stroke:none;stroke-width:4.00000048;stroke-linecap:butt;stroke-linejoin:miter;stroke-miterlimit:4;stroke-dasharray:none;stroke-dashoffset:0;stroke-opacity:1;marker:none;color-rendering:auto;image-rendering:auto;shape-rendering:auto;text-rendering:auto;enable-background:accumulate"
         inkscape:connector-curvature="0" />
    </clipPath>
    <clipPath
       clipPathUnits="userSpaceOnUse"
       id="clipPath1082-3">
      <path
         sodipodi:nodetypes="sssssssss"
         inkscape:connector-curvature="0"
         id="path1084-6"
         d="M 361.9375,-212 C 507.2348,-212 528,-191.28677 528,-46.125 V 70.125 C 528,215.28618 507.2348,236 361.9375,236 H 214.0625 C 68.7652,236 48,215.28618 48,70.125 V -46.125 C 48,-191.28677 68.7652,-212 214.0625,-212 Z"
         style="display:inline;opacity:1;fill:#8c59d9;fill-opacity:1;stroke:none;stroke-width:2;stroke-linecap:round;stroke-linejoin:round;stroke-miterlimit:4;stroke-dasharray:none;stroke-dashoffset:0;stroke-opacity:1;enable-background:new" />
    </clipPath>
    <clipPath
       clipPathUnits="userSpaceOnUse"
       id="clipPath1082-3-5">
      <path
         sodipodi:nodetypes="sssssssss"
         inkscape:connector-curvature="0"
         id="path1084-6-6"
         d="M 361.9375,-212 C 507.2348,-212 528,-191.28677 528,-46.125 V 70.125 C 528,215.28618 507.2348,236 361.9375,236 H 214.0625 C 68.7652,236 48,215.28618 48,70.125 V -46.125 C 48,-191.28677 68.7652,-212 214.0625,-212 Z"
         style="display:inline;opacity:1;fill:#8c59d9;fill-opacity:1;stroke:none;stroke-width:2;stroke-linecap:round;stroke-linejoin:round;stroke-miterlimit:4;stroke-dasharray:none;stroke-dashoffset:0;stroke-opacity:1;enable-background:new" />
    </clipPath>
    <clipPath
       clipPathUnits="userSpaceOnUse"
       id="clipPath1082-3-9">
      <path
         sodipodi:nodetypes="sssssssss"
         inkscape:connector-curvature="0"
         id="path1084-6-3"
         d="M 361.9375,-212 C 507.2348,-212 528,-191.28677 528,-46.125 V 70.125 C 528,215.28618 507.2348,236 361.9375,236 H 214.0625 C 68.7652,236 48,215.28618 48,70.125 V -46.125 C 48,-191.28677 68.7652,-212 214.0625,-212 Z"
         style="display:inline;opacity:1;fill:#8c59d9;fill-opacity:1;stroke:none;stroke-width:2;stroke-linecap:round;stroke-linejoin:round;stroke-miterlimit:4;stroke-dasharray:none;stroke-dashoffset:0;stroke-opacity:1;enable-background:new" />
    </clipPath>
    <clipPath
       clipPathUnits="userSpaceOnUse"
       id="clipPath1082-3-3">
      <path
         sodipodi:nodetypes="sssssssss"
         inkscape:connector-curvature="0"
         id="path1084-6-67"
         d="M 361.9375,-212 C 507.2348,-212 528,-191.28677 528,-46.125 V 70.125 C 528,215.28618 507.2348,236 361.9375,236 H 214.0625 C 68.7652,236 48,215.28618 48,70.125 V -46.125 C 48,-191.28677 68.7652,-212 214.0625,-212 Z"
         style="display:inline;opacity:1;fill:#8c59d9;fill-opacity:1;stroke:none;stroke-width:2;stroke-linecap:round;stroke-linejoin:round;stroke-miterlimit:4;stroke-dasharray:none;stroke-dashoffset:0;stroke-opacity:1;enable-background:new" />
    </clipPath>
    <clipPath
       clipPathUnits="userSpaceOnUse"
       id="clipPath1082-3-53">
      <path
         sodipodi:nodetypes="sssssssss"
         inkscape:connector-curvature="0"
         id="path1084-6-5"
         d="M 361.9375,-212 C 507.2348,-212 528,-191.28677 528,-46.125 V 70.125 C 528,215.28618 507.2348,236 361.9375,236 H 214.0625 C 68.7652,236 48,215.28618 48,70.125 V -46.125 C 48,-191.28677 68.7652,-212 214.0625,-212 Z"
         style="display:inline;opacity:1;fill:#8c59d9;fill-opacity:1;stroke:none;stroke-width:2;stroke-linecap:round;stroke-linejoin:round;stroke-miterlimit:4;stroke-dasharray:none;stroke-dashoffset:0;stroke-opacity:1;enable-background:new" />
    </clipPath>
    <clipPath
       clipPathUnits="userSpaceOnUse"
       id="clipPath1082-3-6">
      <path
         sodipodi:nodetypes="sssssssss"
         inkscape:connector-curvature="0"
         id="path1084-6-2"
         d="M 361.9375,-212 C 507.2348,-212 528,-191.28677 528,-46.125 V 70.125 C 528,215.28618 507.2348,236 361.9375,236 H 214.0625 C 68.7652,236 48,215.28618 48,70.125 V -46.125 C 48,-191.28677 68.7652,-212 214.0625,-212 Z"
         style="display:inline;opacity:1;fill:#8c59d9;fill-opacity:1;stroke:none;stroke-width:2;stroke-linecap:round;stroke-linejoin:round;stroke-miterlimit:4;stroke-dasharray:none;stroke-dashoffset:0;stroke-opacity:1;enable-background:new" />
    </clipPath>
    <clipPath
       clipPathUnits="userSpaceOnUse"
       id="clipPath1082-3-91">
      <path
         sodipodi:nodetypes="sssssssss"
         inkscape:connector-curvature="0"
         id="path1084-6-27"
         d="M 361.9375,-212 C 507.2348,-212 528,-191.28677 528,-46.125 V 70.125 C 528,215.28618 507.2348,236 361.9375,236 H 214.0625 C 68.7652,236 48,215.28618 48,70.125 V -46.125 C 48,-191.28677 68.7652,-212 214.0625,-212 Z"
         style="display:inline;opacity:1;fill:#8c59d9;fill-opacity:1;stroke:none;stroke-width:2;stroke-linecap:round;stroke-linejoin:round;stroke-miterlimit:4;stroke-dasharray:none;stroke-dashoffset:0;stroke-opacity:1;enable-background:new" />
    </clipPath>
    <clipPath
       clipPathUnits="userSpaceOnUse"
       id="clipPath1025-0">
      <path
         style="opacity:1;fill:#8c59d9;fill-opacity:1;stroke:none;stroke-width:2;stroke-linecap:round;stroke-linejoin:round;stroke-miterlimit:4;stroke-dasharray:none;stroke-dashoffset:0;stroke-opacity:1"
         d="M 329.9375,32 C 475.2348,32 496,52.71323 496,197.875 v 116.25 C 496,459.28618 475.2348,480 329.9375,480 H 182.0625 C 36.7652,480 16,459.28618 16,314.125 V 197.875 C 16,52.71323 36.7652,32 182.0625,32 Z"
         id="path1027-9"
         inkscape:connector-curvature="0"
         sodipodi:nodetypes="sssssssss" />
    </clipPath>
    <clipPath
       clipPathUnits="userSpaceOnUse"
       id="clipPath4277-8">
      <rect
         style="color:#000000;display:inline;overflow:visible;visibility:visible;opacity:0.81999972;fill:#88b637;fill-opacity:1;fill-rule:nonzero;stroke:none;stroke-width:2;stroke-linecap:butt;stroke-linejoin:miter;stroke-miterlimit:4;stroke-dasharray:none;stroke-dashoffset:0;stroke-opacity:1;marker:none;enable-background:accumulate"
         id="rect4279-6"
         width="512"
         height="512"
         x="5.5999999e-07"
         y="0"
         ry="1" />
    </clipPath>
    <linearGradient
       id="linearGradient3650-7-9">
      <stop
         style="stop-color:#5884f4;stop-opacity:1"
         offset="0"
         id="stop4366" />
      <stop
         id="stop4368"
         offset="1"
         style="stop-color:#80a3fa;stop-opacity:1" />
    </linearGradient>
    <clipPath
       clipPathUnits="userSpaceOnUse"
       id="clipPath1082-3-36">
      <path
         sodipodi:nodetypes="sssssssss"
         inkscape:connector-curvature="0"
         id="path1084-6-0"
         d="M 361.9375,-212 C 507.2348,-212 528,-191.28677 528,-46.125 V 70.125 C 528,215.28618 507.2348,236 361.9375,236 H 214.0625 C 68.7652,236 48,215.28618 48,70.125 V -46.125 C 48,-191.28677 68.7652,-212 214.0625,-212 Z"
         style="display:inline;opacity:1;fill:#8c59d9;fill-opacity:1;stroke:none;stroke-width:2;stroke-linecap:round;stroke-linejoin:round;stroke-miterlimit:4;stroke-dasharray:none;stroke-dashoffset:0;stroke-opacity:1;enable-background:new" />
    </clipPath>
    <clipPath
       clipPathUnits="userSpaceOnUse"
       id="clipPath983">
      <path
         id="path985"
         d="M 115.03125,44 C 42.3826,44 32,54.356615 32,126.9375 v 58.125 C 32,257.64309 42.3826,268 115.03125,268 H 152 V 44 Z"
         style="opacity:1;fill:#4d4d4d;fill-opacity:1;stroke:none;stroke-width:2;stroke-linecap:round;stroke-linejoin:round;stroke-miterlimit:4;stroke-dasharray:none;stroke-dashoffset:0;stroke-opacity:1"
         inkscape:connector-curvature="0" />
    </clipPath>
    <clipPath
       clipPathUnits="userSpaceOnUse"
       id="clipPath1082-3-62">
      <path
         sodipodi:nodetypes="sssssssss"
         inkscape:connector-curvature="0"
         id="path1084-6-61"
         d="M 361.9375,-212 C 507.2348,-212 528,-191.28677 528,-46.125 V 70.125 C 528,215.28618 507.2348,236 361.9375,236 H 214.0625 C 68.7652,236 48,215.28618 48,70.125 V -46.125 C 48,-191.28677 68.7652,-212 214.0625,-212 Z"
         style="display:inline;opacity:1;fill:#8c59d9;fill-opacity:1;stroke:none;stroke-width:2;stroke-linecap:round;stroke-linejoin:round;stroke-miterlimit:4;stroke-dasharray:none;stroke-dashoffset:0;stroke-opacity:1;enable-background:new" />
    </clipPath>
    <clipPath
       clipPathUnits="userSpaceOnUse"
       id="clipPath949">
      <path
         sodipodi:nodetypes="sssssssss"
         inkscape:connector-curvature="0"
         id="path951"
         d="M 329.9375,32 C 475.2348,32 496,52.71323 496,197.875 v 116.25 C 496,459.28618 475.2348,480 329.9375,480 H 182.0625 C 36.7652,480 16,459.28618 16,314.125 V 197.875 C 16,52.71323 36.7652,32 182.0625,32 Z"
         style="opacity:1;fill:#eab305;fill-opacity:1;stroke:none;stroke-width:4;stroke-linecap:round;stroke-linejoin:round;stroke-miterlimit:4;stroke-dasharray:none;stroke-dashoffset:0;stroke-opacity:1" />
    </clipPath>
    <clipPath
       clipPathUnits="userSpaceOnUse"
       id="clipPath954">
      <path
         sodipodi:nodetypes="sssssssss"
         inkscape:connector-curvature="0"
         id="path952"
         d="M 329.9375,32 C 475.2348,32 496,52.71323 496,197.875 v 116.25 C 496,459.28618 475.2348,480 329.9375,480 H 182.0625 C 36.7652,480 16,459.28618 16,314.125 V 197.875 C 16,52.71323 36.7652,32 182.0625,32 Z"
         style="opacity:1;fill:#eab305;fill-opacity:1;stroke:none;stroke-width:4;stroke-linecap:round;stroke-linejoin:round;stroke-miterlimit:4;stroke-dasharray:none;stroke-dashoffset:0;stroke-opacity:1" />
    </clipPath>
    <clipPath
       clipPathUnits="userSpaceOnUse"
       id="clipPath1082-3-8">
      <path
         sodipodi:nodetypes="sssssssss"
         inkscape:connector-curvature="0"
         id="path1084-6-7"
         d="M 361.9375,-212 C 507.2348,-212 528,-191.28677 528,-46.125 V 70.125 C 528,215.28618 507.2348,236 361.9375,236 H 214.0625 C 68.7652,236 48,215.28618 48,70.125 V -46.125 C 48,-191.28677 68.7652,-212 214.0625,-212 Z"
         style="display:inline;opacity:1;fill:#8c59d9;fill-opacity:1;stroke:none;stroke-width:2;stroke-linecap:round;stroke-linejoin:round;stroke-miterlimit:4;stroke-dasharray:none;stroke-dashoffset:0;stroke-opacity:1;enable-background:new" />
    </clipPath>
    <clipPath
       clipPathUnits="userSpaceOnUse"
       id="clipPath1082-3-92">
      <path
         sodipodi:nodetypes="sssssssss"
         inkscape:connector-curvature="0"
         id="path1084-6-02"
         d="M 361.9375,-212 C 507.2348,-212 528,-191.28677 528,-46.125 V 70.125 C 528,215.28618 507.2348,236 361.9375,236 H 214.0625 C 68.7652,236 48,215.28618 48,70.125 V -46.125 C 48,-191.28677 68.7652,-212 214.0625,-212 Z"
         style="display:inline;opacity:1;fill:#8c59d9;fill-opacity:1;stroke:none;stroke-width:2;stroke-linecap:round;stroke-linejoin:round;stroke-miterlimit:4;stroke-dasharray:none;stroke-dashoffset:0;stroke-opacity:1;enable-background:new" />
    </clipPath>
    <clipPath
       clipPathUnits="userSpaceOnUse"
       id="clipPath1082">
      <path
         sodipodi:nodetypes="sssssssss"
         inkscape:connector-curvature="0"
         id="path1084"
         d="M 361.9375,-212 C 507.2348,-212 528,-191.28677 528,-46.125 V 70.125 C 528,215.28618 507.2348,236 361.9375,236 H 214.0625 C 68.7652,236 48,215.28618 48,70.125 V -46.125 C 48,-191.28677 68.7652,-212 214.0625,-212 Z"
         style="display:inline;opacity:1;fill:#8c59d9;fill-opacity:1;stroke:none;stroke-width:2;stroke-linecap:round;stroke-linejoin:round;stroke-miterlimit:4;stroke-dasharray:none;stroke-dashoffset:0;stroke-opacity:1;enable-background:new" />
    </clipPath>
    <clipPath
       clipPathUnits="userSpaceOnUse"
       id="clipPath1082-3-361">
      <path
         sodipodi:nodetypes="sssssssss"
         inkscape:connector-curvature="0"
         id="path1084-6-29"
         d="M 361.9375,-212 C 507.2348,-212 528,-191.28677 528,-46.125 V 70.125 C 528,215.28618 507.2348,236 361.9375,236 H 214.0625 C 68.7652,236 48,215.28618 48,70.125 V -46.125 C 48,-191.28677 68.7652,-212 214.0625,-212 Z"
         style="display:inline;opacity:1;fill:#8c59d9;fill-opacity:1;stroke:none;stroke-width:2;stroke-linecap:round;stroke-linejoin:round;stroke-miterlimit:4;stroke-dasharray:none;stroke-dashoffset:0;stroke-opacity:1;enable-background:new" />
    </clipPath>
    <clipPath
       clipPathUnits="userSpaceOnUse"
       id="clipPath1079">
      <circle
         cx="213.84277"
         cy="146"
         r="55"
         style="color:#000000;display:inline;overflow:visible;visibility:visible;opacity:1;fill:url(#linearGradient1083);fill-opacity:1;fill-rule:nonzero;stroke:none;stroke-width:7.99999952;stroke-linecap:butt;stroke-linejoin:miter;stroke-miterlimit:4;stroke-dasharray:none;stroke-dashoffset:0;stroke-opacity:1;marker:none;enable-background:accumulate"
         id="circle1081"
         transform="scale(-1,1)" />
    </clipPath>
    <clipPath
       clipPathUnits="userSpaceOnUse"
       id="clipPath984">
      <circle
         cx="213.84277"
         cy="146"
         r="55"
         style="color:#000000;display:inline;overflow:visible;visibility:visible;opacity:1;fill:url(#linearGradient1083);fill-opacity:1;fill-rule:nonzero;stroke:none;stroke-width:7.99999952;stroke-linecap:butt;stroke-linejoin:miter;stroke-miterlimit:4;stroke-dasharray:none;stroke-dashoffset:0;stroke-opacity:1;marker:none;enable-background:accumulate"
         id="circle982"
         transform="scale(-1,1)" />
    </clipPath>
    <clipPath
       clipPathUnits="userSpaceOnUse"
       id="clipPath988">
      <circle
         cx="213.84277"
         cy="146"
         r="55"
         style="color:#000000;display:inline;overflow:visible;visibility:visible;opacity:1;fill:url(#linearGradient1083);fill-opacity:1;fill-rule:nonzero;stroke:none;stroke-width:7.99999952;stroke-linecap:butt;stroke-linejoin:miter;stroke-miterlimit:4;stroke-dasharray:none;stroke-dashoffset:0;stroke-opacity:1;marker:none;enable-background:accumulate"
         id="circle986"
         transform="scale(-1,1)" />
    </clipPath>
    <clipPath
       clipPathUnits="userSpaceOnUse"
       id="clipPath992">
      <circle
         cx="213.84277"
         cy="146"
         r="55"
         style="color:#000000;display:inline;overflow:visible;visibility:visible;opacity:1;fill:url(#linearGradient1083);fill-opacity:1;fill-rule:nonzero;stroke:none;stroke-width:7.99999952;stroke-linecap:butt;stroke-linejoin:miter;stroke-miterlimit:4;stroke-dasharray:none;stroke-dashoffset:0;stroke-opacity:1;marker:none;enable-background:accumulate"
         id="circle990"
         transform="scale(-1,1)" />
    </clipPath>
    <clipPath
       clipPathUnits="userSpaceOnUse"
       id="clipPath1082-3-31">
      <path
         sodipodi:nodetypes="sssssssss"
         inkscape:connector-curvature="0"
         id="path1084-6-9"
         d="M 361.9375,-212 C 507.2348,-212 528,-191.28677 528,-46.125 V 70.125 C 528,215.28618 507.2348,236 361.9375,236 H 214.0625 C 68.7652,236 48,215.28618 48,70.125 V -46.125 C 48,-191.28677 68.7652,-212 214.0625,-212 Z"
         style="display:inline;opacity:1;fill:#8c59d9;fill-opacity:1;stroke:none;stroke-width:2;stroke-linecap:round;stroke-linejoin:round;stroke-miterlimit:4;stroke-dasharray:none;stroke-dashoffset:0;stroke-opacity:1;enable-background:new" />
    </clipPath>
    <clipPath
       clipPathUnits="userSpaceOnUse"
       id="clipPath1205">
      <path
         id="path1207"
         d="M 115.03125,44 C 42.3826,44 32,54.356615 32,126.9375 v 58.125 c 0,13.772 0.379014,25.29352 1.482422,34.9375 H 270.51758 C 271.62099,210.35602 272,198.8345 272,185.0625 v -58.125 C 272,54.356615 261.6174,44 188.96875,44 Z"
         style="opacity:1;fill:#f1f0e9;fill-opacity:1;stroke:none;stroke-width:2;stroke-linecap:round;stroke-linejoin:round;stroke-miterlimit:4;stroke-dasharray:none;stroke-dashoffset:0;stroke-opacity:1"
         inkscape:connector-curvature="0" />
    </clipPath>
    <clipPath
       clipPathUnits="userSpaceOnUse"
       id="clipPath1082-3-4">
      <path
         sodipodi:nodetypes="sssssssss"
         inkscape:connector-curvature="0"
         id="path1084-6-78"
         d="M 361.9375,-212 C 507.2348,-212 528,-191.28677 528,-46.125 V 70.125 C 528,215.28618 507.2348,236 361.9375,236 H 214.0625 C 68.7652,236 48,215.28618 48,70.125 V -46.125 C 48,-191.28677 68.7652,-212 214.0625,-212 Z"
         style="display:inline;opacity:1;fill:#8c59d9;fill-opacity:1;stroke:none;stroke-width:2;stroke-linecap:round;stroke-linejoin:round;stroke-miterlimit:4;stroke-dasharray:none;stroke-dashoffset:0;stroke-opacity:1;enable-background:new" />
    </clipPath>
    <clipPath
       clipPathUnits="userSpaceOnUse"
       id="clipPath1082-3-45">
      <path
         sodipodi:nodetypes="sssssssss"
         inkscape:connector-curvature="0"
         id="path1084-6-03"
         d="M 361.9375,-212 C 507.2348,-212 528,-191.28677 528,-46.125 V 70.125 C 528,215.28618 507.2348,236 361.9375,236 H 214.0625 C 68.7652,236 48,215.28618 48,70.125 V -46.125 C 48,-191.28677 68.7652,-212 214.0625,-212 Z"
         style="display:inline;opacity:1;fill:#8c59d9;fill-opacity:1;stroke:none;stroke-width:2;stroke-linecap:round;stroke-linejoin:round;stroke-miterlimit:4;stroke-dasharray:none;stroke-dashoffset:0;stroke-opacity:1;enable-background:new" />
    </clipPath>
    <clipPath
       clipPathUnits="userSpaceOnUse"
       id="clipPath1082-3-61">
      <path
         sodipodi:nodetypes="sssssssss"
         inkscape:connector-curvature="0"
         id="path1084-6-06"
         d="M 361.9375,-212 C 507.2348,-212 528,-191.28677 528,-46.125 V 70.125 C 528,215.28618 507.2348,236 361.9375,236 H 214.0625 C 68.7652,236 48,215.28618 48,70.125 V -46.125 C 48,-191.28677 68.7652,-212 214.0625,-212 Z"
         style="display:inline;opacity:1;fill:#8c59d9;fill-opacity:1;stroke:none;stroke-width:2;stroke-linecap:round;stroke-linejoin:round;stroke-miterlimit:4;stroke-dasharray:none;stroke-dashoffset:0;stroke-opacity:1;enable-background:new" />
    </clipPath>
    <clipPath
       clipPathUnits="userSpaceOnUse"
       id="clipPath1064">
      <path
         style="opacity:1;fill:#a3dbf0;fill-opacity:1;stroke:none;stroke-width:2;stroke-linecap:round;stroke-linejoin:round;stroke-miterlimit:4;stroke-dasharray:none;stroke-dashoffset:0;stroke-opacity:1"
         d="M 115.03125,44 C 42.3826,44 32,54.356615 32,126.9375 v 58.125 c 0,10.16582 0.217657,19.07051 0.767578,26.9375 3.376331,48.30069 19.790377,56 82.263672,56 h 73.9375 c 62.4733,0 78.88734,-7.69931 82.26367,-56 C 271.78234,204.13301 272,195.22832 272,185.0625 v -58.125 C 272,54.356615 261.6174,44 188.96875,44 Z"
         id="path1066"
         inkscape:connector-curvature="0" />
    </clipPath>
    <clipPath
       clipPathUnits="userSpaceOnUse"
       id="clipPath1082-3-32">
      <path
         sodipodi:nodetypes="sssssssss"
         inkscape:connector-curvature="0"
         id="path1084-6-061"
         d="M 361.9375,-212 C 507.2348,-212 528,-191.28677 528,-46.125 V 70.125 C 528,215.28618 507.2348,236 361.9375,236 H 214.0625 C 68.7652,236 48,215.28618 48,70.125 V -46.125 C 48,-191.28677 68.7652,-212 214.0625,-212 Z"
         style="display:inline;opacity:1;fill:#8c59d9;fill-opacity:1;stroke:none;stroke-width:2;stroke-linecap:round;stroke-linejoin:round;stroke-miterlimit:4;stroke-dasharray:none;stroke-dashoffset:0;stroke-opacity:1;enable-background:new" />
    </clipPath>
    <clipPath
       clipPathUnits="userSpaceOnUse"
       id="clipPath947">
      <path
         sodipodi:nodetypes="sssssssss"
         inkscape:connector-curvature="0"
         id="path949"
         d="m 191.43333,45.066672 c 77.49189,0 88.56666,11.047056 88.56666,88.466668 v 62 C 279.99999,272.95263 268.92522,284 191.43333,284 H 112.56666 C 35.074773,284 23.999999,272.95263 23.999999,195.53334 v -62 c 0,-77.419612 11.074774,-88.466668 88.566661,-88.466668 z"
         style="opacity:1;fill:#a4c1f9;fill-opacity:1;stroke:none;stroke-width:2;stroke-linecap:round;stroke-linejoin:round;stroke-miterlimit:4;stroke-dasharray:none;stroke-dashoffset:0;stroke-opacity:1" />
    </clipPath>
    <clipPath
       clipPathUnits="userSpaceOnUse"
       id="clipPath1082-3-55">
      <path
         sodipodi:nodetypes="sssssssss"
         inkscape:connector-curvature="0"
         id="path1084-6-4"
         d="M 361.9375,-212 C 507.2348,-212 528,-191.28677 528,-46.125 V 70.125 C 528,215.28618 507.2348,236 361.9375,236 H 214.0625 C 68.7652,236 48,215.28618 48,70.125 V -46.125 C 48,-191.28677 68.7652,-212 214.0625,-212 Z"
         style="display:inline;opacity:1;fill:#8c59d9;fill-opacity:1;stroke:none;stroke-width:2;stroke-linecap:round;stroke-linejoin:round;stroke-miterlimit:4;stroke-dasharray:none;stroke-dashoffset:0;stroke-opacity:1;enable-background:new" />
    </clipPath>
    <clipPath
       clipPathUnits="userSpaceOnUse"
       id="clipPath991">
      <path
         sodipodi:nodetypes="sssssssss"
         inkscape:connector-curvature="0"
         id="path993"
         d="M 188.96875,44 C 261.6174,44 272,54.356615 272,126.9375 v 58.125 C 272,257.64309 261.6174,268 188.96875,268 h -73.9375 C 42.3826,268 32,257.64309 32,185.0625 v -58.125 C 32,54.356615 42.3826,44 115.03125,44 Z"
         style="opacity:1;fill:#6dc7f1;fill-opacity:1;stroke:none;stroke-width:2;stroke-linecap:round;stroke-linejoin:round;stroke-miterlimit:4;stroke-dasharray:none;stroke-dashoffset:0;stroke-opacity:1" />
    </clipPath>
    <clipPath
       clipPathUnits="userSpaceOnUse"
       id="clipPath978">
      <path
         sodipodi:nodetypes="sssssssss"
         inkscape:connector-curvature="0"
         id="path976"
         d="M 188.96875,44 C 261.6174,44 272,54.356615 272,126.9375 v 58.125 C 272,257.64309 261.6174,268 188.96875,268 h -73.9375 C 42.3826,268 32,257.64309 32,185.0625 v -58.125 C 32,54.356615 42.3826,44 115.03125,44 Z"
         style="opacity:1;fill:#6dc7f1;fill-opacity:1;stroke:none;stroke-width:2;stroke-linecap:round;stroke-linejoin:round;stroke-miterlimit:4;stroke-dasharray:none;stroke-dashoffset:0;stroke-opacity:1" />
    </clipPath>
    <clipPath
       clipPathUnits="userSpaceOnUse"
       id="clipPath942">
      <path
         sodipodi:nodetypes="sssssssss"
         inkscape:connector-curvature="0"
         id="path944"
         d="M 188.96875,44 C 261.6174,44 272,54.356615 272,126.9375 v 58.125 C 272,257.64309 261.6174,268 188.96875,268 h -73.9375 C 42.3826,268 32,257.64309 32,185.0625 v -58.125 C 32,54.356615 42.3826,44 115.03125,44 Z"
         style="display:inline;opacity:1;fill:#46a926;fill-opacity:1;stroke:none;stroke-width:2;stroke-linecap:round;stroke-linejoin:round;stroke-miterlimit:4;stroke-dasharray:none;stroke-dashoffset:0;stroke-opacity:1;enable-background:new" />
    </clipPath>
    <clipPath
       clipPathUnits="userSpaceOnUse"
       id="clipPath1082-3-7">
      <path
         sodipodi:nodetypes="sssssssss"
         inkscape:connector-curvature="0"
         id="path1084-6-65"
         d="M 361.9375,-212 C 507.2348,-212 528,-191.28677 528,-46.125 V 70.125 C 528,215.28618 507.2348,236 361.9375,236 H 214.0625 C 68.7652,236 48,215.28618 48,70.125 V -46.125 C 48,-191.28677 68.7652,-212 214.0625,-212 Z"
         style="display:inline;opacity:1;fill:#8c59d9;fill-opacity:1;stroke:none;stroke-width:2;stroke-linecap:round;stroke-linejoin:round;stroke-miterlimit:4;stroke-dasharray:none;stroke-dashoffset:0;stroke-opacity:1;enable-background:new" />
    </clipPath>
    <radialGradient
       id="radialGradient3322"
       gradientUnits="userSpaceOnUse"
       cy="-2.0645001"
       cx="26.617001"
       gradientTransform="matrix(-4.8906e-8,-2.8515,3.7557,0,674.00149,398.26285)"
       r="23">
      <stop
         id="stop2749"
         style="stop-color:#d280b9;stop-opacity:1"
         offset="0" />
      <stop
         offset="0.52913231"
         style="stop-color:#b549b5;stop-opacity:1"
         id="stop4269" />
      <stop
         id="stop2755"
         style="stop-color:#8940a8;stop-opacity:1"
         offset="1" />
    </radialGradient>
    <clipPath
       clipPathUnits="userSpaceOnUse"
       id="clipPath1082-3-69">
      <path
         sodipodi:nodetypes="sssssssss"
         inkscape:connector-curvature="0"
         id="path1084-6-37"
         d="M 361.9375,-212 C 507.2348,-212 528,-191.28677 528,-46.125 V 70.125 C 528,215.28618 507.2348,236 361.9375,236 H 214.0625 C 68.7652,236 48,215.28618 48,70.125 V -46.125 C 48,-191.28677 68.7652,-212 214.0625,-212 Z"
         style="display:inline;opacity:1;fill:#8c59d9;fill-opacity:1;stroke:none;stroke-width:2;stroke-linecap:round;stroke-linejoin:round;stroke-miterlimit:4;stroke-dasharray:none;stroke-dashoffset:0;stroke-opacity:1;enable-background:new" />
    </clipPath>
    <clipPath
       clipPathUnits="userSpaceOnUse"
       id="clipPath1082-3-452">
      <path
         sodipodi:nodetypes="sssssssss"
         inkscape:connector-curvature="0"
         id="path1084-6-54"
         d="M 361.9375,-212 C 507.2348,-212 528,-191.28677 528,-46.125 V 70.125 C 528,215.28618 507.2348,236 361.9375,236 H 214.0625 C 68.7652,236 48,215.28618 48,70.125 V -46.125 C 48,-191.28677 68.7652,-212 214.0625,-212 Z"
         style="display:inline;opacity:1;fill:#8c59d9;fill-opacity:1;stroke:none;stroke-width:2;stroke-linecap:round;stroke-linejoin:round;stroke-miterlimit:4;stroke-dasharray:none;stroke-dashoffset:0;stroke-opacity:1;enable-background:new" />
    </clipPath>
    <clipPath
       clipPathUnits="userSpaceOnUse"
       id="clipPath1082-3-74">
      <path
         sodipodi:nodetypes="sssssssss"
         inkscape:connector-curvature="0"
         id="path1084-6-43"
         d="M 361.9375,-212 C 507.2348,-212 528,-191.28677 528,-46.125 V 70.125 C 528,215.28618 507.2348,236 361.9375,236 H 214.0625 C 68.7652,236 48,215.28618 48,70.125 V -46.125 C 48,-191.28677 68.7652,-212 214.0625,-212 Z"
         style="display:inline;opacity:1;fill:#8c59d9;fill-opacity:1;stroke:none;stroke-width:2;stroke-linecap:round;stroke-linejoin:round;stroke-miterlimit:4;stroke-dasharray:none;stroke-dashoffset:0;stroke-opacity:1;enable-background:new" />
    </clipPath>
    <clipPath
       clipPathUnits="userSpaceOnUse"
       id="clipPath1032">
      <path
         sodipodi:nodetypes="sssssssss"
         inkscape:connector-curvature="0"
         id="path1034"
         d="M 188.96875,44 C 261.6174,44 272,54.356615 272,126.9375 v 58.125 C 272,257.64309 261.6174,268 188.96875,268 h -73.9375 C 42.3826,268 32,257.64309 32,185.0625 v -58.125 C 32,54.356615 42.3826,44 115.03125,44 Z"
         style="opacity:1;fill:#76c22b;fill-opacity:1;stroke:none;stroke-width:2;stroke-linecap:round;stroke-linejoin:round;stroke-miterlimit:4;stroke-dasharray:none;stroke-dashoffset:0;stroke-opacity:1" />
    </clipPath>
    <clipPath
       clipPathUnits="userSpaceOnUse"
       id="clipPath1082-3-0">
      <path
         sodipodi:nodetypes="sssssssss"
         inkscape:connector-curvature="0"
         id="path1084-6-786"
         d="M 361.9375,-212 C 507.2348,-212 528,-191.28677 528,-46.125 V 70.125 C 528,215.28618 507.2348,236 361.9375,236 H 214.0625 C 68.7652,236 48,215.28618 48,70.125 V -46.125 C 48,-191.28677 68.7652,-212 214.0625,-212 Z"
         style="display:inline;opacity:1;fill:#8c59d9;fill-opacity:1;stroke:none;stroke-width:2;stroke-linecap:round;stroke-linejoin:round;stroke-miterlimit:4;stroke-dasharray:none;stroke-dashoffset:0;stroke-opacity:1;enable-background:new" />
    </clipPath>
    <clipPath
       clipPathUnits="userSpaceOnUse"
       id="clipPath1082-3-89">
      <path
         sodipodi:nodetypes="sssssssss"
         inkscape:connector-curvature="0"
         id="path1084-6-26"
         d="M 361.9375,-212 C 507.2348,-212 528,-191.28677 528,-46.125 V 70.125 C 528,215.28618 507.2348,236 361.9375,236 H 214.0625 C 68.7652,236 48,215.28618 48,70.125 V -46.125 C 48,-191.28677 68.7652,-212 214.0625,-212 Z"
         style="display:inline;opacity:1;fill:#8c59d9;fill-opacity:1;stroke:none;stroke-width:2;stroke-linecap:round;stroke-linejoin:round;stroke-miterlimit:4;stroke-dasharray:none;stroke-dashoffset:0;stroke-opacity:1;enable-background:new" />
    </clipPath>
    <clipPath
       clipPathUnits="userSpaceOnUse"
       id="clipPath951">
      <path
         style="opacity:1;fill:#8c59d9;fill-opacity:1;stroke:none;stroke-width:2;stroke-linecap:round;stroke-linejoin:round;stroke-miterlimit:4;stroke-dasharray:none;stroke-dashoffset:0;stroke-opacity:1"
         d="M 188.96875,44 C 261.6174,44 272,54.356615 272,126.9375 v 58.125 C 272,257.64309 261.6174,268 188.96875,268 h -73.9375 C 42.3826,268 32,257.64309 32,185.0625 v -58.125 C 32,54.356615 42.3826,44 115.03125,44 Z"
         id="path953"
         inkscape:connector-curvature="0"
         sodipodi:nodetypes="sssssssss" />
    </clipPath>
    <clipPath
       clipPathUnits="userSpaceOnUse"
       id="clipPath1082-3-64">
      <path
         sodipodi:nodetypes="sssssssss"
         inkscape:connector-curvature="0"
         id="path1084-6-95"
         d="M 361.9375,-212 C 507.2348,-212 528,-191.28677 528,-46.125 V 70.125 C 528,215.28618 507.2348,236 361.9375,236 H 214.0625 C 68.7652,236 48,215.28618 48,70.125 V -46.125 C 48,-191.28677 68.7652,-212 214.0625,-212 Z"
         style="display:inline;opacity:1;fill:#8c59d9;fill-opacity:1;stroke:none;stroke-width:2;stroke-linecap:round;stroke-linejoin:round;stroke-miterlimit:4;stroke-dasharray:none;stroke-dashoffset:0;stroke-opacity:1;enable-background:new" />
    </clipPath>
    <clipPath
       clipPathUnits="userSpaceOnUse"
       id="clipPath1082-3-04">
      <path
         sodipodi:nodetypes="sssssssss"
         inkscape:connector-curvature="0"
         id="path1084-6-8"
         d="M 361.9375,-212 C 507.2348,-212 528,-191.28677 528,-46.125 V 70.125 C 528,215.28618 507.2348,236 361.9375,236 H 214.0625 C 68.7652,236 48,215.28618 48,70.125 V -46.125 C 48,-191.28677 68.7652,-212 214.0625,-212 Z"
         style="display:inline;opacity:1;fill:#8c59d9;fill-opacity:1;stroke:none;stroke-width:2;stroke-linecap:round;stroke-linejoin:round;stroke-miterlimit:4;stroke-dasharray:none;stroke-dashoffset:0;stroke-opacity:1;enable-background:new" />
    </clipPath>
    <clipPath
       clipPathUnits="userSpaceOnUse"
       id="clipPath1082-3-1">
      <path
         sodipodi:nodetypes="sssssssss"
         inkscape:connector-curvature="0"
         id="path1084-6-72"
         d="M 361.9375,-212 C 507.2348,-212 528,-191.28677 528,-46.125 V 70.125 C 528,215.28618 507.2348,236 361.9375,236 H 214.0625 C 68.7652,236 48,215.28618 48,70.125 V -46.125 C 48,-191.28677 68.7652,-212 214.0625,-212 Z"
         style="display:inline;opacity:1;fill:#8c59d9;fill-opacity:1;stroke:none;stroke-width:2;stroke-linecap:round;stroke-linejoin:round;stroke-miterlimit:4;stroke-dasharray:none;stroke-dashoffset:0;stroke-opacity:1;enable-background:new" />
    </clipPath>
    <clipPath
       clipPathUnits="userSpaceOnUse"
       id="clipPath936">
      <path
         sodipodi:nodetypes="sssssssss"
         inkscape:connector-curvature="0"
         id="path938"
         d="M 329.9375,16 C 475.2348,16 496,36.71323 496,181.875 v 116.25 C 496,443.28618 475.2348,464 329.9375,464 H 182.0625 C 36.7652,464 16,443.28618 16,298.125 V 181.875 C 16,36.71323 36.7652,16 182.0625,16 Z"
         style="opacity:1;fill:#438ae9;fill-opacity:1;stroke:none;stroke-width:2;stroke-linecap:round;stroke-linejoin:round;stroke-miterlimit:4;stroke-dasharray:none;stroke-dashoffset:0;stroke-opacity:1" />
    </clipPath>
    <clipPath
       clipPathUnits="userSpaceOnUse"
       id="clipPath989">
      <path
         sodipodi:nodetypes="sssssssss"
         inkscape:connector-curvature="0"
         id="path991"
         d="M 115.03124,43.99999 C 42.382604,44 32.000014,54.35661 32.000004,126.9375 v 58.12499 c 0,72.5806 10.38261,82.9375 83.031236,82.9375 h 73.93752 C 261.6174,267.99999 272,257.64307 272,185.06249 V 126.9375 C 272,54.35661 261.6174,44 188.96875,44 Z"
         style="display:inline;opacity:1;fill:url(#linearGradient993);fill-opacity:1;stroke:none;stroke-width:2;stroke-linecap:round;stroke-linejoin:round;stroke-miterlimit:4;stroke-dasharray:none;stroke-dashoffset:0;stroke-opacity:1;enable-background:new" />
    </clipPath>
    <clipPath
       clipPathUnits="userSpaceOnUse"
       id="clipPath1082-3-72">
      <path
         sodipodi:nodetypes="sssssssss"
         inkscape:connector-curvature="0"
         id="path1084-6-261"
         d="M 361.9375,-212 C 507.2348,-212 528,-191.28677 528,-46.125 V 70.125 C 528,215.28618 507.2348,236 361.9375,236 H 214.0625 C 68.7652,236 48,215.28618 48,70.125 V -46.125 C 48,-191.28677 68.7652,-212 214.0625,-212 Z"
         style="display:inline;opacity:1;fill:#8c59d9;fill-opacity:1;stroke:none;stroke-width:2;stroke-linecap:round;stroke-linejoin:round;stroke-miterlimit:4;stroke-dasharray:none;stroke-dashoffset:0;stroke-opacity:1;enable-background:new" />
    </clipPath>
    <clipPath
       clipPathUnits="userSpaceOnUse"
       id="clipPath1082-3-06">
      <path
         sodipodi:nodetypes="sssssssss"
         inkscape:connector-curvature="0"
         id="path1084-6-1"
         d="M 361.9375,-212 C 507.2348,-212 528,-191.28677 528,-46.125 V 70.125 C 528,215.28618 507.2348,236 361.9375,236 H 214.0625 C 68.7652,236 48,215.28618 48,70.125 V -46.125 C 48,-191.28677 68.7652,-212 214.0625,-212 Z"
         style="display:inline;opacity:1;fill:#8c59d9;fill-opacity:1;stroke:none;stroke-width:2;stroke-linecap:round;stroke-linejoin:round;stroke-miterlimit:4;stroke-dasharray:none;stroke-dashoffset:0;stroke-opacity:1;enable-background:new" />
    </clipPath>
    <clipPath
       clipPathUnits="userSpaceOnUse"
       id="clipPath1082-3-59">
      <path
         sodipodi:nodetypes="sssssssss"
         inkscape:connector-curvature="0"
         id="path1084-6-49"
         d="M 361.9375,-212 C 507.2348,-212 528,-191.28677 528,-46.125 V 70.125 C 528,215.28618 507.2348,236 361.9375,236 H 214.0625 C 68.7652,236 48,215.28618 48,70.125 V -46.125 C 48,-191.28677 68.7652,-212 214.0625,-212 Z"
         style="display:inline;opacity:1;fill:#8c59d9;fill-opacity:1;stroke:none;stroke-width:2;stroke-linecap:round;stroke-linejoin:round;stroke-miterlimit:4;stroke-dasharray:none;stroke-dashoffset:0;stroke-opacity:1;enable-background:new" />
    </clipPath>
    <clipPath
       clipPathUnits="userSpaceOnUse"
       id="clipPath1221">
      <path
         sodipodi:nodetypes="sssssssss"
         inkscape:connector-curvature="0"
         id="path1223"
         d="M 188.96875,44 C 261.6174,44 272,54.356615 272,126.9375 v 58.125 C 272,257.64309 261.6174,268 188.96875,268 h -73.9375 C 42.3826,268 32,257.64309 32,185.0625 v -58.125 C 32,54.356615 42.3826,44 115.03125,44 Z"
         style="display:inline;opacity:0.1;fill:#da1636;fill-opacity:1;stroke:none;stroke-width:2;stroke-linecap:round;stroke-linejoin:round;stroke-miterlimit:4;stroke-dasharray:none;stroke-dashoffset:0;stroke-opacity:1;enable-background:new" />
    </clipPath>
    <clipPath
       clipPathUnits="userSpaceOnUse"
       id="clipPath936-0">
      <path
         sodipodi:nodetypes="sssssssss"
         inkscape:connector-curvature="0"
         id="path938-9"
         d="M 329.9375,16 C 475.2348,16 496,36.71323 496,181.875 v 116.25 C 496,443.28618 475.2348,464 329.9375,464 H 182.0625 C 36.7652,464 16,443.28618 16,298.125 V 181.875 C 16,36.71323 36.7652,16 182.0625,16 Z"
         style="opacity:1;fill:#438ae9;fill-opacity:1;stroke:none;stroke-width:2;stroke-linecap:round;stroke-linejoin:round;stroke-miterlimit:4;stroke-dasharray:none;stroke-dashoffset:0;stroke-opacity:1" />
    </clipPath>
    <clipPath
       clipPathUnits="userSpaceOnUse"
       id="clipPath1082-3-77">
      <path
         sodipodi:nodetypes="sssssssss"
         inkscape:connector-curvature="0"
         id="path1084-6-11"
         d="M 361.9375,-212 C 507.2348,-212 528,-191.28677 528,-46.125 V 70.125 C 528,215.28618 507.2348,236 361.9375,236 H 214.0625 C 68.7652,236 48,215.28618 48,70.125 V -46.125 C 48,-191.28677 68.7652,-212 214.0625,-212 Z"
         style="display:inline;opacity:1;fill:#8c59d9;fill-opacity:1;stroke:none;stroke-width:2;stroke-linecap:round;stroke-linejoin:round;stroke-miterlimit:4;stroke-dasharray:none;stroke-dashoffset:0;stroke-opacity:1;enable-background:new" />
    </clipPath>
    <clipPath
       clipPathUnits="userSpaceOnUse"
       id="clipPath1082-3-597">
      <path
         sodipodi:nodetypes="sssssssss"
         inkscape:connector-curvature="0"
         id="path1084-6-76"
         d="M 361.9375,-212 C 507.2348,-212 528,-191.28677 528,-46.125 V 70.125 C 528,215.28618 507.2348,236 361.9375,236 H 214.0625 C 68.7652,236 48,215.28618 48,70.125 V -46.125 C 48,-191.28677 68.7652,-212 214.0625,-212 Z"
         style="display:inline;opacity:1;fill:#8c59d9;fill-opacity:1;stroke:none;stroke-width:2;stroke-linecap:round;stroke-linejoin:round;stroke-miterlimit:4;stroke-dasharray:none;stroke-dashoffset:0;stroke-opacity:1;enable-background:new" />
    </clipPath>
    <clipPath
       clipPathUnits="userSpaceOnUse"
       id="clipPath1082-3-73">
      <path
         sodipodi:nodetypes="sssssssss"
         inkscape:connector-curvature="0"
         id="path1084-6-656"
         d="M 361.9375,-212 C 507.2348,-212 528,-191.28677 528,-46.125 V 70.125 C 528,215.28618 507.2348,236 361.9375,236 H 214.0625 C 68.7652,236 48,215.28618 48,70.125 V -46.125 C 48,-191.28677 68.7652,-212 214.0625,-212 Z"
         style="display:inline;opacity:1;fill:#8c59d9;fill-opacity:1;stroke:none;stroke-width:2;stroke-linecap:round;stroke-linejoin:round;stroke-miterlimit:4;stroke-dasharray:none;stroke-dashoffset:0;stroke-opacity:1;enable-background:new" />
    </clipPath>
    <linearGradient
       id="linearGradient7537">
      <stop
         style="stop-color:#f37e40;stop-opacity:1"
         offset="0"
         id="stop7539" />
      <stop
         style="stop-color:#f34f17;stop-opacity:1"
         offset="1"
         id="stop7541" />
    </linearGradient>
    <clipPath
       clipPathUnits="userSpaceOnUse"
       id="clipPath1082-3-39">
      <path
         sodipodi:nodetypes="sssssssss"
         inkscape:connector-curvature="0"
         id="path1084-6-48"
         d="M 361.9375,-212 C 507.2348,-212 528,-191.28677 528,-46.125 V 70.125 C 528,215.28618 507.2348,236 361.9375,236 H 214.0625 C 68.7652,236 48,215.28618 48,70.125 V -46.125 C 48,-191.28677 68.7652,-212 214.0625,-212 Z"
         style="display:inline;opacity:1;fill:#8c59d9;fill-opacity:1;stroke:none;stroke-width:2;stroke-linecap:round;stroke-linejoin:round;stroke-miterlimit:4;stroke-dasharray:none;stroke-dashoffset:0;stroke-opacity:1;enable-background:new" />
    </clipPath>
    <clipPath
       clipPathUnits="userSpaceOnUse"
       id="clipPath1082-3-7-2">
      <path
         sodipodi:nodetypes="sssssssss"
         inkscape:connector-curvature="0"
         id="path1084-6-5-9"
         d="M 361.9375,-212 C 507.2348,-212 528,-191.28677 528,-46.125 V 70.125 C 528,215.28618 507.2348,236 361.9375,236 H 214.0625 C 68.7652,236 48,215.28618 48,70.125 V -46.125 C 48,-191.28677 68.7652,-212 214.0625,-212 Z"
         style="display:inline;opacity:1;fill:#8c59d9;fill-opacity:1;stroke:none;stroke-width:2;stroke-linecap:round;stroke-linejoin:round;stroke-miterlimit:4;stroke-dasharray:none;stroke-dashoffset:0;stroke-opacity:1;enable-background:new" />
    </clipPath>
    <linearGradient
       inkscape:collect="always"
       xlink:href="#linearGradient945"
       id="linearGradient955"
       x1="200"
       y1="268"
       x2="200"
       y2="44"
       gradientUnits="userSpaceOnUse"
       gradientTransform="matrix(0.26970778,0,0,0.26970778,-7.1289176,220.56049)" />
    <linearGradient
       inkscape:collect="always"
       id="linearGradient945">
      <stop
         id="stop943"
         offset="0"
         style="stop-color:#e6e6e6;stop-opacity:1" />
      <stop
         id="stop941"
         offset="1"
         style="stop-color:#d3d3d3;stop-opacity:1;" />
    </linearGradient>
    <linearGradient
       inkscape:collect="always"
       xlink:href="#linearGradient1033"
       id="linearGradient1035"
       x1="152"
       y1="100"
       x2="152"
       y2="212"
       gradientUnits="userSpaceOnUse" />
    <linearGradient
       inkscape:collect="always"
       id="linearGradient1033">
      <stop
         style="stop-color:#000000;stop-opacity:0"
         offset="0"
         id="stop1029" />
      <stop
         id="stop1037"
         offset="0.5"
         style="stop-color:#000000;stop-opacity:1" />
      <stop
         style="stop-color:#000000;stop-opacity:0;"
         offset="1"
         id="stop1031" />
    </linearGradient>
    <filter
       inkscape:collect="always"
       style="color-interpolation-filters:sRGB"
       id="filter1025"
       x="-0.024000023"
       width="1.048"
       y="-0.023999978"
       height="1.048">
      <feGaussianBlur
         inkscape:collect="always"
         stdDeviation="1.5000091"
         id="feGaussianBlur1027" />
    </filter>
    <linearGradient
       inkscape:collect="always"
       xlink:href="#linearGradient980"
       id="linearGradient982"
       x1="152"
       y1="124"
       x2="152"
       y2="236"
       gradientUnits="userSpaceOnUse" />
    <linearGradient
       inkscape:collect="always"
       id="linearGradient980">
      <stop
         style="stop-color:#000000;stop-opacity:1;"
         offset="0"
         id="stop976" />
      <stop
         style="stop-color:#000000;stop-opacity:0;"
         offset="1"
         id="stop978" />
    </linearGradient>
    <clipPath
       clipPathUnits="userSpaceOnUse"
       id="clipPath999">
      <path
         inkscape:connector-curvature="0"
         style="color:#000000;display:inline;overflow:visible;visibility:visible;opacity:1;fill:#5d5d5d;fill-opacity:1;fill-rule:nonzero;stroke:none;stroke-width:3.82599998;stroke-linecap:butt;stroke-linejoin:round;stroke-miterlimit:4;stroke-dasharray:none;stroke-dashoffset:0;stroke-opacity:1;marker:none;enable-background:accumulate"
         d="m 152,68 c -48.60106,0 -88,39.39894 -88,88 0,48.60106 39.39894,88 88,88 48.60106,0 88,-39.39894 88,-88 0,-48.60106 -39.39894,-88 -88,-88 z"
         id="path1001"
         sodipodi:nodetypes="sssss" />
    </clipPath>
    <filter
       inkscape:collect="always"
       style="color-interpolation-filters:sRGB"
       id="filter1003"
       x="-0.059999999"
       width="1.12"
       y="-0.059999999"
       height="1.12">
      <feGaussianBlur
         inkscape:collect="always"
         stdDeviation="4.4"
         id="feGaussianBlur1005" />
    </filter>
    <linearGradient
       inkscape:collect="always"
       xlink:href="#linearGradient1013"
       id="linearGradient1108"
       x1="296"
       y1="-212"
       x2="296"
       y2="236"
       gradientUnits="userSpaceOnUse" />
    <linearGradient
       id="linearGradient1013"
       inkscape:collect="always">
      <stop
         id="stop1005"
         offset="0"
         style="stop-color:#ffffff;stop-opacity:1;" />
      <stop
         style="stop-color:#ffffff;stop-opacity:0.09803922"
         offset="0.125"
         id="stop1007" />
      <stop
         style="stop-color:#000000;stop-opacity:0"
         offset="0.92500001"
         id="stop1009" />
      <stop
         id="stop1011"
         offset="1"
         style="stop-color:#000000;stop-opacity:0" />
    </linearGradient>
    <clipPath
       clipPathUnits="userSpaceOnUse"
       id="clipPath1082-3-390">
      <path
         sodipodi:nodetypes="sssssssss"
         inkscape:connector-curvature="0"
         id="path1084-6-88"
         d="M 361.9375,-212 C 507.2348,-212 528,-191.28677 528,-46.125 V 70.125 C 528,215.28618 507.2348,236 361.9375,236 H 214.0625 C 68.7652,236 48,215.28618 48,70.125 V -46.125 C 48,-191.28677 68.7652,-212 214.0625,-212 Z"
         style="display:inline;opacity:1;fill:#8c59d9;fill-opacity:1;stroke:none;stroke-width:2;stroke-linecap:round;stroke-linejoin:round;stroke-miterlimit:4;stroke-dasharray:none;stroke-dashoffset:0;stroke-opacity:1;enable-background:new" />
    </clipPath>
    <linearGradient
       inkscape:collect="always"
       xlink:href="#linearGradient945"
       id="linearGradient947"
       x1="160"
       y1="268"
       x2="160"
       y2="44"
       gradientUnits="userSpaceOnUse"
       gradientTransform="matrix(0.26970778,0,0,0.26970778,-7.1289176,220.56049)" />
    <filter
       inkscape:collect="always"
       style="color-interpolation-filters:sRGB"
       id="filter953"
       x="-0.0232"
       width="1.0464"
       y="-0.024857143"
       height="1.0497143">
      <feGaussianBlur
         inkscape:collect="always"
         stdDeviation="2.32"
         id="feGaussianBlur955" />
    </filter>
    <filter
       inkscape:collect="always"
       style="color-interpolation-filters:sRGB"
       id="filter4569"
       x="-0.0116"
       width="1.0232"
       y="-0.012428571"
       height="1.024857">
      <feGaussianBlur
         inkscape:collect="always"
         stdDeviation="1.16"
         id="feGaussianBlur4571" />
    </filter>
  </defs>
  <sodipodi:namedview
     id="base"
     pagecolor="#ffffff"
     bordercolor="#666666"
     borderopacity="1.0"
     inkscape:pageopacity="0.0"
     inkscape:pageshadow="2"
     inkscape:zoom="3.2421875"
     inkscape:cx="-12.762236"
     inkscape:cy="128"
     inkscape:document-units="px"
     inkscape:current-layer="layer1"
     showgrid="false"
     units="px"
     inkscape:window-width="1920"
     inkscape:window-height="1013"
     inkscape:window-x="0"
     inkscape:window-y="34"
     inkscape:window-maximized="1">
    <inkscape:grid
       type="xygrid"
       id="grid2168" />
  </sodipodi:namedview>
  <metadata
     id="metadata1485">
    <rdf:RDF>
      <cc:Work
         rdf:about="">
        <dc:format>image/svg+xml</dc:format>
        <dc:type
           rdf:resource="http://purl.org/dc/dcmitype/StillImage" />
        <dc:title></dc:title>
      </cc:Work>
    </rdf:RDF>
  </metadata>
  <g
     inkscape:label="Livello 1"
     inkscape:groupmode="layer"
     id="layer1"
     transform="translate(0,-229.26666)">
    <path
       sodipodi:nodetypes="sssssssss"
       inkscape:connector-curvature="0"
       id="path4567"
       d="m 188.96876,43.999995 c 72.64865,0 83.03125,10.356615 83.03125,82.937505 v 58.125 c 0,72.58059 -10.3826,82.9375 -83.03125,82.9375 h -73.9375 C 42.382606,268 32.000006,257.64309 32.000006,185.0625 v -58.125 c 0,-72.58089 10.3826,-82.937505 83.031254,-82.937505 z"
       style="display:inline;opacity:0.1;fill:#000000;fill-opacity:1;stroke:none;stroke-width:2;stroke-linecap:round;stroke-linejoin:round;stroke-miterlimit:4;stroke-dasharray:none;stroke-dashoffset:0;stroke-opacity:1;filter:url(#filter4569);enable-background:new"
       transform="matrix(0.26970778,0,0,0.26970778,-7.1289177,220.56049)" />
    <path
       style="display:inline;opacity:0.2;fill:#000000;fill-opacity:1;stroke:none;stroke-width:2;stroke-linecap:round;stroke-linejoin:round;stroke-miterlimit:4;stroke-dasharray:none;stroke-dashoffset:0;stroke-opacity:1;filter:url(#filter953);enable-background:new"
       d="m 188.96876,45.999995 c 72.64865,0 83.03125,10.356615 83.03125,82.937505 v 58.125 c 0,72.58059 -10.3826,82.9375 -83.03125,82.9375 h -73.9375 C 42.382606,270 32.000006,259.64309 32.000006,187.0625 v -58.125 c 0,-72.58089 10.3826,-82.937505 83.031254,-82.937505 z"
       id="path951-5"
       inkscape:connector-curvature="0"
       sodipodi:nodetypes="sssssssss"
       transform="matrix(0.26970778,0,0,0.26970778,-7.1289177,220.56049)" />
    <path
       sodipodi:nodetypes="sssssssss"
       inkscape:connector-curvature="0"
       id="path963"
       d="m 43.837426,232.42763 c 19.593907,0 22.394175,2.79326 22.394175,22.36889 v 15.67677 c 0,19.57555 -2.800268,22.36888 -22.394175,22.36888 h -19.94152 c -19.5939064,0 -22.3941744,-2.79333 -22.3941744,-22.36888 v -15.67677 c 0,-19.57563 2.800268,-22.36889 22.3941744,-22.36889 z"
       style="display:inline;opacity:0.2;fill:none;fill-opacity:1;stroke:#000000;stroke-width:1.0788312;stroke-linecap:round;stroke-linejoin:round;stroke-miterlimit:4;stroke-dasharray:none;stroke-dashoffset:0;stroke-opacity:1;enable-background:new" />
    <path
       style="display:inline;opacity:1;fill:url(#linearGradient947);fill-opacity:1;stroke:none;stroke-width:0.5394156;stroke-linecap:round;stroke-linejoin:round;stroke-miterlimit:4;stroke-dasharray:none;stroke-dashoffset:0;stroke-opacity:1;enable-background:new"
       d="m 43.837426,232.42763 c 19.593907,0 22.394175,2.79326 22.394175,22.36889 v 15.67677 c 0,19.57555 -2.800268,22.36888 -22.394175,22.36888 h -19.94152 c -19.5939064,0 -22.3941744,-2.79333 -22.3941744,-22.36888 v -15.67677 c 0,-19.57563 2.800268,-22.36889 22.3941744,-22.36889 z"
       id="rect877"
       inkscape:connector-curvature="0"
       sodipodi:nodetypes="sssssssss" />
    <path
       style="display:inline;opacity:0.25;fill:#ffffff;fill-opacity:1;stroke:none;stroke-width:0.5394156;stroke-linecap:round;stroke-linejoin:round;stroke-miterlimit:4;stroke-dasharray:none;stroke-dashoffset:0;stroke-opacity:1;enable-background:new"
       d="m 1.5017316,262.6349 v 7.83839 c 0,19.57555 2.800268,22.36888 22.3941744,22.36888 h 19.94152 c 19.593907,0 22.394175,-2.79333 22.394175,-22.36888 v -7.83839 z"
       id="path1155"
       inkscape:connector-curvature="0" />
    <path
       sodipodi:nodetypes="sssssssss"
       inkscape:connector-curvature="0"
       id="path1068"
       d="M 361.9375,-212 C 507.2348,-212 528,-191.28677 528,-46.125 V 70.125 C 528,215.28618 507.2348,236 361.9375,236 H 214.0625 C 68.7652,236 48,215.28618 48,70.125 V -46.125 C 48,-191.28677 68.7652,-212 214.0625,-212 Z"
       style="display:inline;opacity:0.5;fill:none;fill-opacity:1;stroke:url(#linearGradient1108);stroke-width:8;stroke-linecap:round;stroke-linejoin:round;stroke-miterlimit:4;stroke-dasharray:none;stroke-dashoffset:0;stroke-opacity:1;enable-background:new"
       clip-path="url(#clipPath1082-3-390)"
       transform="matrix(0.13485389,0,0,0.13485389,-4.9712555,261.01666)" />
    <circle
       style="color:#000000;display:inline;overflow:visible;visibility:visible;opacity:1;fill:#5d5d5d;fill-opacity:1;fill-rule:nonzero;stroke:none;stroke-width:1.03192544;stroke-linecap:butt;stroke-linejoin:miter;stroke-miterlimit:4;stroke-dasharray:3.09577621, 3.09577621;stroke-dashoffset:0;stroke-opacity:1;marker:none;enable-background:accumulate"
       id="path4238"
       cx="33.866665"
       cy="-262.63489"
       r="23.734285"
       transform="scale(1,-1)" />
    <path
       style="color:#000000;display:inline;overflow:visible;visibility:visible;opacity:0.05;fill:#000000;fill-opacity:1;fill-rule:nonzero;stroke:none;stroke-width:1.03192544;stroke-linecap:butt;stroke-linejoin:miter;stroke-miterlimit:4;stroke-dasharray:3.09577621, 3.09577621;stroke-dashoffset:0;stroke-opacity:1;marker:none;enable-background:accumulate"
       d="M 10.132381,262.6349 A 23.734286,23.734286 0 0 1 33.866664,238.90062 23.734286,23.734286 0 0 1 57.600951,262.6349 Z"
       id="circle1007"
       inkscape:connector-curvature="0" />
    <path
       style="color:#000000;display:inline;overflow:visible;visibility:visible;opacity:0.2;fill:none;fill-opacity:1;fill-rule:nonzero;stroke:url(#linearGradient982);stroke-width:10;stroke-linecap:butt;stroke-linejoin:round;stroke-miterlimit:4;stroke-dasharray:none;stroke-dashoffset:0;stroke-opacity:1;marker:none;filter:url(#filter1003);enable-background:accumulate"
       d="m 152,70 c -48.60106,0 -88,39.39894 -88,88 0,48.60106 39.39894,88 88,88 48.60106,0 88,-39.39894 88,-88 0,-48.60106 -39.39894,-88 -88,-88 z"
       id="path962"
       clip-path="url(#clipPath999)"
       inkscape:connector-curvature="0"
       sodipodi:nodetypes="sssss"
       transform="matrix(0.26970778,0,0,0.26970778,-7.1289177,220.56049)" />
    <path
       inkscape:connector-curvature="0"
       style="color:#000000;display:inline;overflow:visible;visibility:visible;opacity:0.2;fill:#000000;fill-opacity:0.71428576;fill-rule:nonzero;stroke:none;stroke-width:16.07832336;stroke-linecap:butt;stroke-linejoin:miter;stroke-miterlimit:4;stroke-dasharray:none;stroke-dashoffset:0;stroke-opacity:1;marker:none;filter:url(#filter1025);enable-background:accumulate"
       d="m 152,83.005859 c -5.39372,-0.05998 -7.28039,0.14029 -8.03906,6.66211 l -0.28906,2.304687 c -0.66573,4.22983 -0.793,6.145174 -4.79493,7.181644 -0.26817,0.0599 -0.53589,0.12007 -0.80273,0.18359 -0.0631,0.013 -0.11886,0.0282 -0.1836,0.041 l 0.008,0.002 c -1.01036,0.24375 -2.00991,0.51443 -3,0.80859 l 0.01,-0.0117 c -0.16537,0.0565 -0.31605,0.10151 -0.47265,0.15039 -0.14986,0.0458 -0.29985,0.0898 -0.44922,0.13672 -4.02147,1.12811 -5.08541,-0.46762 -7.78711,-3.810552 l -1.4043,-1.851563 c -1.95898,-2.634363 -3.36984,-3.758729 -4.87304,-3.880859 -0.18789,-0.01527 -0.37832,-0.01507 -0.57032,0 -1.3439,0.105454 -2.81717,0.930219 -4.84765,2.132813 -4.70108,2.644913 -6.23474,3.759697 -3.63086,9.787111 l 0.90039,2.14062 c 1.65637,4.30254 2.51833,5.96731 -1.30274,9.30469 l 0.10157,-0.0234 c -0.78976,0.74858 -1.55804,1.51883 -2.30665,2.3086 l 0.0215,-0.10157 c -3.33739,3.82107 -5.00215,2.95911 -9.304688,1.30274 l -2.140625,-0.90235 c -1.88356,-0.81371 -3.287448,-1.22275 -4.408203,-1.25781 -2.465666,-0.0772 -3.560523,1.65668 -5.378906,4.88867 -2.748796,4.6411 -3.520685,6.37502 1.748046,10.29297 l 1.851563,1.4043 c 3.342929,2.7017 4.938662,3.76564 3.810547,7.78711 -0.04698,0.14937 -0.09087,0.29936 -0.136719,0.44922 -0.04894,0.1566 -0.09193,0.30729 -0.148437,0.47265 l 0.0098,-0.01 c -0.294163,0.99009 -0.564847,1.98964 -0.808594,3 l -0.002,-0.008 c -0.01271,0.0647 -0.02795,0.12053 -0.04102,0.1836 -0.06352,0.26684 -0.123652,0.53456 -0.183594,0.80273 -1.036464,4.00194 -2.951806,4.1292 -7.181641,4.79493 l -2.304687,0.28906 c -6.52182,0.75868 -6.722082,2.64535 -6.66211,8.03906 -0.05998,5.39372 0.140285,7.2804 6.66211,8.03906 l 2.304687,0.28906 c 4.22983,0.66573 6.145182,0.793 7.181641,4.79493 0.05994,0.26818 0.120069,0.5359 0.183594,0.80273 0.01301,0.0631 0.02824,0.11886 0.04102,0.1836 l 0.002,-0.008 c 0.243747,1.01037 0.514431,2.00991 0.808594,3 l -0.01172,-0.01 c 0.0565,0.16537 0.101472,0.31605 0.150391,0.47265 0.04582,0.14985 0.08974,0.29986 0.136719,0.44922 1.12811,4.02147 -0.467618,5.08542 -3.810547,7.78711 l -1.851563,1.4043 c -5.268726,3.91794 -4.496841,5.6499 -1.748046,10.29101 2.644913,4.70108 3.759708,6.23474 9.787109,3.63086 l 2.140625,-0.90039 c 4.302524,-1.65637 5.967294,-2.51832 9.304684,1.30274 l -0.0234,-0.10157 c 0.74858,0.78976 1.51884,1.55807 2.3086,2.30665 l -0.10157,-0.0215 c 3.82107,3.3374 2.95911,5.00215 1.30274,9.30469 l -0.90235,2.14062 c -2.60388,6.0274 -1.07022,7.14414 3.63086,9.78907 4.6411,2.74879 6.37502,3.51873 10.29297,-1.75 l 1.4043,-1.85157 c 2.70169,-3.34294 3.76565,-4.93865 7.78711,-3.81054 0.14937,0.047 0.29936,0.0909 0.44922,0.13672 0.1566,0.0489 0.30728,0.0938 0.47265,0.15039 l -0.01,-0.0117 c 0.99009,0.29416 1.98964,0.56484 3,0.80859 l -0.008,0.002 c 0.0647,0.0128 0.12053,0.028 0.1836,0.041 0.26684,0.0635 0.53456,0.12365 0.80273,0.18359 4.00193,1.03647 4.12919,2.95182 4.79493,7.18164 l 0.28906,2.30469 c 0.75867,6.52182 2.64534,6.72209 8.03906,6.66211 5.39371,0.06 7.28039,-0.14029 8.03906,-6.66211 l 0.28906,-2.30469 c 0.66576,-4.22983 0.79299,-6.14518 4.79493,-7.18164 0.26817,-0.06 0.5359,-0.12007 0.80273,-0.18359 0.0631,-0.0131 0.11886,-0.0281 0.1836,-0.041 l -0.008,-0.002 c 1.01037,-0.24375 2.0099,-0.51443 3,-0.80859 l -0.01,0.0117 c 0.16536,-0.0565 0.31604,-0.10151 0.47265,-0.15039 0.14985,-0.0458 0.29986,-0.0897 0.44922,-0.13672 4.02147,-1.1281 5.08542,0.46761 7.78711,3.81054 l 1.4043,1.85157 c 3.91794,5.26872 5.6499,4.49685 10.29101,1.74804 4.70108,-2.64491 6.23475,-3.7597 3.63086,-9.78711 l -0.90039,-2.14062 c -1.65641,-4.30248 -2.51833,-5.96729 1.30274,-9.30469 l -0.10157,0.0234 c 0.78977,-0.74858 1.55807,-1.51884 2.30665,-2.3086 l -0.0215,0.10157 c 3.3374,-3.82106 5.00215,-2.95912 9.30469,-1.30274 l 2.14062,0.90235 c 6.0274,2.60387 7.14218,1.07022 9.78711,-3.63086 2.74879,-4.64111 3.5207,-6.37503 -1.74804,-10.29297 l -1.85157,-1.4043 c -3.34293,-2.70168 -4.93866,-3.76564 -3.81054,-7.78711 0.047,-0.14936 0.0908,-0.29937 0.13672,-0.44922 0.0489,-0.1566 0.092,-0.30728 0.14843,-0.47265 l -0.01,0.01 c 0.29416,-0.99009 0.56484,-1.98963 0.80859,-3 l 0.002,0.008 c 0.0128,-0.0647 0.028,-0.12052 0.041,-0.1836 0.0635,-0.26683 0.12365,-0.53455 0.18359,-0.80273 1.03647,-4.00193 2.9518,-4.12919 7.18164,-4.79493 l 2.30469,-0.28906 c 6.52182,-0.75867 6.72209,-2.64534 6.66211,-8.03906 0.06,-5.3937 -0.14028,-7.28038 -6.66211,-8.03906 l -2.30469,-0.28906 c -4.22984,-0.66574 -6.14517,-0.79299 -7.18164,-4.79493 -0.06,-0.26816 -0.12007,-0.53589 -0.18359,-0.80273 -0.0131,-0.0631 -0.0281,-0.11887 -0.041,-0.1836 l -0.002,0.008 c -0.24375,-1.01036 -0.51442,-2.0099 -0.80859,-3 l 0.0117,0.01 c -0.0565,-0.16536 -0.10151,-0.31604 -0.15039,-0.47265 -0.0458,-0.14986 -0.0897,-0.29985 -0.13672,-0.44922 -1.12811,-4.02147 0.46762,-5.08541 3.81054,-7.78711 l 1.85157,-1.4043 c 5.26873,-3.91794 4.49684,-5.6499 1.74804,-10.29101 -1.81838,-3.23199 -2.91322,-4.96776 -5.3789,-4.89063 -1.12074,0.0351 -2.52465,0.44605 -4.40821,1.25977 l -2.14062,0.90039 c -4.30247,1.6564 -5.9673,2.51834 -9.30469,-1.30274 l 0.0234,0.10157 c -0.74858,-0.78977 -1.51883,-1.55806 -2.3086,-2.30665 l 0.10157,0.0215 c -3.82106,-3.33739 -2.95912,-5.00215 -1.30274,-9.30469 l 0.90235,-2.14062 c 2.60387,-6.027406 1.07022,-7.142192 -3.63086,-9.787111 -2.32056,-1.374397 -3.91477,-2.254938 -5.41797,-2.132813 -1.5032,0.12213 -2.91603,1.246496 -4.875,3.880859 l -1.4043,1.851563 c -2.70169,3.342932 -3.76564,4.938652 -7.78711,3.810552 -0.14936,-0.047 -0.29937,-0.0909 -0.44922,-0.13672 -0.15661,-0.0489 -0.30729,-0.0919 -0.47265,-0.14844 l 0.01,0.01 c -0.9901,-0.29416 -1.98963,-0.56485 -3,-0.80859 l 0.008,-0.002 c -0.0647,-0.0127 -0.12052,-0.028 -0.1836,-0.041 -0.26683,-0.0635 -0.53456,-0.12366 -0.80273,-0.1836 -4.00194,-1.03647 -4.12918,-2.95181 -4.79493,-7.18164 l -0.28906,-2.304687 C 159.28039,83.146149 157.39371,82.945882 152,83.005859 Z M 151.98828,114 c 0.004,-1e-5 0.008,-1e-5 0.0117,0 5.06531,3e-4 9.96082,0.87493 14.53516,2.48047 a 12,12 0 0 0 5.46484,6.87891 12,12 0 0 0 8.66992,1.29101 c 7.20335,6.1907 12.42982,14.70372 14.43946,24.54883 0.50642,2.48002 -1.38873,4.80104 -3.91993,4.80078 h -12.3789 c -1.76926,1.5e-4 -3.32848,-1.16191 -3.83399,-2.85742 -3.03409,-10.17667 -12.3486,-17.12613 -22.96679,-17.14063 -1.86552,0.0101 -3.72427,0.23539 -5.53711,0.67578 -1.72527,0.41898 -3.52028,-0.34928 -4.40821,-1.88671 l -6.17968,-10.70118 c -1.26291,-2.1886 -0.20551,-4.98537 2.18945,-5.79101 4.48467,-1.50955 9.18217,-2.28583 13.91406,-2.29883 z m -26.30664,10.0957 c 1.3611,0.0638 2.59614,0.816 3.27734,1.9961 l 6.17969,10.70117 c 0.88545,1.53347 0.65743,3.4666 -0.56055,4.75195 -4.21283,4.44663 -6.56562,10.3318 -6.57812,16.45703 0.007,6.12872 2.3554,12.01941 6.56836,16.47071 1.21703,1.28501 1.44502,3.21699 0.56055,4.75 l -6.16211,10.67578 c -1.26486,2.19101 -4.22044,2.67243 -6.11524,0.99609 -7.35823,-6.50704 -12.25407,-15.23839 -14.0625,-24.74023 A 12,12 0 0 0 112,158 a 12,12 0 0 0 -3.21289,-8.15039 c 1.80449,-9.50615 6.6973,-18.24246 14.05664,-24.75391 0.77978,-0.68994 1.79784,-1.0487 2.83789,-1 z M 178.82031,162 h 12.32813 c 2.53119,-2.4e-4 4.42635,2.32077 3.91992,4.80078 -2.00843,9.83928 -7.23024,18.34896 -14.42774,24.53906 a 12,12 0 0 0 -2.92382,-0.30273 12,12 0 0 0 -5.7168,1.60351 12,12 0 0 0 -5.45312,6.86133 c -4.57562,1.61246 -9.47418,2.49256 -14.54297,2.49805 -0.006,2e-5 -0.0125,2e-5 -0.0195,0 -4.72985,-0.0188 -9.42516,-0.80071 -13.90626,-2.31445 -2.39212,-0.80764 -3.44709,-3.60206 -2.18554,-5.78907 l 6.16992,-10.6875 c 0.88793,-1.53742 2.68293,-2.30568 4.4082,-1.88671 1.81402,0.44068 3.67428,0.66578 5.54102,0.67578 10.62131,-0.0108 19.93962,-6.96097 22.97461,-17.14063 0.50551,-1.6955 2.06472,-2.85757 3.83398,-2.85742 z"
       id="path1039"
       transform="matrix(0.26970778,0,0,0.26970778,-7.1289177,220.56049)" />
    <path
       id="path1021"
       d="m 152,85.005859 c -5.39372,-0.05998 -7.28039,0.14029 -8.03906,6.66211 l -0.28906,2.304687 c -0.66573,4.22983 -0.793,6.145174 -4.79493,7.181644 -0.26817,0.0599 -0.53589,0.12007 -0.80273,0.18359 -0.0631,0.013 -0.11886,0.0282 -0.1836,0.041 l 0.008,0.002 c -1.01036,0.24375 -2.00991,0.51443 -3,0.80859 l 0.01,-0.0117 c -0.16537,0.0565 -0.31605,0.10151 -0.47265,0.15039 -0.14986,0.0458 -0.29985,0.0898 -0.44922,0.13672 -4.02147,1.12811 -5.08541,-0.46762 -7.78711,-3.810552 l -1.4043,-1.851563 c -1.95898,-2.634363 -3.36984,-3.758729 -4.87304,-3.880859 -0.18789,-0.01527 -0.37832,-0.01507 -0.57032,0 -1.3439,0.105454 -2.81717,0.930219 -4.84765,2.132813 -4.70108,2.644913 -6.23474,3.759697 -3.63086,9.787111 l 0.90039,2.14062 c 1.65637,4.30254 2.51833,5.96731 -1.30274,9.30469 l 0.10157,-0.0234 c -0.78976,0.74858 -1.55804,1.51883 -2.30665,2.3086 l 0.0215,-0.10157 c -3.33739,3.82107 -5.00215,2.95911 -9.304688,1.30274 l -2.140625,-0.90235 c -1.88356,-0.81371 -3.287448,-1.22275 -4.408203,-1.25781 -2.465666,-0.0772 -3.560523,1.65668 -5.378906,4.88867 -2.748796,4.6411 -3.520685,6.37502 1.748046,10.29297 l 1.851563,1.4043 c 3.342929,2.7017 4.938662,3.76564 3.810547,7.78711 -0.04698,0.14937 -0.09087,0.29936 -0.136719,0.44922 -0.04894,0.1566 -0.09193,0.30729 -0.148437,0.47265 l 0.0098,-0.01 c -0.294163,0.99009 -0.564847,1.98964 -0.808594,3 l -0.002,-0.008 c -0.01271,0.0647 -0.02795,0.12053 -0.04102,0.1836 -0.06352,0.26684 -0.123652,0.53456 -0.183594,0.80273 -1.036464,4.00194 -2.951806,4.1292 -7.181641,4.79493 l -2.304687,0.28906 c -6.52182,0.75868 -6.722082,2.64535 -6.66211,8.03906 -0.05998,5.39372 0.140285,7.2804 6.66211,8.03906 l 2.304687,0.28906 c 4.22983,0.66573 6.145182,0.793 7.181641,4.79493 0.05994,0.26818 0.120069,0.5359 0.183594,0.80273 0.01301,0.0631 0.02824,0.11886 0.04102,0.1836 l 0.002,-0.008 c 0.243747,1.01037 0.514431,2.00991 0.808594,3 l -0.01172,-0.01 c 0.0565,0.16537 0.101472,0.31605 0.150391,0.47265 0.04582,0.14985 0.08974,0.29986 0.136719,0.44922 1.12811,4.02147 -0.467618,5.08542 -3.810547,7.78711 l -1.851563,1.4043 c -5.268726,3.91794 -4.496841,5.6499 -1.748046,10.29101 2.644913,4.70108 3.759708,6.23474 9.787109,3.63086 l 2.140625,-0.90039 c 4.302524,-1.65637 5.967294,-2.51832 9.304684,1.30274 l -0.0234,-0.10157 c 0.74858,0.78976 1.51884,1.55807 2.3086,2.30665 l -0.10157,-0.0215 c 3.82107,3.3374 2.95911,5.00215 1.30274,9.30469 l -0.90235,2.14062 c -2.60388,6.0274 -1.07022,7.14414 3.63086,9.78907 4.6411,2.74879 6.37502,3.51873 10.29297,-1.75 l 1.4043,-1.85157 c 2.70169,-3.34294 3.76565,-4.93865 7.78711,-3.81054 0.14937,0.047 0.29936,0.0909 0.44922,0.13672 0.1566,0.0489 0.30728,0.0938 0.47265,0.15039 l -0.01,-0.0117 c 0.99009,0.29416 1.98964,0.56484 3,0.80859 l -0.008,0.002 c 0.0647,0.0128 0.12053,0.028 0.1836,0.041 0.26684,0.0635 0.53456,0.12365 0.80273,0.18359 4.00193,1.03647 4.12919,2.95182 4.79493,7.18164 l 0.28906,2.30469 c 0.75867,6.52182 2.64534,6.72209 8.03906,6.66211 5.39371,0.06 7.28039,-0.14029 8.03906,-6.66211 l 0.28906,-2.30469 c 0.66576,-4.22983 0.79299,-6.14518 4.79493,-7.18164 0.26817,-0.06 0.5359,-0.12007 0.80273,-0.18359 0.0631,-0.0131 0.11886,-0.0281 0.1836,-0.041 l -0.008,-0.002 c 1.01037,-0.24375 2.0099,-0.51443 3,-0.80859 l -0.01,0.0117 c 0.16536,-0.0565 0.31604,-0.10151 0.47265,-0.15039 0.14985,-0.0458 0.29986,-0.0897 0.44922,-0.13672 4.02147,-1.1281 5.08542,0.46761 7.78711,3.81054 l 1.4043,1.85157 c 3.91794,5.26872 5.6499,4.49685 10.29101,1.74804 4.70108,-2.64491 6.23475,-3.7597 3.63086,-9.78711 l -0.90039,-2.14062 c -1.65641,-4.30248 -2.51833,-5.96729 1.30274,-9.30469 l -0.10157,0.0234 c 0.78977,-0.74858 1.55807,-1.51884 2.30665,-2.3086 l -0.0215,0.10157 c 3.3374,-3.82106 5.00215,-2.95912 9.30469,-1.30274 l 2.14062,0.90235 c 6.0274,2.60387 7.14218,1.07022 9.78711,-3.63086 2.74879,-4.64111 3.5207,-6.37503 -1.74804,-10.29297 l -1.85157,-1.4043 c -3.34293,-2.70168 -4.93866,-3.76564 -3.81054,-7.78711 0.047,-0.14936 0.0908,-0.29937 0.13672,-0.44922 0.0489,-0.1566 0.092,-0.30728 0.14843,-0.47265 l -0.01,0.01 c 0.29416,-0.99009 0.56484,-1.98963 0.80859,-3 l 0.002,0.008 c 0.0128,-0.0647 0.028,-0.12052 0.041,-0.1836 0.0635,-0.26683 0.12365,-0.53455 0.18359,-0.80273 1.03647,-4.00193 2.9518,-4.12919 7.18164,-4.79493 l 2.30469,-0.28906 c 6.52182,-0.75867 6.72209,-2.64534 6.66211,-8.03906 0.06,-5.3937 -0.14028,-7.28038 -6.66211,-8.03906 l -2.30469,-0.28906 c -4.22984,-0.66574 -6.14517,-0.79299 -7.18164,-4.79493 -0.06,-0.26816 -0.12007,-0.53589 -0.18359,-0.80273 -0.0131,-0.0631 -0.0281,-0.11887 -0.041,-0.1836 l -0.002,0.008 c -0.24375,-1.01036 -0.51442,-2.0099 -0.80859,-3 l 0.0117,0.01 c -0.0565,-0.16536 -0.10151,-0.31604 -0.15039,-0.47265 -0.0458,-0.14986 -0.0897,-0.29985 -0.13672,-0.44922 -1.12811,-4.02147 0.46762,-5.08541 3.81054,-7.78711 l 1.85157,-1.4043 c 5.26873,-3.91794 4.49684,-5.6499 1.74804,-10.29101 -1.81838,-3.23199 -2.91322,-4.96776 -5.3789,-4.89063 -1.12074,0.0351 -2.52465,0.44605 -4.40821,1.25977 l -2.14062,0.90039 c -4.30247,1.6564 -5.9673,2.51834 -9.30469,-1.30274 l 0.0234,0.10157 c -0.74858,-0.78977 -1.51883,-1.55806 -2.3086,-2.30665 l 0.10157,0.0215 c -3.82106,-3.33739 -2.95912,-5.00215 -1.30274,-9.30469 l 0.90235,-2.14062 c 2.60387,-6.027406 1.07022,-7.142192 -3.63086,-9.787111 -2.32056,-1.374397 -3.91477,-2.254938 -5.41797,-2.132813 -1.5032,0.12213 -2.91603,1.246496 -4.875,3.880859 l -1.4043,1.851563 c -2.70169,3.342932 -3.76564,4.938652 -7.78711,3.810552 -0.14936,-0.047 -0.29937,-0.0909 -0.44922,-0.13672 -0.15661,-0.0489 -0.30729,-0.0919 -0.47265,-0.14844 l 0.01,0.01 c -0.9901,-0.29416 -1.98963,-0.56485 -3,-0.80859 l 0.008,-0.002 c -0.0647,-0.0127 -0.12052,-0.028 -0.1836,-0.041 -0.26683,-0.0635 -0.53456,-0.12366 -0.80273,-0.1836 -4.00194,-1.03647 -4.12918,-2.95181 -4.79493,-7.18164 l -0.28906,-2.304687 C 159.28039,85.146149 157.39371,84.945882 152,85.005859 Z M 151.98828,116 c 0.004,-1e-5 0.008,-1e-5 0.0117,0 5.06531,3e-4 9.96082,0.87493 14.53516,2.48047 a 12,12 0 0 0 5.46484,6.87891 12,12 0 0 0 8.66992,1.29101 c 7.20335,6.1907 12.42982,14.70372 14.43946,24.54883 0.50642,2.48002 -1.38873,4.80104 -3.91993,4.80078 h -12.3789 c -1.76926,1.5e-4 -3.32848,-1.16191 -3.83399,-2.85742 -3.03409,-10.17667 -12.3486,-17.12613 -22.96679,-17.14063 -1.86552,0.0101 -3.72427,0.23539 -5.53711,0.67578 -1.72527,0.41898 -3.52028,-0.34928 -4.40821,-1.88671 l -6.17968,-10.70118 c -1.26291,-2.1886 -0.20551,-4.98537 2.18945,-5.79101 4.48467,-1.50955 9.18217,-2.28583 13.91406,-2.29883 z m -26.30664,10.0957 c 1.3611,0.0638 2.59614,0.816 3.27734,1.9961 l 6.17969,10.70117 c 0.88545,1.53347 0.65743,3.4666 -0.56055,4.75195 -4.21283,4.44663 -6.56562,10.3318 -6.57812,16.45703 0.007,6.12872 2.3554,12.01941 6.56836,16.47071 1.21703,1.28501 1.44502,3.21699 0.56055,4.75 l -6.16211,10.67578 c -1.26486,2.19101 -4.22044,2.67243 -6.11524,0.99609 -7.35823,-6.50704 -12.25407,-15.23839 -14.0625,-24.74023 A 12,12 0 0 0 112,160 a 12,12 0 0 0 -3.21289,-8.15039 c 1.80449,-9.50615 6.6973,-18.24246 14.05664,-24.75391 0.77978,-0.68994 1.79784,-1.0487 2.83789,-1 z M 178.82031,164 h 12.32813 c 2.53119,-2.4e-4 4.42635,2.32077 3.91992,4.80078 -2.00843,9.83928 -7.23024,18.34896 -14.42774,24.53906 a 12,12 0 0 0 -2.92382,-0.30273 12,12 0 0 0 -5.7168,1.60351 12,12 0 0 0 -5.45312,6.86133 c -4.57562,1.61246 -9.47418,2.49256 -14.54297,2.49805 -0.006,2e-5 -0.0125,2e-5 -0.0195,0 -4.72985,-0.0188 -9.42516,-0.80071 -13.90626,-2.31445 -2.39212,-0.80764 -3.44709,-3.60206 -2.18554,-5.78907 l 6.16992,-10.6875 c 0.88793,-1.53742 2.68293,-2.30568 4.4082,-1.88671 1.81402,0.44068 3.67428,0.66578 5.54102,0.67578 10.62131,-0.0108 19.93962,-6.96097 22.97461,-17.14063 0.50551,-1.6955 2.06472,-2.85757 3.83398,-2.85742 z"
       style="color:#000000;display:inline;overflow:visible;visibility:visible;opacity:0.2;fill:url(#linearGradient1035);fill-opacity:1;fill-rule:nonzero;stroke:none;stroke-width:16.07832336;stroke-linecap:butt;stroke-linejoin:miter;stroke-miterlimit:4;stroke-dasharray:none;stroke-dashoffset:0;stroke-opacity:1;marker:none;filter:url(#filter1025);enable-background:accumulate"
       inkscape:connector-curvature="0"
       transform="matrix(0.26970778,0,0,0.26970778,-7.1289177,220.56049)" />
    <path
       inkscape:connector-curvature="0"
       style="color:#000000;display:inline;overflow:visible;visibility:visible;opacity:1;fill:url(#linearGradient955);fill-opacity:1;fill-rule:nonzero;stroke:none;stroke-width:4.33644915;stroke-linecap:butt;stroke-linejoin:miter;stroke-miterlimit:4;stroke-dasharray:none;stroke-dashoffset:0;stroke-opacity:1;marker:none;enable-background:accumulate"
       d="m 33.866664,242.4084 c -1.454727,-0.0162 -1.963576,0.0378 -2.168197,1.79682 l -0.07796,0.62159 c -0.179551,1.14082 -0.213876,1.6574 -1.293228,1.93695 -0.07233,0.0162 -0.144534,0.0324 -0.216503,0.0495 -0.01701,0.004 -0.03206,0.008 -0.04952,0.0111 l 0.0021,5.3e-4 c -0.272502,0.0657 -0.542089,0.13874 -0.809125,0.21808 l 0.0027,-0.003 c -0.0446,0.0152 -0.08524,0.0274 -0.127479,0.0406 -0.04042,0.0124 -0.08087,0.0242 -0.121158,0.0369 -1.084622,0.30426 -1.371573,-0.12612 -2.100244,-1.02773 l -0.378751,-0.49938 c -0.52835,-0.71051 -0.908869,-1.01376 -1.314295,-1.0467 -0.05068,-0.004 -0.102037,-0.004 -0.153818,0 -0.362461,0.0284 -0.759815,0.25089 -1.307449,0.57524 -1.267918,0.71335 -1.68156,1.01402 -0.979274,2.63966 l 0.242843,0.57734 c 0.446736,1.16043 0.679215,1.60943 -0.351359,2.50954 l 0.0274,-0.006 c -0.213005,0.2019 -0.420216,0.40964 -0.622123,0.62264 l 0.0058,-0.0274 c -0.900121,1.03057 -1.349119,0.7981 -2.509547,0.35136 l -0.577343,-0.24337 c -0.508011,-0.21947 -0.886651,-0.32979 -1.188927,-0.33924 -0.665009,-0.0208 -0.960301,0.44682 -1.450733,1.31851 -0.741372,1.25174 -0.949556,1.71939 0.471462,2.77609 l 0.499381,0.37876 c 0.901614,0.72866 1.331995,1.01562 1.027734,2.10024 -0.01267,0.0403 -0.02451,0.0807 -0.03687,0.12116 -0.0132,0.0422 -0.02479,0.0829 -0.04003,0.12747 l 0.0026,-0.003 c -0.07934,0.26703 -0.152344,0.53662 -0.218084,0.80912 l -5.29e-4,-0.002 c -0.0034,0.0174 -0.0075,0.0325 -0.01106,0.0495 -0.01713,0.072 -0.03335,0.14418 -0.04952,0.2165 -0.279543,1.07936 -0.796125,1.11368 -1.936945,1.29323 l -0.621592,0.078 c -1.758985,0.20463 -1.812998,0.71347 -1.796823,2.1682 -0.01618,1.45473 0.03784,1.96358 1.796823,2.1682 l 0.621592,0.078 c 1.140818,0.17955 1.657404,0.21388 1.936945,1.29323 0.01617,0.0723 0.03238,0.14453 0.04952,0.2165 0.0035,0.017 0.0076,0.0321 0.01106,0.0495 l 5.29e-4,-0.002 c 0.06574,0.27251 0.138746,0.54209 0.218084,0.80913 l -0.0032,-0.003 c 0.01524,0.0446 0.02737,0.0852 0.04056,0.12748 0.01236,0.0404 0.0242,0.0809 0.03687,0.12116 0.30426,1.08462 -0.12612,1.37157 -1.027734,2.10024 l -0.499381,0.37875 c -1.421017,1.0567 -1.212833,1.52382 -0.471462,2.77557 0.713354,1.26792 1.014023,1.68156 2.63966,0.97927 l 0.577343,-0.24284 c 1.160425,-0.44674 1.609426,-0.67922 2.509546,0.35136 l -0.0063,-0.0274 c 0.201899,0.21301 0.409642,0.42022 0.622647,0.62212 l -0.02739,-0.006 c 1.030573,0.90012 0.798097,1.34912 0.351359,2.50955 l -0.243369,0.57734 c -0.702286,1.62563 -0.288647,1.92683 0.97927,2.64019 1.251741,0.74137 1.719392,0.94903 2.776092,-0.47199 l 0.378751,-0.49939 c 0.728668,-0.90161 1.015627,-1.33199 2.100244,-1.02773 0.04029,0.0127 0.08074,0.0245 0.121158,0.0369 0.04224,0.0132 0.08288,0.0253 0.127479,0.0406 l -0.0027,-0.003 c 0.267033,0.0793 0.53662,0.15234 0.809122,0.21808 l -0.0021,5.3e-4 c 0.01746,0.003 0.03251,0.008 0.04952,0.0111 0.07197,0.0171 0.144174,0.0333 0.216503,0.0495 1.079352,0.27954 1.113674,0.79613 1.293231,1.93694 l 0.07796,0.62159 c 0.204621,1.75899 0.71347,1.813 2.1682,1.79683 1.454724,0.0162 1.963576,-0.0378 2.168197,-1.79683 l 0.07796,-0.62159 c 0.179562,-1.14082 0.213876,-1.6574 1.293231,-1.93694 0.07233,-0.0162 0.144536,-0.0324 0.216503,-0.0495 0.01701,-0.004 0.03206,-0.008 0.04952,-0.0111 l -0.0021,-5.3e-4 c 0.272505,-0.0657 0.542086,-0.13874 0.809125,-0.21808 l -0.0027,0.003 c 0.0446,-0.0152 0.08524,-0.0274 0.127479,-0.0406 0.04042,-0.0124 0.08087,-0.0242 0.121158,-0.0369 1.084619,-0.30425 1.371576,0.12612 2.100244,1.02773 l 0.378751,0.49939 c 1.056698,1.42101 1.52382,1.21283 2.775564,0.47146 1.267917,-0.71336 1.681562,-1.01402 0.97927,-2.63966 l -0.24284,-0.57734 c -0.446749,-1.16042 -0.679214,-1.60943 0.351359,-2.50955 l -0.02739,0.006 c 0.213008,-0.2019 0.420225,-0.40965 0.622123,-0.62265 l -0.0058,0.0274 c 0.900124,-1.03057 1.349119,-0.79809 2.509547,-0.35135 l 0.577342,0.24336 c 1.625637,0.70229 1.926301,0.28865 2.639661,-0.97927 0.74137,-1.25174 0.94956,-1.71939 -0.471462,-2.77609 l -0.499382,-0.37875 c -0.901613,-0.72867 -1.331995,-1.01562 -1.027732,-2.10024 0.01267,-0.0403 0.0245,-0.0807 0.03688,-0.12116 0.01318,-0.0422 0.02482,-0.0829 0.04003,-0.12748 l -0.0027,0.003 c 0.07934,-0.26704 0.152342,-0.53662 0.218083,-0.80913 l 5.29e-4,0.002 c 0.0035,-0.0175 0.0075,-0.0325 0.01106,-0.0495 0.01712,-0.072 0.03335,-0.14417 0.04952,-0.2165 0.279543,-1.07935 0.796124,-1.11368 1.936943,-1.29323 l 0.621594,-0.078 c 1.758984,-0.20462 1.812999,-0.71347 1.796823,-2.1682 0.01619,-1.45472 -0.03784,-1.96358 -1.796823,-2.1682 l -0.621594,-0.078 c -1.140819,-0.17956 -1.6574,-0.21387 -1.936943,-1.29323 -0.01619,-0.0723 -0.03239,-0.14453 -0.04952,-0.2165 -0.0035,-0.017 -0.0076,-0.0321 -0.01106,-0.0495 l -5.29e-4,0.002 c -0.06574,-0.27251 -0.138742,-0.54209 -0.218083,-0.80912 l 0.0031,0.003 c -0.01524,-0.0446 -0.02738,-0.0852 -0.04056,-0.12747 -0.01236,-0.0404 -0.02418,-0.0809 -0.03688,-0.12116 -0.30426,-1.08462 0.126122,-1.37158 1.027734,-2.10025 l 0.499383,-0.37875 c 1.421016,-1.0567 1.212831,-1.52382 0.471458,-2.77556 -0.490429,-0.8717 -0.785717,-1.33985 -1.450729,-1.31904 -0.302273,0.009 -0.680918,0.1203 -1.188929,0.33977 l -0.577342,0.24284 c -1.160409,0.44674 -1.609429,0.67921 -2.509549,-0.35136 l 0.0063,0.0274 c -0.201899,-0.213 -0.409642,-0.42022 -0.62265,-0.62212 l 0.02739,0.006 c -1.030568,-0.90012 -0.798097,-1.34912 -0.351358,-2.50955 l 0.243371,-0.57734 c 0.702284,-1.62564 0.288645,-1.92631 -0.979273,-2.63966 -0.625872,-0.37069 -1.055844,-0.60818 -1.461267,-0.57524 -0.405427,0.0329 -0.786477,0.33619 -1.314826,1.0467 l -0.378751,0.49938 c -0.728668,0.90162 -1.015622,1.33199 -2.100244,1.02774 -0.04028,-0.0127 -0.08074,-0.0245 -0.121158,-0.0369 -0.04224,-0.0132 -0.08288,-0.0248 -0.127476,-0.04 l 0.0027,0.003 c -0.267039,-0.0793 -0.53662,-0.15234 -0.809123,-0.21808 l 0.0021,-5.3e-4 c -0.01746,-0.003 -0.0325,-0.008 -0.04952,-0.0111 -0.07196,-0.0171 -0.144174,-0.0334 -0.2165,-0.0495 -1.079355,-0.27954 -1.113674,-0.79613 -1.293231,-1.93694 l -0.07796,-0.6216 c -0.204557,-1.75899 -0.713409,-1.813 -2.168136,-1.79683 z m -0.0031,8.35936 c 0.0011,0 0.0021,0 0.0031,0 1.366155,8e-5 2.68651,0.23598 3.920247,0.669 a 3.2364934,3.2364934 0 0 0 1.473909,1.8553 3.2364934,3.2364934 0 0 0 2.338345,0.34819 c 1.942801,1.66968 3.352419,3.96571 3.894436,6.62101 0.136586,0.66888 -0.374552,1.29488 -1.057235,1.29481 h -3.338692 c -0.477184,4e-5 -0.897718,-0.31337 -1.034058,-0.77067 -0.818317,-2.74472 -3.330512,-4.61905 -6.194322,-4.62296 -0.503145,0.003 -1.004464,0.0635 -1.493401,0.18226 -0.46532,0.11301 -0.949447,-0.0942 -1.188929,-0.50886 l -1.666708,-2.88619 c -0.340617,-0.59028 -0.05543,-1.34459 0.590513,-1.56188 1.20955,-0.40714 2.476502,-0.61651 3.752731,-0.62001 z m -7.095107,2.72289 c 0.367099,0.0172 0.700199,0.22008 0.883923,0.53836 l 1.666711,2.88619 c 0.238813,0.41359 0.177316,0.93497 -0.151183,1.28164 -1.136235,1.19929 -1.770801,2.78657 -1.774172,4.43859 0.0019,1.65296 0.63527,3.24173 1.771539,4.44228 0.328242,0.34658 0.389732,0.86764 0.151183,1.28111 l -1.661967,2.87934 c -0.341143,0.59093 -1.138288,0.72077 -1.649326,0.26865 -1.984574,-1.755 -3.305019,-4.10991 -3.792768,-6.67263 a 3.2364934,3.2364934 0 0 0 0.866016,-2.19928 3.2364934,3.2364934 0 0 0 -0.86654,-2.19822 c 0.486683,-2.56389 1.806313,-4.92013 3.791183,-6.67633 0.210315,-0.18608 0.484893,-0.28284 0.765401,-0.2697 z m 14.331913,10.22308 h 3.324992 c 0.682684,-6e-5 1.193822,0.62593 1.057233,1.29481 -0.541689,2.65373 -1.95005,4.94886 -3.891272,6.61838 a 3.2364934,3.2364934 0 0 0 -0.788577,-0.0817 3.2364934,3.2364934 0 0 0 -1.541868,0.43248 3.2364934,3.2364934 0 0 0 -1.470747,1.85055 c -1.23408,0.43489 -2.555261,0.67226 -3.922353,0.67375 -0.0016,0 -0.0034,0 -0.0053,0 -1.275678,-0.005 -2.542037,-0.21596 -3.750625,-0.62423 -0.645176,-0.21783 -0.929708,-0.9715 -0.589457,-1.56136 l 1.664073,-2.8825 c 0.239482,-0.41465 0.723609,-0.62186 1.188926,-0.50886 0.489257,0.11886 0.990984,0.17957 1.494457,0.18226 2.864652,-0.003 5.377871,-1.87742 6.196431,-4.62296 0.136339,-0.45729 0.556871,-0.77071 1.034055,-0.77067 z"
       id="path4356" />
    <path
       inkscape:connector-curvature="0"
       style="color:#000000;display:inline;overflow:visible;visibility:visible;opacity:0.1;fill:#000000;fill-opacity:1;fill-rule:nonzero;stroke:none;stroke-width:1.06168401;stroke-linecap:butt;stroke-linejoin:miter;stroke-miterlimit:4;stroke-dasharray:3.18505199, 3.18505199;stroke-dashoffset:0;stroke-opacity:1;marker:none;enable-background:accumulate"
       d="m 33.866664,248.6101 c -6.63725,0 -12.197417,4.61801 -13.650795,10.81359 a 3.2364934,3.2364934 0 0 1 1.995946,1.01299 c 0.486682,-2.56389 1.806313,-4.92013 3.791182,-6.67633 0.210315,-0.18608 0.484893,-0.28284 0.765402,-0.2697 0.367098,0.0172 0.700198,0.22008 0.883922,0.53836 l 1.666711,2.88619 c 0.238813,0.41359 0.177316,0.93497 -0.151183,1.28164 -1.136234,1.19929 -1.7708,2.78657 -1.774171,4.43859 0.0019,1.65296 0.63527,3.24173 1.771539,4.44228 0.328242,0.34658 0.389731,0.86764 0.151183,1.28111 l -1.661967,2.87934 c -0.341144,0.59093 -1.138288,0.72077 -1.649327,0.26865 -1.984573,-1.755 -3.305019,-4.10991 -3.792768,-6.67263 a 3.2364934,3.2364934 0 0 1 -1.995942,1.01299 c 1.453785,6.19502 7.013415,10.81254 13.650268,10.81254 1.406692,0 2.76425,-0.20944 4.045617,-0.59525 a 3.2364934,3.2364934 0 0 1 -0.122209,-2.23616 c -1.23408,0.43489 -2.555261,0.67226 -3.922352,0.67375 -0.0016,0 -0.0034,0 -0.0053,0 -1.275678,-0.005 -2.542038,-0.21596 -3.750625,-0.62423 -0.645176,-0.21783 -0.929709,-0.9715 -0.589458,-1.56136 l 1.664074,-2.8825 c 0.239482,-0.41465 0.723608,-0.62186 1.188926,-0.50886 0.489257,0.11886 0.990984,0.17957 1.494457,0.18226 2.864651,-0.003 5.37787,-1.87742 6.19643,-4.62296 0.13634,-0.45729 0.556871,-0.77071 1.034055,-0.77067 h 3.324993 c 0.682683,-6e-5 1.193821,0.62593 1.057232,1.29481 -0.541689,2.65373 -1.950048,4.94886 -3.891272,6.61838 a 3.2364934,3.2364934 0 0 1 1.880579,1.22 c 2.718819,-2.55833 4.419619,-6.1864 4.419619,-10.21202 0,-4.02642 -1.70143,-7.65518 -4.421206,-10.2136 a 3.2364934,3.2364934 0 0 1 -1.871099,1.21895 c 1.942801,1.66968 3.352416,3.96571 3.894436,6.62101 0.136586,0.66888 -0.374552,1.29488 -1.057235,1.29481 h -3.338687 c -0.477184,4e-5 -0.897716,-0.31337 -1.034058,-0.77067 -0.818317,-2.74472 -3.330512,-4.61905 -6.194322,-4.62296 -0.503145,0.003 -1.004464,0.0635 -1.493401,0.18226 -0.465317,0.11301 -0.949447,-0.0942 -1.188929,-0.50886 l -1.666673,-2.88619 c -0.340617,-0.59028 -0.05543,-1.34459 0.590513,-1.56188 1.20955,-0.40714 2.476502,-0.61651 3.752731,-0.62001 0.0011,0 0.0021,0 0.0031,0 1.366155,8e-5 2.686511,0.23598 3.920247,0.669 a 3.2364934,3.2364934 0 0 1 0.12379,-2.23194 c -1.280895,-0.38551 -2.637919,-0.59472 -4.044031,-0.59472 z m 0,9.70948 a 4.3153245,4.3153245 0 0 1 4.315325,4.31532 4.3153245,4.3153245 0 0 1 -4.315325,4.31533 4.3153245,4.3153245 0 0 1 -4.315322,-4.31533 4.3153245,4.3153245 0 0 1 4.315322,-4.31532 z"
       id="path4451" />
    <path
       inkscape:connector-curvature="0"
       style="display:inline;opacity:1;fill:#b3b3b3;fill-opacity:1;stroke:none;stroke-width:0.80912334;stroke-linecap:round;stroke-linejoin:round;stroke-miterlimit:4;stroke-dasharray:none;stroke-dashoffset:0;stroke-opacity:1;enable-background:new"
       d="m 40.802687,248.87243 a 1.6182467,1.6182467 0 0 0 -1.324835,0.80754 1.6182467,1.6182467 0 0 0 0.592093,2.21034 1.6182467,1.6182467 0 0 0 2.210339,-0.59209 1.6182467,1.6182467 0 0 0 -0.592092,-2.21087 1.6182467,1.6182467 0 0 0 -0.885505,-0.21492 z m -20.960825,12.14423 a 1.6182467,1.6182467 0 0 0 -1.618248,1.61824 1.6182467,1.6182467 0 0 0 1.618248,1.61825 1.6182467,1.6182467 0 0 0 1.618245,-1.61825 1.6182467,1.6182467 0 0 0 -1.618245,-1.61824 z m 20.99928,12.14633 a 1.6182467,1.6182467 0 0 0 -0.771197,0.2165 1.6182467,1.6182467 0 0 0 -0.592093,2.21034 1.6182467,1.6182467 0 0 0 2.21034,0.5921 1.6182467,1.6182467 0 0 0 0.592092,-2.21035 1.6182467,1.6182467 0 0 0 -1.439142,-0.80859 z"
       id="circle1245" />
  </g>
</svg>
