<?xml version="1.0" encoding="UTF-8" standalone="no"?>
<svg
   xmlns:dc="http://purl.org/dc/elements/1.1/"
   xmlns:cc="http://creativecommons.org/ns#"
   xmlns:rdf="http://www.w3.org/1999/02/22-rdf-syntax-ns#"
   xmlns:svg="http://www.w3.org/2000/svg"
   xmlns="http://www.w3.org/2000/svg"
   xmlns:sodipodi="http://sodipodi.sourceforge.net/DTD/sodipodi-0.dtd"
   xmlns:inkscape="http://www.inkscape.org/namespaces/inkscape"
   height="64"
   viewBox="0 0 64 64"
   width="64"
   id="svg2"
   version="1.1"
   inkscape:version="0.91 r13725"
   sodipodi:docname="android-package-archive.svg">
  <metadata
     id="metadata29">
    <rdf:RDF>
      <cc:Work
         rdf:about="">
        <dc:format>image/svg+xml</dc:format>
        <dc:type
           rdf:resource="http://purl.org/dc/dcmitype/StillImage" />
      </cc:Work>
    </rdf:RDF>
  </metadata>
  <defs
     id="defs27" />
  <sodipodi:namedview
     pagecolor="#ffffff"
     bordercolor="#666666"
     borderopacity="1"
     objecttolerance="10"
     gridtolerance="10"
     guidetolerance="10"
     inkscape:pageopacity="0"
     inkscape:pageshadow="2"
     inkscape:window-width="1638"
     inkscape:window-height="936"
     id="namedview25"
     showgrid="false"
     inkscape:zoom="7.375"
     inkscape:cx="22.179806"
     inkscape:cy="37.58776"
     inkscape:window-x="243"
     inkscape:window-y="55"
     inkscape:window-maximized="0"
     inkscape:current-layer="svg2" />
  <linearGradient
     id="a"
     gradientTransform="matrix(1.0749904 0 0 1.1792904 56.688954 -.257355)"
     gradientUnits="userSpaceOnUse"
     x1="-74.929466"
     x2="-75.259552"
     y1="52.199436"
     y2="2.356489">
    <stop
       offset="0"
       stop-color="#64c136"
       id="stop5" />
    <stop
       offset="1"
       stop-color="#80d057"
       id="stop7" />
  </linearGradient>
  <g
     transform="translate(56.391766 -.176777)"
     id="g9">
    <rect
       fill="url(#a)"
       height="60.531002"
       ry="2.864331"
       width="44"
       x="-46.391766"
       y="1.645775"
       id="rect11" />
    <g
       fill="#fff"
       transform="matrix(1.0435562 0 0 1.0435562 1.316961 -2.230618)"
       id="g15" />
    <path
       d="m -17.943597,26.539878 2.174697,-3.356797 c 0.13979,-0.211721 0.07786,-0.501206 -0.135808,-0.639051 -0.211629,-0.139789 -0.501206,-0.08184 -0.639051,0.135809 l -2.254498,3.472702 c -1.691359,-0.69293 -3.58046,-1.082303 -5.575468,-1.082303 -1.996952,0 -3.882073,0.389373 -5.577413,1.082303 l -2.250517,-3.472702 c -0.137753,-0.217646 -0.429367,-0.275598 -0.643032,-0.135809 -0.213665,0.137753 -0.275598,0.42733 -0.135808,0.639051 l 2.176641,3.356797 c -3.924009,1.923077 -6.569917,5.547511 -6.569917,9.705089 0,0.255602 0.01601,0.507223 0.03796,0.756807 l 25.926124,0 c 0.02194,-0.249584 0.03592,-0.501205 0.03592,-0.756807 9.2e-5,-4.157578 -2.647852,-7.782012 -6.569825,-9.705089 z m -12.440888,6.01076 c -0.688949,0 -1.248107,-0.555177 -1.248107,-1.24607 0,-0.690893 0.559158,-1.244126 1.248107,-1.244126 0.692929,0 1.248106,0.553141 1.248106,1.244126 0,0.690986 -0.559157,1.24607 -1.248106,1.24607 z m 12.019575,0 c -0.688948,0 -1.248106,-0.555177 -1.248106,-1.24607 0,-0.690893 0.559158,-1.244126 1.248106,-1.244126 0.690893,0 1.24607,0.553141 1.24607,1.244126 0,0.690893 -0.555177,1.24607 -1.24607,1.24607 z"
       id="path23"
       inkscape:connector-curvature="0"
       style="fill-opacity:0.470588" />
  </g>
  <g
     transform="translate(56.391766,-0.17677748)"
     id="g4364">
    <g
       id="g4274">
      <path
         style="color:#000000;display:inline;overflow:visible;visibility:visible;opacity:0.07999998;fill:#ffffff;fill-opacity:1;fill-rule:nonzero;stroke:none;stroke-width:0.26458332;marker:none;enable-background:accumulate"
         d="m -24.211872,1.2694285 0,61.1690735 12.371744,0 c 10.5678581,0 9.8115271,0.439894 9.8115271,-10.648116 l 0,-19.936427 0,-19.936427 c 0,-10.700833 0.8143853,-10.6481035 -9.8115271,-10.6481035 z"
         id="path4231"
         inkscape:connector-curvature="0"
         sodipodi:nodetypes="ccsscssc" />
      <path
         inkscape:connector-curvature="0"
         style="color:#000000;display:inline;overflow:visible;visibility:visible;opacity:0.07999998;fill:#ffffff;fill-opacity:1;fill-rule:nonzero;stroke:none;stroke-width:0.26458332;marker:none;enable-background:accumulate"
         d="m -46.395136,31.853959 0,19.936427 c -1.236828,11.502216 0.0059,10.648116 9.81153,10.648116 l 24.743478,0 c 10.394983,0 9.811527,0.741004 9.811527,-10.648116 l 0,-19.936427 z"
         id="path4255"
         sodipodi:nodetypes="ccssscc" />
      <path
         style="color:#000000;display:inline;overflow:visible;visibility:visible;opacity:0.07999998;fill:#ffffff;fill-opacity:1;fill-rule:nonzero;stroke:none;stroke-width:2.11666656;stroke-linecap:butt;stroke-linejoin:miter;stroke-miterlimit:4;stroke-dasharray:none;stroke-dashoffset:0;stroke-opacity:1;marker:none;enable-background:accumulate"
         d="m -17.153556,62.438502 15.1249551,-16.384574 0,6.139813 c 0.9120172,11.193544 0.095941,10.244761 -9.6230261,10.244761 z"
         id="path4254"
         inkscape:connector-curvature="0"
         sodipodi:nodetypes="cccsc" />
    </g>
    <g
       id="g4319">
      <path
         style="fill:#666666"
         d="m -46.391766,59.131425 0,0.677156 c 0,1.311981 1.115,2.368196 2.5,2.368196 l 39,0 c 1.385,0 2.5,-1.056215 2.5,-2.368196 l 0,-0.677156 c 0,1.491744 -1.267028,2.693823 -2.841797,2.693823 l -38.316406,0 c -1.574769,0 -2.841797,-1.202079 -2.841797,-2.693823 z"
         id="rect11-5"
         inkscape:connector-curvature="0" />
      <path
         d="m -46.416159,4.4076775 0,-0.633985 c 0,-1.228337 1.115,-2.217214 2.5,-2.217214 l 39.0000013,0 c 1.385,0 2.5,0.988877 2.5,2.217214 l 0,0.633985 c 0,-1.39664 -1.267028,-2.522082 -2.841797,-2.522082 l -38.3164073,0 c -1.574769,0 -2.841797,1.125442 -2.841797,2.522082 z"
         id="rect11-1"
         inkscape:connector-curvature="0"
         style="fill:#e6e6e6" />
    </g>
  </g>
</svg>
