<?xml version="1.0" encoding="UTF-8" standalone="no"?>
<svg
   xmlns:dc="http://purl.org/dc/elements/1.1/"
   xmlns:cc="http://creativecommons.org/ns#"
   xmlns:rdf="http://www.w3.org/1999/02/22-rdf-syntax-ns#"
   xmlns:svg="http://www.w3.org/2000/svg"
   xmlns="http://www.w3.org/2000/svg"
   xmlns:xlink="http://www.w3.org/1999/xlink"
   xmlns:sodipodi="http://sodipodi.sourceforge.net/DTD/sodipodi-0.dtd"
   xmlns:inkscape="http://www.inkscape.org/namespaces/inkscape"
   height="64"
   viewBox="0 0 64 64"
   width="64"
   id="svg2"
   version="1.1"
   inkscape:version="0.91 r13725"
   sodipodi:docname="application-torrent.svg">
  <metadata
     id="metadata66">
    <rdf:RDF>
      <cc:Work
         rdf:about="">
        <dc:format>image/svg+xml</dc:format>
        <dc:type
           rdf:resource="http://purl.org/dc/dcmitype/StillImage" />
      </cc:Work>
    </rdf:RDF>
  </metadata>
  <defs
     id="defs64">
    <linearGradient
       inkscape:collect="always"
       xlink:href="#b"
       id="linearGradient4200"
       gradientUnits="userSpaceOnUse"
       x1="3.364533"
       y1="1046.2201"
       x2="36.073566"
       y2="1007.7176" />
    <linearGradient
       inkscape:collect="always"
       xlink:href="#b"
       id="linearGradient4202"
       gradientUnits="userSpaceOnUse"
       x1="3.364533"
       y1="1046.2201"
       x2="36.073566"
       y2="1007.7176" />
    <linearGradient
       inkscape:collect="always"
       xlink:href="#b"
       id="linearGradient4204"
       gradientUnits="userSpaceOnUse"
       x1="3.364533"
       y1="1046.2201"
       x2="36.073566"
       y2="1007.7176" />
  </defs>
  <sodipodi:namedview
     pagecolor="#ffffff"
     bordercolor="#666666"
     borderopacity="1"
     objecttolerance="10"
     gridtolerance="10"
     guidetolerance="10"
     inkscape:pageopacity="0"
     inkscape:pageshadow="2"
     inkscape:window-width="3798"
     inkscape:window-height="2046"
     id="namedview62"
     showgrid="false"
     inkscape:zoom="20.85965"
     inkscape:cx="42.662327"
     inkscape:cy="21.383731"
     inkscape:window-x="19"
     inkscape:window-y="55"
     inkscape:window-maximized="0"
     inkscape:current-layer="svg2" />
  <linearGradient
     id="a"
     gradientTransform="matrix(1.0749904,0,0,1.1759239,113.08072,-0.42869934)"
     gradientUnits="userSpaceOnUse"
     x1="-74.929466"
     x2="-75.259552"
     y1="52.199436"
     y2="2.356489">
    <stop
       offset="0"
       stop-color="#197cf1"
       id="stop5" />
    <stop
       offset="1"
       stop-color="#20bcfa"
       id="stop7" />
  </linearGradient>
  <linearGradient
     gradientUnits="userSpaceOnUse"
     x1="404.33393"
     x2="412.17143"
     y1="516.973"
     y2="516.973"
     id="linearGradient9">
    <stop
       offset="0"
       id="stop11" />
    <stop
       offset="1"
       stop-opacity="0"
       id="stop13" />
  </linearGradient>
  <linearGradient
     id="b"
     gradientUnits="userSpaceOnUse"
     x1="3.364533"
     x2="36.073566"
     y1="1046.2201"
     y2="1007.7176">
    <stop
       offset="0"
       stop-color="#235ea2"
       id="stop16" />
    <stop
       offset="1"
       stop-color="#1992f1"
       id="stop18" />
  </linearGradient>
  <rect
     style="fill:url(#a)"
     id="rect24"
     y="1.468998"
     x="10"
     width="44"
     ry="2.8561542"
     height="60.358204" />
  <g
     style="fill:url(#linearGradient4204);stroke-width:1.29999995"
     id="g44"
     transform="matrix(0.85419989,0,0,0.85419989,-310.16805,-423.26175)">
    <circle
       style="fill:url(#linearGradient4200)"
       id="circle46"
       r="13.999958"
       cy="531.79791"
       cx="400.57138" />
    <circle
       style="fill:#0b3969"
       id="circle48"
       r="13.999958"
       cy="531.79797"
       cx="400.57144" />
    <circle
       style="fill:url(#linearGradient4202)"
       id="circle50"
       r="0"
       cy="531.79791"
       cx="400.57138" />
  </g>
  <g
     style="fill:#1c98f5"
     id="g52"
     transform="matrix(0.53202064,0,0,0.53202064,-195.64529,-240.64292)">
    <path
       inkscape:connector-curvature="0"
       id="path54"
       d="m 416.51125,503.96117 c -3.645,3.65517 -5.64798,8.53043 -5.63781,13.73613 0.0152,10.85875 8.14696,15.80603 18.1323,15.30028 l 0.11973,-0.10815 c -8.84562,0 -14.86122,-6.32065 -14.87647,-15.20185 -0.005,-4.3008 1.64203,-8.32751 4.65157,-11.34214 3.0248,-3.02988 7.08158,-4.70241 11.42305,-4.70241 l 0,-3.37557 c -5.24636,0 -10.14704,2.0233 -13.81238,5.69373" />
    <path
       inkscape:connector-curvature="0"
       id="path56"
       d="m 426.59451,503.35086 c -3.88394,1.04724 -7.08666,3.48232 -9.01846,6.85789 -4.05679,7.09175 -1.9013,15.74927 5.12435,20.58386 5.40001,4.74257 14.71367,0.67754 16.83911,-1.08381 -0.17793,0.0457 -5.75158,4.60186 -14.92256,-1.69683 -5.5463,-3.81276 -7.27475,-10.59441 -4.10762,-16.12546 1.48444,-2.5876 3.95511,-4.46348 6.96466,-5.27178 3.0858,-0.83373 6.27835,-0.42703 8.99304,1.13874 l 1.68779,-2.9282 c -3.49758,-2.01823 -7.6052,-2.54185 -11.56031,-1.47427" />
    <path
       inkscape:connector-curvature="0"
       id="path58"
       d="m 425.7034,508.96637 c -3.37048,1.94705 -5.25653,5.49039 -5.25653,9.13031 0,1.68778 0.42195,3.39082 1.27092,4.96676 l -0.0102,0.0102 c 0,0.005 0.0305,0.0559 0.0407,0.0763 l -0.005,0 c 0,0 0.0203,0.0305 0.0356,0.0559 0.0203,0.0407 0.0712,0.13218 0.0763,0.13726 0.5287,0.90998 2.56726,3.97544 7.03582,5.60223 5.41611,1.97683 7.23934,1.82836 9.76869,1.37607 2.7532,-1.57322 4.22759,-2.97515 4.22759,-2.97515 -2.89677,0.31368 -7.00282,0.55615 -12.84228,-1.57316 -3.51792,-1.28109 -4.9871,-3.61959 -5.25654,-4.10254 -0.26944,-0.48295 -0.0102,-0.0153 -0.0102,-0.0203 -0.64563,-1.12349 -0.95574,-2.34866 -0.95574,-3.55858 0,-2.47067 1.28109,-4.87526 3.56875,-6.2021 1.6522,-0.95065 3.57892,-1.20483 5.4243,-0.71171 1.84029,0.49311 3.38065,1.67761 4.33638,3.32981 l 2.97904,-1.58611 -0.0559,-0.10167 c -1.40309,-2.43509 -3.67042,-4.17371 -6.38511,-4.90576 -2.71469,-0.72697 -5.55139,-0.35078 -7.98648,1.05232" />
  </g>
  <circle
     style="fill:none;stroke:#0b3969;stroke-width:0.5490008"
     id="circle60"
     r="11.684288"
     cy="31"
     cx="32" />
  <g
     transform="translate(56.391766,-0.17677748)"
     id="g4364">
    <g
       id="g4274">
      <path
         style="color:#000000;display:inline;overflow:visible;visibility:visible;opacity:0.07999998;fill:#ffffff;fill-opacity:1;fill-rule:nonzero;stroke:none;stroke-width:0.26458332;marker:none;enable-background:accumulate"
         d="m -24.211872,1.2694285 0,61.1690735 12.371744,0 c 10.5678581,0 9.8115271,0.439894 9.8115271,-10.648116 l 0,-19.936427 0,-19.936427 c 0,-10.700833 0.8143853,-10.6481035 -9.8115271,-10.6481035 z"
         id="path4231"
         inkscape:connector-curvature="0"
         sodipodi:nodetypes="ccsscssc" />
      <path
         inkscape:connector-curvature="0"
         style="color:#000000;display:inline;overflow:visible;visibility:visible;opacity:0.07999998;fill:#ffffff;fill-opacity:1;fill-rule:nonzero;stroke:none;stroke-width:0.26458332;marker:none;enable-background:accumulate"
         d="m -46.395136,31.853959 0,19.936427 c -1.236828,11.502216 0.0059,10.648116 9.81153,10.648116 l 24.743478,0 c 10.394983,0 9.811527,0.741004 9.811527,-10.648116 l 0,-19.936427 z"
         id="path4255"
         sodipodi:nodetypes="ccssscc" />
      <path
         style="color:#000000;display:inline;overflow:visible;visibility:visible;opacity:0.07999998;fill:#ffffff;fill-opacity:1;fill-rule:nonzero;stroke:none;stroke-width:2.11666656;stroke-linecap:butt;stroke-linejoin:miter;stroke-miterlimit:4;stroke-dasharray:none;stroke-dashoffset:0;stroke-opacity:1;marker:none;enable-background:accumulate"
         d="m -17.153556,62.438502 15.1249551,-16.384574 0,6.139813 c 0.9120172,11.193544 0.095941,10.244761 -9.6230261,10.244761 z"
         id="path4254"
         inkscape:connector-curvature="0"
         sodipodi:nodetypes="cccsc" />
    </g>
    <g
       id="g4319">
      <path
         style="fill:#666666"
         d="m -46.391766,59.131425 0,0.677156 c 0,1.311981 1.115,2.368196 2.5,2.368196 l 39,0 c 1.385,0 2.5,-1.056215 2.5,-2.368196 l 0,-0.677156 c 0,1.491744 -1.267028,2.693823 -2.841797,2.693823 l -38.316406,0 c -1.574769,0 -2.841797,-1.202079 -2.841797,-2.693823 z"
         id="rect11-5"
         inkscape:connector-curvature="0" />
      <path
         d="m -46.416159,4.4076775 0,-0.633985 c 0,-1.228337 1.115,-2.217214 2.5,-2.217214 l 39.0000013,0 c 1.385,0 2.5,0.988877 2.5,2.217214 l 0,0.633985 c 0,-1.39664 -1.267028,-2.522082 -2.841797,-2.522082 l -38.3164073,0 c -1.574769,0 -2.841797,1.125442 -2.841797,2.522082 z"
         id="rect11-1"
         inkscape:connector-curvature="0"
         style="fill:#e6e6e6" />
    </g>
  </g>
</svg>
