<?xml version="1.0" encoding="UTF-8" standalone="no"?>
<svg
   xmlns:dc="http://purl.org/dc/elements/1.1/"
   xmlns:cc="http://creativecommons.org/ns#"
   xmlns:rdf="http://www.w3.org/1999/02/22-rdf-syntax-ns#"
   xmlns:svg="http://www.w3.org/2000/svg"
   xmlns="http://www.w3.org/2000/svg"
   xmlns:sodipodi="http://sodipodi.sourceforge.net/DTD/sodipodi-0.dtd"
   xmlns:inkscape="http://www.inkscape.org/namespaces/inkscape"
   height="64"
   viewBox="0 0 64 64"
   width="64"
   id="svg2"
   version="1.1"
   inkscape:version="0.91 r13725"
   sodipodi:docname="application-x-trash.svg">
  <metadata
     id="metadata35">
    <rdf:RDF>
      <cc:Work
         rdf:about="">
        <dc:format>image/svg+xml</dc:format>
        <dc:type
           rdf:resource="http://purl.org/dc/dcmitype/StillImage" />
      </cc:Work>
    </rdf:RDF>
  </metadata>
  <defs
     id="defs33" />
  <sodipodi:namedview
     pagecolor="#ffffff"
     bordercolor="#666666"
     borderopacity="1"
     objecttolerance="10"
     gridtolerance="10"
     guidetolerance="10"
     inkscape:pageopacity="0"
     inkscape:pageshadow="2"
     inkscape:window-width="3798"
     inkscape:window-height="2046"
     id="namedview31"
     showgrid="false"
     inkscape:zoom="14.75"
     inkscape:cx="26.634911"
     inkscape:cy="32.347333"
     inkscape:window-x="19"
     inkscape:window-y="1105"
     inkscape:window-maximized="0"
     inkscape:current-layer="svg2" />
  <linearGradient
     id="a"
     gradientTransform="matrix(1.0749904,0,0,1.1772239,113.08072,-0.4307973)"
     gradientUnits="userSpaceOnUse"
     x1="-74.929466"
     x2="-75.259552"
     y1="52.199436"
     y2="2.356489">
    <stop
       offset="0"
       stop-color="#2aaa76"
       id="stop5" />
    <stop
       offset="1"
       stop-color="#44d48b"
       id="stop7" />
  </linearGradient>
  <rect
     style="fill:url(#a)"
     id="rect13"
     y="1.468998"
     x="10"
     width="44"
     ry="2.8593116"
     height="60.424931" />
  <path
     style="fill:#144e36"
     inkscape:connector-curvature="0"
     id="path29"
     d="m 21.006918,27.098069 1.396521,1.119768 -1.314385,2.583942 c -0.657172,1.191513 0.471816,2.352202 1.191134,2.756246 0.708137,0.397755 1.807243,0.445033 2.834089,0.430702 l 1.848306,-3.100787 1.396512,0.775192 -2.423358,-4.608063 -4.928819,0.04294 z m 0.205352,6.325331 2.998377,5.68473 c 0.602409,0.789523 1.738797,0.976167 2.916241,0.947455 l 3.162666,0 0,-5.383256 -5.996754,-0.04311 c -0.930969,0.05742 -2.149527,-0.143542 -3.08053,-1.205869 z m 18.864287,-10.476296 -1.631334,0.710595 -1.565036,-2.43241 c -0.696838,-1.1675 -2.233474,-0.71691 -2.92653,-0.267129 -0.682255,0.44276 -1.255446,1.406347 -1.741037,2.334942 l 1.746627,3.162244 -1.337724,0.877621 5.102184,0.05902 2.35285,-4.444827 z m -5.490433,-2.882191 -6.29859,-0.06492 c -0.964943,0.157856 -1.674932,1.087368 -2.221298,2.158158 l -1.533276,2.838669 4.588007,2.609866 2.943993,-5.361558 c 0.402412,-0.863509 1.164444,-1.859757 2.521164,-2.180335 z m 0.273983,21.935082 0.185153,-1.808749 2.831857,-0.225392 c 1.332841,-0.05953 1.693784,-1.657099 1.646473,-2.497242 -0.04656,-0.827034 -0.589947,-1.80864 -1.14597,-2.694672 l -3.541847,0.03452 -0.09945,-1.626164 -2.523841,4.550901 2.647571,4.266722 z m 5.118266,-3.530614 3.10882,-5.621858 c 0.33325,-0.942664 -0.114721,-2.030546 -0.762428,-3.040064 l -1.67596,-2.752432 -4.448624,2.852679 3.142222,5.241743 c 0.54085,0.77979 1.020472,1.946718 0.63597,3.319932 z" />
  <g
     transform="translate(56.391766,-0.17677748)"
     id="g4364">
    <g
       id="g4274">
      <path
         style="color:#000000;display:inline;overflow:visible;visibility:visible;opacity:0.07999998;fill:#ffffff;fill-opacity:1;fill-rule:nonzero;stroke:none;stroke-width:0.26458332;marker:none;enable-background:accumulate"
         d="m -24.211872,1.2694285 0,61.1690735 12.371744,0 c 10.5678581,0 9.8115271,0.439894 9.8115271,-10.648116 l 0,-19.936427 0,-19.936427 c 0,-10.700833 0.8143853,-10.6481035 -9.8115271,-10.6481035 z"
         id="path4231"
         inkscape:connector-curvature="0"
         sodipodi:nodetypes="ccsscssc" />
      <path
         inkscape:connector-curvature="0"
         style="color:#000000;display:inline;overflow:visible;visibility:visible;opacity:0.07999998;fill:#ffffff;fill-opacity:1;fill-rule:nonzero;stroke:none;stroke-width:0.26458332;marker:none;enable-background:accumulate"
         d="m -46.395136,31.853959 0,19.936427 c -1.236828,11.502216 0.0059,10.648116 9.81153,10.648116 l 24.743478,0 c 10.394983,0 9.811527,0.741004 9.811527,-10.648116 l 0,-19.936427 z"
         id="path4255"
         sodipodi:nodetypes="ccssscc" />
      <path
         style="color:#000000;display:inline;overflow:visible;visibility:visible;opacity:0.07999998;fill:#ffffff;fill-opacity:1;fill-rule:nonzero;stroke:none;stroke-width:2.11666656;stroke-linecap:butt;stroke-linejoin:miter;stroke-miterlimit:4;stroke-dasharray:none;stroke-dashoffset:0;stroke-opacity:1;marker:none;enable-background:accumulate"
         d="m -17.153556,62.438502 15.1249551,-16.384574 0,6.139813 c 0.9120172,11.193544 0.095941,10.244761 -9.6230261,10.244761 z"
         id="path4254"
         inkscape:connector-curvature="0"
         sodipodi:nodetypes="cccsc" />
    </g>
    <g
       id="g4319">
      <path
         style="fill:#666666"
         d="m -46.391766,59.131425 0,0.677156 c 0,1.311981 1.115,2.368196 2.5,2.368196 l 39,0 c 1.385,0 2.5,-1.056215 2.5,-2.368196 l 0,-0.677156 c 0,1.491744 -1.267028,2.693823 -2.841797,2.693823 l -38.316406,0 c -1.574769,0 -2.841797,-1.202079 -2.841797,-2.693823 z"
         id="rect11-5"
         inkscape:connector-curvature="0" />
      <path
         d="m -46.416159,4.4076775 0,-0.633985 c 0,-1.228337 1.115,-2.217214 2.5,-2.217214 l 39.0000013,0 c 1.385,0 2.5,0.988877 2.5,2.217214 l 0,0.633985 c 0,-1.39664 -1.267028,-2.522082 -2.841797,-2.522082 l -38.3164073,0 c -1.574769,0 -2.841797,1.125442 -2.841797,2.522082 z"
         id="rect11-1"
         inkscape:connector-curvature="0"
         style="fill:#e6e6e6" />
    </g>
  </g>
</svg>
