<?xml version="1.0" encoding="UTF-8" standalone="no"?>
<svg
   xmlns:dc="http://purl.org/dc/elements/1.1/"
   xmlns:cc="http://creativecommons.org/ns#"
   xmlns:rdf="http://www.w3.org/1999/02/22-rdf-syntax-ns#"
   xmlns:svg="http://www.w3.org/2000/svg"
   xmlns="http://www.w3.org/2000/svg"
   xmlns:sodipodi="http://sodipodi.sourceforge.net/DTD/sodipodi-0.dtd"
   xmlns:inkscape="http://www.inkscape.org/namespaces/inkscape"
   height="64"
   viewBox="0 0 64 64"
   width="64"
   id="svg2"
   version="1.1"
   inkscape:version="0.91 r13725"
   sodipodi:docname="application-vnd.oasis.opendocument.chart.svg">
  <metadata
     id="metadata33">
    <rdf:RDF>
      <cc:Work
         rdf:about="">
        <dc:format>image/svg+xml</dc:format>
        <dc:type
           rdf:resource="http://purl.org/dc/dcmitype/StillImage" />
      </cc:Work>
    </rdf:RDF>
  </metadata>
  <defs
     id="defs31" />
  <sodipodi:namedview
     pagecolor="#ffffff"
     bordercolor="#666666"
     borderopacity="1"
     objecttolerance="10"
     gridtolerance="10"
     guidetolerance="10"
     inkscape:pageopacity="0"
     inkscape:pageshadow="2"
     inkscape:window-width="3798"
     inkscape:window-height="2046"
     id="namedview29"
     showgrid="false"
     inkscape:zoom="20.85965"
     inkscape:cx="28.047452"
     inkscape:cy="28.299469"
     inkscape:window-x="19"
     inkscape:window-y="55"
     inkscape:window-maximized="0"
     inkscape:current-layer="svg2" />
  <linearGradient
     id="a"
     gradientTransform="matrix(1.0749904,0,0,1.1759239,113.08072,-0.42869934)"
     gradientUnits="userSpaceOnUse"
     x1="-74.929466"
     x2="-75.259552"
     y1="52.199436"
     y2="2.356489">
    <stop
       offset="0"
       stop-color="#309bd5"
       id="stop5" />
    <stop
       offset="1"
       stop-color="#1ab4fd"
       id="stop7" />
  </linearGradient>
  <rect
     style="fill:url(#a)"
     id="rect13"
     y="1.468998"
     x="10"
     width="44"
     ry="2.8561542"
     height="60.358204" />
  <path
     style="fill:#ffffff"
     inkscape:connector-curvature="0"
     id="path27"
     d="m 42.8853,21.179809 c 0.210368,-0.316927 0.123058,-0.742475 -0.193869,-0.952842 -0.317614,-0.209681 -0.742474,-0.123059 -0.952842,0.194555 l -2.542976,3.849182 c -0.105872,-0.01719 -0.211056,-0.033 -0.321052,-0.033 -1.135711,0 -2.06243,0.926031 -2.06243,2.06243 0,0.218618 0.04331,0.425548 0.106559,0.623541 l -2.455666,3.131456 c -0.316927,-0.197993 -0.687477,-0.317614 -1.087588,-0.317614 -1.1089,0 -2.010182,0.882033 -2.054181,1.979933 l -3.88493,2.262485 c -0.378112,-0.485358 -0.96178,-0.805035 -1.62382,-0.805035 -1.137086,0 -2.06243,0.926031 -2.06243,2.06243 0,0.44686 0.14712,0.859346 0.389112,1.197584 l -3.026272,4.612281 c -0.208305,0.318302 -0.120308,0.74385 0.197306,0.952155 0.116184,0.07631 0.247492,0.112746 0.376737,0.112746 0.224118,0 0.44411,-0.108621 0.575418,-0.310052 l 3.00771,-4.582719 c 0.173932,0.04675 0.354738,0.08043 0.542419,0.08043 1.1089,0 2.010182,-0.880658 2.05418,-1.98062 l 3.884931,-2.261111 c 0.377425,0.486046 0.961092,0.804348 1.623132,0.804348 1.137086,0 2.06243,-0.925344 2.06243,-2.06243 0,-0.21793 -0.04262,-0.425548 -0.105184,-0.622854 l 2.454292,-3.130768 c 0.316926,0.197305 0.687476,0.316926 1.087588,0.316926 1.136398,0 2.06243,-0.925343 2.06243,-2.062429 0,-0.527295 -0.204869,-1.003029 -0.530045,-1.368079 z M 25.812505,35.924808 c -0.379487,0 -0.687476,-0.307302 -0.687476,-0.687477 0,-0.3788 0.307989,-0.687477 0.687476,-0.687477 0.379487,0 0.687477,0.308677 0.687477,0.687477 0,0.380175 -0.30799,0.687477 -0.687477,0.687477 z m 7.562243,-3.437383 c -0.379487,0 -0.687476,-0.307302 -0.687476,-0.687477 0,-0.3788 0.307989,-0.687477 0.687476,-0.687477 0.379487,0 0.687477,0.308677 0.687477,0.687477 0,0.380175 -0.30799,0.687477 -0.687477,0.687477 z m 5.499813,-5.499813 c -0.379487,0 -0.687477,-0.30799 -0.687477,-0.687477 0,-0.3788 0.30799,-0.687477 0.687477,-0.687477 0.379487,0 0.687477,0.308677 0.687477,0.687477 0,0.379487 -0.308677,0.687477 -0.687477,0.687477 z M 25.125029,40.737144 c -0.380175,0 -0.687477,0.308677 -0.687477,0.687477 0,0.380174 0.307302,0.687476 0.687477,0.687476 0.380174,0 0.687476,-0.307302 0.687476,-0.687476 0,-0.3788 -0.306614,-0.687477 -0.687476,-0.687477 z m 3.437383,0 c -0.380175,0 -0.687477,0.308677 -0.687477,0.687477 0,0.380174 0.307302,0.687476 0.687477,0.687476 0.380174,0 0.687476,-0.307302 0.687476,-0.687476 0,-0.3788 -0.306614,-0.687477 -0.687476,-0.687477 z m 3.437383,0 c -0.380175,0 -0.687477,0.308677 -0.687477,0.687477 0,0.380174 0.307302,0.687476 0.687477,0.687476 0.380174,0 0.687477,-0.307302 0.687477,-0.687476 0,-0.3788 -0.306615,-0.687477 -0.687477,-0.687477 z m 3.437383,0 c -0.380175,0 -0.687477,0.308677 -0.687477,0.687477 0,0.380174 0.307302,0.687476 0.687477,0.687476 0.380862,0 0.687477,-0.307302 0.687477,-0.687476 0,-0.3788 -0.306615,-0.687477 -0.687477,-0.687477 z m 3.437383,0 c -0.380174,0 -0.687477,0.308677 -0.687477,0.687477 0,0.380174 0.307303,0.687476 0.687477,0.687476 0.380862,0 0.687477,-0.307302 0.687477,-0.687476 0,-0.3788 -0.306615,-0.687477 -0.687477,-0.687477 z m 3.437383,0 c -0.380174,0 -0.687476,0.308677 -0.687476,0.687477 0,0.380174 0.307302,0.687476 0.687476,0.687476 0.380862,0 0.687477,-0.307302 0.687477,-0.687476 0,-0.3788 -0.306615,-0.687477 -0.687477,-0.687477 z m -20.624298,-2.06243 c 0.380174,0 0.687476,-0.307302 0.687476,-0.687476 0,-0.3788 -0.307302,-0.687477 -0.687476,-0.687477 -0.380175,0 -0.687477,0.308677 -0.687477,0.687477 0,0.380174 0.307302,0.687476 0.687477,0.687476 z m 0,-3.437383 c 0.380174,0 0.687476,-0.307302 0.687476,-0.687477 0,-0.378799 -0.307302,-0.687476 -0.687476,-0.687476 -0.380175,0 -0.687477,0.308677 -0.687477,0.687476 0,0.380175 0.307302,0.687477 0.687477,0.687477 z m 0,-3.437383 c 0.380174,0 0.687476,-0.307302 0.687476,-0.687477 0,-0.378799 -0.307302,-0.687476 -0.687476,-0.687476 -0.380175,0 -0.687477,0.307989 -0.687477,0.687476 0,0.380175 0.307302,0.687477 0.687477,0.687477 z m 0,-3.437383 c 0.380174,0 0.687476,-0.306615 0.687476,-0.687477 0,-0.379487 -0.307302,-0.687476 -0.687476,-0.687476 -0.380175,0 -0.687477,0.307989 -0.687477,0.687476 0,0.38155 0.307302,0.687477 0.687477,0.687477 z m 0,-3.437383 c 0.380174,0 0.687476,-0.306615 0.687476,-0.687477 0,-0.379487 -0.307302,-0.687476 -0.687476,-0.687476 -0.380175,0 -0.687477,0.307989 -0.687477,0.687476 0,0.38155 0.307302,0.687477 0.687477,0.687477 z m 0,-3.437383 c 0.380174,0 0.687476,-0.306615 0.687476,-0.687477 0,-0.379487 -0.307302,-0.687477 -0.687476,-0.687477 -0.380175,0 -0.687477,0.30799 -0.687477,0.687477 0,0.38155 0.307302,0.687477 0.687477,0.687477 z" />
  <g
     transform="translate(56.391766,-0.17677748)"
     id="g4364">
    <g
       id="g4274">
      <path
         style="color:#000000;display:inline;overflow:visible;visibility:visible;opacity:0.07999998;fill:#ffffff;fill-opacity:1;fill-rule:nonzero;stroke:none;stroke-width:0.26458332;marker:none;enable-background:accumulate"
         d="m -24.211872,1.2694285 0,61.1690735 12.371744,0 c 10.5678581,0 9.8115271,0.439894 9.8115271,-10.648116 l 0,-19.936427 0,-19.936427 c 0,-10.700833 0.8143853,-10.6481035 -9.8115271,-10.6481035 z"
         id="path4231"
         inkscape:connector-curvature="0"
         sodipodi:nodetypes="ccsscssc" />
      <path
         inkscape:connector-curvature="0"
         style="color:#000000;display:inline;overflow:visible;visibility:visible;opacity:0.07999998;fill:#ffffff;fill-opacity:1;fill-rule:nonzero;stroke:none;stroke-width:0.26458332;marker:none;enable-background:accumulate"
         d="m -46.395136,31.853959 0,19.936427 c -1.236828,11.502216 0.0059,10.648116 9.81153,10.648116 l 24.743478,0 c 10.394983,0 9.811527,0.741004 9.811527,-10.648116 l 0,-19.936427 z"
         id="path4255"
         sodipodi:nodetypes="ccssscc" />
      <path
         style="color:#000000;display:inline;overflow:visible;visibility:visible;opacity:0.07999998;fill:#ffffff;fill-opacity:1;fill-rule:nonzero;stroke:none;stroke-width:2.11666656;stroke-linecap:butt;stroke-linejoin:miter;stroke-miterlimit:4;stroke-dasharray:none;stroke-dashoffset:0;stroke-opacity:1;marker:none;enable-background:accumulate"
         d="m -17.153556,62.438502 15.1249551,-16.384574 0,6.139813 c 0.9120172,11.193544 0.095941,10.244761 -9.6230261,10.244761 z"
         id="path4254"
         inkscape:connector-curvature="0"
         sodipodi:nodetypes="cccsc" />
    </g>
    <g
       id="g4319">
      <path
         style="fill:#666666"
         d="m -46.391766,59.131425 0,0.677156 c 0,1.311981 1.115,2.368196 2.5,2.368196 l 39,0 c 1.385,0 2.5,-1.056215 2.5,-2.368196 l 0,-0.677156 c 0,1.491744 -1.267028,2.693823 -2.841797,2.693823 l -38.316406,0 c -1.574769,0 -2.841797,-1.202079 -2.841797,-2.693823 z"
         id="rect11-5"
         inkscape:connector-curvature="0" />
      <path
         d="m -46.416159,4.4076775 0,-0.633985 c 0,-1.228337 1.115,-2.217214 2.5,-2.217214 l 39.0000013,0 c 1.385,0 2.5,0.988877 2.5,2.217214 l 0,0.633985 c 0,-1.39664 -1.267028,-2.522082 -2.841797,-2.522082 l -38.3164073,0 c -1.574769,0 -2.841797,1.125442 -2.841797,2.522082 z"
         id="rect11-1"
         inkscape:connector-curvature="0"
         style="fill:#e6e6e6" />
    </g>
  </g>
</svg>
