<?xml version="1.0" encoding="UTF-8" standalone="no"?>
<svg
   xmlns:dc="http://purl.org/dc/elements/1.1/"
   xmlns:cc="http://creativecommons.org/ns#"
   xmlns:rdf="http://www.w3.org/1999/02/22-rdf-syntax-ns#"
   xmlns:svg="http://www.w3.org/2000/svg"
   xmlns="http://www.w3.org/2000/svg"
   xmlns:sodipodi="http://sodipodi.sourceforge.net/DTD/sodipodi-0.dtd"
   xmlns:inkscape="http://www.inkscape.org/namespaces/inkscape"
   height="64"
   viewBox="0 0 64 64"
   width="64"
   id="svg2"
   version="1.1"
   inkscape:version="0.91 r13725"
   sodipodi:docname="application-vector-template.svg">
  <metadata
     id="metadata39">
    <rdf:RDF>
      <cc:Work
         rdf:about="">
        <dc:format>image/svg+xml</dc:format>
        <dc:type
           rdf:resource="http://purl.org/dc/dcmitype/StillImage" />
      </cc:Work>
    </rdf:RDF>
  </metadata>
  <defs
     id="defs37" />
  <sodipodi:namedview
     pagecolor="#ffffff"
     bordercolor="#666666"
     borderopacity="1"
     objecttolerance="10"
     gridtolerance="10"
     guidetolerance="10"
     inkscape:pageopacity="0"
     inkscape:pageshadow="2"
     inkscape:window-width="3798"
     inkscape:window-height="2046"
     id="namedview35"
     showgrid="false"
     inkscape:zoom="14.75"
     inkscape:cx="42.023998"
     inkscape:cy="32.375415"
     inkscape:window-x="19"
     inkscape:window-y="55"
     inkscape:window-maximized="0"
     inkscape:current-layer="svg2" />
  <linearGradient
     id="a"
     gradientTransform="matrix(1.0749904,0,0,1.1759031,113.08072,-0.42866573)"
     gradientUnits="userSpaceOnUse"
     x1="-74.929466"
     x2="-75.259552"
     y1="52.199436"
     y2="2.356489">
    <stop
       offset="0"
       stop-color="#8798a9"
       id="stop5" />
    <stop
       offset="1"
       stop-color="#aeb6be"
       id="stop7" />
  </linearGradient>
  <rect
     style="fill:url(#a)"
     id="rect13"
     y="1.468998"
     x="10"
     width="44"
     ry="2.8561037"
     height="60.357136" />
  <path
     d="m 23.584631,41.046258 7.107718,0 0,0.923129 2.58463,0 0,-0.923129 7.138392,0 0,1.043516 2.584571,0 0,-2.584571 -0.953626,0 0,-7.228223 0.92307,0 0,-2.58463 -0.92307,0 0,-6.710374 0.953685,0 0,-2.58463 -2.584571,0 0,0.525725 -7.138392,0 0,-0.923069 -2.58463,0 0,0.923069 -7.107777,0 0,-0.646172 -2.58463,0 0,2.58463 0.92307,0 0,6.830821 -0.92307,0 0,2.58463 0.92307,0 0,7.107717 -0.92307,0 0,2.58469 2.58463,0 z m -0.738432,0 0,0.184637 -1.107707,0 0,-1.107707 0.184638,0 0.738491,0 0.184638,0 0,0.184638 0,0.738432 z m 8.584641,-20.123187 0,-0.184637 1.107707,0 0,0.184637 0,0.386152 0,0.35228 0,0.184579 -1.107707,0 0,-0.184579 0,-0.35228 z m 1.107707,20.123187 0,0.184637 -1.107707,0 0,-0.184637 0,-0.386152 0,-0.352221 0,-0.184637 1.107707,0 0,0.184637 0,0.352221 z m 0.122993,-9.646159 c 0.07177,0.07213 0.07177,0.188901 0,0.261027 -0.03642,0.036 -0.08326,0.05407 -0.130869,0.05407 -0.0469,0 -0.09433,-0.01806 -0.130573,-0.05407 l -0.415345,-0.415405 -0.415405,0.415405 c -0.03624,0.036 -0.08344,0.05407 -0.130691,0.05407 -0.04725,0 -0.09445,-0.01806 -0.130751,-0.05407 -0.07189,-0.07213 -0.07189,-0.188901 0,-0.261027 l 0.415405,-0.415405 -0.415405,-0.415405 c -0.07189,-0.07189 -0.07189,-0.189138 0,-0.261086 0.07195,-0.07195 0.189138,-0.07195 0.261086,0 l 0.415761,0.415405 0.415345,-0.415405 c 0.07213,-0.07195 0.188961,-0.07195 0.261087,0 0.07213,0.07195 0.07213,0.189138 0,0.261086 l -0.415405,0.415405 z m 9.600029,9.951184 -1.107648,0 0,-0.305025 0,-0.738432 0,-0.06419 0.153963,0 0.738492,0 0.215252,0 0,1.107648 z m -1.846139,-1.84608 0,0.802682 -5.782626,0 c 3.222867,-0.913772 5.761367,-3.452213 6.67508,-6.675436 l 0,5.872754 z m 1.815465,-7.966655 -0.184579,0 -0.386152,0 -0.35228,0 -0.184578,0 0,-1.107707 0.184578,0 0.35228,0 0.386152,0 0.184579,0 z m -1.076974,-10.402711 0.892395,0 0.215253,0 0,1.107707 -0.215253,0 -0.738491,0 -0.153963,0 0,-0.581981 0,-0.525726 z m -0.738491,0.525726 0,1.320413 0.892395,0 0,5.354963 c -0.913713,-3.2234 -3.452213,-5.761545 -6.67508,-6.675436 l 5.782685,0 z m -18.676938,-0.646232 0.184638,0 0.923069,0 0,0.646172 0,0.461535 -0.184637,0 -0.738491,0 -0.184638,0 0,-1.107707 z m 1.846139,1.846198 0,-1.199966 5.751952,0 c -3.223045,0.913831 -5.76113,3.451976 -6.675021,6.675021 l 0,-5.475055 0.923069,0 z m -1.846139,7.569253 0.184638,0 0.386152,0 0.35228,0 0.184637,0 0,1.107707 -0.184637,0 -0.35228,0 -0.386152,0 -0.184638,0 z m 0.92307,3.201667 c 0.913891,3.223223 3.451976,5.761664 6.67508,6.675436 l -5.752011,0 0,-0.923128 -0.923069,0 z"
     id="path33"
     inkscape:connector-curvature="0"
     style="fill:#373e44" />
  <g
     transform="translate(56.391766,-0.17677748)"
     id="g4364">
    <g
       id="g4274">
      <path
         style="color:#000000;display:inline;overflow:visible;visibility:visible;opacity:0.07999998;fill:#ffffff;fill-opacity:1;fill-rule:nonzero;stroke:none;stroke-width:0.26458332;marker:none;enable-background:accumulate"
         d="m -24.211872,1.2694285 0,61.1690735 12.371744,0 c 10.5678581,0 9.8115271,0.439894 9.8115271,-10.648116 l 0,-19.936427 0,-19.936427 c 0,-10.700833 0.8143853,-10.6481035 -9.8115271,-10.6481035 z"
         id="path4231"
         inkscape:connector-curvature="0"
         sodipodi:nodetypes="ccsscssc" />
      <path
         inkscape:connector-curvature="0"
         style="color:#000000;display:inline;overflow:visible;visibility:visible;opacity:0.07999998;fill:#ffffff;fill-opacity:1;fill-rule:nonzero;stroke:none;stroke-width:0.26458332;marker:none;enable-background:accumulate"
         d="m -46.395136,31.853959 0,19.936427 c -1.236828,11.502216 0.0059,10.648116 9.81153,10.648116 l 24.743478,0 c 10.394983,0 9.811527,0.741004 9.811527,-10.648116 l 0,-19.936427 z"
         id="path4255"
         sodipodi:nodetypes="ccssscc" />
      <path
         style="color:#000000;display:inline;overflow:visible;visibility:visible;opacity:0.07999998;fill:#ffffff;fill-opacity:1;fill-rule:nonzero;stroke:none;stroke-width:2.11666656;stroke-linecap:butt;stroke-linejoin:miter;stroke-miterlimit:4;stroke-dasharray:none;stroke-dashoffset:0;stroke-opacity:1;marker:none;enable-background:accumulate"
         d="m -17.153556,62.438502 15.1249551,-16.384574 0,6.139813 c 0.9120172,11.193544 0.095941,10.244761 -9.6230261,10.244761 z"
         id="path4254"
         inkscape:connector-curvature="0"
         sodipodi:nodetypes="cccsc" />
    </g>
    <g
       id="g4319">
      <path
         style="fill:#666666"
         d="m -46.391766,59.131425 0,0.677156 c 0,1.311981 1.115,2.368196 2.5,2.368196 l 39,0 c 1.385,0 2.5,-1.056215 2.5,-2.368196 l 0,-0.677156 c 0,1.491744 -1.267028,2.693823 -2.841797,2.693823 l -38.316406,0 c -1.574769,0 -2.841797,-1.202079 -2.841797,-2.693823 z"
         id="rect11-5"
         inkscape:connector-curvature="0" />
      <path
         d="m -46.416159,4.4076775 0,-0.633985 c 0,-1.228337 1.115,-2.217214 2.5,-2.217214 l 39.0000013,0 c 1.385,0 2.5,0.988877 2.5,2.217214 l 0,0.633985 c 0,-1.39664 -1.267028,-2.522082 -2.841797,-2.522082 l -38.3164073,0 c -1.574769,0 -2.841797,1.125442 -2.841797,2.522082 z"
         id="rect11-1"
         inkscape:connector-curvature="0"
         style="fill:#e6e6e6" />
    </g>
  </g>
</svg>
