<?xml version="1.0" encoding="UTF-8" standalone="no"?>
<svg
   xmlns:dc="http://purl.org/dc/elements/1.1/"
   xmlns:cc="http://creativecommons.org/ns#"
   xmlns:rdf="http://www.w3.org/1999/02/22-rdf-syntax-ns#"
   xmlns:svg="http://www.w3.org/2000/svg"
   xmlns="http://www.w3.org/2000/svg"
   xmlns:sodipodi="http://sodipodi.sourceforge.net/DTD/sodipodi-0.dtd"
   xmlns:inkscape="http://www.inkscape.org/namespaces/inkscape"
   height="64"
   viewBox="0 0 64 64"
   width="64"
   id="svg2"
   version="1.1"
   inkscape:version="0.91 r13725"
   sodipodi:docname="application-certificate.svg">
  <metadata
     id="metadata37">
    <rdf:RDF>
      <cc:Work
         rdf:about="">
        <dc:format>image/svg+xml</dc:format>
        <dc:type
           rdf:resource="http://purl.org/dc/dcmitype/StillImage" />
      </cc:Work>
    </rdf:RDF>
  </metadata>
  <defs
     id="defs35" />
  <sodipodi:namedview
     pagecolor="#ffffff"
     bordercolor="#666666"
     borderopacity="1"
     objecttolerance="10"
     gridtolerance="10"
     guidetolerance="10"
     inkscape:pageopacity="0"
     inkscape:pageshadow="2"
     inkscape:window-width="3798"
     inkscape:window-height="2046"
     id="namedview33"
     showgrid="false"
     inkscape:zoom="20.85965"
     inkscape:cx="25.88302"
     inkscape:cy="31.474295"
     inkscape:window-x="19"
     inkscape:window-y="1105"
     inkscape:window-maximized="0"
     inkscape:current-layer="svg2" />
  <linearGradient
     id="a"
     gradientTransform="matrix(1.0749904,0,0,1.1787258,113.08072,-0.43322107)"
     gradientUnits="userSpaceOnUse"
     x1="-74.929466"
     x2="-75.259552"
     y1="52.199436"
     y2="2.356489">
    <stop
       offset="0"
       stop-color="#8294a4"
       id="stop5" />
    <stop
       offset="1"
       stop-color="#aeb6be"
       id="stop7" />
  </linearGradient>
  <rect
     style="fill:url(#a)"
     id="rect13"
     y="1.468998"
     x="10"
     width="44"
     ry="2.8629596"
     height="60.502022" />
  <g
     style="fill:#3a4148"
     id="g27"
     transform="matrix(0.06470664,0,0,0.06470664,21.303889,19.931614)">
    <path
       style="fill:#3a4148"
       inkscape:connector-curvature="0"
       id="path29"
       d="m 192.511,64.521 c -2.746,-2.745 -7.162,-2.862 -10.046,-0.268 -14.862,13.354 -93,81.184 -171.942,105.162 l -0.855,0.259 c -2.051,0.623 -3.727,2.114 -4.582,4.082 -0.854,1.969 -0.801,4.209 0.146,6.133 l 0.395,0.799 c 0.004,0.011 0.008,0.019 0.015,0.027 0.271,0.564 11.653,24.328 13.133,57.811 0.916,20.82 -2.101,40.832 -8.945,59.519 -2.442,0.19 -4.834,1.215 -6.703,3.084 -4.168,4.167 -4.166,10.921 0,15.087 4.166,4.166 10.92,4.167 15.086,0 2.408,-2.409 3.416,-5.682 3.039,-8.82 l 76.486,-76.489 c 1.908,-1.907 2.609,-4.71 1.824,-7.289 -2.703,-8.89 -0.291,-18.509 6.299,-25.097 4.756,-4.758 11.078,-7.377 17.809,-7.377 6.731,0 13.058,2.619 17.813,7.377 4.758,4.756 7.375,11.08 7.375,17.808 0,6.728 -2.617,13.051 -7.377,17.81 -4.754,4.754 -11.074,7.371 -17.799,7.372 -2.494,0 -4.953,-0.362 -7.31,-1.075 -2.582,-0.783 -5.379,-0.08 -7.283,1.824 L 32.61,318.749 c -3.142,-0.378 -6.416,0.628 -8.826,3.038 -4.166,4.166 -4.164,10.921 0,15.087 4.166,4.166 10.922,4.167 15.088,0 1.869,-1.869 2.892,-4.258 3.084,-6.702 16.48,-6.036 34.014,-9.105 52.15,-9.105 2.276,0 4.604,0.049 6.922,0.145 33.588,1.385 58.088,13.064 58.315,13.173 l 0.775,0.382 c 1.014,0.498 2.117,0.749 3.221,0.748 0.99,0.001 1.98,-0.2 2.91,-0.603 1.963,-0.855 3.457,-2.529 4.08,-4.579 l 0.258,-0.854 c 23.979,-78.943 91.807,-157.083 105.16,-171.944 2.594,-2.888 2.477,-7.3 -0.271,-10.046 z" />
    <path
       style="fill:#3a4148"
       inkscape:connector-curvature="0"
       id="path31"
       d="M 337.857,86.974 253.02,2.139 C 251.65,0.769 249.792,0 247.855,0 c -1.937,-0.001 -3.796,0.768 -5.164,2.137 l -36.295,36.299 c -2.854,2.853 -2.854,7.477 0,10.329 l 84.84,84.834 c 1.369,1.371 3.225,2.14 5.164,2.14 1.936,0 3.793,-0.771 5.162,-2.14 l 36.297,-36.297 c 2.852,-2.851 2.852,-7.475 -0.002,-10.328 z" />
  </g>
  <g
     transform="translate(56.391766,-0.17677748)"
     id="g4364">
    <g
       id="g4274">
      <path
         style="color:#000000;display:inline;overflow:visible;visibility:visible;opacity:0.07999998;fill:#ffffff;fill-opacity:1;fill-rule:nonzero;stroke:none;stroke-width:0.26458332;marker:none;enable-background:accumulate"
         d="m -24.211872,1.2694285 0,61.1690735 12.371744,0 c 10.5678581,0 9.8115271,0.439894 9.8115271,-10.648116 l 0,-19.936427 0,-19.936427 c 0,-10.700833 0.8143853,-10.6481035 -9.8115271,-10.6481035 z"
         id="path4231"
         inkscape:connector-curvature="0"
         sodipodi:nodetypes="ccsscssc" />
      <path
         inkscape:connector-curvature="0"
         style="color:#000000;display:inline;overflow:visible;visibility:visible;opacity:0.07999998;fill:#ffffff;fill-opacity:1;fill-rule:nonzero;stroke:none;stroke-width:0.26458332;marker:none;enable-background:accumulate"
         d="m -46.395136,31.853959 0,19.936427 c -1.236828,11.502216 0.0059,10.648116 9.81153,10.648116 l 24.743478,0 c 10.394983,0 9.811527,0.741004 9.811527,-10.648116 l 0,-19.936427 z"
         id="path4255"
         sodipodi:nodetypes="ccssscc" />
      <path
         style="color:#000000;display:inline;overflow:visible;visibility:visible;opacity:0.07999998;fill:#ffffff;fill-opacity:1;fill-rule:nonzero;stroke:none;stroke-width:2.11666656;stroke-linecap:butt;stroke-linejoin:miter;stroke-miterlimit:4;stroke-dasharray:none;stroke-dashoffset:0;stroke-opacity:1;marker:none;enable-background:accumulate"
         d="m -17.153556,62.438502 15.1249551,-16.384574 0,6.139813 c 0.9120172,11.193544 0.095941,10.244761 -9.6230261,10.244761 z"
         id="path4254"
         inkscape:connector-curvature="0"
         sodipodi:nodetypes="cccsc" />
    </g>
    <g
       id="g4319">
      <path
         style="fill:#666666"
         d="m -46.391766,59.131425 0,0.677156 c 0,1.311981 1.115,2.368196 2.5,2.368196 l 39,0 c 1.385,0 2.5,-1.056215 2.5,-2.368196 l 0,-0.677156 c 0,1.491744 -1.267028,2.693823 -2.841797,2.693823 l -38.316406,0 c -1.574769,0 -2.841797,-1.202079 -2.841797,-2.693823 z"
         id="rect11"
         inkscape:connector-curvature="0" />
      <path
         d="m -46.416159,4.4076775 0,-0.633985 c 0,-1.228337 1.115,-2.217214 2.5,-2.217214 l 39.0000013,0 c 1.385,0 2.5,0.988877 2.5,2.217214 l 0,0.633985 c 0,-1.39664 -1.267028,-2.522082 -2.841797,-2.522082 l -38.3164073,0 c -1.574769,0 -2.841797,1.125442 -2.841797,2.522082 z"
         id="rect11-1"
         inkscape:connector-curvature="0"
         style="fill:#ffffff" />
    </g>
  </g>
</svg>
