<?xml version="1.0" encoding="UTF-8" standalone="no"?>
<svg
   xmlns:dc="http://purl.org/dc/elements/1.1/"
   xmlns:cc="http://creativecommons.org/ns#"
   xmlns:rdf="http://www.w3.org/1999/02/22-rdf-syntax-ns#"
   xmlns:svg="http://www.w3.org/2000/svg"
   xmlns="http://www.w3.org/2000/svg"
   xmlns:sodipodi="http://sodipodi.sourceforge.net/DTD/sodipodi-0.dtd"
   xmlns:inkscape="http://www.inkscape.org/namespaces/inkscape"
   height="64"
   viewBox="0 0 64 64"
   width="64"
   id="svg2"
   version="1.1"
   inkscape:version="0.91 r13725"
   sodipodi:docname="application-x-java-archive.svg">
  <metadata
     id="metadata35">
    <rdf:RDF>
      <cc:Work
         rdf:about="">
        <dc:format>image/svg+xml</dc:format>
        <dc:type
           rdf:resource="http://purl.org/dc/dcmitype/StillImage" />
      </cc:Work>
    </rdf:RDF>
  </metadata>
  <defs
     id="defs33" />
  <sodipodi:namedview
     pagecolor="#ffffff"
     bordercolor="#666666"
     borderopacity="1"
     objecttolerance="10"
     gridtolerance="10"
     guidetolerance="10"
     inkscape:pageopacity="0"
     inkscape:pageshadow="2"
     inkscape:window-width="3798"
     inkscape:window-height="2046"
     id="namedview31"
     showgrid="false"
     inkscape:zoom="14.75"
     inkscape:cx="10.571849"
     inkscape:cy="16.677423"
     inkscape:window-x="19"
     inkscape:window-y="1105"
     inkscape:window-maximized="0"
     inkscape:current-layer="svg2" />
  <linearGradient
     id="a"
     gradientTransform="matrix(1.0749904,0,0,1.1759031,113.08072,-0.42866573)"
     gradientUnits="userSpaceOnUse"
     x1="-74.929466"
     x2="-75.259552"
     y1="52.199436"
     y2="2.356489">
    <stop
       offset="0"
       stop-color="#14b59e"
       id="stop5" />
    <stop
       offset="1"
       stop-color="#33d6b6"
       id="stop7" />
  </linearGradient>
  <rect
     style="fill:url(#a)"
     id="rect13"
     y="1.468998"
     x="10"
     width="44"
     ry="2.8561037"
     height="60.357136" />
  <path
     d="m 38.633888,32.235921 c 0.05023,8.63e-4 0.09596,0.0024 0.1679,0.0024 0.978546,0 3.40275,-0.174909 4.784319,-1.794804 1.76911,-2.074906 2.061327,-4.632265 0.66664,-5.82238 -0.449434,-0.383334 -1.031267,-0.585732 -1.682318,-0.585732 -0.527422,0 -1.089306,0.140884 -1.647065,0.389905 -1.269059,-2.258348 -9.120148,-2.383171 -10.805149,-2.383171 -1.834678,4.7e-5 -10.983533,0.146309 -10.985211,3.033325 l 0,4.72e-4 0,4.73e-4 0,4.85e-4 c 0,3.371183 1.446451,6.394722 3.722715,8.470834 -2.112098,0.563869 -3.714927,1.466837 -3.714927,2.867102 0,2.910345 6.90515,3.687213 10.985176,3.687213 4.079801,0 10.984206,-0.776868 10.984206,-3.687213 0,-1.400265 -1.602935,-2.303233 -3.714914,-2.867102 0.444269,-0.404974 0.862573,-0.838866 1.238628,-1.312303 z m 4.469032,-6.267169 c 0.539548,0.459384 0.284464,1.979888 -0.863613,3.326475 -0.599324,0.701563 -1.612579,0.983391 -2.412989,1.097058 0.633762,-1.223879 1.053804,-2.580641 1.213869,-4.018607 0.578252,-0.385544 1.132595,-0.566989 1.530301,-0.566989 0.227275,0 0.406025,0.05448 0.532432,0.162063 z M 30.118121,23.813423 c 5.013413,0 8.097474,0.749426 9.013749,1.263482 -0.916228,0.513583 -4.000277,1.263009 -9.013749,1.263009 -5.014596,0 -8.098373,-0.749426 -9.014707,-1.263009 0.916382,-0.514056 4.000111,-1.263482 9.014707,-1.263482 z m 9.2239,12.582675 c -0.169331,0.551188 -3.159047,1.935652 -9.216053,1.935652 -6.057278,0 -9.047786,-1.384464 -9.216384,-1.898047 0.100336,-0.328179 1.208822,-0.950099 3.360771,-1.401471 -0.03723,0.110264 -0.06252,0.22516 -0.06252,0.350563 0,1.616467 3.217878,1.955613 5.918072,1.955613 2.698977,0 5.916854,-0.339146 5.916854,-1.955613 0,-0.126088 -0.02576,-0.241953 -0.06287,-0.353257 2.152646,0.44759 3.261865,1.060977 3.362142,1.36656 z"
     id="path29"
     inkscape:connector-curvature="0"
     style="fill:#0a5045" />
  <g
     transform="translate(56.391766,-0.17677748)"
     id="g4364">
    <g
       id="g4274">
      <path
         style="color:#000000;display:inline;overflow:visible;visibility:visible;opacity:0.07999998;fill:#ffffff;fill-opacity:1;fill-rule:nonzero;stroke:none;stroke-width:0.26458332;marker:none;enable-background:accumulate"
         d="m -24.211872,1.2694285 0,61.1690735 12.371744,0 c 10.5678581,0 9.8115271,0.439894 9.8115271,-10.648116 l 0,-19.936427 0,-19.936427 c 0,-10.700833 0.8143853,-10.6481035 -9.8115271,-10.6481035 z"
         id="path4231"
         inkscape:connector-curvature="0"
         sodipodi:nodetypes="ccsscssc" />
      <path
         inkscape:connector-curvature="0"
         style="color:#000000;display:inline;overflow:visible;visibility:visible;opacity:0.07999998;fill:#ffffff;fill-opacity:1;fill-rule:nonzero;stroke:none;stroke-width:0.26458332;marker:none;enable-background:accumulate"
         d="m -46.395136,31.853959 0,19.936427 c -1.236828,11.502216 0.0059,10.648116 9.81153,10.648116 l 24.743478,0 c 10.394983,0 9.811527,0.741004 9.811527,-10.648116 l 0,-19.936427 z"
         id="path4255"
         sodipodi:nodetypes="ccssscc" />
      <path
         style="color:#000000;display:inline;overflow:visible;visibility:visible;opacity:0.07999998;fill:#ffffff;fill-opacity:1;fill-rule:nonzero;stroke:none;stroke-width:2.11666656;stroke-linecap:butt;stroke-linejoin:miter;stroke-miterlimit:4;stroke-dasharray:none;stroke-dashoffset:0;stroke-opacity:1;marker:none;enable-background:accumulate"
         d="m -17.153556,62.438502 15.1249551,-16.384574 0,6.139813 c 0.9120172,11.193544 0.095941,10.244761 -9.6230261,10.244761 z"
         id="path4254"
         inkscape:connector-curvature="0"
         sodipodi:nodetypes="cccsc" />
    </g>
    <g
       id="g4319">
      <path
         style="fill:#666666"
         d="m -46.391766,59.131425 0,0.677156 c 0,1.311981 1.115,2.368196 2.5,2.368196 l 39,0 c 1.385,0 2.5,-1.056215 2.5,-2.368196 l 0,-0.677156 c 0,1.491744 -1.267028,2.693823 -2.841797,2.693823 l -38.316406,0 c -1.574769,0 -2.841797,-1.202079 -2.841797,-2.693823 z"
         id="rect11-5"
         inkscape:connector-curvature="0" />
      <path
         d="m -46.416159,4.4076775 0,-0.633985 c 0,-1.228337 1.115,-2.217214 2.5,-2.217214 l 39.0000013,0 c 1.385,0 2.5,0.988877 2.5,2.217214 l 0,0.633985 c 0,-1.39664 -1.267028,-2.522082 -2.841797,-2.522082 l -38.3164073,0 c -1.574769,0 -2.841797,1.125442 -2.841797,2.522082 z"
         id="rect11-1"
         inkscape:connector-curvature="0"
         style="fill:#e6e6e6" />
    </g>
  </g>
</svg>
