<?xml version="1.0" encoding="UTF-8" standalone="no"?>
<svg
   xmlns:dc="http://purl.org/dc/elements/1.1/"
   xmlns:cc="http://creativecommons.org/ns#"
   xmlns:rdf="http://www.w3.org/1999/02/22-rdf-syntax-ns#"
   xmlns:svg="http://www.w3.org/2000/svg"
   xmlns="http://www.w3.org/2000/svg"
   xmlns:sodipodi="http://sodipodi.sourceforge.net/DTD/sodipodi-0.dtd"
   xmlns:inkscape="http://www.inkscape.org/namespaces/inkscape"
   height="64"
   viewBox="0 0 64 64"
   width="64"
   id="svg2"
   version="1.1"
   inkscape:version="0.91 r13725"
   sodipodi:docname="application-executable.svg">
  <metadata
     id="metadata33">
    <rdf:RDF>
      <cc:Work
         rdf:about="">
        <dc:format>image/svg+xml</dc:format>
        <dc:type
           rdf:resource="http://purl.org/dc/dcmitype/StillImage" />
      </cc:Work>
    </rdf:RDF>
  </metadata>
  <defs
     id="defs31">
    <linearGradient
       id="a-3"
       gradientTransform="matrix(1.0749904,0,0,1.1759239,113.08072,-0.42869928)"
       gradientUnits="userSpaceOnUse"
       x1="-74.929466"
       x2="-75.259552"
       y1="52.199436"
       y2="2.3564889">
      <stop
         offset="0"
         stop-color="#ff721a"
         id="stop5-1" />
      <stop
         offset="1"
         stop-color="#fbb521"
         id="stop7-4" />
    </linearGradient>
    <linearGradient
       id="a-3-4"
       gradientTransform="matrix(1.0749904,0,0,1.1759239,113.08072,-0.42869928)"
       gradientUnits="userSpaceOnUse"
       x1="-74.929466"
       x2="-75.259552"
       y1="52.199436"
       y2="2.3564889">
      <stop
         offset="0"
         stop-color="#ff721a"
         id="stop5-1-1" />
      <stop
         offset="1"
         stop-color="#fbb521"
         id="stop7-4-2" />
    </linearGradient>
    <linearGradient
       id="a-4"
       gradientTransform="matrix(1.0749904,0,0,1.1772239,113.08072,-0.43079726)"
       gradientUnits="userSpaceOnUse"
       x1="-74.929466"
       x2="-75.259552"
       y1="52.199436"
       y2="2.3564889">
      <stop
         offset="0"
         stop-color="#e41c1b"
         id="stop5-2" />
      <stop
         offset="1"
         stop-color="#f6211b"
         id="stop7-2" />
    </linearGradient>
  </defs>
  <sodipodi:namedview
     pagecolor="#ffffff"
     bordercolor="#666666"
     borderopacity="1"
     objecttolerance="10"
     gridtolerance="10"
     guidetolerance="10"
     inkscape:pageopacity="0"
     inkscape:pageshadow="2"
     inkscape:window-width="3798"
     inkscape:window-height="2046"
     id="namedview29"
     showgrid="false"
     inkscape:zoom="14.75"
     inkscape:cx="-10.609016"
     inkscape:cy="38.499513"
     inkscape:window-x="19"
     inkscape:window-y="1105"
     inkscape:window-maximized="0"
     inkscape:current-layer="svg2" />
  <linearGradient
     id="a"
     gradientTransform="matrix(1.0749904 0 0 1.0292896 56.688954 -.015285)"
     gradientUnits="userSpaceOnUse"
     x1="-74.929466"
     x2="-75.259552"
     y1="52.199436"
     y2="2.356489">
    <stop
       offset="0"
       stop-color="#8798a9"
       id="stop5" />
    <stop
       offset="1"
       stop-color="#aeb6be"
       id="stop7" />
  </linearGradient>
  <rect
     id="rect13"
     y="1.468998"
     x="10"
     width="44"
     ry="2.8593116"
     height="60.424931"
     style="fill:url(#a-4)" />
  <path
     inkscape:connector-curvature="0"
     style="color:#000000;clip-rule:nonzero;display:inline;overflow:visible;visibility:visible;opacity:1;isolation:auto;mix-blend-mode:normal;color-interpolation:sRGB;color-interpolation-filters:linearRGB;solid-color:#000000;solid-opacity:1;fill:#ffffff;fill-opacity:1;fill-rule:nonzero;stroke-width:1;stroke-linecap:butt;stroke-linejoin:miter;stroke-miterlimit:4;stroke-dasharray:none;stroke-dashoffset:0;stroke-opacity:1;color-rendering:auto;image-rendering:auto;shape-rendering:auto;text-rendering:auto;enable-background:accumulate"
     d="m 21.442267,23.022229 c -0.432789,0 -0.78125,0.348461 -0.78125,0.78125 l 0,15.03711 c 0,0.432789 0.348461,0.78125 0.78125,0.78125 l 20.4375,0 c 0.432789,0 0.78125,-0.348461 0.78125,-0.78125 l 0,-15.03711 c 0,-0.432789 -0.348461,-0.78125 -0.78125,-0.78125 l -20.4375,0 z m 8.876953,4.119141 c 0.196044,0 0.359538,0.06912 0.490235,0.207031 l 3.548828,3.542969 c 0.134304,0.134305 0.201172,0.297865 0.201172,0.490235 -10e-7,0.188694 -0.06687,0.354573 -0.201172,0.496093 l -3.548828,3.542969 c -0.134238,0.134304 -0.297866,0.201172 -0.490235,0.201172 -0.192302,0 -0.35593,-0.06687 -0.490234,-0.201172 l -0.414063,-0.408203 c -0.134304,-0.141521 -0.201172,-0.3074 -0.201172,-0.496094 0,-0.192369 0.06687,-0.353977 0.201172,-0.488281 l 2.646485,-2.646484 -2.646485,-2.640626 c -0.134304,-0.14152 -0.201172,-0.305446 -0.201172,-0.49414 0,-0.192369 0.06687,-0.35593 0.201172,-0.490234 l 0.414063,-0.408204 c 0.130696,-0.137845 0.29419,-0.207031 0.490234,-0.207031 z"
     id="rect25-6" />
  <g
     transform="translate(56.391766,-0.17677748)"
     id="g4364">
    <g
       id="g4274">
      <path
         style="color:#000000;display:inline;overflow:visible;visibility:visible;opacity:0.07999998;fill:#ffffff;fill-opacity:1;fill-rule:nonzero;stroke:none;stroke-width:0.26458332;marker:none;enable-background:accumulate"
         d="m -24.211872,1.2694285 0,61.1690735 12.371744,0 c 10.5678581,0 9.8115271,0.439894 9.8115271,-10.648116 l 0,-19.936427 0,-19.936427 c 0,-10.700833 0.8143853,-10.6481035 -9.8115271,-10.6481035 z"
         id="path4231"
         inkscape:connector-curvature="0"
         sodipodi:nodetypes="ccsscssc" />
      <path
         inkscape:connector-curvature="0"
         style="color:#000000;display:inline;overflow:visible;visibility:visible;opacity:0.07999998;fill:#ffffff;fill-opacity:1;fill-rule:nonzero;stroke:none;stroke-width:0.26458332;marker:none;enable-background:accumulate"
         d="m -46.395136,31.853959 0,19.936427 c -1.236828,11.502216 0.0059,10.648116 9.81153,10.648116 l 24.743478,0 c 10.394983,0 9.811527,0.741004 9.811527,-10.648116 l 0,-19.936427 z"
         id="path4255"
         sodipodi:nodetypes="ccssscc" />
      <path
         style="color:#000000;display:inline;overflow:visible;visibility:visible;opacity:0.07999998;fill:#ffffff;fill-opacity:1;fill-rule:nonzero;stroke:none;stroke-width:2.11666656;stroke-linecap:butt;stroke-linejoin:miter;stroke-miterlimit:4;stroke-dasharray:none;stroke-dashoffset:0;stroke-opacity:1;marker:none;enable-background:accumulate"
         d="m -17.153556,62.438502 15.1249551,-16.384574 0,6.139813 c 0.9120172,11.193544 0.095941,10.244761 -9.6230261,10.244761 z"
         id="path4254"
         inkscape:connector-curvature="0"
         sodipodi:nodetypes="cccsc" />
    </g>
    <g
       id="g4319">
      <path
         style="fill:#666666"
         d="m -46.391766,59.131425 0,0.677156 c 0,1.311981 1.115,2.368196 2.5,2.368196 l 39,0 c 1.385,0 2.5,-1.056215 2.5,-2.368196 l 0,-0.677156 c 0,1.491744 -1.267028,2.693823 -2.841797,2.693823 l -38.316406,0 c -1.574769,0 -2.841797,-1.202079 -2.841797,-2.693823 z"
         id="rect11-4"
         inkscape:connector-curvature="0" />
      <path
         d="m -46.416159,4.4076775 0,-0.633985 c 0,-1.228337 1.115,-2.217214 2.5,-2.217214 l 39.0000013,0 c 1.385,0 2.5,0.988877 2.5,2.217214 l 0,0.633985 c 0,-1.39664 -1.267028,-2.522082 -2.841797,-2.522082 l -38.3164073,0 c -1.574769,0 -2.841797,1.125442 -2.841797,2.522082 z"
         id="rect11-1"
         inkscape:connector-curvature="0"
         style="fill:#ffffff" />
    </g>
  </g>
</svg>
