<?xml version="1.0" encoding="UTF-8" standalone="no"?>
<svg
   xmlns:dc="http://purl.org/dc/elements/1.1/"
   xmlns:cc="http://creativecommons.org/ns#"
   xmlns:rdf="http://www.w3.org/1999/02/22-rdf-syntax-ns#"
   xmlns:svg="http://www.w3.org/2000/svg"
   xmlns="http://www.w3.org/2000/svg"
   xmlns:sodipodi="http://sodipodi.sourceforge.net/DTD/sodipodi-0.dtd"
   xmlns:inkscape="http://www.inkscape.org/namespaces/inkscape"
   height="64"
   viewBox="0 0 64 64"
   width="64"
   id="svg2"
   version="1.1"
   inkscape:version="0.91 r13725"
   sodipodi:docname="application-image-psd.svg">
  <metadata
     id="metadata63">
    <rdf:RDF>
      <cc:Work
         rdf:about="">
        <dc:format>image/svg+xml</dc:format>
        <dc:type
           rdf:resource="http://purl.org/dc/dcmitype/StillImage" />
      </cc:Work>
    </rdf:RDF>
  </metadata>
  <defs
     id="defs61" />
  <sodipodi:namedview
     pagecolor="#ffffff"
     bordercolor="#666666"
     borderopacity="1"
     objecttolerance="10"
     gridtolerance="10"
     guidetolerance="10"
     inkscape:pageopacity="0"
     inkscape:pageshadow="2"
     inkscape:window-width="3798"
     inkscape:window-height="2046"
     id="namedview59"
     showgrid="false"
     inkscape:zoom="20.85965"
     inkscape:cx="28.722595"
     inkscape:cy="26.665336"
     inkscape:window-x="19"
     inkscape:window-y="1105"
     inkscape:window-maximized="0"
     inkscape:current-layer="svg2" />
  <linearGradient
     id="a"
     gradientTransform="matrix(1.0749904,0,0,1.173122,113.08072,-0.4241776)"
     gradientUnits="userSpaceOnUse"
     x1="-74.929466"
     x2="-75.259552"
     y1="52.199436"
     y2="2.356489">
    <stop
       offset="0"
       stop-color="#0074e3"
       id="stop5" />
    <stop
       offset="1"
       stop-color="#03b8ff"
       id="stop7" />
  </linearGradient>
  <rect
     style="fill:url(#a)"
     id="rect13"
     y="1.468998"
     x="10"
     width="44"
     ry="2.8493485"
     height="60.214386" />
  <g
     id="g25"
     transform="matrix(0.28177325,-0.04866765,0.04866765,0.28177325,-157.85881,-67.655732)">
    <rect
       style="fill:#003564"
       id="rect27"
       y="426.46411"
       x="504.25668"
       width="76.809471"
       transform="matrix(0.89537973,0.14886638,-0.14886638,0.89537973,181.38928,-47.050156)"
       ry="2.3"
       height="58.986568" />
    <g
       id="g29"
       transform="matrix(0.90765278,-0.0056985,0.0056985,0.90765278,95.981015,47.52327)">
      <rect
         style="fill:#0194f0;stroke:#003564;stroke-width:1.90315104;stroke-linecap:round;stroke-linejoin:round"
         id="rect31"
         y="426.46411"
         x="504.25668"
         width="76.809471"
         ry="2.3"
         height="58.986568" />
      <path
         style="fill:#003564;fill-rule:evenodd"
         inkscape:connector-curvature="0"
         id="path33"
         d="m 504.2304,479.41184 14.55149,-4.65732 4.59402,3.09494 10.68866,-3.70865 10.51696,3.49583 7.58063,1.61197 5.83015,-2.02302 7.18039,-1.82153 11.56837,4.36341 -0.0451,5.71285 -69.41559,0.56851 c 0,0 -3.10616,0.57841 -3.08552,-2.07338 z" />
      <circle
         style="fill:#003564"
         id="circle35"
         r="7.5944862"
         cy="443.27579"
         cx="521.2431" />
    </g>
    <circle
       style="fill:#0194f0;stroke:#003564;stroke-width:2;stroke-linecap:round;stroke-linejoin:round"
       id="circle37"
       r="19.134081"
       cy="479.66388"
       cx="610.99548" />
    <path
       style="fill:#003564;fill-rule:evenodd"
       inkscape:connector-curvature="0"
       id="path39"
       d="m 598.67943,493.65621 11.44601,-23.18859 c 5.60266,5.88152 18.98364,10.6085 18.98364,10.6085 l 1.39585,2.23337 c -7.31195,19.73788 -19.37,17.06139 -31.8255,10.34672 z" />
    <path
       style="fill:#0194f0;fill-rule:evenodd"
       inkscape:connector-curvature="0"
       id="path41"
       d="m 600.64547,495.6202 3.71848,-4.56822 3.76154,1.7885 3.2785,-4.84896 12.61021,4.76417 c -4.44546,7.04228 -11.85513,8.97599 -23.36873,2.86451 z" />
    <circle
       style="fill:none;stroke:#003564;stroke-width:2;stroke-linecap:round;stroke-linejoin:round"
       id="circle43"
       r="19.134081"
       cy="479.44278"
       cx="610.91852" />
  </g>
  <g
     transform="translate(56.391766,-0.17677748)"
     id="g4364">
    <g
       id="g4274">
      <path
         style="color:#000000;display:inline;overflow:visible;visibility:visible;opacity:0.07999998;fill:#ffffff;fill-opacity:1;fill-rule:nonzero;stroke:none;stroke-width:0.26458332;marker:none;enable-background:accumulate"
         d="m -24.211872,1.2694285 0,61.1690735 12.371744,0 c 10.5678581,0 9.8115271,0.439894 9.8115271,-10.648116 l 0,-19.936427 0,-19.936427 c 0,-10.700833 0.8143853,-10.6481035 -9.8115271,-10.6481035 z"
         id="path4231"
         inkscape:connector-curvature="0"
         sodipodi:nodetypes="ccsscssc" />
      <path
         inkscape:connector-curvature="0"
         style="color:#000000;display:inline;overflow:visible;visibility:visible;opacity:0.07999998;fill:#ffffff;fill-opacity:1;fill-rule:nonzero;stroke:none;stroke-width:0.26458332;marker:none;enable-background:accumulate"
         d="m -46.395136,31.853959 0,19.936427 c -1.236828,11.502216 0.0059,10.648116 9.81153,10.648116 l 24.743478,0 c 10.394983,0 9.811527,0.741004 9.811527,-10.648116 l 0,-19.936427 z"
         id="path4255"
         sodipodi:nodetypes="ccssscc" />
      <path
         style="color:#000000;display:inline;overflow:visible;visibility:visible;opacity:0.07999998;fill:#ffffff;fill-opacity:1;fill-rule:nonzero;stroke:none;stroke-width:2.11666656;stroke-linecap:butt;stroke-linejoin:miter;stroke-miterlimit:4;stroke-dasharray:none;stroke-dashoffset:0;stroke-opacity:1;marker:none;enable-background:accumulate"
         d="m -17.153556,62.438502 15.1249551,-16.384574 0,6.139813 c 0.9120172,11.193544 0.095941,10.244761 -9.6230261,10.244761 z"
         id="path4254"
         inkscape:connector-curvature="0"
         sodipodi:nodetypes="cccsc" />
    </g>
    <g
       id="g4319">
      <path
         style="fill:#666666"
         d="m -46.391766,59.131425 0,0.677156 c 0,1.311981 1.115,2.368196 2.5,2.368196 l 39,0 c 1.385,0 2.5,-1.056215 2.5,-2.368196 l 0,-0.677156 c 0,1.491744 -1.267028,2.693823 -2.841797,2.693823 l -38.316406,0 c -1.574769,0 -2.841797,-1.202079 -2.841797,-2.693823 z"
         id="rect11"
         inkscape:connector-curvature="0" />
      <path
         d="m -46.416159,4.4076775 0,-0.633985 c 0,-1.228337 1.115,-2.217214 2.5,-2.217214 l 39.0000013,0 c 1.385,0 2.5,0.988877 2.5,2.217214 l 0,0.633985 c 0,-1.39664 -1.267028,-2.522082 -2.841797,-2.522082 l -38.3164073,0 c -1.574769,0 -2.841797,1.125442 -2.841797,2.522082 z"
         id="rect11-1"
         inkscape:connector-curvature="0"
         style="fill:#ffffff" />
    </g>
  </g>
</svg>
