<?xml version="1.0" encoding="UTF-8" standalone="no"?>
<svg
   xmlns:dc="http://purl.org/dc/elements/1.1/"
   xmlns:cc="http://creativecommons.org/ns#"
   xmlns:rdf="http://www.w3.org/1999/02/22-rdf-syntax-ns#"
   xmlns:svg="http://www.w3.org/2000/svg"
   xmlns="http://www.w3.org/2000/svg"
   xmlns:sodipodi="http://sodipodi.sourceforge.net/DTD/sodipodi-0.dtd"
   xmlns:inkscape="http://www.inkscape.org/namespaces/inkscape"
   height="64"
   viewBox="0 0 64 64"
   width="64"
   id="svg2"
   version="1.1"
   inkscape:version="0.91 r13725"
   sodipodi:docname="application-x-rpm-fedora.svg">
  <metadata
     id="metadata35">
    <rdf:RDF>
      <cc:Work
         rdf:about="">
        <dc:format>image/svg+xml</dc:format>
        <dc:type
           rdf:resource="http://purl.org/dc/dcmitype/StillImage" />
      </cc:Work>
    </rdf:RDF>
  </metadata>
  <defs
     id="defs33" />
  <sodipodi:namedview
     pagecolor="#ffffff"
     bordercolor="#666666"
     borderopacity="1"
     objecttolerance="10"
     gridtolerance="10"
     guidetolerance="10"
     inkscape:pageopacity="0"
     inkscape:pageshadow="2"
     inkscape:window-width="3798"
     inkscape:window-height="2046"
     id="namedview31"
     showgrid="false"
     inkscape:zoom="20.85965"
     inkscape:cx="39.703609"
     inkscape:cy="25.553736"
     inkscape:window-x="19"
     inkscape:window-y="55"
     inkscape:window-maximized="0"
     inkscape:current-layer="svg2" />
  <linearGradient
     id="a"
     gradientTransform="matrix(1.0749904,0,0,1.1749899,113.08072,-0.42719209)"
     gradientUnits="userSpaceOnUse"
     x1="-74.929466"
     x2="-75.259552"
     y1="52.199436"
     y2="2.356489">
    <stop
       offset="0"
       stop-color="#4469b9"
       id="stop5" />
    <stop
       offset="1"
       stop-color="#5d91ff"
       id="stop7" />
  </linearGradient>
  <rect
     style="fill:url(#a)"
     id="rect13"
     y="1.468998"
     x="10"
     width="44"
     ry="2.8538857"
     height="60.310265" />
  <path
     d="m 39.356812,16.788417 c -4.719088,0 -8.544298,3.825476 -8.544298,8.544387 l 0,4.531191 -4.509452,0 c -4.718999,0 -8.544209,3.806771 -8.544209,8.525504 0,4.719355 3.825388,8.544653 8.544209,8.544653 4.718393,0 8.543766,-3.825298 8.543766,-8.544653 l 0,-4.549911 4.509984,0 c 4.718393,0 8.543766,-3.78814 8.543766,-8.506784 0,-4.718911 -3.825373,-8.544387 -8.543766,-8.544387 z m -8.544298,21.606424 c -0.003,2.486472 -2.021648,4.502245 -4.509452,4.502245 -2.490467,0 -4.528068,-2.019073 -4.528068,-4.509555 0,-2.491355 2.037601,-4.547854 4.528068,-4.547854 l 3.872965,0 c 0.351792,0 0.637079,0.284754 0.637079,0.635968 0,6.22e-4 -4.44e-4,6.22e-4 -4.44e-4,0 l 0,3.917687 -1.33e-4,0 z m 8.543854,-8.53351 -3.873216,0 c -0.351807,0 -0.636354,-0.284577 -0.636354,-0.636679 l 0,-3.898893 c 0.0044,-2.487966 2.021649,-4.50294 4.50963,-4.50294 2.490467,0 4.528512,2.019162 4.528512,4.510162 0,2.490645 -2.038045,4.52835 -4.528512,4.52835 z"
     id="path27"
     inkscape:connector-curvature="0"
     style="opacity:0.2;fill:#ffffff" />
  <path
     d="m 29.769195,29.769148 0,-4.531369 c 0,-4.719014 3.82521,-8.544476 8.544298,-8.544476 0.715866,0 1.224523,0.0811 1.887129,0.254092 0.966318,0.253485 1.755526,1.04509 1.75597,1.966597 4.29e-4,1.114052 -0.80821,1.92383 -2.01675,1.92383 -0.575754,0 -0.783822,-0.110249 -1.626793,-0.110249 -2.487966,0 -4.505441,2.014959 -4.509629,4.50294 l 0,3.898715 c 0,0.352102 0.284547,0.636664 0.636353,0.636664 l 2.963563,0 c 1.103619,0 1.99476,0.883564 1.995647,1.990024 0,1.107007 -0.892472,1.988514 -1.995647,1.988514 l -3.59996,0 0,4.55 c 0,4.718467 -3.825388,8.543765 -8.543766,8.543765 -0.716014,0 -1.2247,-0.0811 -1.887307,-0.254195 -0.966317,-0.253292 -1.755792,-1.045356 -1.756236,-1.966597 0,-1.113682 0.808077,-1.923815 2.017106,-1.923815 0.575176,0 0.783821,0.110397 1.626348,0.110397 2.487966,0 4.505974,-2.015152 4.509896,-4.502245 l 0,-3.919107 c 0,-0.351303 -0.285287,-0.635865 -0.637079,-0.635865 l -2.962763,0 c -1.103885,0 -1.99581,-0.880707 -1.99581,-1.987981 -2.96e-4,-1.113416 0.9011,-1.990468 2.01675,-1.990468 l 3.578414,0 0,-8.9e-5 z"
     id="path29"
     inkscape:connector-curvature="0"
     style="fill:#ffffff;fill-opacity:0.85" />
  <g
     transform="translate(56.391766,-0.17677748)"
     id="g4364">
    <g
       id="g4274">
      <path
         style="color:#000000;display:inline;overflow:visible;visibility:visible;opacity:0.07999998;fill:#ffffff;fill-opacity:1;fill-rule:nonzero;stroke:none;stroke-width:0.26458332;marker:none;enable-background:accumulate"
         d="m -24.211872,1.2694285 0,61.1690735 12.371744,0 c 10.5678581,0 9.8115271,0.439894 9.8115271,-10.648116 l 0,-19.936427 0,-19.936427 c 0,-10.700833 0.8143853,-10.6481035 -9.8115271,-10.6481035 z"
         id="path4231"
         inkscape:connector-curvature="0"
         sodipodi:nodetypes="ccsscssc" />
      <path
         inkscape:connector-curvature="0"
         style="color:#000000;display:inline;overflow:visible;visibility:visible;opacity:0.07999998;fill:#ffffff;fill-opacity:1;fill-rule:nonzero;stroke:none;stroke-width:0.26458332;marker:none;enable-background:accumulate"
         d="m -46.395136,31.853959 0,19.936427 c -1.236828,11.502216 0.0059,10.648116 9.81153,10.648116 l 24.743478,0 c 10.394983,0 9.811527,0.741004 9.811527,-10.648116 l 0,-19.936427 z"
         id="path4255"
         sodipodi:nodetypes="ccssscc" />
      <path
         style="color:#000000;display:inline;overflow:visible;visibility:visible;opacity:0.07999998;fill:#ffffff;fill-opacity:1;fill-rule:nonzero;stroke:none;stroke-width:2.11666656;stroke-linecap:butt;stroke-linejoin:miter;stroke-miterlimit:4;stroke-dasharray:none;stroke-dashoffset:0;stroke-opacity:1;marker:none;enable-background:accumulate"
         d="m -17.153556,62.438502 15.1249551,-16.384574 0,6.139813 c 0.9120172,11.193544 0.095941,10.244761 -9.6230261,10.244761 z"
         id="path4254"
         inkscape:connector-curvature="0"
         sodipodi:nodetypes="cccsc" />
    </g>
    <g
       id="g4319">
      <path
         style="fill:#666666"
         d="m -46.391766,59.131425 0,0.677156 c 0,1.311981 1.115,2.368196 2.5,2.368196 l 39,0 c 1.385,0 2.5,-1.056215 2.5,-2.368196 l 0,-0.677156 c 0,1.491744 -1.267028,2.693823 -2.841797,2.693823 l -38.316406,0 c -1.574769,0 -2.841797,-1.202079 -2.841797,-2.693823 z"
         id="rect11-5"
         inkscape:connector-curvature="0" />
      <path
         d="m -46.416159,4.4076775 0,-0.633985 c 0,-1.228337 1.115,-2.217214 2.5,-2.217214 l 39.0000013,0 c 1.385,0 2.5,0.988877 2.5,2.217214 l 0,0.633985 c 0,-1.39664 -1.267028,-2.522082 -2.841797,-2.522082 l -38.3164073,0 c -1.574769,0 -2.841797,1.125442 -2.841797,2.522082 z"
         id="rect11-1"
         inkscape:connector-curvature="0"
         style="fill:#e6e6e6" />
    </g>
  </g>
</svg>
