<?xml version="1.0" encoding="UTF-8" standalone="no"?>
<svg
   xmlns:dc="http://purl.org/dc/elements/1.1/"
   xmlns:cc="http://creativecommons.org/ns#"
   xmlns:rdf="http://www.w3.org/1999/02/22-rdf-syntax-ns#"
   xmlns:svg="http://www.w3.org/2000/svg"
   xmlns="http://www.w3.org/2000/svg"
   xmlns:sodipodi="http://sodipodi.sourceforge.net/DTD/sodipodi-0.dtd"
   xmlns:inkscape="http://www.inkscape.org/namespaces/inkscape"
   height="64"
   viewBox="0 0 64 64"
   width="64"
   id="svg2"
   version="1.1"
   inkscape:version="0.91 r13725"
   sodipodi:docname="application-mbox.svg">
  <metadata
     id="metadata31">
    <rdf:RDF>
      <cc:Work
         rdf:about="">
        <dc:format>image/svg+xml</dc:format>
        <dc:type
           rdf:resource="http://purl.org/dc/dcmitype/StillImage" />
      </cc:Work>
    </rdf:RDF>
  </metadata>
  <defs
     id="defs29" />
  <sodipodi:namedview
     pagecolor="#ffffff"
     bordercolor="#666666"
     borderopacity="1"
     objecttolerance="10"
     gridtolerance="10"
     guidetolerance="10"
     inkscape:pageopacity="0"
     inkscape:pageshadow="2"
     inkscape:window-width="1890"
     inkscape:window-height="2046"
     id="namedview27"
     showgrid="false"
     inkscape:zoom="14.75"
     inkscape:cx="31.960104"
     inkscape:cy="41.981265"
     inkscape:window-x="1927"
     inkscape:window-y="55"
     inkscape:window-maximized="0"
     inkscape:current-layer="svg2" />
  <linearGradient
     id="a"
     gradientTransform="matrix(1.0749904,0,0,1.1792904,113.08072,-0.434132)"
     gradientUnits="userSpaceOnUse"
     x1="-74.929466"
     x2="-75.259552"
     y1="52.199436"
     y2="2.356489">
    <stop
       offset="0"
       stop-color="#259ee1"
       id="stop5" />
    <stop
       offset="1"
       stop-color="#19b4fd"
       id="stop7" />
  </linearGradient>
  <rect
     style="fill:url(#a)"
     id="rect11"
     y="1.468998"
     x="10"
     width="44"
     ry="2.864331"
     height="60.531002" />
  <path
     style="fill:#ffffff"
     inkscape:connector-curvature="0"
     id="path25"
     d="m 42.999998,30.887177 q 0,2.707693 -1.128205,4.28718 -1.128205,1.579487 -3.102564,1.579487 -2.115385,0 -3.158975,-2.058974 -1.382051,2.058974 -3.948718,2.058974 -2.36923,0 -3.920512,-1.635897 -1.551282,-1.635898 -1.551282,-4.117949 0,-2.453846 1.551282,-4.089744 1.579487,-1.664102 3.807692,-1.664102 2.171795,0 3.610256,1.664102 l 0.112821,0 0,-1.26923 2.030769,0 0,7.023077 q 0,2.25641 1.664103,2.25641 2.002564,0 2.002564,-4.033334 0,-3.666666 -2.594872,-6.261538 -2.594872,-2.594872 -6.317949,-2.594872 -3.723077,0 -6.317948,2.594872 -2.594872,2.594872 -2.594872,6.261538 0,3.694872 2.594872,6.289744 2.566666,2.566667 6.317948,2.566667 2.030769,0 3.582051,-0.789744 l 0.789744,1.917949 q -2.030769,0.902564 -4.371795,0.902564 -3.017948,0 -5.584615,-1.438462 -2.510256,-1.438461 -4.005128,-3.976923 -0.733333,-1.297436 -1.1,-2.679487 -0.366667,-1.382051 -0.366667,-2.820513 0,-1.410256 0.338462,-2.764102 0.366666,-1.382051 1.1,-2.651282 0.733333,-1.269231 1.748718,-2.284616 1.043589,-1.015384 2.284615,-1.692307 1.269231,-0.705128 2.679487,-1.071795 1.410256,-0.394872 2.905128,-0.394872 2.989744,0 5.5,1.438462 2.538462,1.438461 3.976923,3.976923 1.466667,2.510256 1.466667,5.471794 z m -14.553846,0.112821 q 0,0.789744 0.253846,1.466667 0.253846,0.648718 0.705128,1.128205 0.479487,0.479487 1.1,0.761538 0.620513,0.253846 1.353846,0.253846 0.733334,0 1.353846,-0.253846 0.620513,-0.282051 1.071795,-0.733333 0.479488,-0.479487 0.733334,-1.128205 0.253846,-0.676923 0.253846,-1.494872 0,-0.789744 -0.253846,-1.466667 -0.253846,-0.676923 -0.733334,-1.128205 -0.451282,-0.479487 -1.071795,-0.733333 -0.620512,-0.282051 -1.353846,-0.282051 -0.733333,0 -1.353846,0.282051 -0.620513,0.253846 -1.1,0.733333 -0.451282,0.479487 -0.705128,1.15641 -0.253846,0.648718 -0.253846,1.438462 z" />
  <g
     transform="translate(56.391766,-0.17677748)"
     id="g4364">
    <g
       id="g4274">
      <path
         style="color:#000000;display:inline;overflow:visible;visibility:visible;opacity:0.07999998;fill:#ffffff;fill-opacity:1;fill-rule:nonzero;stroke:none;stroke-width:0.26458332;marker:none;enable-background:accumulate"
         d="m -24.211872,1.2694285 0,61.1690735 12.371744,0 c 10.5678581,0 9.8115271,0.439894 9.8115271,-10.648116 l 0,-19.936427 0,-19.936427 c 0,-10.700833 0.8143853,-10.6481035 -9.8115271,-10.6481035 z"
         id="path4231"
         inkscape:connector-curvature="0"
         sodipodi:nodetypes="ccsscssc" />
      <path
         inkscape:connector-curvature="0"
         style="color:#000000;display:inline;overflow:visible;visibility:visible;opacity:0.07999998;fill:#ffffff;fill-opacity:1;fill-rule:nonzero;stroke:none;stroke-width:0.26458332;marker:none;enable-background:accumulate"
         d="m -46.395136,31.853959 0,19.936427 c -1.236828,11.502216 0.0059,10.648116 9.81153,10.648116 l 24.743478,0 c 10.394983,0 9.811527,0.741004 9.811527,-10.648116 l 0,-19.936427 z"
         id="path4255"
         sodipodi:nodetypes="ccssscc" />
      <path
         style="color:#000000;display:inline;overflow:visible;visibility:visible;opacity:0.07999998;fill:#ffffff;fill-opacity:1;fill-rule:nonzero;stroke:none;stroke-width:2.11666656;stroke-linecap:butt;stroke-linejoin:miter;stroke-miterlimit:4;stroke-dasharray:none;stroke-dashoffset:0;stroke-opacity:1;marker:none;enable-background:accumulate"
         d="m -17.153556,62.438502 15.1249551,-16.384574 0,6.139813 c 0.9120172,11.193544 0.095941,10.244761 -9.6230261,10.244761 z"
         id="path4254"
         inkscape:connector-curvature="0"
         sodipodi:nodetypes="cccsc" />
    </g>
    <g
       id="g4319">
      <path
         style="fill:#666666"
         d="m -46.391766,59.131425 0,0.677156 c 0,1.311981 1.115,2.368196 2.5,2.368196 l 39,0 c 1.385,0 2.5,-1.056215 2.5,-2.368196 l 0,-0.677156 c 0,1.491744 -1.267028,2.693823 -2.841797,2.693823 l -38.316406,0 c -1.574769,0 -2.841797,-1.202079 -2.841797,-2.693823 z"
         id="rect11-5"
         inkscape:connector-curvature="0" />
      <path
         d="m -46.416159,4.4076775 0,-0.633985 c 0,-1.228337 1.115,-2.217214 2.5,-2.217214 l 39.0000013,0 c 1.385,0 2.5,0.988877 2.5,2.217214 l 0,0.633985 c 0,-1.39664 -1.267028,-2.522082 -2.841797,-2.522082 l -38.3164073,0 c -1.574769,0 -2.841797,1.125442 -2.841797,2.522082 z"
         id="rect11-1"
         inkscape:connector-curvature="0"
         style="fill:#e6e6e6" />
    </g>
  </g>
</svg>
