<?xml version="1.0" encoding="UTF-8" standalone="no"?>
<svg
   xmlns:dc="http://purl.org/dc/elements/1.1/"
   xmlns:cc="http://creativecommons.org/ns#"
   xmlns:rdf="http://www.w3.org/1999/02/22-rdf-syntax-ns#"
   xmlns:svg="http://www.w3.org/2000/svg"
   xmlns="http://www.w3.org/2000/svg"
   xmlns:sodipodi="http://sodipodi.sourceforge.net/DTD/sodipodi-0.dtd"
   xmlns:inkscape="http://www.inkscape.org/namespaces/inkscape"
   height="64"
   viewBox="0 0 64 64"
   width="64"
   id="svg2"
   version="1.1"
   inkscape:version="0.91 r13725"
   sodipodi:docname="application-x-perl.svg">
  <metadata
     id="metadata33">
    <rdf:RDF>
      <cc:Work
         rdf:about="">
        <dc:format>image/svg+xml</dc:format>
        <dc:type
           rdf:resource="http://purl.org/dc/dcmitype/StillImage" />
      </cc:Work>
    </rdf:RDF>
  </metadata>
  <defs
     id="defs31" />
  <sodipodi:namedview
     pagecolor="#ffffff"
     bordercolor="#666666"
     borderopacity="1"
     objecttolerance="10"
     gridtolerance="10"
     guidetolerance="10"
     inkscape:pageopacity="0"
     inkscape:pageshadow="2"
     inkscape:window-width="3798"
     inkscape:window-height="2046"
     id="namedview29"
     showgrid="false"
     inkscape:zoom="20.85965"
     inkscape:cx="25.684449"
     inkscape:cy="29.66417"
     inkscape:window-x="19"
     inkscape:window-y="55"
     inkscape:window-maximized="0"
     inkscape:current-layer="svg2" />
  <linearGradient
     id="a"
     gradientTransform="matrix(1.0749904,0,0,1.1749899,113.08072,-0.42719209)"
     gradientUnits="userSpaceOnUse"
     x1="-74.929466"
     x2="-75.259552"
     y1="52.199436"
     y2="2.356489">
    <stop
       offset="0"
       stop-color="#197cf1"
       id="stop5" />
    <stop
       offset="1"
       stop-color="#20bcfa"
       id="stop7" />
  </linearGradient>
  <rect
     style="fill:url(#a)"
     id="rect13"
     y="1.468998"
     x="10"
     width="44"
     ry="2.8538857"
     height="60.310265" />
  <path
     style="fill:#0b3969"
     inkscape:connector-curvature="0"
     id="path27"
     d="m 43.614203,19.763368 c -0.858406,-0.04453 -1.008139,-1.179869 -1.84776,-1.233061 -0.441229,-0.0275 -1.276555,-0.06606 -2.002651,0.198022 -0.809156,-0.553149 -1.84776,-1.230859 -0.329943,1.409231 -0.329833,1.780796 -1.429987,6.775598 -2.596351,6.796476 -1.165755,0.02153 -1.935346,-2.110751 -2.925673,-2.088888 -0.990352,0.02117 -0.990352,0.02117 -0.990352,0.02117 -1.165743,0 -1.932876,-2.061999 -4.289682,-2.132881 -1.474078,-0.04416 -2.640077,2.55052 -5.918311,2.836371 -0.879527,0.06631 -2.233352,0.408818 -2.370444,2.437153 0,0 -1.932889,1.807221 -1.022885,5.98193 0.227124,-2.078327 0.340382,-3.821066 1.022885,-4.958437 -0.05086,1.134804 0.303298,2.235943 0,3.411651 -0.303164,1.174333 -1.26709,3.183262 -1.26709,3.183262 0,0 -0.211162,0.417165 0.319625,1.857603 0.530422,1.439672 1.591765,5.006823 1.591765,5.006823 0.05414,0.626111 0.142251,0.956066 0.58213,1.242526 -0.11035,0.416544 -0.481403,1.252831 0.838392,1.252831 0.565425,4.99e-4 0,0 1.279743,0 0.894152,0 0.603142,-0.768471 -0.840959,-1.473458 0.04392,-0.527599 -0.28573,-1.078169 -0.505979,-1.18847 -0.527478,-1.341915 -1.209604,-3.91257 -1.209604,-3.91257 0,0 -0.242612,-2.245154 0.593676,-2.993855 0.836056,-0.746985 1.846178,-1.450013 2.528535,-3.936038 0.02153,-0.176658 1.165877,0.880378 3.45427,1.539668 2.287895,0.661126 4.042788,-0.04453 4.298406,0.06582 0.255508,0.110837 0.805603,1.451607 0.805603,2.750769 0,1.297555 -0.461888,2.155474 -0.461888,2.661441 0,0.505992 0.374046,1.385884 0.374046,1.385884 0,0 0.219763,2.419694 -0.06594,3.784213 -0.198144,0.857044 -0.527977,1.292519 0.792196,1.294477 1.319905,0.0024 3.123817,0.287945 0.77032,-1.272978 0.197402,-0.484251 0.04356,-1.145365 -0.176633,-1.385884 -0.04416,-1.188239 0.08882,-2.35509 0.307703,-2.838099 0.22014,-0.484725 0.06667,-1.869623 0.110472,-2.573138 0.04429,-0.703867 0.682004,-3.233497 1.385883,-4.135034 0.703989,-0.903239 3.827806,-3.563829 4.356269,-6.159426 0.528086,-2.596473 1.100033,-5.237524 2.6402,-5.21431 0.923508,0 1.077426,0.527587 1.473458,0.505979 0.396164,-0.02336 1.100166,-0.680057 1.100166,-1.03235 0,-0.351574 -0.08748,-1.072767 -1.803547,-1.094399 z" />
  <g
     transform="translate(56.391766,-0.17677748)"
     id="g4364">
    <g
       id="g4274">
      <path
         style="color:#000000;display:inline;overflow:visible;visibility:visible;opacity:0.07999998;fill:#ffffff;fill-opacity:1;fill-rule:nonzero;stroke:none;stroke-width:0.26458332;marker:none;enable-background:accumulate"
         d="m -24.211872,1.2694285 0,61.1690735 12.371744,0 c 10.5678581,0 9.8115271,0.439894 9.8115271,-10.648116 l 0,-19.936427 0,-19.936427 c 0,-10.700833 0.8143853,-10.6481035 -9.8115271,-10.6481035 z"
         id="path4231"
         inkscape:connector-curvature="0"
         sodipodi:nodetypes="ccsscssc" />
      <path
         inkscape:connector-curvature="0"
         style="color:#000000;display:inline;overflow:visible;visibility:visible;opacity:0.07999998;fill:#ffffff;fill-opacity:1;fill-rule:nonzero;stroke:none;stroke-width:0.26458332;marker:none;enable-background:accumulate"
         d="m -46.395136,31.853959 0,19.936427 c -1.236828,11.502216 0.0059,10.648116 9.81153,10.648116 l 24.743478,0 c 10.394983,0 9.811527,0.741004 9.811527,-10.648116 l 0,-19.936427 z"
         id="path4255"
         sodipodi:nodetypes="ccssscc" />
      <path
         style="color:#000000;display:inline;overflow:visible;visibility:visible;opacity:0.07999998;fill:#ffffff;fill-opacity:1;fill-rule:nonzero;stroke:none;stroke-width:2.11666656;stroke-linecap:butt;stroke-linejoin:miter;stroke-miterlimit:4;stroke-dasharray:none;stroke-dashoffset:0;stroke-opacity:1;marker:none;enable-background:accumulate"
         d="m -17.153556,62.438502 15.1249551,-16.384574 0,6.139813 c 0.9120172,11.193544 0.095941,10.244761 -9.6230261,10.244761 z"
         id="path4254"
         inkscape:connector-curvature="0"
         sodipodi:nodetypes="cccsc" />
    </g>
    <g
       id="g4319">
      <path
         style="fill:#666666"
         d="m -46.391766,59.131425 0,0.677156 c 0,1.311981 1.115,2.368196 2.5,2.368196 l 39,0 c 1.385,0 2.5,-1.056215 2.5,-2.368196 l 0,-0.677156 c 0,1.491744 -1.267028,2.693823 -2.841797,2.693823 l -38.316406,0 c -1.574769,0 -2.841797,-1.202079 -2.841797,-2.693823 z"
         id="rect11-5"
         inkscape:connector-curvature="0" />
      <path
         d="m -46.416159,4.4076775 0,-0.633985 c 0,-1.228337 1.115,-2.217214 2.5,-2.217214 l 39.0000013,0 c 1.385,0 2.5,0.988877 2.5,2.217214 l 0,0.633985 c 0,-1.39664 -1.267028,-2.522082 -2.841797,-2.522082 l -38.3164073,0 c -1.574769,0 -2.841797,1.125442 -2.841797,2.522082 z"
         id="rect11-1"
         inkscape:connector-curvature="0"
         style="fill:#e6e6e6" />
    </g>
  </g>
</svg>
