<?xml version="1.0" encoding="UTF-8" standalone="no"?>
<svg
   xmlns:dc="http://purl.org/dc/elements/1.1/"
   xmlns:cc="http://creativecommons.org/ns#"
   xmlns:rdf="http://www.w3.org/1999/02/22-rdf-syntax-ns#"
   xmlns:svg="http://www.w3.org/2000/svg"
   xmlns="http://www.w3.org/2000/svg"
   xmlns:sodipodi="http://sodipodi.sourceforge.net/DTD/sodipodi-0.dtd"
   xmlns:inkscape="http://www.inkscape.org/namespaces/inkscape"
   height="64"
   viewBox="0 0 64 64"
   width="64"
   id="svg2"
   version="1.1"
   inkscape:version="0.91 r13725"
   sodipodi:docname="application-x-rpm-redhat.svg">
  <metadata
     id="metadata39">
    <rdf:RDF>
      <cc:Work
         rdf:about="">
        <dc:format>image/svg+xml</dc:format>
        <dc:type
           rdf:resource="http://purl.org/dc/dcmitype/StillImage" />
      </cc:Work>
    </rdf:RDF>
  </metadata>
  <defs
     id="defs37" />
  <sodipodi:namedview
     pagecolor="#ffffff"
     bordercolor="#666666"
     borderopacity="1"
     objecttolerance="10"
     gridtolerance="10"
     guidetolerance="10"
     inkscape:pageopacity="0"
     inkscape:pageshadow="2"
     inkscape:window-width="3798"
     inkscape:window-height="2046"
     id="namedview35"
     showgrid="false"
     inkscape:zoom="20.85965"
     inkscape:cx="32.594743"
     inkscape:cy="27.69831"
     inkscape:window-x="19"
     inkscape:window-y="55"
     inkscape:window-maximized="0"
     inkscape:current-layer="svg2" />
  <linearGradient
     id="a"
     gradientTransform="matrix(1.0749904,0,0,1.1740559,113.08072,-0.42568485)"
     gradientUnits="userSpaceOnUse"
     x1="-74.929466"
     x2="-75.259552"
     y1="52.199436"
     y2="2.356489">
    <stop
       offset="0"
       stop-color="#ff1526"
       id="stop5" />
    <stop
       offset="1"
       stop-color="#ff461c"
       id="stop7" />
  </linearGradient>
  <rect
     style="fill:url(#a)"
     id="rect13"
     y="1.468998"
     x="10"
     width="44"
     ry="2.8516171"
     height="60.262325" />
  <g
     id="g25"
     transform="matrix(0.05457458,0,0,0.05457458,18.307856,16.892872)">
    <path
       style="fill:#ffffff"
       inkscape:connector-curvature="0"
       id="path27"
       d="m 452.03363,388.56954 c -9.22693,-2.10808 -19.02141,-3.45401 -28.91319,-3.45401 -16.94575,0 -32.35099,2.95132 -43.71842,7.67018 -1.26485,0.63243 -2.14052,1.94593 -2.14052,3.42159 0,0.55134 0.11351,1.10269 0.34054,1.55673 1.32971,3.89185 -0.87567,8.0918 -11.87014,10.54043 -16.31333,3.56752 -26.61051,20.41598 -32.49693,25.97808 -6.92425,6.56749 -26.44835,10.60529 -23.51325,6.66479 2.30268,-3.0324 11.09177,-12.58364 16.42684,-22.89704 4.79995,-9.21071 9.06477,-11.8377 14.91875,-20.64301 1.73512,-2.57835 8.39991,-11.64311 10.34583,-18.8106 2.17295,-7.00532 1.44323,-15.79441 2.28646,-19.41059 1.19999,-5.22156 6.11345,-16.52413 6.48642,-22.94568 0.21081,-3.58375 -15.09713,5.18913 -22.36191,5.18913 -7.26478,0 -14.35119,-4.36212 -20.8376,-4.654 -8.02694,-0.38919 -13.19985,6.1783 -20.48085,5.01075 -4.13509,-0.64864 -7.65397,-4.29725 -14.88632,-4.55671 -10.32961,-0.38918 -22.9619,5.72426 -46.65353,4.97833 -23.31865,-0.76216 -44.85354,-29.48075 -47.78865,-34.03746 -3.45401,-5.33507 -7.67018,-5.33507 -12.2431,-1.1189 -4.58914,4.16752 -10.26475,0.87566 -11.85392,-1.92971 -3.06483,-5.35129 -11.23771,-20.96733 -23.90243,-24.25919 -17.51332,-4.54048 -26.38349,9.69719 -25.23215,20.99977 1.16755,11.49716 8.61071,14.72415 12.06473,20.8376 3.42158,6.09723 5.18913,10.05394 11.64311,12.76202 4.60535,1.91349 6.30804,4.73508 4.94589,8.4972 -1.19999,3.27564 -5.9675,4.03779 -9.12963,4.18373 -6.66479,0.32432 -11.335,-1.49187 -14.75659,-3.66482 -3.95671,-2.54592 -7.19991,-6.04858 -10.63771,-11.99986 -4.02158,-6.58371 -10.329616,-9.43773 -17.675479,-9.43773 -3.502663,0 -6.794518,0.92431 -9.697188,2.39997 -11.513383,6.01615 -25.232146,9.55124 -39.988736,9.55124 l -16.670082,0.0162 c 31.929369,94.653 121.490515,162.79277 226.975805,162.79277 84.24229,0 158.33335,-43.45897 201.01395,-109.2312" />
    <path
       style="fill:#6f0a10"
       inkscape:connector-curvature="0"
       id="path29"
       d="m 452.03363,388.60198 c -9.22693,-2.14052 -19.02141,-3.47024 -28.91319,-3.47024 -16.94575,0 -32.35099,2.95132 -43.71842,7.67019 -1.26485,0.63242 -2.14052,1.92971 -2.14052,3.42158 0,0.53513 0.11351,1.10269 0.34054,1.54052 1.32971,3.90807 -0.87567,8.12424 -11.87014,10.55664 -16.31333,3.58374 -26.61051,20.39977 -32.49693,25.96187 -6.92425,6.58371 -26.44835,10.6215 -23.51325,6.69722 2.30268,-3.06483 11.09177,-12.61607 16.42684,-22.92947 4.79995,-9.19449 9.06477,-11.8377 14.91875,-20.62679 1.73512,-2.57835 8.39991,-11.65933 10.34583,-18.8106 2.17295,-7.02154 1.44323,-15.79442 2.28646,-19.41059 1.19999,-5.22156 6.11345,-16.52414 6.48642,-22.92947 0.21081,-3.61618 -15.09713,5.1567 -22.36191,5.1567 -7.26478,0 -14.35119,-4.3459 -20.8376,-4.63779 -8.02694,-0.4054 -13.19985,6.17831 -20.48085,5.01076 -4.13509,-0.64865 -7.65397,-4.29725 -14.88632,-4.57293 -10.32961,-0.37296 -22.9619,5.74048 -46.65353,4.97833 -23.31865,-0.76216 -44.85354,-29.44832 -47.78865,-34.00502 -3.45401,-5.36751 -7.67018,-5.36751 -12.2431,-1.15134 -4.58914,4.18373 -10.26475,0.89188 -11.85392,-1.91349 -3.06483,-5.36751 -11.23771,-20.98355 -23.90243,-24.27541 -17.51332,-4.54048 -26.38349,9.69719 -25.23215,21.01598 1.16755,11.48095 8.61071,14.70794 12.06473,20.82139 3.42158,6.09723 5.18913,10.07016 11.64311,12.77823 4.60535,1.89728 6.30804,4.73508 4.94589,8.4972 -1.19999,3.27564 -5.9675,4.0378 -9.12963,4.18374 -6.66479,0.3081 -11.335,-1.49187 -14.75659,-3.69726 -3.95671,-2.49726 -7.19991,-6.01614 -10.63771,-11.98364 -4.02158,-6.5675 -10.329616,-9.43773 -17.675479,-9.43773 -3.502663,0 -6.794518,0.94053 -9.697188,2.39997 -11.513383,6.01615 -25.232146,9.56746 -39.988736,9.56746 l -16.670082,0 C 15.935859,310.99204 11.55753,285.2572 11.55753,258.51696 c 0,-132.1931 107.20419,-239.33242 239.46215,-239.33242 132.22554,0 239.44594,107.13932 239.44594,239.33242 0,47.96703 -14.12416,92.59355 -38.43199,130.08502" />
    <path
       style="fill:#333333"
       inkscape:connector-curvature="0"
       id="path31"
       d="m 303.74449,366.65358 c 1.23242,1.18377 3.35672,5.22156 0.76216,10.36204 -1.45945,2.72429 -3.0324,4.62157 -5.82156,6.85938 -3.38915,2.70808 -9.95664,5.82156 -18.97276,0.0811 -4.86481,-3.06483 -5.17291,-4.10265 -11.87013,-3.22699 -4.78373,0.61621 -6.68101,-4.23238 -4.97832,-8.23774 1.73511,-4.00536 8.78908,-7.24857 17.59439,-2.09187 3.97293,2.31889 10.13502,7.24857 15.51874,2.87024 2.25403,-1.76755 3.59996,-2.96754 6.69723,-6.5675 0.14594,-0.14594 0.34053,-0.22702 0.56756,-0.22702 0.19459,0 0.37297,0.0649 0.50269,0.17838" />
    <path
       style="fill:#ff3021"
       inkscape:connector-curvature="0"
       id="path33"
       d="m 232.37287,133.15081 c -27.64834,1.99457 -30.53479,4.97832 -35.70771,10.47556 -7.29721,7.79991 -16.92953,-10.07016 -16.92953,-10.07016 -5.78913,-1.2162 -12.77824,-10.5242 -8.9999,-19.19978 3.72969,-8.5945 10.60528,-6.03236 12.7458,-3.35672 2.61078,3.25942 8.20531,8.5945 15.4701,8.39991 7.26478,-0.1946 15.63225,-1.7189 27.32401,-1.7189 11.8377,0 19.78356,4.41076 20.22139,8.22153 0.4054,3.22699 -0.95674,6.2756 -14.12416,7.24856 m 29.05913,-45.680556 -0.12973,0 c -0.42162,0 -0.76215,-0.324321 -0.76215,-0.713506 0,-0.291888 0.17837,-0.551345 0.43783,-0.664857 5.36751,-2.82159 13.36201,-5.091834 22.50785,-5.999932 2.74051,-0.291889 5.43237,-0.454049 8.01072,-0.454049 l 1.37837,0 c 15.35658,0.356753 27.63212,6.453981 27.45374,13.621467 -0.19459,7.167483 -12.76202,12.697153 -28.13482,12.372833 -4.94589,-0.12973 -9.6161,-0.84324 -13.62146,-2.01079 -0.5027,-0.11351 -0.82702,-0.51892 -0.82702,-1.0054 0,-0.47026 0.32432,-0.87566 0.84323,-1.00539 9.55125,-2.205375 16.02144,-5.837767 15.56739,-9.25935 -0.61621,-4.524274 -13.11877,-6.98911 -27.97265,-5.497235 -1.63782,0.16216 -3.21078,0.372968 -4.7513,0.616209 M 386.13329,194.8366 c -2.36754,7.94586 -5.72426,18.11331 -20.70787,25.79971 -2.18917,1.11891 -2.99997,-0.71351 -2.01079,-2.43241 5.67561,-9.63232 6.66479,-12.03229 8.31882,-15.81063 2.28646,-5.5621 3.51888,-13.4593 -1.07025,-29.90236 C 361.6633,140.10749 342.8527,96.794473 329.21502,82.767604 316.03138,69.211001 292.16138,65.384017 270.56163,70.9299 c -7.94586,2.027005 -23.49704,10.102589 -52.32914,3.616176 -49.89673,-11.237711 -57.29125,13.734979 -60.14527,24.615939 -2.88645,10.880955 -9.76205,41.804925 -9.76205,41.804925 -2.28646,12.61607 -5.28643,34.50772 72.20999,49.28052 36.09689,6.85939 37.91309,16.19982 39.53469,22.89704 2.87024,12.01608 7.44316,18.89168 12.59986,22.32948 5.1567,3.4378 0,6.29182 -5.72426,6.85938 -15.35658,1.60539 -72.19378,-14.69172 -105.82583,-33.778 -27.50239,-16.7998 -27.95644,-31.91315 -21.66462,-44.75625 -41.545474,-4.49184 -72.728905,3.89185 -78.372085,23.5619 -9.713403,33.72935 74.204565,91.36113 169.765645,120.29053 100.27995,30.3402 203.41392,9.14584 214.87865,-53.85344 5.20535,-28.6213 -18.90789,-49.79944 -59.59392,-58.9615" />
  </g>
  <g
     transform="translate(56.391766,-0.17677748)"
     id="g4364">
    <g
       id="g4274">
      <path
         style="color:#000000;display:inline;overflow:visible;visibility:visible;opacity:0.165;fill:#ffffff;fill-opacity:1;fill-rule:nonzero;stroke:none;stroke-width:0.26458332;marker:none;enable-background:accumulate"
         d="m -24.211872,1.2694285 0,61.1690735 12.371744,0 c 10.5678581,0 9.8115271,0.439894 9.8115271,-10.648116 l 0,-19.936427 0,-19.936427 c 0,-10.700833 0.8143853,-10.6481035 -9.8115271,-10.6481035 z"
         id="path4231"
         inkscape:connector-curvature="0"
         sodipodi:nodetypes="ccsscssc" />
      <path
         inkscape:connector-curvature="0"
         style="color:#000000;display:inline;overflow:visible;visibility:visible;opacity:0.165;fill:#ffffff;fill-opacity:1;fill-rule:nonzero;stroke:none;stroke-width:0.26458332;marker:none;enable-background:accumulate"
         d="m -46.395136,31.853959 0,19.936427 c -1.236828,11.502216 0.0059,10.648116 9.81153,10.648116 l 24.743478,0 c 10.394983,0 9.811527,0.741004 9.811527,-10.648116 l 0,-19.936427 z"
         id="path4255"
         sodipodi:nodetypes="ccssscc" />
      <path
         style="color:#000000;display:inline;overflow:visible;visibility:visible;opacity:0.165;fill:#ffffff;fill-opacity:1;fill-rule:nonzero;stroke:none;stroke-width:2.11666656;stroke-linecap:butt;stroke-linejoin:miter;stroke-miterlimit:4;stroke-dasharray:none;stroke-dashoffset:0;stroke-opacity:1;marker:none;enable-background:accumulate"
         d="m -17.153556,62.438502 15.1249551,-16.384574 0,6.139813 c 0.9120172,11.193544 0.095941,10.244761 -9.6230261,10.244761 z"
         id="path4254"
         inkscape:connector-curvature="0"
         sodipodi:nodetypes="cccsc" />
    </g>
    <g
       id="g4319">
      <path
         style="fill:#666666"
         d="m -46.391766,59.131425 0,0.677156 c 0,1.311981 1.115,2.368196 2.5,2.368196 l 39,0 c 1.385,0 2.5,-1.056215 2.5,-2.368196 l 0,-0.677156 c 0,1.491744 -1.267028,2.693823 -2.841797,2.693823 l -38.316406,0 c -1.574769,0 -2.841797,-1.202079 -2.841797,-2.693823 z"
         id="rect11-5"
         inkscape:connector-curvature="0" />
      <path
         d="m -46.416159,4.4076775 0,-0.633985 c 0,-1.228337 1.115,-2.217214 2.5,-2.217214 l 39.0000013,0 c 1.385,0 2.5,0.988877 2.5,2.217214 l 0,0.633985 c 0,-1.39664 -1.267028,-2.522082 -2.841797,-2.522082 l -38.3164073,0 c -1.574769,0 -2.841797,1.125442 -2.841797,2.522082 z"
         id="rect11-1"
         inkscape:connector-curvature="0"
         style="fill:#e6e6e6" />
    </g>
  </g>
</svg>
