<?xml version="1.0" encoding="UTF-8" standalone="no"?>
<svg
   xmlns:dc="http://purl.org/dc/elements/1.1/"
   xmlns:cc="http://creativecommons.org/ns#"
   xmlns:rdf="http://www.w3.org/1999/02/22-rdf-syntax-ns#"
   xmlns:svg="http://www.w3.org/2000/svg"
   xmlns="http://www.w3.org/2000/svg"
   xmlns:sodipodi="http://sodipodi.sourceforge.net/DTD/sodipodi-0.dtd"
   xmlns:inkscape="http://www.inkscape.org/namespaces/inkscape"
   height="64"
   viewBox="0 0 64 64"
   width="64"
   id="svg2"
   version="1.1"
   inkscape:version="0.91 r13725"
   sodipodi:docname="application-x-deb-ubuntu.svg">
  <metadata
     id="metadata29">
    <rdf:RDF>
      <cc:Work
         rdf:about="">
        <dc:format>image/svg+xml</dc:format>
        <dc:type
           rdf:resource="http://purl.org/dc/dcmitype/StillImage" />
      </cc:Work>
    </rdf:RDF>
  </metadata>
  <defs
     id="defs27" />
  <sodipodi:namedview
     pagecolor="#ffffff"
     bordercolor="#666666"
     borderopacity="1"
     objecttolerance="10"
     gridtolerance="10"
     guidetolerance="10"
     inkscape:pageopacity="0"
     inkscape:pageshadow="2"
     inkscape:window-width="3798"
     inkscape:window-height="2046"
     id="namedview25"
     showgrid="false"
     inkscape:zoom="14.75"
     inkscape:cx="16.328716"
     inkscape:cy="41.417908"
     inkscape:window-x="19"
     inkscape:window-y="1105"
     inkscape:window-maximized="0"
     inkscape:current-layer="svg2" />
  <linearGradient
     id="a"
     gradientTransform="matrix(1.0749904,0,0,1.1792904,113.08072,-0.434132)"
     gradientUnits="userSpaceOnUse"
     x1="-74.929466"
     x2="-75.259552"
     y1="52.199436"
     y2="2.356489">
    <stop
       offset="0"
       stop-color="#ff6835"
       id="stop5" />
    <stop
       offset="1"
       stop-color="#ff956f"
       id="stop7" />
  </linearGradient>
  <rect
     style="fill:url(#a)"
     id="rect11"
     y="1.468998"
     x="10"
     width="44"
     ry="2.8640001"
     height="60.531002" />
  <path
     style="fill:#ffffff;fill-opacity:0.85"
     inkscape:connector-curvature="0"
     id="path23"
     d="m 38.307084,18.108378 c -0.123784,-0.0082 -0.245796,-0.0064 -0.365995,0.0016 -0.801372,0.05658 -1.543493,0.500538 -1.975683,1.248962 -0.688991,1.196196 -0.276548,2.716143 0.922119,3.407661 1.196196,0.688975 2.718687,0.2885 3.407662,-0.911479 0.691422,-1.192461 0.295445,-2.740611 -0.900767,-3.430762 -0.337117,-0.193896 -0.716001,-0.293006 -1.087313,-0.31625 z m -6.564808,2.650831 c -1.72926,0 -3.346529,0.408461 -4.796975,1.128158 l 1.737619,3.137581 c 0.935851,-0.436997 1.96149,-0.694673 3.059451,-0.694673 3.822004,0 6.976511,2.92463 7.305626,6.664323 l 3.548022,-0.04442 c -0.176875,-2.75598 -1.382678,-5.23507 -3.233552,-7.055198 -0.953048,0.357492 -2.035449,0.3027 -2.98477,-0.248736 -0.949312,-0.54898 -1.549866,-1.466546 -1.714518,-2.474902 -0.926029,-0.25425 -1.915003,-0.41218 -2.920808,-0.41218 z m -6.022923,1.833503 c -2.190987,1.462724 -3.804545,3.707572 -4.482514,6.328476 0.793393,0.644769 1.270337,1.608822 1.270337,2.712957 0,1.096682 -0.475705,2.096574 -1.270337,2.744982 0.677961,2.619624 2.291527,4.855104 4.482514,6.317828 l 1.832954,-3.082822 c -1.880244,-1.321458 -3.103825,-3.50681 -3.103825,-5.980258 0,-2.47599 1.223581,-4.658713 3.103825,-5.980258 z M 19,29.137963 c -1.384124,0 -2.49619,1.11205 -2.49619,2.496182 0,1.379222 1.112066,2.496191 2.49619,2.496191 1.385309,0 2.508643,-1.116969 2.508643,-2.496191 0,-1.384132 -1.123334,-2.496182 -2.508643,-2.496182 z m 20.047902,3.158958 c -0.329139,3.733589 -3.483607,6.664322 -7.305626,6.664322 -1.099216,0 -2.123592,-0.246741 -3.059443,-0.684016 l -1.737628,3.11448 c 1.450447,0.722176 3.067811,1.11751 4.796976,1.11751 1.0059,0 1.994786,-0.134257 2.920815,-0.390868 0.164581,-1.007076 0.763919,-1.921741 1.714535,-2.473169 0.951847,-0.548893 2.031793,-0.602167 2.984753,-0.239851 1.850874,-1.822585 3.056535,-4.296763 3.233552,-7.055198 z m -1.096229,7.890175 c -0.362188,0.03083 -0.727778,0.151326 -1.064203,0.346454 -1.198565,0.686607 -1.611087,2.203272 -0.92212,3.397013 0.691478,1.199931 2.23157,1.602178 3.428951,0.913203 1.19765,-0.690246 1.592173,-2.213189 0.900767,-3.409385 -0.432158,-0.748376 -1.184825,-1.190833 -1.986324,-1.24723 -0.12035,-0.01001 -0.236489,-0.01001 -0.357102,0 z" />
  <g
     transform="translate(56.391766,-0.17677748)"
     id="g4364">
    <g
       id="g4274">
      <path
         style="color:#000000;display:inline;overflow:visible;visibility:visible;opacity:0.07999998;fill:#ffffff;fill-opacity:1;fill-rule:nonzero;stroke:none;stroke-width:0.26458332;marker:none;enable-background:accumulate"
         d="m -24.211872,1.2694285 0,61.1690735 12.371744,0 c 10.5678581,0 9.8115271,0.439894 9.8115271,-10.648116 l 0,-19.936427 0,-19.936427 c 0,-10.700833 0.8143853,-10.6481035 -9.8115271,-10.6481035 z"
         id="path4231"
         inkscape:connector-curvature="0"
         sodipodi:nodetypes="ccsscssc" />
      <path
         inkscape:connector-curvature="0"
         style="color:#000000;display:inline;overflow:visible;visibility:visible;opacity:0.07999998;fill:#ffffff;fill-opacity:1;fill-rule:nonzero;stroke:none;stroke-width:0.26458332;marker:none;enable-background:accumulate"
         d="m -46.395136,31.853959 0,19.936427 c -1.236828,11.502216 0.0059,10.648116 9.81153,10.648116 l 24.743478,0 c 10.394983,0 9.811527,0.741004 9.811527,-10.648116 l 0,-19.936427 z"
         id="path4255"
         sodipodi:nodetypes="ccssscc" />
      <path
         style="color:#000000;display:inline;overflow:visible;visibility:visible;opacity:0.07999998;fill:#ffffff;fill-opacity:1;fill-rule:nonzero;stroke:none;stroke-width:2.11666656;stroke-linecap:butt;stroke-linejoin:miter;stroke-miterlimit:4;stroke-dasharray:none;stroke-dashoffset:0;stroke-opacity:1;marker:none;enable-background:accumulate"
         d="m -17.153556,62.438502 15.1249551,-16.384574 0,6.139813 c 0.9120172,11.193544 0.095941,10.244761 -9.6230261,10.244761 z"
         id="path4254"
         inkscape:connector-curvature="0"
         sodipodi:nodetypes="cccsc" />
    </g>
    <g
       id="g4319">
      <path
         style="fill:#666666"
         d="m -46.391766,59.131425 0,0.677156 c 0,1.311981 1.115,2.368196 2.5,2.368196 l 39,0 c 1.385,0 2.5,-1.056215 2.5,-2.368196 l 0,-0.677156 c 0,1.491744 -1.267028,2.693823 -2.841797,2.693823 l -38.316406,0 c -1.574769,0 -2.841797,-1.202079 -2.841797,-2.693823 z"
         id="rect11-5"
         inkscape:connector-curvature="0" />
      <path
         d="m -46.416159,4.4076775 0,-0.633985 c 0,-1.228337 1.115,-2.217214 2.5,-2.217214 l 39.0000013,0 c 1.385,0 2.5,0.988877 2.5,2.217214 l 0,0.633985 c 0,-1.39664 -1.267028,-2.522082 -2.841797,-2.522082 l -38.3164073,0 c -1.574769,0 -2.841797,1.125442 -2.841797,2.522082 z"
         id="rect11-1"
         inkscape:connector-curvature="0"
         style="fill:#e6e6e6" />
    </g>
  </g>
</svg>
