<?xml version="1.0" encoding="UTF-8" standalone="no"?>
<svg
   xmlns:dc="http://purl.org/dc/elements/1.1/"
   xmlns:cc="http://creativecommons.org/ns#"
   xmlns:rdf="http://www.w3.org/1999/02/22-rdf-syntax-ns#"
   xmlns:svg="http://www.w3.org/2000/svg"
   xmlns="http://www.w3.org/2000/svg"
   xmlns:sodipodi="http://sodipodi.sourceforge.net/DTD/sodipodi-0.dtd"
   xmlns:inkscape="http://www.inkscape.org/namespaces/inkscape"
   height="64"
   viewBox="0 0 64 64"
   width="64"
   id="svg2"
   version="1.1"
   inkscape:version="0.91 r13725"
   sodipodi:docname="extension.svg">
  <metadata
     id="metadata31">
    <rdf:RDF>
      <cc:Work
         rdf:about="">
        <dc:format>image/svg+xml</dc:format>
        <dc:type
           rdf:resource="http://purl.org/dc/dcmitype/StillImage" />
      </cc:Work>
    </rdf:RDF>
  </metadata>
  <defs
     id="defs29" />
  <sodipodi:namedview
     pagecolor="#ffffff"
     bordercolor="#666666"
     borderopacity="1"
     objecttolerance="10"
     gridtolerance="10"
     guidetolerance="10"
     inkscape:pageopacity="0"
     inkscape:pageshadow="2"
     inkscape:window-width="3798"
     inkscape:window-height="2046"
     id="namedview27"
     showgrid="false"
     inkscape:zoom="14.75"
     inkscape:cx="39.20143"
     inkscape:cy="28.557077"
     inkscape:window-x="19"
     inkscape:window-y="55"
     inkscape:window-maximized="0"
     inkscape:current-layer="svg2" />
  <linearGradient
     id="a"
     gradientTransform="matrix(1.0749904,0,0,1.1719405,113.08072,-0.42227104)"
     gradientUnits="userSpaceOnUse"
     x1="-74.929466"
     x2="-75.259552"
     y1="52.199436"
     y2="2.356489">
    <stop
       offset="0"
       stop-color="#269de0"
       id="stop5" />
    <stop
       offset="1"
       stop-color="#1ab4fd"
       id="stop7" />
  </linearGradient>
  <linearGradient
     gradientUnits="userSpaceOnUse"
     x1="-.5"
     x2="536"
     y1="267.75"
     y2="267.75"
     id="linearGradient9">
    <stop
       offset="0"
       stop-color="#3889e9"
       id="stop11" />
    <stop
       offset="1"
       stop-color="#5ea5fb"
       id="stop13" />
  </linearGradient>
  <rect
     style="fill:url(#a)"
     id="rect17"
     y="1.468998"
     x="10"
     width="44"
     ry="2.8464792"
     height="60.153744" />
  <path
     style="fill:#0b3a6a"
     d="m 42.153351,30.14277 -1.89104,0 0,-5.042776 c 0,-1.386763 -1.134625,-2.521388 -2.521388,-2.521388 l -5.042776,0 0,-1.89104 c 0,-1.764973 -1.386764,-3.151736 -3.151736,-3.151736 -1.764972,0 -3.151736,1.386763 -3.151736,3.151736 l 0,1.89104 -5.042776,0 c -1.386764,0 -2.521388,1.134625 -2.521388,2.521388 l 0,4.790639 1.891042,0 c 1.89104,0 3.403873,1.512833 3.403873,3.403873 0,1.891042 -1.512833,3.403875 -3.403873,3.403875 l -1.891042,0 0,4.790637 c 0,1.386764 1.134624,2.521388 2.521388,2.521388 l 4.790637,0 0,-1.891042 c 0,-1.89104 1.512833,-3.403873 3.403875,-3.403873 1.89104,0 3.403873,1.512833 3.403873,3.403873 l 0,1.891042 4.790639,0 c 1.386763,0 2.521388,-1.134624 2.521388,-2.521388 l 0,-5.042776 1.89104,0 c 1.764973,0 3.151736,-1.386764 3.151736,-3.151736 0,-1.764972 -1.386763,-3.151736 -3.151736,-3.151736 z"
     id="path25"
     inkscape:connector-curvature="0" />
  <g
     transform="translate(56.391766,-0.17677748)"
     id="g4364">
    <g
       id="g4274">
      <path
         style="color:#000000;display:inline;overflow:visible;visibility:visible;opacity:0.07999998;fill:#ffffff;fill-opacity:1;fill-rule:nonzero;stroke:none;stroke-width:0.26458332;marker:none;enable-background:accumulate"
         d="m -24.211872,1.2694285 0,61.1690735 12.371744,0 c 10.5678581,0 9.8115271,0.439894 9.8115271,-10.648116 l 0,-19.936427 0,-19.936427 c 0,-10.700833 0.8143853,-10.6481035 -9.8115271,-10.6481035 z"
         id="path4231"
         inkscape:connector-curvature="0"
         sodipodi:nodetypes="ccsscssc" />
      <path
         inkscape:connector-curvature="0"
         style="color:#000000;display:inline;overflow:visible;visibility:visible;opacity:0.07999998;fill:#ffffff;fill-opacity:1;fill-rule:nonzero;stroke:none;stroke-width:0.26458332;marker:none;enable-background:accumulate"
         d="m -46.395136,31.853959 0,19.936427 c -1.236828,11.502216 0.0059,10.648116 9.81153,10.648116 l 24.743478,0 c 10.394983,0 9.811527,0.741004 9.811527,-10.648116 l 0,-19.936427 z"
         id="path4255"
         sodipodi:nodetypes="ccssscc" />
      <path
         style="color:#000000;display:inline;overflow:visible;visibility:visible;opacity:0.07999998;fill:#ffffff;fill-opacity:1;fill-rule:nonzero;stroke:none;stroke-width:2.11666656;stroke-linecap:butt;stroke-linejoin:miter;stroke-miterlimit:4;stroke-dasharray:none;stroke-dashoffset:0;stroke-opacity:1;marker:none;enable-background:accumulate"
         d="m -17.153556,62.438502 15.1249551,-16.384574 0,6.139813 c 0.9120172,11.193544 0.095941,10.244761 -9.6230261,10.244761 z"
         id="path4254"
         inkscape:connector-curvature="0"
         sodipodi:nodetypes="cccsc" />
    </g>
    <g
       id="g4319">
      <path
         style="fill:#666666"
         d="m -46.391766,59.131425 0,0.677156 c 0,1.311981 1.115,2.368196 2.5,2.368196 l 39,0 c 1.385,0 2.5,-1.056215 2.5,-2.368196 l 0,-0.677156 c 0,1.491744 -1.267028,2.693823 -2.841797,2.693823 l -38.316406,0 c -1.574769,0 -2.841797,-1.202079 -2.841797,-2.693823 z"
         id="rect11-5"
         inkscape:connector-curvature="0" />
      <path
         d="m -46.416159,4.4076775 0,-0.633985 c 0,-1.228337 1.115,-2.217214 2.5,-2.217214 l 39.0000013,0 c 1.385,0 2.5,0.988877 2.5,2.217214 l 0,0.633985 c 0,-1.39664 -1.267028,-2.522082 -2.841797,-2.522082 l -38.3164073,0 c -1.574769,0 -2.841797,1.125442 -2.841797,2.522082 z"
         id="rect11-1"
         inkscape:connector-curvature="0"
         style="fill:#e6e6e6" />
    </g>
  </g>
</svg>
