<?xml version="1.0" encoding="UTF-8" standalone="no"?>
<svg
   xmlns:dc="http://purl.org/dc/elements/1.1/"
   xmlns:cc="http://creativecommons.org/ns#"
   xmlns:rdf="http://www.w3.org/1999/02/22-rdf-syntax-ns#"
   xmlns:svg="http://www.w3.org/2000/svg"
   xmlns="http://www.w3.org/2000/svg"
   xmlns:sodipodi="http://sodipodi.sourceforge.net/DTD/sodipodi-0.dtd"
   xmlns:inkscape="http://www.inkscape.org/namespaces/inkscape"
   height="64"
   viewBox="0 0 64 64"
   width="64"
   id="svg2"
   version="1.1"
   inkscape:version="0.91 r13725"
   sodipodi:docname="text-html.svg">
  <metadata
     id="metadata31">
    <rdf:RDF>
      <cc:Work
         rdf:about="">
        <dc:format>image/svg+xml</dc:format>
        <dc:type
           rdf:resource="http://purl.org/dc/dcmitype/StillImage" />
      </cc:Work>
    </rdf:RDF>
  </metadata>
  <defs
     id="defs29" />
  <sodipodi:namedview
     pagecolor="#ffffff"
     bordercolor="#666666"
     borderopacity="1"
     objecttolerance="10"
     gridtolerance="10"
     guidetolerance="10"
     inkscape:pageopacity="0"
     inkscape:pageshadow="2"
     inkscape:window-width="3798"
     inkscape:window-height="2046"
     id="namedview27"
     showgrid="false"
     inkscape:zoom="20.85965"
     inkscape:cx="20.362728"
     inkscape:cy="20.946873"
     inkscape:window-x="19"
     inkscape:window-y="55"
     inkscape:window-maximized="0"
     inkscape:current-layer="svg2" />
  <linearGradient
     id="a"
     gradientTransform="matrix(1.0749904,0,0,1.1740559,113.08072,-0.42568485)"
     gradientUnits="userSpaceOnUse"
     x1="-74.929466"
     x2="-75.259552"
     y1="52.199436"
     y2="2.356489">
    <stop
       offset="0"
       stop-color="#0cb096"
       id="stop5" />
    <stop
       offset="1"
       stop-color="#34d6b6"
       id="stop7" />
  </linearGradient>
  <rect
     style="fill:url(#a)"
     id="rect13"
     y="1.468998"
     x="10"
     width="44"
     ry="2.8516171"
     height="60.262325" />
  <path
     style="fill:#075347"
     inkscape:connector-curvature="0"
     id="path25"
     d="m 32.099998,18.370061 c -6.996987,0 -12.62994,5.632955 -12.62994,12.629942 0,6.996986 5.632953,12.62994 12.62994,12.62994 6.996987,0 12.629942,-5.632954 12.629942,-12.62994 0,-6.996987 -5.632955,-12.629942 -12.629942,-12.629942 z m 0,1.148176 c 1.907835,0 3.6989,0.468345 5.27892,1.284972 0.0049,0.04562 0.0037,0.07922 0,0.130067 0.06658,0.02984 0.105012,0.153303 0.217526,0.215284 0.04133,0.02296 0.0686,0.03316 0.107641,0.05382 0.06658,0.03674 0.121422,0.09718 0.107642,0.161462 -0.01837,0.09412 -0.150991,0.09036 -0.215283,0.15922 0.0092,0.133142 -0.0732,0.127997 -0.107642,0.217524 0.02068,0.0574 0.09847,0.03877 0.107642,0.107642 -0.01153,0.07345 -0.135199,0.08347 -0.107642,0.15922 0.123992,0.09641 0.259642,0.01606 0.376747,0 0.257169,-0.03214 0.48517,0.01633 0.643607,-0.107642 -0.02067,-0.121662 0.175239,-0.158917 0.161462,-0.269105 -0.01153,-0.08265 -0.153287,-0.101832 -0.215283,-0.159219 -0.01391,-0.01292 -0.03171,-0.04525 -0.0471,-0.06953 0.189466,0.124482 0.370295,0.259491 0.551661,0.394685 -0.04469,0.03634 -0.08161,0.08227 -0.127825,0.103153 -0.04823,0.02064 -0.117832,0.02628 -0.161462,0.05382 -0.0643,0.04363 -0.08799,0.111005 -0.161462,0.159218 -0.0528,0.03673 -0.213996,0.161465 -0.269104,0.161465 -0.06658,0 -0.167064,-0.06766 -0.215283,-0.05158 -0.06888,0.02064 -0.02958,0.131674 -0.107642,0.159221 -0.151546,0.05509 -0.431575,-0.119622 -0.484387,0.107642 0.0643,0.130847 0.261938,0.0903 0.376746,0.161461 0.07119,0.0459 0.196914,0.244875 0.215283,0.322924 0.01837,0.06429 0.02756,0.307879 0,0.376747 -0.07119,0.183645 -0.27314,0.166051 -0.484386,0.161461 -0.05741,0 -0.108652,0.0046 -0.161462,0 -0.355906,-0.02296 -0.698161,-0.147169 -0.858891,0.107642 0.01153,0.195123 0.04364,0.314514 0,0.484388 -0.03215,0.123966 -0.168351,0.215032 -0.161464,0.322923 0.0022,0.05509 0.09386,0.139531 0.107642,0.215284 0.0092,0.04132 -0.01837,0.124737 0,0.161463 0.05969,0.112475 0.217301,-0.01836 0.322924,0 0.101028,0.01607 0.217527,0.15662 0.217527,0.269102 0,0.08034 -0.05937,0.244875 -0.109881,0.322925 -0.101028,0.151508 -0.285908,0.132644 -0.430566,0.215283 -0.119406,0.06887 -0.144103,0.205797 -0.215283,0.325168 -0.07576,0.128551 -0.137494,0.193099 -0.107641,0.376745 -0.103325,0.204305 -0.219265,0.331856 -0.432809,0.430567 -0.062,0.02754 -0.157878,0.06632 -0.215283,0.107641 -0.0459,0.03215 -0.09717,0.088 -0.161464,0.161463 -0.08035,0.08953 -0.171655,0.146416 -0.215281,0.215283 -0.03215,0.05279 -0.01939,0.14412 -0.05383,0.215283 -0.05053,0.09641 -0.15099,0.17269 -0.215284,0.269103 -0.02985,0.0459 -0.07549,0.101774 -0.107642,0.161462 -0.07348,0.133142 -0.175237,0.259672 -0.161461,0.376745 0.01153,0.112476 0.154573,0.116576 0.161461,0.215285 0.0069,0.05509 -0.05611,0.09952 -0.05383,0.159219 0.0022,0.08723 0.04694,0.148658 0.05383,0.217526 0.01606,0.169872 -0.07552,0.20585 -0.107641,0.322923 -0.01606,0.05509 0.01379,0.117849 0,0.161464 -0.02756,0.08493 -0.159167,0.165855 -0.161463,0.26686 -0.0022,0.07115 0.100753,0.116525 0.107642,0.217525 0.0046,0.06887 -0.06535,0.151008 -0.05158,0.215284 0.02525,0.123966 0.280305,0.280331 0.376744,0.376745 0.130882,0.130849 0.265521,0.239013 0.322926,0.376747 0.04823,0.117075 0.07192,0.289512 0.161462,0.376745 0.06658,0.06427 0.184147,0.09266 0.269104,0.159219 0.08035,0.06198 0.181904,0.09488 0.266862,0.161462 0.140067,0.110191 0.315479,0.338996 0.538207,0.322925 0.1171,-0.0092 0.245864,-0.08468 0.376744,-0.107642 0.135474,-0.02296 0.292797,-0.06535 0.430568,-0.05158 0.105632,0.01153 0.21495,0.05846 0.325167,0.05158 0.114806,-0.0069 0.245865,-0.05024 0.376745,-0.107641 0.22732,-0.09871 0.582064,-0.263491 0.912711,-0.215282 0.252576,0.03673 0.256003,0.318081 0.432809,0.430565 0.202062,0.01836 0.375234,-0.03903 0.535965,0 0.121699,0.02985 0.257624,0.228752 0.269103,0.325167 0.01153,0.09871 -0.09386,0.204882 -0.107642,0.266861 -0.03215,0.133144 -0.03086,0.291812 -0.05382,0.376746 -0.01837,0.06658 -0.05388,0.14871 -0.05157,0.215284 0,0.05968 0.09948,0.191053 0.161462,0.269103 0.07577,0.09641 0.175015,0.163508 0.266861,0.269104 0.167622,0.192829 0.259642,0.444861 0.376745,0.699668 0.02985,0.06427 -0.02756,0.08111 0,0.161465 -0.05051,0.385655 -0.177988,0.649437 -0.430565,1.076414 -0.119394,0.137733 -0.2714,0.312218 -0.269103,0.484387 -0.0092,0.413203 0.233652,0.620923 0.215281,1.020351 -0.04133,0.537164 -0.01033,0.628006 -0.05156,0.914955 0.181396,0.09182 0.104404,0.345433 0.05156,0.535964 -0.07808,0.227262 -0.171655,0.281302 -0.215281,0.43281 0.142222,0.06153 0.298415,0.04649 0.457476,0.0068 -2.091899,2.229678 -5.060861,3.626144 -8.37363,3.626144 -1.409634,0 -2.752835,-0.263597 -3.998436,-0.724338 -0.04574,-0.01811 -0.09619,-0.02848 -0.141278,-0.05383 -0.07119,-0.04132 -0.116827,-0.12805 -0.107642,-0.215282 0.119407,-0.0505 0.345555,0.11375 0.432809,-0.05382 0.04364,-0.08035 -0.05741,-0.242581 0,-0.322923 0.04133,-0.05509 0.291787,-0.09386 0.376746,-0.107642 0.121697,-0.02066 0.254038,-0.01022 0.322924,-0.05382 0.07577,-0.04821 0.175239,-0.1806 0.161462,-0.322925 -0.0069,-0.06658 -0.05484,-0.101774 -0.107641,-0.161463 -0.04364,-0.0505 -0.02397,-0.113314 -0.05382,-0.159219 -0.05511,-0.08034 -0.138503,-0.0982 -0.161464,-0.215283 0.165324,-0.03214 0.407049,0.174211 0.645851,0.107642 0.112521,-0.03214 0.270113,-0.271149 0.322924,-0.376747 0.01608,-0.03214 -0.01837,-0.122432 0,-0.161461 0.02066,-0.04363 0.102992,-0.08468 0.109881,-0.107642 0.01607,-0.06198 -0.01379,-0.06862 0,-0.107641 0.04133,-0.117076 0.146396,-0.184168 0.215283,-0.269104 0.0528,-0.06429 0.113256,-0.148709 0.16146,-0.215281 0.05512,-0.07115 0.07091,-0.09948 0.107641,-0.161463 0.03445,-0.208898 -0.104346,-0.352319 -0.05383,-0.535966 0.05512,-0.206601 0.338441,-0.33869 0.538209,-0.432808 0.06888,-0.03214 0.157875,-0.08697 0.215283,-0.107642 0.137768,-0.04821 0.301978,-0.06173 0.430565,-0.107641 0.215839,-0.07804 0.271121,-0.286969 0.376745,-0.484386 0.05053,-0.09181 0.100707,-0.202534 0.109881,-0.269104 0.0092,-0.05968 -0.01153,-0.09036 0,-0.15922 0.01153,-0.06886 0.03322,-0.141771 0.05156,-0.217525 0.02526,-0.09872 0.05383,-0.264317 0.05383,-0.374504 0,-0.09182 -0.05153,-0.134885 -0.05383,-0.217526 -0.01606,-0.298424 0.105081,-0.321401 0.215283,-0.484387 0.05512,-0.08034 0.0686,-0.209471 0.107642,-0.26686 0.18599,-0.275468 0.507349,-0.391759 0.484386,-0.809554 -0.0092,-0.137735 -0.05817,-0.44077 -0.159219,-0.484387 -0.05741,-0.02525 -0.184147,-0.01945 -0.269104,-0.05158 -0.270947,-0.101005 -0.471063,-0.409853 -0.753492,-0.432809 -0.05969,-0.0022 -0.09487,0.0022 -0.161461,0 -0.110214,-0.0022 -0.25051,-0.09386 -0.374502,-0.107641 -0.07809,-0.0092 -0.223181,0.02296 -0.269105,0 -0.07119,-0.03443 -0.05024,-0.176258 -0.107642,-0.215283 -0.04592,-0.03214 -0.146343,-0.02857 -0.217525,-0.05382 -0.112521,-0.0436 -0.192041,-0.09846 -0.322925,-0.107642 -0.04133,-0.0022 -0.115538,0.0069 -0.161461,0 -0.07119,-0.01153 -0.148697,-0.06632 -0.215284,-0.107641 -0.08268,-0.05051 -0.127019,-0.08808 -0.161462,-0.15922 0.07577,-0.247923 -0.164767,-0.288187 -0.215283,-0.432809 -0.02296,-0.06658 0.02296,-0.155597 0,-0.215283 -0.02985,-0.08493 -0.121143,-0.14412 -0.215284,-0.215283 -0.165323,-0.128553 -0.301702,-0.239261 -0.538207,-0.269104 -0.105632,-0.01153 -0.250457,0.0092 -0.376746,0 -0.133177,-0.0092 -0.275712,-0.1005 -0.376745,-0.215283 -0.09645,-0.112475 -0.130326,-0.216306 -0.215283,-0.269103 -0.08035,-0.0505 -0.213994,-0.05484 -0.269104,-0.107641 -0.02525,-0.02296 -0.02862,-0.05485 -0.05158,-0.107642 -0.04133,-0.08265 -0.104346,-0.116525 -0.05383,-0.217525 -0.09185,-0.0459 -0.06049,0.07219 -0.159221,0.05382 -0.08956,-0.126256 -0.174682,-0.200488 -0.376745,-0.161463 -0.09185,0.01836 -0.161184,0.159168 -0.269104,0.161463 -0.08955,0.0022 -0.151999,-0.145395 -0.269104,-0.161463 -0.08955,-0.01153 -0.207108,0.0676 -0.269104,0.05383 -0.09874,-0.01836 -0.125732,-0.101774 -0.215283,-0.161461 -0.06658,-0.04363 -0.178545,-0.161515 -0.215283,-0.15922 -0.114806,0.0022 -0.218311,0.244155 -0.376744,0.15922 -0.07809,-0.09872 0.143431,-0.123466 0.05157,-0.215283 -0.06888,-0.06887 -0.104117,0.0171 -0.15922,0.05382 -0.0643,0.04363 -0.144103,0.08239 -0.215283,0.107641 -0.158436,0.05968 -0.252753,0.04337 -0.376746,0.107642 -0.114806,0.05968 -0.150938,0.15203 -0.217525,0.269104 -0.0528,0.09642 -0.134918,0.262271 -0.215283,0.266859 -0.09644,0.0069 -0.181849,-0.122493 -0.269104,-0.159217 -0.264059,-0.114783 -0.425472,0.0493 -0.643606,0.05157 -0.202063,0.0022 -0.493572,-0.293853 -0.484388,-0.484385 0.0069,-0.117076 0.09386,-0.285946 0.107641,-0.430567 0.01153,-0.114783 0.105369,-0.219569 0.107642,-0.325167 0.0022,-0.14003 -0.233321,-0.250788 -0.325167,-0.266862 -0.215837,-0.03903 -0.505557,0.09642 -0.751247,0 -0.04592,-0.07804 0.08009,-0.141771 0.107641,-0.217526 0.01606,-0.04361 -0.01607,-0.05942 0,-0.107642 0.02756,-0.07345 0.124778,-0.137232 0.159219,-0.215282 0.02525,-0.05968 0.02858,-0.141825 0.05382,-0.215283 0.02985,-0.08264 0.100753,-0.155598 0.107642,-0.215283 0.0092,-0.07804 -0.04564,-0.167024 -0.107642,-0.217525 -0.19058,0.01153 -0.322592,0.0033 -0.432808,0.05382 -0.247986,0.112475 -0.180286,0.46016 -0.430567,0.538206 -0.08497,0.02754 -0.226486,0.03551 -0.322924,0.05157 -0.04199,0.0082 -0.08972,0.01506 -0.136794,0.02691 0.160363,-0.833572 0.4086,-1.63484 0.737792,-2.392781 0.05522,-1.6e-5 0.112475,-0.0073 0.15025,0 0.08725,0.01607 0.141753,0.100752 0.217527,0.107641 0.211247,0.01608 0.256058,-0.177283 0.430565,-0.269105 0.1791,0.02525 0.26978,-0.01836 0.432808,0 0.110214,0.01153 0.23567,0.154576 0.322925,0.161465 0.07348,0.0022 0.09259,-0.06532 0.161463,-0.05382 0.06889,0.01153 0.203801,0.13264 0.215282,0.215282 0.01153,0.103301 -0.08368,0.210388 -0.05383,0.325166 0.107917,0.11019 0.330545,0.151008 0.484387,0.215284 0.101028,-0.08265 0.01607,-0.257378 0,-0.376747 -0.0022,-0.05279 0.0069,-0.113244 0,-0.161461 -0.01153,-0.08264 -0.05158,-0.144121 -0.05158,-0.215284 0,-0.328266 0.263955,-0.463475 0.484387,-0.592027 0.09414,-0.0551 0.186441,-0.173964 0.269104,-0.215283 0.117101,-0.0574 0.172665,-0.05253 0.269102,-0.107642 0.174509,-0.09871 0.348915,-0.212682 0.484387,-0.325166 0.06201,-0.149212 -0.0069,-0.33747 0,-0.484387 0.06201,-0.03903 0.09262,0.0069 0.159221,0 0.105632,-0.02296 0.157825,-0.155598 0.217526,-0.215283 0.03445,-0.03443 0.117892,-0.07321 0.159218,-0.107641 0.105633,-0.08265 0.123435,-0.178553 0.215285,-0.215285 0.03215,-0.01153 0.110948,-0.04005 0.161461,-0.05382 0.0689,-0.01836 0.158889,-0.06862 0.269105,-0.107641 0.07119,-0.02525 0.24155,-0.02404 0.269103,-0.05157 0.03445,-0.03443 -0.0092,-0.164729 0,-0.217526 0.05512,-0.259399 0.467759,-0.287272 0.699671,-0.374503 0.160728,-0.06198 0.305287,-0.195897 0.484387,-0.161462 -0.03445,0.123967 -0.191313,0.11989 -0.161463,0.269103 0.03903,0.208896 0.303267,-0.0778 0.376745,-0.107641 0.140067,-0.05968 0.408337,-0.09489 0.592029,-0.161462 0.160732,-0.05739 0.420651,-0.136983 0.269103,-0.322924 -0.126288,-0.0092 -0.158888,0.113313 -0.269103,0.15922 -0.07577,0.01153 -0.09492,-0.04699 -0.15922,-0.05158 -0.062,-0.0022 -0.09948,0.06307 -0.161462,0.05158 -0.06201,-0.01153 -0.152278,-0.141825 -0.161462,-0.215285 -0.02526,-0.192828 0.191033,-0.23442 0.269102,-0.376743 -0.0528,-0.174465 -0.283612,-0.03877 -0.430565,-0.107641 0.01608,-0.103302 0.0936,-0.194623 0.215284,-0.215283 0.09874,-0.01608 0.317045,0.0033 0.376745,0.05156 0.03445,0.02984 -0.0013,0.113245 0.05157,0.161463 0.05969,0.05279 0.139457,0.01153 0.217525,0 0.02756,-0.130849 -0.184425,-0.07653 -0.161461,-0.161463 0.156138,-0.101005 0.455267,-0.02634 0.645849,-0.05156 0.110214,-0.01608 0.224188,-0.108664 0.322924,-0.161463 0.09185,-0.05279 0.172666,-0.138815 0.269105,-0.05156 0.02756,0.09412 -0.05484,0.167078 -0.107642,0.215283 -0.176805,0.1561 -0.346618,0.303038 -0.484387,0.484388 0.08497,0.08265 0.234382,0.0355 0.376745,0.05158 0.05511,0.0069 0.101809,0.04464 0.15922,0.05382 0.06889,0.01153 0.162417,-0.01153 0.217525,0 0.09645,0.02296 0.118838,0.161461 0.215283,0.161461 0.156139,0 0.141137,-0.163506 0.05158,-0.269102 0.02756,-0.107895 0.09288,-0.193348 0.05383,-0.269104 -0.07119,-0.142325 -0.362966,0.01989 -0.376744,-0.161463 -0.0092,-0.114783 0.120137,-0.12805 0.161462,-0.215284 -0.01837,-0.220373 0.182182,-0.23085 0.15922,-0.430565 -0.01153,-0.08265 -0.101808,-0.08341 -0.15922,-0.161462 -0.02985,-0.04132 -0.01938,-0.13162 -0.05383,-0.161461 -0.119394,-0.101005 -0.362968,-0.07404 -0.376745,-0.266863 -0.0069,-0.114783 0.01607,-0.201205 0,-0.325166 -0.01606,-0.117077 -0.114255,-0.461432 -0.215285,-0.484388 -0.128583,-0.02754 -0.2229,0.197941 -0.376743,0.269104 -0.08266,0.03903 -0.237967,0.06989 -0.322926,0.05382 -0.05512,-0.01153 -0.154575,-0.05586 -0.161461,-0.161463 -0.01153,-0.121661 0.08469,-0.140551 0.107642,-0.269104 0.989224,-0.276083 2.028495,-0.435055 3.108146,-0.435055 z m -4.630828,0.97326 c -0.03306,0.472247 -0.454314,0.716939 -0.950835,0.704155 -0.105632,0.101005 -0.05025,0.290535 -0.107641,0.430566 -0.04823,0.117076 -0.205821,0.226709 -0.322925,0.217527 -0.08497,-0.0069 -0.215283,-0.137182 -0.215283,-0.217527 0,-0.09872 0.136544,-0.154379 0.05158,-0.26686 0.0036,-0.02358 0.03446,-0.04734 0.05831,-0.07177 0.474799,-0.298926 0.968027,-0.56822 1.486798,-0.796099 z m 9.584581,0.547177 c -0.04223,0.0078 -0.06574,0.02958 -0.103152,0.05157 -0.08725,0.05279 -0.09487,0.136212 -0.161463,0.161461 -0.09414,0.03443 -0.201505,0.02271 -0.215282,0.107642 -0.01153,0.07116 0.05611,0.09493 0.05382,0.159219 -0.03445,0.08494 -0.08927,0.11197 -0.107642,0.215284 0.117102,0.190532 0.391309,-0.01033 0.535964,-0.05158 0.0643,-0.01836 0.127022,-0.0033 0.161464,-0.05383 0.03903,-0.06198 0.02173,-0.179627 0.05158,-0.266861 0.03214,-0.09642 0.119131,-0.07652 0.107641,-0.161461 -0.0092,-0.08494 -0.180563,-0.175237 -0.322924,-0.161463 z m -12.569392,1.370187 c 0.111695,0.05721 0.300214,0.315717 0.08521,0.408141 -0.02296,0.01153 -0.321637,0.06307 -0.376744,0.05158 -0.04447,-0.0064 -0.08144,-0.04724 -0.118853,-0.08746 0.131993,-0.1289 0.272283,-0.249826 0.410382,-0.372262 z m 0.405899,0.51354 c 0.05512,0.0022 0.09717,0.103049 0.161462,0.107642 0.062,0.0046 0.124721,-0.06531 0.161463,-0.05382 0.09643,0.02525 0.143431,0.197942 0.05158,0.269106 -0.07578,0.0092 -0.104117,-0.06306 -0.159221,-0.05156 -0.156139,0.02754 -0.208064,0.332107 -0.325167,0.322924 -0.110214,-0.01153 -0.164098,-0.242579 -0.05157,-0.322924 0.0022,-0.06887 -0.05843,-0.09259 -0.05382,-0.161463 0.03445,-0.04363 0.123435,-0.11453 0.215283,-0.107641 l 0,-0.0022 z m -0.535966,0.05382 c 0.03215,0 0.04011,-0.01379 0.05158,0 -0.01606,0.121659 -0.06507,0.160135 -0.15922,0.217524 -0.163028,0.09871 -0.272356,0.219375 -0.325167,0.430566 -0.01606,0.06199 -0.188793,0.231354 -0.266862,0.215284 -0.181397,-0.03903 0.06631,-0.377769 0.107642,-0.430566 0.04592,-0.05739 0.106401,-0.09718 0.159221,-0.161462 0.0528,-0.06429 0.05714,-0.178553 0.107641,-0.215283 0.05512,-0.03903 0.228729,-0.05842 0.325167,-0.05382 l 0,-0.0022 z m 16.244903,0.307226 c 0.07251,0.07986 0.147267,0.158053 0.217525,0.239951 -0.07239,-0.08471 -0.190556,-0.117204 -0.217525,-0.239951 z m -0.701912,0.02242 c 0.181397,-0.01153 0.294085,0.212739 0.376745,0.322926 0.06889,0.08953 0.264234,0.207122 0.376747,0.269104 0.0643,0.03443 0.144099,0.0755 0.215281,0.107641 0.149253,0.06658 0.423679,0.283649 0.430562,0.430565 0.0026,0.07345 -0.06301,0.148658 -0.05157,0.217526 0.11251,0.01836 0.212986,-0.156621 0.215287,-0.269104 0,-0.02668 -0.0091,-0.04329 -0.02022,-0.06054 0.324969,0.454674 0.617778,0.931797 0.874584,1.432978 -0.101223,0.0297 -0.187762,0.07857 -0.204072,0.177158 -0.02292,0.128555 0.08524,0.29997 -0.107642,0.322924 -0.121696,0.01608 -0.26519,-0.124738 -0.432804,-0.161461 -0.06891,-0.01607 -0.160176,0.01836 -0.215286,0 -0.126289,-0.04363 -0.107366,-0.191108 -0.215279,-0.26686 -0.06198,-0.04363 -0.226435,-0.09616 -0.325171,-0.107642 -0.062,-0.0069 -0.09492,0.0092 -0.159219,0 -0.07808,-0.0092 -0.204812,-0.01481 -0.269104,-0.05383 -0.062,-0.03903 -0.19921,-0.108664 -0.215283,-0.161463 -0.02525,-0.08493 0.154626,-0.1957 0.15922,-0.266861 0.0046,-0.0551 -0.04011,-0.07883 -0.05158,-0.161461 -0.0092,-0.0505 0.01153,-0.129324 0,-0.161464 -0.01606,-0.05968 -0.123385,-0.105333 -0.217525,-0.107641 -0.08268,0 -0.144104,0.05382 -0.215284,0.05382 -0.101028,0.0022 -0.304276,-0.0653 -0.430566,-0.05382 -0.07577,0.0069 -0.146344,0.04924 -0.217526,0.05382 -0.199766,0.01607 -0.328248,-0.01153 -0.484385,0 -0.112522,0.0069 -0.324945,0.05942 -0.430567,0.107641 -0.0528,0.02525 -0.09259,0.07321 -0.161463,0.107642 -0.03214,0.01606 -0.06631,0.03322 -0.107642,0.05157 -0.0643,0.02985 -0.153286,0.09381 -0.215283,0.10988 -0.08955,0.02296 -0.213717,-0.0069 -0.376744,0 -0.117102,0.0069 -0.320628,-0.02143 -0.322926,-0.161462 -0.0022,-0.21349 0.389967,-0.124738 0.592029,-0.161464 0.07577,-0.01606 0.123435,-0.106424 0.215283,-0.15922 0.04364,-0.02525 0.06631,-0.02626 0.107641,-0.05382 0.0689,-0.04821 0.203804,-0.160189 0.215284,-0.215283 0.0092,-0.0505 -0.05847,-0.124738 -0.05158,-0.161461 0.0092,-0.04821 0.09723,-0.09725 0.159219,-0.15922 0.09645,-0.09642 0.149705,-0.207124 0.269104,-0.269104 0.08037,-0.04363 0.232365,-0.04337 0.269104,-0.107641 0.0092,-0.07345 -0.0022,-0.09489 0,-0.161463 0.05053,-0.0459 0.06631,-0.09846 0.107641,-0.107641 0.123991,-0.02754 0.232088,0.05846 0.376747,0.05158 0.062,-0.0022 0.148695,-0.0078 0.215283,-0.05158 0.05512,-0.03673 0.106367,-0.0801 0.161462,-0.107642 0.05969,-0.03215 0.08798,-0.103048 0.161462,-0.107641 z m -14.367904,0.109881 0.0022,0 c 0.0528,-0.0022 0.10406,0 0.161462,0 0.05741,0 0.136257,-0.02296 0.159218,0 -0.03674,0.151507 -0.364984,0.106677 -0.484384,0.05158 0.0069,-0.05739 0.08798,-0.04469 0.161461,-0.05158 z m 15.287341,0.10988 c 0.06558,0.07649 0.133752,0.150511 0.197339,0.228739 -0.01068,-0.006 -0.02656,-0.0086 -0.03585,-0.0157 -0.06387,-0.05017 -0.09801,-0.135396 -0.161459,-0.213039 z m -15.825549,0.159221 c 0.03903,0 0.06855,-0.01607 0.109881,0 -0.105633,0.08954 -0.249117,0.157895 -0.432809,0.215283 -0.08725,0.02754 -0.199211,0.04259 -0.215283,-0.05383 -0.01838,-0.119368 0.0834,-0.09616 0.161461,-0.107642 0.101028,-0.01153 0.2574,-0.04929 0.374503,-0.05158 l 0.0022,-0.0022 z m 14.959932,0.0022 c -0.07577,0.02525 -0.112521,0.194623 0,0.215283 0.0528,-0.03215 0.0676,-0.118867 0.05383,-0.215283 -0.02985,-0.03215 -0.03088,-0.0092 -0.05383,0 z m -0.05158,0.322924 c -0.03674,0.01153 -0.06862,0.01033 -0.107641,0.05157 0.0022,0.12855 0.02526,0.212682 0,0.325167 0.07348,0.142323 0.230123,0.04259 0.266861,-0.05382 0.04364,-0.238738 -0.049,-0.352766 -0.15922,-0.322925 z m 1.020353,0.645851 c -0.101029,-0.0046 -0.20716,0.0033 -0.266863,0.05158 0.08497,0.137732 0.239986,0.18085 0.430568,0.215283 0.06883,-0.0505 0.07552,-0.17963 0.107642,-0.266862 -0.08263,0 -0.168075,0.0046 -0.269109,0 l -0.0022,0 z m -20.176064,4.72946 c 0.129441,0.117615 0.219591,0.313546 0.374502,0.3902 0.05741,0.02984 0.141806,0.03775 0.215284,0.05382 0.05969,0.01153 0.10406,0.0332 0.161461,0.05158 0.1217,0.04132 0.280308,0.06627 0.376747,0.109881 0.146955,0.06427 0.250455,0.301043 0.376745,0.374503 0.0069,0.07345 -0.02296,0.162431 0,0.217525 0.05969,0.08034 0.172664,0.106425 0.269104,0.15922 0.117102,0.06427 0.156646,0.218603 0.266861,0.269104 0.03903,0.01606 0.101762,-0.01836 0.161463,0 0.151547,0.0459 0.194286,0.254308 0.325167,0.215282 0.08497,-0.02525 0.09386,-0.132641 0.107642,-0.215282 0.05741,-0.06199 0.125732,-0.161462 0.215282,-0.161462 0.142362,-0.0022 0.16247,0.185137 0.215283,0.325167 0.02985,0.07805 0.08696,0.132642 0.107641,0.215283 0.03445,0.142324 0.02985,0.560913 0,0.645848 -0.03674,0.105598 -0.181849,0.152085 -0.269104,0.266861 -0.04133,0.0551 -0.07549,0.124739 -0.107641,0.161464 -0.05512,0.06887 -0.117882,0.09949 -0.159221,0.161461 -0.02296,0.03443 -0.03315,0.111006 -0.05383,0.15922 -0.06889,0.146915 -0.165047,0.256051 -0.107641,0.43281 0.02296,0.07115 0.107641,0.130346 0.107641,0.215282 0,0.101005 -0.19921,0.158917 -0.215282,0.269105 -0.01153,0.08035 0.08237,0.21503 0.107642,0.322923 0.01837,0.08034 0.167064,0.162485 0.215283,0.215284 0.08037,0.08953 0.144048,0.21039 0.217525,0.325167 0.144658,0.222671 0.232141,0.481591 0.374503,0.699669 0.07577,0.112475 0.21859,0.203555 0.269104,0.322926 0.02525,0.05968 -0.02296,0.16019 0,0.215282 0.08266,0.185941 0.459859,0.392566 0.645851,0.484387 0.08725,0.04361 0.188736,0.06396 0.269102,0.10988 0.121699,0.06887 0.36857,0.215033 0.430567,0.322926 0.05512,0.09641 0.08009,0.330584 0.107641,0.484387 0.03444,0.202009 -0.0092,0.373948 0,0.592027 0.0069,0.119369 0.05381,0.203556 0.05381,0.322925 0,0.04132 0.0022,0.120142 0,0.161463 -0.0022,0.142325 0.01153,0.285946 0,0.430565 -0.0069,0.07805 -0.0046,0.150954 0,0.217526 0.0069,0.07115 0.047,0.09724 0.05158,0.15922 0.0046,0.06658 -0.05846,0.164725 -0.05158,0.217525 0.01608,0.144621 0.133907,0.241361 0.161461,0.374502 0.02296,0.105598 0.06535,0.358133 0.05157,0.484388 -0.0092,0.06658 -0.0424,0.144069 -0.05157,0.217527 -0.0069,0.05739 0.0092,0.106424 0,0.159219 -0.0073,0.05128 -0.01995,0.09452 -0.03365,0.139037 -3.194214,-2.034613 -5.312555,-5.597414 -5.312555,-9.680996 0,-0.549875 0.05155,-1.085788 0.125582,-1.614623 z m 4.467124,1.258061 c 0.110214,-0.0505 0.08955,0.147687 0,0.161461 -0.08497,0.01153 -0.08268,-0.122432 0,-0.161461 z" />
  <g
     transform="translate(56.391766,-0.17677748)"
     id="g4364">
    <g
       id="g4274">
      <path
         style="color:#000000;display:inline;overflow:visible;visibility:visible;opacity:0.07999998;fill:#ffffff;fill-opacity:1;fill-rule:nonzero;stroke:none;stroke-width:0.26458332;marker:none;enable-background:accumulate"
         d="m -24.211872,1.2694285 0,61.1690735 12.371744,0 c 10.5678581,0 9.8115271,0.439894 9.8115271,-10.648116 l 0,-19.936427 0,-19.936427 c 0,-10.700833 0.8143853,-10.6481035 -9.8115271,-10.6481035 z"
         id="path4231"
         inkscape:connector-curvature="0"
         sodipodi:nodetypes="ccsscssc" />
      <path
         inkscape:connector-curvature="0"
         style="color:#000000;display:inline;overflow:visible;visibility:visible;opacity:0.07999998;fill:#ffffff;fill-opacity:1;fill-rule:nonzero;stroke:none;stroke-width:0.26458332;marker:none;enable-background:accumulate"
         d="m -46.395136,31.853959 0,19.936427 c -1.236828,11.502216 0.0059,10.648116 9.81153,10.648116 l 24.743478,0 c 10.394983,0 9.811527,0.741004 9.811527,-10.648116 l 0,-19.936427 z"
         id="path4255"
         sodipodi:nodetypes="ccssscc" />
      <path
         style="color:#000000;display:inline;overflow:visible;visibility:visible;opacity:0.07999998;fill:#ffffff;fill-opacity:1;fill-rule:nonzero;stroke:none;stroke-width:2.11666656;stroke-linecap:butt;stroke-linejoin:miter;stroke-miterlimit:4;stroke-dasharray:none;stroke-dashoffset:0;stroke-opacity:1;marker:none;enable-background:accumulate"
         d="m -17.153556,62.438502 15.1249551,-16.384574 0,6.139813 c 0.9120172,11.193544 0.095941,10.244761 -9.6230261,10.244761 z"
         id="path4254"
         inkscape:connector-curvature="0"
         sodipodi:nodetypes="cccsc" />
    </g>
    <g
       id="g4319">
      <path
         style="fill:#666666"
         d="m -46.391766,59.131425 0,0.677156 c 0,1.311981 1.115,2.368196 2.5,2.368196 l 39,0 c 1.385,0 2.5,-1.056215 2.5,-2.368196 l 0,-0.677156 c 0,1.491744 -1.267028,2.693823 -2.841797,2.693823 l -38.316406,0 c -1.574769,0 -2.841797,-1.202079 -2.841797,-2.693823 z"
         id="rect11-5"
         inkscape:connector-curvature="0" />
      <path
         d="m -46.416159,4.4076775 0,-0.633985 c 0,-1.228337 1.115,-2.217214 2.5,-2.217214 l 39.0000013,0 c 1.385,0 2.5,0.988877 2.5,2.217214 l 0,0.633985 c 0,-1.39664 -1.267028,-2.522082 -2.841797,-2.522082 l -38.3164073,0 c -1.574769,0 -2.841797,1.125442 -2.841797,2.522082 z"
         id="rect11-1"
         inkscape:connector-curvature="0"
         style="fill:#e6e6e6" />
    </g>
  </g>
</svg>
