<?xml version="1.0" encoding="UTF-8" standalone="no"?>
<svg
   xmlns:dc="http://purl.org/dc/elements/1.1/"
   xmlns:cc="http://creativecommons.org/ns#"
   xmlns:rdf="http://www.w3.org/1999/02/22-rdf-syntax-ns#"
   xmlns:svg="http://www.w3.org/2000/svg"
   xmlns="http://www.w3.org/2000/svg"
   xmlns:sodipodi="http://sodipodi.sourceforge.net/DTD/sodipodi-0.dtd"
   xmlns:inkscape="http://www.inkscape.org/namespaces/inkscape"
   height="64"
   viewBox="0 0 64 64"
   width="64"
   id="svg2"
   version="1.1"
   inkscape:version="0.91 r13725"
   sodipodi:docname="text-x-sql.svg">
  <metadata
     id="metadata31">
    <rdf:RDF>
      <cc:Work
         rdf:about="">
        <dc:format>image/svg+xml</dc:format>
        <dc:type
           rdf:resource="http://purl.org/dc/dcmitype/StillImage" />
      </cc:Work>
    </rdf:RDF>
  </metadata>
  <defs
     id="defs29" />
  <sodipodi:namedview
     pagecolor="#ffffff"
     bordercolor="#666666"
     borderopacity="1"
     objecttolerance="10"
     gridtolerance="10"
     guidetolerance="10"
     inkscape:pageopacity="0"
     inkscape:pageshadow="2"
     inkscape:window-width="3798"
     inkscape:window-height="2046"
     id="namedview27"
     showgrid="false"
     inkscape:zoom="14.75"
     inkscape:cx="17.199266"
     inkscape:cy="22.237714"
     inkscape:window-x="19"
     inkscape:window-y="55"
     inkscape:window-maximized="0"
     inkscape:current-layer="svg2" />
  <linearGradient
     id="a"
     gradientTransform="matrix(1.0749904,0,0,1.1719405,113.08072,-0.42227104)"
     gradientUnits="userSpaceOnUse"
     x1="-74.929466"
     x2="-75.259552"
     y1="52.199436"
     y2="2.356489">
    <stop
       offset="0"
       stop-color="#8cbdf8"
       id="stop5" />
    <stop
       offset="1"
       stop-color="#d5e8ff"
       id="stop7" />
  </linearGradient>
  <rect
     style="fill:url(#a)"
     id="rect13"
     y="1.468998"
     x="10"
     width="44"
     ry="2.8464792"
     height="60.153744" />
  <path
     style="fill:#3f546c"
     inkscape:connector-curvature="0"
     id="path25"
     d="m 18.922987,28.084036 c 0.367886,0.390037 0.909928,0.390037 1.088095,0.390037 0.330362,0 0.738827,-0.05471 1.324121,-0.177499 0.459737,-0.09643 0.855598,-0.192584 1.204674,-0.277274 0.686694,-0.166804 1.183001,-0.287396 1.650187,-0.287396 0.263334,0 0.743792,0.114103 1.252605,0.234977 0.792202,0.188192 1.778035,0.42231 2.731597,0.42231 0.962728,0 1.976061,-0.07486 2.614538,-0.132623 0.212061,0.79497 0.71658,2.105914 1.86177,3.044295 1.556997,1.275617 2.711355,1.844679 2.759763,1.868263 0.295702,0.144175 0.651271,0.06865 0.862568,-0.183514 0.211299,-0.251972 0.223902,-0.61537 0.03046,-0.881283 -0.0064,-0.0091 -0.784562,-1.109099 -0.754677,-2.345378 0.0118,-0.491819 0.02969,-0.877178 0.04793,-1.170684 0.969793,0.285868 2.62103,0.924917 3.47281,2.127875 1.290321,1.82205 1.819664,4.627262 1.677875,5.547501 -0.147612,0.958812 -0.165276,0.958812 -0.62024,0.958812 -0.991276,0 -1.824056,0.04058 -2.762054,0.551209 -0.829725,0.451526 -1.286693,0.945541 -1.335961,1.000443 -0.186091,0.206714 -0.235645,0.502512 -0.127084,0.758494 0.108566,0.256175 0.355568,0.426225 0.633511,0.436156 0.268109,0.01 1.079405,0.07762 1.600824,0.266866 0.276892,0.100547 0.515403,0.218173 0.746083,0.331986 0.369031,0.182081 0.71763,0.35404 1.12428,0.402068 0.13224,0.01566 0.268013,0.0233 0.396531,0.02091 0.149903,0.348216 0.405027,0.76327 0.834115,1.092581 0.328453,0.252163 0.662633,0.4077 0.957476,0.544811 0.362062,0.168522 0.648121,0.301622 0.867726,0.573931 0.575555,0.713715 0.768712,1.487584 0.770525,1.495318 0.07524,0.309069 0.345831,0.533066 0.663589,0.547483 0.01095,5.74e-4 0.02205,7.65e-4 0.03304,7.65e-4 0.304678,0 0.578038,-0.192107 0.677433,-0.482749 0.04478,-0.130522 0.422214,-1.326794 -0.0801,-3.077808 -0.179599,-0.625969 -0.457828,-1.16782 -0.726796,-1.692007 -0.437681,-0.852543 -0.815689,-1.588791 -0.657096,-2.490985 0.745511,-4.240376 0.694046,-7.68817 -0.152864,-10.247234 -1.316864,-3.980001 -4.504761,-6.197531 -5.130443,-6.601508 -0.310406,-0.200604 -0.589782,-0.377052 -0.825237,-0.523709 0.218363,-0.173966 0.495925,-0.356715 0.825905,-0.496975 0.751048,-0.319287 1.066706,-0.406556 1.154166,-0.427371 0.0056,1.91e-4 0.01107,1.91e-4 0.01651,1.91e-4 0.311744,9.6e-5 0.551398,-0.205759 0.642583,-0.509769 0.09472,-0.315658 -0.08125,-0.654517 -0.364926,-0.822085 -0.05394,-0.03199 -1.344171,-0.78208 -3.044581,-0.78208 -0.35089,0 -0.699489,0.03217 -1.036057,0.09567 -1.04866,0.19793 -1.789778,0.493634 -2.506453,0.779501 -0.699776,0.279185 -1.360786,0.542901 -2.34767,0.750762 -0.479406,0.101022 -0.920908,0.178929 -1.3478,0.25436 -1.468773,0.259325 -2.737229,0.483321 -4.633755,1.451778 -2.475232,1.264159 -3.867048,2.647286 -3.919181,3.894355 -0.01095,0.262857 -0.0052,0.497739 0.01728,0.704167 -0.231635,0.115818 -0.513111,0.262189 -0.797451,0.423933 -1.157509,0.658337 -1.64293,1.151396 -1.675298,1.701651 -0.02244,0.382876 0.0802,0.697864 0.305154,0.93647 z" />
  <g
     transform="translate(56.391766,-0.17677748)"
     id="g4364">
    <g
       id="g4274">
      <path
         style="color:#000000;display:inline;overflow:visible;visibility:visible;opacity:0.165;fill:#ffffff;fill-opacity:1;fill-rule:nonzero;stroke:none;stroke-width:0.26458332;marker:none;enable-background:accumulate"
         d="m -24.211872,1.2694285 0,61.1690735 12.371744,0 c 10.5678581,0 9.8115271,0.439894 9.8115271,-10.648116 l 0,-19.936427 0,-19.936427 c 0,-10.700833 0.8143853,-10.6481035 -9.8115271,-10.6481035 z"
         id="path4231"
         inkscape:connector-curvature="0"
         sodipodi:nodetypes="ccsscssc" />
      <path
         inkscape:connector-curvature="0"
         style="color:#000000;display:inline;overflow:visible;visibility:visible;opacity:0.165;fill:#ffffff;fill-opacity:1;fill-rule:nonzero;stroke:none;stroke-width:0.26458332;marker:none;enable-background:accumulate"
         d="m -46.395136,31.853959 0,19.936427 c -1.236828,11.502216 0.0059,10.648116 9.81153,10.648116 l 24.743478,0 c 10.394983,0 9.811527,0.741004 9.811527,-10.648116 l 0,-19.936427 z"
         id="path4255"
         sodipodi:nodetypes="ccssscc" />
      <path
         style="color:#000000;display:inline;overflow:visible;visibility:visible;opacity:0.165;fill:#ffffff;fill-opacity:1;fill-rule:nonzero;stroke:none;stroke-width:2.11666656;stroke-linecap:butt;stroke-linejoin:miter;stroke-miterlimit:4;stroke-dasharray:none;stroke-dashoffset:0;stroke-opacity:1;marker:none;enable-background:accumulate"
         d="m -17.153556,62.438502 15.1249551,-16.384574 0,6.139813 c 0.9120172,11.193544 0.095941,10.244761 -9.6230261,10.244761 z"
         id="path4254"
         inkscape:connector-curvature="0"
         sodipodi:nodetypes="cccsc" />
    </g>
    <g
       id="g4319">
      <path
         style="fill:#666666"
         d="m -46.391766,59.131425 0,0.677156 c 0,1.311981 1.115,2.368196 2.5,2.368196 l 39,0 c 1.385,0 2.5,-1.056215 2.5,-2.368196 l 0,-0.677156 c 0,1.491744 -1.267028,2.693823 -2.841797,2.693823 l -38.316406,0 c -1.574769,0 -2.841797,-1.202079 -2.841797,-2.693823 z"
         id="rect11-5"
         inkscape:connector-curvature="0" />
      <path
         d="m -46.416159,4.4076775 0,-0.633985 c 0,-1.228337 1.115,-2.217214 2.5,-2.217214 l 39.0000013,0 c 1.385,0 2.5,0.988877 2.5,2.217214 l 0,0.633985 c 0,-1.39664 -1.267028,-2.522082 -2.841797,-2.522082 l -38.3164073,0 c -1.574769,0 -2.841797,1.125442 -2.841797,2.522082 z"
         id="rect11-1"
         inkscape:connector-curvature="0"
         style="fill:#e6e6e6" />
    </g>
  </g>
</svg>
