<?xml version="1.0" encoding="UTF-8" standalone="no"?>
<svg
   xmlns:dc="http://purl.org/dc/elements/1.1/"
   xmlns:cc="http://creativecommons.org/ns#"
   xmlns:rdf="http://www.w3.org/1999/02/22-rdf-syntax-ns#"
   xmlns:svg="http://www.w3.org/2000/svg"
   xmlns="http://www.w3.org/2000/svg"
   xmlns:sodipodi="http://sodipodi.sourceforge.net/DTD/sodipodi-0.dtd"
   xmlns:inkscape="http://www.inkscape.org/namespaces/inkscape"
   height="64"
   viewBox="0 0 64 64"
   width="64"
   id="svg2"
   version="1.1"
   inkscape:version="0.91 r13725"
   sodipodi:docname="text-x-typescript.svg">
  <metadata
     id="metadata47">
    <rdf:RDF>
      <cc:Work
         rdf:about="">
        <dc:format>image/svg+xml</dc:format>
        <dc:type
           rdf:resource="http://purl.org/dc/dcmitype/StillImage" />
      </cc:Work>
    </rdf:RDF>
  </metadata>
  <defs
     id="defs45" />
  <sodipodi:namedview
     pagecolor="#ffffff"
     bordercolor="#666666"
     borderopacity="1"
     objecttolerance="10"
     gridtolerance="10"
     guidetolerance="10"
     inkscape:pageopacity="0"
     inkscape:pageshadow="2"
     inkscape:window-width="3798"
     inkscape:window-height="2046"
     id="namedview43"
     showgrid="false"
     inkscape:zoom="10.429825"
     inkscape:cx="7.8817009"
     inkscape:cy="26.44487"
     inkscape:window-x="19"
     inkscape:window-y="55"
     inkscape:window-maximized="0"
     inkscape:current-layer="svg2" />
  <linearGradient
     id="a"
     gradientTransform="matrix(1.0749904,0,0,1.1792904,113.08072,-0.434132)"
     gradientUnits="userSpaceOnUse"
     x1="-74.929466"
     x2="-75.259552"
     y1="52.199436"
     y2="2.356489">
    <stop
       offset="0"
       stop-color="#007acc"
       id="stop5" />
    <stop
       offset="1"
       stop-color="#59f"
       id="stop7" />
  </linearGradient>
  <rect
     style="fill:url(#a)"
     id="rect11"
     y="1.468998"
     x="10"
     width="44"
     ry="2.864331"
     height="60.531002" />
  <g
     style="fill-opacity:0.58823494"
     id="g37"
     transform="matrix(1.2614879,0,0,1.2614879,62.769917,-5.6874099)">
    <path
       style="fill-opacity:0.58823494"
       inkscape:connector-curvature="0"
       id="path39"
       d="m -24.607263,23.263387 -4.482368,0 0,12.431868 -1.829343,0 0,-12.431868 -4.472791,0 0,-1.513278 10.784502,0 z" />
    <path
       style="fill-opacity:0.58823494"
       inkscape:connector-curvature="0"
       id="path41"
       d="m -18.563728,29.479321 q -2.365694,-0.680017 -3.447976,-1.666521 -1.072703,-0.996082 -1.072703,-2.451894 0,-1.647366 1.312146,-2.72007 1.321724,-1.082281 3.42882,-1.082281 1.436657,0 2.557249,0.555507 1.13017,0.555507 1.743143,1.532434 0.622551,0.976926 0.622551,2.135829 l -1.848498,0 q 0,-1.264258 -0.804527,-1.982586 -0.804528,-0.727906 -2.269918,-0.727906 -1.360035,0 -2.126251,0.603396 -0.756639,0.593818 -0.756639,1.656944 0,0.852416 0.718328,1.446234 0.727906,0.58424 2.461471,1.072704 1.743144,0.488463 2.72007,1.082281 0.986504,0.58424 1.455812,1.369612 0.478885,0.785373 0.478885,1.848499 0,1.695254 -1.321724,2.720069 -1.321724,1.015237 -3.534175,1.015237 -1.436656,0 -2.681758,-0.545929 -1.245103,-0.555507 -1.92512,-1.513278 -0.67044,-0.957771 -0.67044,-2.17414 l 1.848498,0 q 0,1.264257 0.929038,2.001741 0.938616,0.727906 2.499782,0.727906 1.455812,0 2.231607,-0.593818 0.775794,-0.593818 0.775794,-1.618633 0,-1.024815 -0.718328,-1.580322 -0.718328,-0.565085 -2.605137,-1.111015 z" />
  </g>
  <g
     transform="translate(56.391766,-0.17677748)"
     id="g4364">
    <g
       id="g4274">
      <path
         style="color:#000000;display:inline;overflow:visible;visibility:visible;opacity:0.07999998;fill:#ffffff;fill-opacity:1;fill-rule:nonzero;stroke:none;stroke-width:0.26458332;marker:none;enable-background:accumulate"
         d="m -24.211872,1.2694285 0,61.1690735 12.371744,0 c 10.5678581,0 9.8115271,0.439894 9.8115271,-10.648116 l 0,-19.936427 0,-19.936427 c 0,-10.700833 0.8143853,-10.6481035 -9.8115271,-10.6481035 z"
         id="path4231"
         inkscape:connector-curvature="0"
         sodipodi:nodetypes="ccsscssc" />
      <path
         inkscape:connector-curvature="0"
         style="color:#000000;display:inline;overflow:visible;visibility:visible;opacity:0.07999998;fill:#ffffff;fill-opacity:1;fill-rule:nonzero;stroke:none;stroke-width:0.26458332;marker:none;enable-background:accumulate"
         d="m -46.395136,31.853959 0,19.936427 c -1.236828,11.502216 0.0059,10.648116 9.81153,10.648116 l 24.743478,0 c 10.394983,0 9.811527,0.741004 9.811527,-10.648116 l 0,-19.936427 z"
         id="path4255"
         sodipodi:nodetypes="ccssscc" />
      <path
         style="color:#000000;display:inline;overflow:visible;visibility:visible;opacity:0.07999998;fill:#ffffff;fill-opacity:1;fill-rule:nonzero;stroke:none;stroke-width:2.11666656;stroke-linecap:butt;stroke-linejoin:miter;stroke-miterlimit:4;stroke-dasharray:none;stroke-dashoffset:0;stroke-opacity:1;marker:none;enable-background:accumulate"
         d="m -17.153556,62.438502 15.1249551,-16.384574 0,6.139813 c 0.9120172,11.193544 0.095941,10.244761 -9.6230261,10.244761 z"
         id="path4254"
         inkscape:connector-curvature="0"
         sodipodi:nodetypes="cccsc" />
    </g>
    <g
       id="g4319">
      <path
         style="fill:#666666"
         d="m -46.391766,59.131425 0,0.677156 c 0,1.311981 1.115,2.368196 2.5,2.368196 l 39,0 c 1.385,0 2.5,-1.056215 2.5,-2.368196 l 0,-0.677156 c 0,1.491744 -1.267028,2.693823 -2.841797,2.693823 l -38.316406,0 c -1.574769,0 -2.841797,-1.202079 -2.841797,-2.693823 z"
         id="rect11-5"
         inkscape:connector-curvature="0" />
      <path
         d="m -46.416159,4.4076775 0,-0.633985 c 0,-1.228337 1.115,-2.217214 2.5,-2.217214 l 39.0000013,0 c 1.385,0 2.5,0.988877 2.5,2.217214 l 0,0.633985 c 0,-1.39664 -1.267028,-2.522082 -2.841797,-2.522082 l -38.3164073,0 c -1.574769,0 -2.841797,1.125442 -2.841797,2.522082 z"
         id="rect11-1"
         inkscape:connector-curvature="0"
         style="fill:#e6e6e6" />
    </g>
  </g>
</svg>
