<?xml version="1.0" encoding="UTF-8" standalone="no"?>
<svg
   xmlns:dc="http://purl.org/dc/elements/1.1/"
   xmlns:cc="http://creativecommons.org/ns#"
   xmlns:rdf="http://www.w3.org/1999/02/22-rdf-syntax-ns#"
   xmlns:svg="http://www.w3.org/2000/svg"
   xmlns="http://www.w3.org/2000/svg"
   xmlns:sodipodi="http://sodipodi.sourceforge.net/DTD/sodipodi-0.dtd"
   xmlns:inkscape="http://www.inkscape.org/namespaces/inkscape"
   height="64"
   viewBox="0 0 64 64"
   width="64"
   id="svg2"
   version="1.1"
   inkscape:version="0.91 r13725"
   sodipodi:docname="text-x-sass.svg">
  <metadata
     id="metadata31">
    <rdf:RDF>
      <cc:Work
         rdf:about="">
        <dc:format>image/svg+xml</dc:format>
        <dc:type
           rdf:resource="http://purl.org/dc/dcmitype/StillImage" />
      </cc:Work>
    </rdf:RDF>
  </metadata>
  <defs
     id="defs29" />
  <sodipodi:namedview
     pagecolor="#ffffff"
     bordercolor="#666666"
     borderopacity="1"
     objecttolerance="10"
     gridtolerance="10"
     guidetolerance="10"
     inkscape:pageopacity="0"
     inkscape:pageshadow="2"
     inkscape:window-width="3798"
     inkscape:window-height="2046"
     id="namedview27"
     showgrid="false"
     inkscape:zoom="14.75"
     inkscape:cx="21.467772"
     inkscape:cy="31.673358"
     inkscape:window-x="19"
     inkscape:window-y="55"
     inkscape:window-maximized="0"
     inkscape:current-layer="svg2" />
  <linearGradient
     id="a"
     gradientTransform="matrix(1.0749904,0,0,1.1792904,113.08072,-0.434132)"
     gradientUnits="userSpaceOnUse"
     x1="-74.929466"
     x2="-75.259552"
     y1="52.199436"
     y2="2.356489">
    <stop
       offset="0"
       stop-color="#cc499c"
       id="stop5" />
    <stop
       offset="1"
       stop-color="#f5d"
       id="stop7" />
  </linearGradient>
  <rect
     style="fill:url(#a)"
     id="rect11"
     y="1.468998"
     x="10"
     width="44"
     ry="2.864331"
     height="60.531002" />
  <path
     style="fill:#ffffff"
     inkscape:connector-curvature="0"
     id="path25"
     d="m 29.185246,35.861704 c 0.211718,0.783122 0.188491,1.513399 -0.03016,2.174762 -0.02429,0.07342 -0.05106,0.146133 -0.08011,0.217953 -0.02906,0.07168 -0.0605,0.142585 -0.0942,0.212571 -0.168654,0.349922 -0.394966,0.677441 -0.672134,0.979753 -0.845454,0.92237 -2.026724,1.271165 -2.533246,0.977269 -0.546975,-0.317033 -0.272988,-1.617531 0.70726,-2.653658 1.054551,-1.114831 2.571856,-1.831588 2.571856,-1.831588 l -0.0028,-0.0046 c 0.04372,-0.02356 0.08809,-0.04776 0.133097,-0.07251 z M 41.204801,22.691266 c -0.658952,-2.584395 -4.944175,-3.433956 -8.999897,-1.993082 -2.413615,0.857425 -5.026555,2.203243 -6.905313,3.960591 -2.233823,2.089413 -2.590061,3.907966 -2.443223,4.66786 0.517908,2.681286 4.191798,4.433894 5.702081,5.734237 l 0,0.0083 c -0.445318,0.219226 -3.704818,1.868766 -4.4676,3.555156 -0.804865,1.779091 0.128102,3.055756 0.745787,3.227609 1.91382,0.532465 3.877717,-0.42527 4.933121,-1.999517 1.0185,-1.51922 0.93371,-3.481 0.491077,-4.456857 0.610581,-0.161074 1.322379,-0.233251 2.226976,-0.12757 2.552589,0.298132 3.053447,1.892004 2.957675,2.558895 -0.09569,0.667101 -0.631114,1.033872 -0.810108,1.144576 -0.179059,0.110786 -0.233673,0.149102 -0.218585,0.231426 0.02163,0.119697 0.104544,0.115242 0.257194,0.08937 0.210087,-0.03538 1.340354,-0.542566 1.388662,-1.773857 0.06151,-1.563265 -1.436548,-3.311978 -4.089153,-3.266292 -1.092446,0.01888 -1.779384,0.122758 -2.275557,0.307417 -0.03667,-0.0418 -0.07407,-0.08332 -0.112629,-0.124527 -1.639916,-1.749629 -4.671472,-2.987282 -4.542912,-5.339417 0.04675,-0.855088 0.343964,-3.106786 5.825196,-5.838084 4.490068,-2.237306 8.084521,-1.621638 8.705726,-0.257121 0.887318,1.949387 -1.921043,5.572604 -6.584019,6.095205 -1.776542,0.199179 -2.711957,-0.489381 -2.944639,-0.745796 -0.245012,-0.269945 -0.281495,-0.282127 -0.37294,-0.231482 -0.149029,0.0825 -0.05463,0.320874 0,0.462964 0.139194,0.362306 0.710524,1.004823 1.684538,1.324422 0.856794,0.281201 2.942661,0.435694 5.46522,-0.540026 2.825154,-1.092877 5.031294,-4.132857 4.383322,-6.673969" />
  <g
     transform="translate(56.391766,-0.17677748)"
     id="g4364">
    <g
       id="g4274">
      <path
         style="color:#000000;display:inline;overflow:visible;visibility:visible;opacity:0.158;fill:#ffffff;fill-opacity:1;fill-rule:nonzero;stroke:none;stroke-width:0.26458332;marker:none;enable-background:accumulate"
         d="m -24.211872,1.2694285 0,61.1690735 12.371744,0 c 10.5678581,0 9.8115271,0.439894 9.8115271,-10.648116 l 0,-19.936427 0,-19.936427 c 0,-10.700833 0.8143853,-10.6481035 -9.8115271,-10.6481035 z"
         id="path4231"
         inkscape:connector-curvature="0"
         sodipodi:nodetypes="ccsscssc" />
      <path
         inkscape:connector-curvature="0"
         style="color:#000000;display:inline;overflow:visible;visibility:visible;opacity:0.158;fill:#ffffff;fill-opacity:1;fill-rule:nonzero;stroke:none;stroke-width:0.26458332;marker:none;enable-background:accumulate"
         d="m -46.395136,31.853959 0,19.936427 c -1.236828,11.502216 0.0059,10.648116 9.81153,10.648116 l 24.743478,0 c 10.394983,0 9.811527,0.741004 9.811527,-10.648116 l 0,-19.936427 z"
         id="path4255"
         sodipodi:nodetypes="ccssscc" />
      <path
         style="color:#000000;display:inline;overflow:visible;visibility:visible;opacity:0.158;fill:#ffffff;fill-opacity:1;fill-rule:nonzero;stroke:none;stroke-width:2.11666656;stroke-linecap:butt;stroke-linejoin:miter;stroke-miterlimit:4;stroke-dasharray:none;stroke-dashoffset:0;stroke-opacity:1;marker:none;enable-background:accumulate"
         d="m -17.153556,62.438502 15.1249551,-16.384574 0,6.139813 c 0.9120172,11.193544 0.095941,10.244761 -9.6230261,10.244761 z"
         id="path4254"
         inkscape:connector-curvature="0"
         sodipodi:nodetypes="cccsc" />
    </g>
    <g
       id="g4319">
      <path
         style="fill:#666666"
         d="m -46.391766,59.131425 0,0.677156 c 0,1.311981 1.115,2.368196 2.5,2.368196 l 39,0 c 1.385,0 2.5,-1.056215 2.5,-2.368196 l 0,-0.677156 c 0,1.491744 -1.267028,2.693823 -2.841797,2.693823 l -38.316406,0 c -1.574769,0 -2.841797,-1.202079 -2.841797,-2.693823 z"
         id="rect11-5"
         inkscape:connector-curvature="0" />
      <path
         d="m -46.416159,4.4076775 0,-0.633985 c 0,-1.228337 1.115,-2.217214 2.5,-2.217214 l 39.0000013,0 c 1.385,0 2.5,0.988877 2.5,2.217214 l 0,0.633985 c 0,-1.39664 -1.267028,-2.522082 -2.841797,-2.522082 l -38.3164073,0 c -1.574769,0 -2.841797,1.125442 -2.841797,2.522082 z"
         id="rect11-1"
         inkscape:connector-curvature="0"
         style="fill:#e6e6e6" />
    </g>
  </g>
</svg>
