<?xml version="1.0" encoding="UTF-8" standalone="no"?>
<svg
   xmlns:dc="http://purl.org/dc/elements/1.1/"
   xmlns:cc="http://creativecommons.org/ns#"
   xmlns:rdf="http://www.w3.org/1999/02/22-rdf-syntax-ns#"
   xmlns:svg="http://www.w3.org/2000/svg"
   xmlns="http://www.w3.org/2000/svg"
   xmlns:xlink="http://www.w3.org/1999/xlink"
   xmlns:sodipodi="http://sodipodi.sourceforge.net/DTD/sodipodi-0.dtd"
   xmlns:inkscape="http://www.inkscape.org/namespaces/inkscape"
   height="64"
   viewBox="0 0 64 64.000001"
   width="64"
   id="svg2"
   version="1.1"
   inkscape:version="0.91 r13725"
   sodipodi:docname="application-x-solus-package.svg">
  <metadata
     id="metadata47">
    <rdf:RDF>
      <cc:Work
         rdf:about="">
        <dc:format>image/svg+xml</dc:format>
        <dc:type
           rdf:resource="http://purl.org/dc/dcmitype/StillImage" />
      </cc:Work>
    </rdf:RDF>
  </metadata>
  <defs
     id="defs45" />
  <sodipodi:namedview
     pagecolor="#ffffff"
     bordercolor="#666666"
     borderopacity="1"
     objecttolerance="10"
     gridtolerance="10"
     guidetolerance="10"
     inkscape:pageopacity="0"
     inkscape:pageshadow="2"
     inkscape:window-width="3798"
     inkscape:window-height="2046"
     id="namedview43"
     showgrid="false"
     inkscape:zoom="14.75"
     inkscape:cx="20.998906"
     inkscape:cy="42.939836"
     inkscape:window-x="19"
     inkscape:window-y="55"
     inkscape:window-maximized="0"
     inkscape:current-layer="svg2" />
  <linearGradient
     id="a"
     gradientTransform="matrix(1.0749904,0,0,1.1792904,113.08072,-0.43413)"
     gradientUnits="userSpaceOnUse"
     x1="-74.996246"
     x2="-74.861557"
     y1="2.064065"
     y2="52.94212">
    <stop
       offset="0"
       stop-color="#5293e0"
       id="stop5" />
    <stop
       offset="1"
       stop-color="#2c5aa0"
       id="stop7" />
  </linearGradient>
  <linearGradient
     id="b"
     gradientUnits="userSpaceOnUse"
     x1="-33.85310323156"
     x2="-33.85310323156"
     xlink:href="#c"
     y1="1040.607091493345"
     y2="994.099413493345"
     gradientTransform="translate(0,-988.3622)" />
  <linearGradient
     id="c">
    <stop
       offset="0"
       stop-color="#3889e9"
       id="stop11" />
    <stop
       offset="1"
       stop-color="#5ea5fb"
       id="stop13" />
  </linearGradient>
  <linearGradient
     id="d"
     gradientUnits="userSpaceOnUse"
     x1="-147.57115323156"
     x2="-147.57115323156"
     xlink:href="#c"
     y1="1083.110861493345"
     y2="1036.603183493345"
     gradientTransform="translate(0,-988.3622)" />
  <linearGradient
     id="e"
     gradientUnits="userSpaceOnUse"
     x1="11.71454676844"
     x2="11.71454676844"
     xlink:href="#c"
     y1="1042.218021493345"
     y2="995.710343493345"
     gradientTransform="translate(0,-988.3622)" />
  <rect
     style="fill:url(#a)"
     id="rect19"
     y="1.4689767"
     x="10"
     width="44"
     ry="2.864331"
     height="60.531002" />
  <circle
     style="fill:url(#b)"
     id="circle35"
     r="0"
     cy="28.990889"
     cx="-32.192219" />
  <path
     style="fill-opacity:0.470588"
     inkscape:connector-curvature="0"
     id="path37"
     d="m 27.112312,13.898559 c 0.03102,-0.01191 0.244713,0.295979 0.47485,0.680811 0.230136,0.384952 0.819034,1.303261 1.308359,2.039576 0.996412,1.499428 1.776463,2.735632 2.21512,3.509585 l 0.294254,0.517755 0.111138,1.447379 c 0.06073,0.795868 0.253399,3.482667 0.428122,5.970797 0.256584,3.654299 0.303199,4.533065 0.243737,4.570584 -0.0405,0.02501 -0.08663,0.04764 -0.1023,0.04169 -0.01566,0 -0.862123,-0.09171 -1.880451,-0.195811 -7.083888,-0.727501 -8.496726,-0.903183 -9.798808,-1.219886 -0.516992,-0.125776 -0.996645,-0.242739 -1.067144,-0.258937 -0.07051,-0.01548 -0.128814,-0.06194 -0.128814,-0.102432 0,-0.0405 0.367253,-0.725952 0.815831,-1.52313 3.71016,-6.593247 5.699901,-10.868209 6.755226,-14.510597 0.151093,-0.521447 0.299866,-0.957019 0.330877,-0.967381 z m 5.453184,7.303477 c 0.01592,-0.01191 0.0444,0.01191 0.08335,0.02739 0.231165,0.123751 1.738653,1.521106 2.713963,2.515762 2.240655,2.285173 3.864159,4.444332 5.003593,6.654229 0.341083,0.661516 0.438779,0.899014 0.39655,0.966071 -0.0799,0.12661 -1.124395,0.5517 -1.919603,0.781694 -0.79951,0.231186 -1.693212,0.39591 -2.599039,0.477378 l 0,-0.01191 c -0.844462,0.0798 -2.830515,0.08099 -2.876876,0.01191 -0.01912,-0.03097 0.04562,-0.306579 0.14397,-0.612444 0.990035,-3.079254 0.733562,-6.736293 -0.71101,-10.118315 -0.219223,-0.513348 -0.28267,-0.679025 -0.234899,-0.694509 z m 4.202917,2.547206 c 0.08153,-0.02144 0.408377,0.06194 1.011579,0.246312 2.160037,0.656514 3.608539,1.213216 4.896247,1.884142 1.111347,0.579214 2.398238,1.465126 2.398238,1.649383 0,0.04526 -0.08192,0.217607 -0.181857,0.382689 -0.613834,1.013356 -1.533782,1.983119 -2.466434,2.599017 -0.338981,0.22392 -0.639323,0.406629 -0.66681,0.406629 -0.07932,0 -0.09347,-0.09767 -0.1225,-0.853753 -0.0318,-0.827908 -0.162871,-1.388184 -0.49253,-2.092578 -0.609388,-1.302189 -1.726849,-2.392488 -3.918765,-3.825217 -0.37511,-0.24524 -0.53869,-0.37447 -0.457168,-0.396624 z m 7.500337,7.803485 c 0.0364,0.100049 -0.833739,1.777185 -1.227534,2.366641 -1.746742,2.614621 -4.243705,4.539617 -7.110103,5.480913 -1.723062,0.565993 -3.242182,0.769189 -5.098309,0.682003 -2.701412,-0.126968 -5.341261,-1.111023 -7.663249,-2.857836 -0.536253,-0.403532 -2.021901,-1.8764 -2.021901,-2.00432 0,-0.06194 0.03823,-0.0798 0.127551,-0.06194 0.07051,0.01548 0.602404,0.0536 1.18207,0.08695 0.579667,0.03335 1.208762,0.07265 1.396771,0.08695 0.187998,0.01429 1.232214,0.05479 2.321198,0.08695 3.584492,0.107196 7.21523,-0.09886 9.669993,-0.549318 2.831237,-0.519065 5.461203,-1.526466 7.776911,-2.979205 0.344665,-0.216177 0.635647,-0.368633 0.646602,-0.3385 z" />
  <circle
     style="fill:url(#d)"
     id="circle39"
     r="0"
     cy="71.494736"
     cx="-145.91026" />
  <circle
     style="fill:url(#e)"
     id="circle41"
     r="0"
     cy="30.601912"
     cx="13.375435" />
  <g
     transform="translate(56.391766,-0.17677748)"
     id="g4364">
    <g
       id="g4274">
      <path
         style="color:#000000;display:inline;overflow:visible;visibility:visible;opacity:0.07999998;fill:#ffffff;fill-opacity:1;fill-rule:nonzero;stroke:none;stroke-width:0.26458332;marker:none;enable-background:accumulate"
         d="m -24.211872,1.2694285 0,61.1690735 12.371744,0 c 10.5678581,0 9.8115271,0.439894 9.8115271,-10.648116 l 0,-19.936427 0,-19.936427 c 0,-10.700833 0.8143853,-10.6481035 -9.8115271,-10.6481035 z"
         id="path4231"
         inkscape:connector-curvature="0"
         sodipodi:nodetypes="ccsscssc" />
      <path
         inkscape:connector-curvature="0"
         style="color:#000000;display:inline;overflow:visible;visibility:visible;opacity:0.07999998;fill:#ffffff;fill-opacity:1;fill-rule:nonzero;stroke:none;stroke-width:0.26458332;marker:none;enable-background:accumulate"
         d="m -46.395136,31.853959 0,19.936427 c -1.236828,11.502216 0.0059,10.648116 9.81153,10.648116 l 24.743478,0 c 10.394983,0 9.811527,0.741004 9.811527,-10.648116 l 0,-19.936427 z"
         id="path4255"
         sodipodi:nodetypes="ccssscc" />
      <path
         style="color:#000000;display:inline;overflow:visible;visibility:visible;opacity:0.07999998;fill:#ffffff;fill-opacity:1;fill-rule:nonzero;stroke:none;stroke-width:2.11666656;stroke-linecap:butt;stroke-linejoin:miter;stroke-miterlimit:4;stroke-dasharray:none;stroke-dashoffset:0;stroke-opacity:1;marker:none;enable-background:accumulate"
         d="m -17.153556,62.438502 15.1249551,-16.384574 0,6.139813 c 0.9120172,11.193544 0.095941,10.244761 -9.6230261,10.244761 z"
         id="path4254"
         inkscape:connector-curvature="0"
         sodipodi:nodetypes="cccsc" />
    </g>
    <g
       id="g4319">
      <path
         style="fill:#666666"
         d="m -46.391766,59.131425 0,0.677156 c 0,1.311981 1.115,2.368196 2.5,2.368196 l 39,0 c 1.385,0 2.5,-1.056215 2.5,-2.368196 l 0,-0.677156 c 0,1.491744 -1.267028,2.693823 -2.841797,2.693823 l -38.316406,0 c -1.574769,0 -2.841797,-1.202079 -2.841797,-2.693823 z"
         id="rect11-5"
         inkscape:connector-curvature="0" />
      <path
         d="m -46.416159,4.4076775 0,-0.633985 c 0,-1.228337 1.115,-2.217214 2.5,-2.217214 l 39.0000013,0 c 1.385,0 2.5,0.988877 2.5,2.217214 l 0,0.633985 c 0,-1.39664 -1.267028,-2.522082 -2.841797,-2.522082 l -38.3164073,0 c -1.574769,0 -2.841797,1.125442 -2.841797,2.522082 z"
         id="rect11-1"
         inkscape:connector-curvature="0"
         style="fill:#e6e6e6" />
    </g>
  </g>
</svg>
