<?xml version="1.0" encoding="UTF-8" standalone="no"?>
<svg
   xmlns:dc="http://purl.org/dc/elements/1.1/"
   xmlns:cc="http://creativecommons.org/ns#"
   xmlns:rdf="http://www.w3.org/1999/02/22-rdf-syntax-ns#"
   xmlns:svg="http://www.w3.org/2000/svg"
   xmlns="http://www.w3.org/2000/svg"
   xmlns:sodipodi="http://sodipodi.sourceforge.net/DTD/sodipodi-0.dtd"
   xmlns:inkscape="http://www.inkscape.org/namespaces/inkscape"
   height="64"
   viewBox="0 0 64 64"
   width="64"
   id="svg2"
   version="1.1"
   inkscape:version="0.91 r13725"
   sodipodi:docname="application-x-desktop-budgie.svg">
  <metadata
     id="metadata44">
    <rdf:RDF>
      <cc:Work
         rdf:about="">
        <dc:format>image/svg+xml</dc:format>
        <dc:type
           rdf:resource="http://purl.org/dc/dcmitype/StillImage" />
      </cc:Work>
    </rdf:RDF>
  </metadata>
  <defs
     id="defs42" />
  <sodipodi:namedview
     pagecolor="#ffffff"
     bordercolor="#666666"
     borderopacity="1"
     objecttolerance="10"
     gridtolerance="10"
     guidetolerance="10"
     inkscape:pageopacity="0"
     inkscape:pageshadow="2"
     inkscape:window-width="3798"
     inkscape:window-height="2046"
     id="namedview40"
     showgrid="false"
     inkscape:zoom="20.85965"
     inkscape:cx="29.616168"
     inkscape:cy="29.088312"
     inkscape:window-x="19"
     inkscape:window-y="1105"
     inkscape:window-maximized="0"
     inkscape:current-layer="svg2" />
  <linearGradient
     id="a"
     gradientTransform="matrix(1.0749904,0,0,1.1792904,113.08072,-0.434132)"
     gradientUnits="userSpaceOnUse"
     x1="-74.929466"
     x2="-75.259552"
     y1="52.199436"
     y2="2.356489">
    <stop
       offset="0"
       stop-color="#8798a9"
       id="stop5" />
    <stop
       offset="1"
       stop-color="#aeb6be"
       id="stop7" />
  </linearGradient>
  <linearGradient
     id="b"
     gradientUnits="userSpaceOnUse"
     x1="-88.51563323156"
     x2="-88.51563323156"
     y1="34.325671493345"
     y2="-12.182006506655"
     gradientTransform="translate(56.391766,-0.176777)">
    <stop
       offset="0"
       stop-color="#3889e9"
       id="stop10" />
    <stop
       offset="1"
       stop-color="#5ea5fb"
       id="stop12" />
  </linearGradient>
  <rect
     style="fill:url(#a)"
     id="rect16"
     y="1.468998"
     x="10"
     width="44"
     ry="2.864331"
     height="60.531002" />
  <circle
     style="fill:url(#b)"
     id="circle36"
     r="0"
     cy="10.894966"
     cx="-30.462971" />
  <path
     style="fill:#3d434a"
     inkscape:connector-curvature="0"
     id="path38"
     d="m 36.934839,18.822766 c -1.59108,-0.05525 -3.410938,0.205278 -4.483256,0.706303 -4.398434,1.833038 -6.61429,9.561908 -11.263761,9.109539 -1.617759,-0.191606 -2.872687,-1.037137 -3.833451,-2.583304 -1.510129,0.484298 -1.300505,4.189206 -0.363747,6.114817 3.768233,7.746091 10.762548,11.091879 18.664042,9.199589 6.108183,-1.826792 10.182684,-6.455756 10.711077,-12.286134 0.04223,-0.323131 0.06307,-0.559861 0.08652,-0.81048 0.09764,-0.324948 0.297213,-0.454482 0.727493,-0.720429 0.771145,-0.476588 0.778023,-0.660185 -0.123606,-0.9694 -0.537106,-0.184211 -0.786898,-0.343554 -1.1654,-1.654515 -2.076594,-4.175378 -5.61618,-5.970302 -8.955915,-6.105986 z m 2.300779,4.230754 c 0.748954,0 1.356101,0.607146 1.356101,1.356099 0,0.748954 -0.607147,1.356102 -1.356101,1.356102 -0.748954,0 -1.356099,-0.607148 -1.356101,-1.356102 0,-0.748953 0.607147,-1.356099 1.356101,-1.356099 z m 0.460862,0.54032 c -0.249649,0 -0.452032,0.202384 -0.452032,0.452034 0,0.249651 0.202383,0.452033 0.452032,0.452033 0.249652,0 0.452034,-0.202382 0.452034,-0.452033 0,-0.24965 -0.202382,-0.452034 -0.452034,-0.452034 z m -9.785821,5.124227 c 0.142758,0.0073 0.28963,0.02626 0.44144,0.05473 0.946235,0.177512 1.947134,1.25785 2.062403,2.228385 0.112445,0.946622 -0.53727,2.173394 -1.410839,2.664528 -0.623492,0.350533 -2.09558,0.545741 -3.270182,0.434375 -1.025554,-0.09724 -3.381983,-0.585856 -4.050644,-0.8405 l -0.5827,-0.222485 1.613901,-0.785761 c 1.348891,-0.656381 1.761985,-0.978237 2.5215,-1.965287 0.878552,-1.141739 1.675783,-1.619287 2.675121,-1.567992 z" />
  <g
     transform="translate(56.391766,-0.17677748)"
     id="g4364">
    <g
       id="g4274">
      <path
         style="color:#000000;display:inline;overflow:visible;visibility:visible;opacity:0.07999998;fill:#ffffff;fill-opacity:1;fill-rule:nonzero;stroke:none;stroke-width:0.26458332;marker:none;enable-background:accumulate"
         d="m -24.211872,1.2694285 0,61.1690735 12.371744,0 c 10.5678581,0 9.8115271,0.439894 9.8115271,-10.648116 l 0,-19.936427 0,-19.936427 c 0,-10.700833 0.8143853,-10.6481035 -9.8115271,-10.6481035 z"
         id="path4231"
         inkscape:connector-curvature="0"
         sodipodi:nodetypes="ccsscssc" />
      <path
         inkscape:connector-curvature="0"
         style="color:#000000;display:inline;overflow:visible;visibility:visible;opacity:0.07999998;fill:#ffffff;fill-opacity:1;fill-rule:nonzero;stroke:none;stroke-width:0.26458332;marker:none;enable-background:accumulate"
         d="m -46.395136,31.853959 0,19.936427 c -1.236828,11.502216 0.0059,10.648116 9.81153,10.648116 l 24.743478,0 c 10.394983,0 9.811527,0.741004 9.811527,-10.648116 l 0,-19.936427 z"
         id="path4255"
         sodipodi:nodetypes="ccssscc" />
      <path
         style="color:#000000;display:inline;overflow:visible;visibility:visible;opacity:0.07999998;fill:#ffffff;fill-opacity:1;fill-rule:nonzero;stroke:none;stroke-width:2.11666656;stroke-linecap:butt;stroke-linejoin:miter;stroke-miterlimit:4;stroke-dasharray:none;stroke-dashoffset:0;stroke-opacity:1;marker:none;enable-background:accumulate"
         d="m -17.153556,62.438502 15.1249551,-16.384574 0,6.139813 c 0.9120172,11.193544 0.095941,10.244761 -9.6230261,10.244761 z"
         id="path4254"
         inkscape:connector-curvature="0"
         sodipodi:nodetypes="cccsc" />
    </g>
    <g
       id="g4319">
      <path
         style="fill:#666666"
         d="m -46.391766,59.131425 0,0.677156 c 0,1.311981 1.115,2.368196 2.5,2.368196 l 39,0 c 1.385,0 2.5,-1.056215 2.5,-2.368196 l 0,-0.677156 c 0,1.491744 -1.267028,2.693823 -2.841797,2.693823 l -38.316406,0 c -1.574769,0 -2.841797,-1.202079 -2.841797,-2.693823 z"
         id="rect11-5"
         inkscape:connector-curvature="0" />
      <path
         d="m -46.416159,4.4076775 0,-0.633985 c 0,-1.228337 1.115,-2.217214 2.5,-2.217214 l 39.0000013,0 c 1.385,0 2.5,0.988877 2.5,2.217214 l 0,0.633985 c 0,-1.39664 -1.267028,-2.522082 -2.841797,-2.522082 l -38.3164073,0 c -1.574769,0 -2.841797,1.125442 -2.841797,2.522082 z"
         id="rect11-1"
         inkscape:connector-curvature="0"
         style="fill:#e6e6e6" />
    </g>
  </g>
</svg>
