<?xml version="1.0" encoding="UTF-8" standalone="no"?>
<svg
   xmlns:dc="http://purl.org/dc/elements/1.1/"
   xmlns:cc="http://creativecommons.org/ns#"
   xmlns:rdf="http://www.w3.org/1999/02/22-rdf-syntax-ns#"
   xmlns:svg="http://www.w3.org/2000/svg"
   xmlns="http://www.w3.org/2000/svg"
   xmlns:sodipodi="http://sodipodi.sourceforge.net/DTD/sodipodi-0.dtd"
   xmlns:inkscape="http://www.inkscape.org/namespaces/inkscape"
   height="64"
   viewBox="0 0 64 64"
   width="64"
   id="svg2"
   version="1.1"
   inkscape:version="0.91 r13725"
   sodipodi:docname="application-x-desktop-kde.svg">
  <metadata
     id="metadata39">
    <rdf:RDF>
      <cc:Work
         rdf:about="">
        <dc:format>image/svg+xml</dc:format>
        <dc:type
           rdf:resource="http://purl.org/dc/dcmitype/StillImage" />
      </cc:Work>
    </rdf:RDF>
  </metadata>
  <defs
     id="defs37" />
  <sodipodi:namedview
     pagecolor="#ffffff"
     bordercolor="#666666"
     borderopacity="1"
     objecttolerance="10"
     gridtolerance="10"
     guidetolerance="10"
     inkscape:pageopacity="0"
     inkscape:pageshadow="2"
     inkscape:window-width="3798"
     inkscape:window-height="2046"
     id="namedview35"
     showgrid="false"
     inkscape:zoom="20.85965"
     inkscape:cx="14.10772"
     inkscape:cy="23.012019"
     inkscape:window-x="19"
     inkscape:window-y="1105"
     inkscape:window-maximized="0"
     inkscape:current-layer="svg2" />
  <linearGradient
     id="a"
     gradientTransform="matrix(1.0749904,0,0,1.1768579,113.08072,-0.43020658)"
     gradientUnits="userSpaceOnUse"
     x1="-74.929466"
     x2="-75.259552"
     y1="52.199436"
     y2="2.356489">
    <stop
       offset="0"
       stop-color="#8798a9"
       id="stop5" />
    <stop
       offset="1"
       stop-color="#aeb6be"
       id="stop7" />
  </linearGradient>
  <rect
     style="fill:url(#a)"
     id="rect13"
     y="1.468998"
     x="10"
     width="44"
     ry="2.8584225"
     height="60.406143" />
  <path
     style="fill:#3d434a;fill-opacity:0.85"
     inkscape:connector-curvature="0"
     id="path33"
     d="m 34.102731,16.811115 -4.899992,0.471156 0,20.186272 4.84762,-0.732911 0,-8.606374 6.522825,9.548651 5.109392,-1.622833 -6.679871,-9.182239 6.732243,-8.658712 -5.214084,-1.193592 -6.470505,8.658694 0.05246,-8.868112 z m -11.108725,4.920924 c -0.05554,0.0034 -0.1152,0.02109 -0.1572,0.06257 l -1.926469,1.926468 c -0.08074,0.08109 -0.09086,0.205492 -0.02949,0.303841 l 2.251019,3.716857 c -0.399653,0.671882 -0.724254,1.392656 -0.952752,2.156801 l -4.135675,0.85857 c -0.1152,0.0252 -0.198772,0.1332 -0.198772,0.251315 l 0,2.722208 c 0,0.1152 0.08743,0.213909 0.198772,0.240806 l 4.010018,0.973718 c 0.214337,0.884659 0.54571,1.731262 0.984191,2.502333 l -2.324355,3.538879 c -0.0648,0.09874 -0.05212,0.230726 0.02949,0.313938 l 1.926468,1.926503 c 0.08109,0.08074 0.205492,0.0912 0.303412,0.02949 l 3.643606,-2.209173 c 0.714636,0.412682 1.488312,0.743128 2.303389,0.963209 l 0.848077,4.083372 c 0.0252,0.115543 0.123086,0.198772 0.240789,0.198772 l 2.72226,0 c 0.114343,0 0.21348,-0.07697 0.240806,-0.188263 L 33.976696,42 c 0.840637,-0.226509 1.633171,-0.563093 2.366218,-0.994648 l 3.591251,2.355761 c 0.09909,0.06463 0.230298,0.05211 0.313921,-0.02949 l 1.916046,-1.926468 c 0.0816,-0.08109 0.101657,-0.20551 0.042,-0.30343 l -1.308741,-2.156852 -0.429293,0.136115 c -0.06171,0.02109 -0.130629,-0.0086 -0.167658,-0.06257 0,0 -0.826716,-1.216118 -1.905537,-2.795494 -1.290261,2.524688 -3.921526,4.250824 -6.952152,4.250824 -4.306435,0 -7.800177,-3.493742 -7.800177,-7.800177 0,-3.167718 1.894274,-5.888452 4.606814,-7.109148 l 0,-2.01028 c -0.493665,0.172732 -0.970615,0.381173 -1.423925,0.628236 -8.4e-4,-5.48e-4 8.4e-4,-0.0086 0,-0.012 l -3.674959,-2.408083 c -0.04954,-0.0336 -0.101658,-0.03789 -0.157201,-0.02949 z" />
  <g
     transform="translate(56.391766,-0.17677748)"
     id="g4364">
    <g
       id="g4274">
      <path
         style="color:#000000;display:inline;overflow:visible;visibility:visible;opacity:0.07999998;fill:#ffffff;fill-opacity:1;fill-rule:nonzero;stroke:none;stroke-width:0.26458332;marker:none;enable-background:accumulate"
         d="m -24.211872,1.2694285 0,61.1690735 12.371744,0 c 10.5678581,0 9.8115271,0.439894 9.8115271,-10.648116 l 0,-19.936427 0,-19.936427 c 0,-10.700833 0.8143853,-10.6481035 -9.8115271,-10.6481035 z"
         id="path4231"
         inkscape:connector-curvature="0"
         sodipodi:nodetypes="ccsscssc" />
      <path
         inkscape:connector-curvature="0"
         style="color:#000000;display:inline;overflow:visible;visibility:visible;opacity:0.07999998;fill:#ffffff;fill-opacity:1;fill-rule:nonzero;stroke:none;stroke-width:0.26458332;marker:none;enable-background:accumulate"
         d="m -46.395136,31.853959 0,19.936427 c -1.236828,11.502216 0.0059,10.648116 9.81153,10.648116 l 24.743478,0 c 10.394983,0 9.811527,0.741004 9.811527,-10.648116 l 0,-19.936427 z"
         id="path4255"
         sodipodi:nodetypes="ccssscc" />
      <path
         style="color:#000000;display:inline;overflow:visible;visibility:visible;opacity:0.07999998;fill:#ffffff;fill-opacity:1;fill-rule:nonzero;stroke:none;stroke-width:2.11666656;stroke-linecap:butt;stroke-linejoin:miter;stroke-miterlimit:4;stroke-dasharray:none;stroke-dashoffset:0;stroke-opacity:1;marker:none;enable-background:accumulate"
         d="m -17.153556,62.438502 15.1249551,-16.384574 0,6.139813 c 0.9120172,11.193544 0.095941,10.244761 -9.6230261,10.244761 z"
         id="path4254"
         inkscape:connector-curvature="0"
         sodipodi:nodetypes="cccsc" />
    </g>
    <g
       id="g4319">
      <path
         style="fill:#666666"
         d="m -46.391766,59.131425 0,0.677156 c 0,1.311981 1.115,2.368196 2.5,2.368196 l 39,0 c 1.385,0 2.5,-1.056215 2.5,-2.368196 l 0,-0.677156 c 0,1.491744 -1.267028,2.693823 -2.841797,2.693823 l -38.316406,0 c -1.574769,0 -2.841797,-1.202079 -2.841797,-2.693823 z"
         id="rect11-5"
         inkscape:connector-curvature="0" />
      <path
         d="m -46.416159,4.4076775 0,-0.633985 c 0,-1.228337 1.115,-2.217214 2.5,-2.217214 l 39.0000013,0 c 1.385,0 2.5,0.988877 2.5,2.217214 l 0,0.633985 c 0,-1.39664 -1.267028,-2.522082 -2.841797,-2.522082 l -38.3164073,0 c -1.574769,0 -2.841797,1.125442 -2.841797,2.522082 z"
         id="rect11-1"
         inkscape:connector-curvature="0"
         style="fill:#e6e6e6" />
    </g>
  </g>
</svg>
