<?xml version="1.0" encoding="UTF-8" standalone="no"?>
<svg
   xmlns:dc="http://purl.org/dc/elements/1.1/"
   xmlns:cc="http://creativecommons.org/ns#"
   xmlns:rdf="http://www.w3.org/1999/02/22-rdf-syntax-ns#"
   xmlns:svg="http://www.w3.org/2000/svg"
   xmlns="http://www.w3.org/2000/svg"
   xmlns:xlink="http://www.w3.org/1999/xlink"
   xmlns:sodipodi="http://sodipodi.sourceforge.net/DTD/sodipodi-0.dtd"
   xmlns:inkscape="http://www.inkscape.org/namespaces/inkscape"
   height="64"
   viewBox="0 0 64 64"
   width="64"
   id="svg2"
   version="1.1"
   inkscape:version="0.91 r13725"
   sodipodi:docname="application-software.svg">
  <metadata
     id="metadata54">
    <rdf:RDF>
      <cc:Work
         rdf:about="">
        <dc:format>image/svg+xml</dc:format>
        <dc:type
           rdf:resource="http://purl.org/dc/dcmitype/StillImage" />
      </cc:Work>
    </rdf:RDF>
  </metadata>
  <defs
     id="defs52">
    <linearGradient
       inkscape:collect="always"
       xlink:href="#b"
       id="linearGradient4186"
       gradientUnits="userSpaceOnUse"
       x1="399.57144"
       y1="545.79797"
       x2="399.57144"
       y2="517.79797"
       gradientTransform="matrix(1.6374665,0,0,1.6374665,-636.90692,-839.14402)" />
    <linearGradient
       inkscape:collect="always"
       xlink:href="#a"
       id="linearGradient4182-5"
       gradientUnits="userSpaceOnUse"
       gradientTransform="matrix(1.0749904,0,0,-1.4385632,113.05634,64.308708)"
       x1="-74.929466"
       y1="52.199436"
       x2="-75.259552"
       y2="2.3564889" />
    <linearGradient
       id="linearGradient4249"
       gradientTransform="matrix(1.0749904,0,0,1.2428384,113.08072,-0.536685)"
       gradientUnits="userSpaceOnUse"
       x1="-74.929466"
       x2="-75.259552"
       y1="52.199436"
       y2="2.3564889">
      <stop
         offset="0"
         stop-color="#197df1"
         id="stop5-1" />
      <stop
         offset="1"
         stop-color="#20bcfa"
         id="stop7-7" />
    </linearGradient>
  </defs>
  <sodipodi:namedview
     pagecolor="#ffffff"
     bordercolor="#666666"
     borderopacity="1"
     objecttolerance="10"
     gridtolerance="10"
     guidetolerance="10"
     inkscape:pageopacity="0"
     inkscape:pageshadow="2"
     inkscape:window-width="3798"
     inkscape:window-height="2046"
     id="namedview50"
     showgrid="false"
     inkscape:zoom="20.85965"
     inkscape:cx="18.348867"
     inkscape:cy="25.459894"
     inkscape:window-x="19"
     inkscape:window-y="55"
     inkscape:window-maximized="0"
     inkscape:current-layer="svg2" />
  <linearGradient
     id="a"
     gradientTransform="matrix(1.0749904 0 0 1.2428384 113.08072 -.536685)"
     gradientUnits="userSpaceOnUse"
     x1="-74.929466"
     x2="-75.259552"
     y1="52.199436"
     y2="2.356489">
    <stop
       offset="0"
       stop-color="#197df1"
       id="stop5" />
    <stop
       offset="1"
       stop-color="#20bcfa"
       id="stop7" />
  </linearGradient>
  <linearGradient
     id="b">
    <stop
       offset="0"
       stop-color="#3889e9"
       id="stop10" />
    <stop
       offset="1"
       stop-color="#5ea5fb"
       id="stop12" />
  </linearGradient>
  <linearGradient
     id="c"
     gradientUnits="userSpaceOnUse"
     x1="399.57144"
     x2="399.57144"
     xlink:href="#b"
     y1="545.79797"
     y2="517.79797"
     gradientTransform="matrix(1.5558699,0,0,1.5558699,-717.89746,-815.44039)" />
  <linearGradient
     id="d"
     gradientUnits="userSpaceOnUse"
     x1="-165.13341264324"
     x2="-165.13341264324"
     xlink:href="#b"
     y1="33.171751643005"
     y2="-12.677310356995"
     gradientTransform="translate(56.391766,-0.176777)" />
  <circle
     style="fill:url(#linearGradient4186)"
     id="circle42"
     r="0"
     cy="31.657248"
     cx="19.015297" />
  <circle
     style="fill:url(#c)"
     id="circle44"
     r="0"
     cy="11.967975"
     cx="-94.660507" />
  <circle
     style="fill:url(#d)"
     id="circle46"
     r="0"
     cy="10.070355"
     cx="-107.10429" />
  <path
     style="fill:url(#linearGradient4182-5)"
     d="m 13.019531,1.46875 c -1.55132,0 -2.80846,1.3465925 -2.984375,3.0859375 l -0.058594,0 0,53.9375005 c 0,0.09358 0.017256,0.181752 0.023437,0.273437 l 0,0.136719 0.01172,0 c -0.1931693,2.570095 1.321768,3.085937 2.984375,3.085937 l 37.960937,0 c 1.691149,0 3.157301,-0.469186 2.982422,-3.085937 l 0.06055,0 0,-53.9394534 c 0,-0.093835 -0.01722,-0.1815058 -0.02344,-0.2734375 l 0,-0.1347656 -0.01172,0 C 53.788929,2.8153425 52.531789,1.46875 50.980469,1.46875 Z"
     id="path22-4"
     inkscape:connector-curvature="0"
     sodipodi:nodetypes="sccscccssccscccss" />
  <path
     style="fill:#ffffff;stroke-width:0.66668999"
     inkscape:connector-curvature="0"
     id="path48"
     d="m 23.313347,37.763719 c -0.51262,1.436245 -1.019054,2.874965 -1.514899,4.317096 l 4.715757,0 c 0.423513,-1.434842 0.948555,-2.836704 1.435156,-4.250649 -1.54501,-0.0347 -3.094262,0.07688 -4.636014,-0.06642 z m 17.361402,-0.0017 c -1.586582,0.149402 -3.180511,0.03716 -4.770563,0.06974 0.463664,1.403825 0.976927,2.789639 1.423532,4.199162 1.622079,0.114541 3.247893,0.02194 4.871886,0.05154 -0.50293,-1.441696 -0.989829,-2.890153 -1.524855,-4.32042 z M 23.924894,32.730547 c -1.177426,0 -2.126153,0.947065 -2.126153,2.124498 0,1.177432 0.948727,2.126158 2.126153,2.126158 l 16.152163,0 c 1.177424,0 2.124496,-0.948726 2.124496,-2.126158 0,-1.177433 -0.947072,-2.124498 -2.124496,-2.124498 z m -0.02819,0.910263 10.200581,0 c 0.706445,0 1.275694,0.56757 1.275694,1.274033 0,0.706455 -0.569249,1.275695 -1.275694,1.275695 l -10.200581,0 c -0.706455,0 -1.275689,-0.56924 -1.275689,-1.275695 0,-0.706463 0.569234,-1.274033 1.275689,-1.274033 z m 5.938013,-11.961188 c -0.679121,1.413214 -1.338009,2.863552 -1.978322,4.355308 -0.620941,1.472041 -1.26714,3.027189 -1.926837,4.67588 -0.145829,0.375471 -0.290704,0.782699 -0.438515,1.169387 l 4.317097,0 c 0.04643,-0.128777 0.100253,-0.271825 0.146169,-0.398654 0.310453,-0.804769 0.584905,-1.536949 0.837178,-2.204223 0.252265,-0.667384 0.470375,-1.257087 0.664425,-1.767373 0.194024,-0.510304 0.341504,-0.91475 0.438516,-1.209248 0.116416,0.294498 0.271042,0.698826 0.465101,1.209248 0.194042,0.510286 0.42547,1.100024 0.677709,1.767373 0.271655,0.667274 0.544423,1.399454 0.835521,2.204223 0.04592,0.126825 0.09981,0.269877 0.146168,0.398654 l 4.476558,0 C 38.344186,31.493398 38.19396,31.086392 38.043674,30.71081 37.401821,29.061983 36.757,27.506928 36.116848,26.03493 35.476279,24.543378 34.823132,23.092955 34.163437,21.679622 Z" />
  <g
     transform="translate(56.391766,-0.17677748)"
     id="g4364">
    <g
       id="g4274">
      <path
         style="color:#000000;display:inline;overflow:visible;visibility:visible;opacity:0.07999998;fill:#ffffff;fill-opacity:1;fill-rule:nonzero;stroke:none;stroke-width:0.26458332;marker:none;enable-background:accumulate"
         d="m -24.211872,1.2694285 0,61.1690735 12.371744,0 c 10.5678581,0 9.8115271,0.439894 9.8115271,-10.648116 l 0,-19.936427 0,-19.936427 c 0,-10.700833 0.8143853,-10.6481035 -9.8115271,-10.6481035 z"
         id="path4231"
         inkscape:connector-curvature="0"
         sodipodi:nodetypes="ccsscssc" />
      <path
         inkscape:connector-curvature="0"
         style="color:#000000;display:inline;overflow:visible;visibility:visible;opacity:0.07999998;fill:#ffffff;fill-opacity:1;fill-rule:nonzero;stroke:none;stroke-width:0.26458332;marker:none;enable-background:accumulate"
         d="m -46.395136,31.853959 0,19.936427 c -1.236828,11.502216 0.0059,10.648116 9.81153,10.648116 l 24.743478,0 c 10.394983,0 9.811527,0.741004 9.811527,-10.648116 l 0,-19.936427 z"
         id="path4255"
         sodipodi:nodetypes="ccssscc" />
      <path
         style="color:#000000;display:inline;overflow:visible;visibility:visible;opacity:0.07999998;fill:#ffffff;fill-opacity:1;fill-rule:nonzero;stroke:none;stroke-width:2.11666656;stroke-linecap:butt;stroke-linejoin:miter;stroke-miterlimit:4;stroke-dasharray:none;stroke-dashoffset:0;stroke-opacity:1;marker:none;enable-background:accumulate"
         d="m -17.153556,62.438502 15.1249551,-16.384574 0,6.139813 c 0.9120172,11.193544 0.095941,10.244761 -9.6230261,10.244761 z"
         id="path4254"
         inkscape:connector-curvature="0"
         sodipodi:nodetypes="cccsc" />
    </g>
    <g
       id="g4319">
      <path
         style="fill:#666666"
         d="m -46.391766,59.131425 0,0.677156 c 0,1.311981 1.115,2.368196 2.5,2.368196 l 39,0 c 1.385,0 2.5,-1.056215 2.5,-2.368196 l 0,-0.677156 c 0,1.491744 -1.267028,2.693823 -2.841797,2.693823 l -38.316406,0 c -1.574769,0 -2.841797,-1.202079 -2.841797,-2.693823 z"
         id="rect11-5"
         inkscape:connector-curvature="0" />
      <path
         d="m -46.416159,4.4076775 0,-0.633985 c 0,-1.228337 1.115,-2.217214 2.5,-2.217214 l 39.0000013,0 c 1.385,0 2.5,0.988877 2.5,2.217214 l 0,0.633985 c 0,-1.39664 -1.267028,-2.522082 -2.841797,-2.522082 l -38.3164073,0 c -1.574769,0 -2.841797,1.125442 -2.841797,2.522082 z"
         id="rect11-1"
         inkscape:connector-curvature="0"
         style="fill:#e6e6e6" />
    </g>
  </g>
</svg>
