<?xml version="1.0" encoding="UTF-8" standalone="no"?>
<svg
   xmlns:dc="http://purl.org/dc/elements/1.1/"
   xmlns:cc="http://creativecommons.org/ns#"
   xmlns:rdf="http://www.w3.org/1999/02/22-rdf-syntax-ns#"
   xmlns:svg="http://www.w3.org/2000/svg"
   xmlns="http://www.w3.org/2000/svg"
   xmlns:sodipodi="http://sodipodi.sourceforge.net/DTD/sodipodi-0.dtd"
   xmlns:inkscape="http://www.inkscape.org/namespaces/inkscape"
   height="64"
   viewBox="0 0 64 64"
   width="64"
   id="svg2"
   version="1.1"
   inkscape:version="0.91 r13725"
   sodipodi:docname="application-x-desktop-unity.svg">
  <metadata
     id="metadata39">
    <rdf:RDF>
      <cc:Work
         rdf:about="">
        <dc:format>image/svg+xml</dc:format>
        <dc:type
           rdf:resource="http://purl.org/dc/dcmitype/StillImage" />
      </cc:Work>
    </rdf:RDF>
  </metadata>
  <defs
     id="defs37" />
  <sodipodi:namedview
     pagecolor="#ffffff"
     bordercolor="#666666"
     borderopacity="1"
     objecttolerance="10"
     gridtolerance="10"
     guidetolerance="10"
     inkscape:pageopacity="0"
     inkscape:pageshadow="2"
     inkscape:window-width="3798"
     inkscape:window-height="2046"
     id="namedview35"
     showgrid="false"
     inkscape:zoom="14.75"
     inkscape:cx="41.748284"
     inkscape:cy="41.906855"
     inkscape:window-x="19"
     inkscape:window-y="1105"
     inkscape:window-maximized="0"
     inkscape:current-layer="svg2" />
  <linearGradient
     id="a"
     gradientTransform="matrix(1.0749904,0,0,1.1765635,113.08072,-0.42973151)"
     gradientUnits="userSpaceOnUse"
     x1="-74.929466"
     x2="-75.259552"
     y1="52.199436"
     y2="2.356489">
    <stop
       offset="0"
       stop-color="#8798a9"
       id="stop5" />
    <stop
       offset="1"
       stop-color="#aeb6be"
       id="stop7" />
  </linearGradient>
  <rect
     style="fill:url(#a)"
     id="rect13"
     y="1.468998"
     x="10"
     width="44"
     ry="2.8577077"
     height="60.391033" />
  <path
     style="fill:#3d434a;fill-opacity:0.85"
     inkscape:connector-curvature="0"
     id="path33"
     d="m 40.966442,15.233351 c -0.147711,-0.0098 -0.293308,-0.0076 -0.436743,0.0019 -0.956281,0.06752 -1.841858,0.597295 -2.357593,1.490392 -0.822176,1.427427 -0.330006,3.241188 1.10037,4.06638 1.427427,0.822158 3.244223,0.344269 4.06638,-1.087672 0.825078,-1.422971 0.352556,-3.270385 -1.07489,-4.093946 -0.402283,-0.231378 -0.854408,-0.349646 -1.297495,-0.377382 z m -7.833819,3.16325 c -2.063534,0 -3.993429,0.487419 -5.724255,1.346237 l 2.073511,3.744092 c 1.116755,-0.521471 2.340656,-0.828956 3.650858,-0.828956 4.560817,0 8.325107,3.489975 8.717841,7.95257 l 4.233873,-0.05301 c -0.211065,-3.288723 -1.649957,-6.247033 -3.858615,-8.419002 -1.137276,0.426597 -2.428911,0.361214 -3.56174,-0.296817 -1.132819,-0.655102 -1.849463,-1.750038 -2.045944,-2.953314 -1.105035,-0.303398 -2.285183,-0.491856 -3.485415,-0.491856 z m -7.187185,2.187929 c -2.614516,1.745476 -4.539983,4.424266 -5.349007,7.551804 0.94676,0.769405 1.515901,1.919815 1.515901,3.237385 0,1.308676 -0.567662,2.501853 -1.515901,3.275601 0.809015,3.126012 2.734491,5.793621 5.349007,7.539097 l 2.187274,-3.678747 c -2.243706,-1.576903 -3.70381,-4.184695 -3.70381,-7.136273 0,-2.954612 1.460104,-5.559266 3.70381,-7.136273 z M 17.9272,28.395012 c -1.651683,0 -2.978717,1.327015 -2.978717,2.978707 0,1.645833 1.327034,2.978717 2.978717,2.978717 1.653096,0 2.993577,-1.332884 2.993577,-2.978717 0,-1.651692 -1.340481,-2.978707 -2.993577,-2.978707 z m 23.923265,3.7696 c -0.392763,4.455312 -4.157006,7.952571 -8.717842,7.952571 -1.3117,0 -2.534093,-0.294437 -3.650849,-0.816241 l -2.07352,3.716527 c 1.730826,0.861776 3.660835,1.333529 5.724256,1.333529 1.200345,0 2.380388,-0.160209 3.485424,-0.466424 0.196395,-1.201749 0.911588,-2.293224 2.045963,-2.951246 1.135844,-0.654997 2.424549,-0.718569 3.561721,-0.286215 2.208658,-2.1749 3.647379,-5.12735 3.858615,-8.419005 z m -1.308135,9.415387 c -0.432202,0.03679 -0.868462,0.180579 -1.26992,0.413426 -1.430253,0.819332 -1.922518,2.629176 -1.10037,4.053673 0.825144,1.431884 2.662944,1.911888 4.091784,1.08973 1.429163,-0.823674 1.899949,-2.64101 1.07489,-4.068437 -0.515697,-0.893041 -1.413858,-1.421027 -2.37029,-1.488325 -0.143615,-0.01195 -0.282204,-0.01195 -0.426132,0 z" />
  <g
     transform="translate(56.391766,-0.17677748)"
     id="g4364">
    <g
       id="g4274">
      <path
         style="color:#000000;display:inline;overflow:visible;visibility:visible;opacity:0.07999998;fill:#ffffff;fill-opacity:1;fill-rule:nonzero;stroke:none;stroke-width:0.26458332;marker:none;enable-background:accumulate"
         d="m -24.211872,1.2694285 0,61.1690735 12.371744,0 c 10.5678581,0 9.8115271,0.439894 9.8115271,-10.648116 l 0,-19.936427 0,-19.936427 c 0,-10.700833 0.8143853,-10.6481035 -9.8115271,-10.6481035 z"
         id="path4231"
         inkscape:connector-curvature="0"
         sodipodi:nodetypes="ccsscssc" />
      <path
         inkscape:connector-curvature="0"
         style="color:#000000;display:inline;overflow:visible;visibility:visible;opacity:0.07999998;fill:#ffffff;fill-opacity:1;fill-rule:nonzero;stroke:none;stroke-width:0.26458332;marker:none;enable-background:accumulate"
         d="m -46.395136,31.853959 0,19.936427 c -1.236828,11.502216 0.0059,10.648116 9.81153,10.648116 l 24.743478,0 c 10.394983,0 9.811527,0.741004 9.811527,-10.648116 l 0,-19.936427 z"
         id="path4255"
         sodipodi:nodetypes="ccssscc" />
      <path
         style="color:#000000;display:inline;overflow:visible;visibility:visible;opacity:0.07999998;fill:#ffffff;fill-opacity:1;fill-rule:nonzero;stroke:none;stroke-width:2.11666656;stroke-linecap:butt;stroke-linejoin:miter;stroke-miterlimit:4;stroke-dasharray:none;stroke-dashoffset:0;stroke-opacity:1;marker:none;enable-background:accumulate"
         d="m -17.153556,62.438502 15.1249551,-16.384574 0,6.139813 c 0.9120172,11.193544 0.095941,10.244761 -9.6230261,10.244761 z"
         id="path4254"
         inkscape:connector-curvature="0"
         sodipodi:nodetypes="cccsc" />
    </g>
    <g
       id="g4319">
      <path
         style="fill:#666666"
         d="m -46.391766,59.131425 0,0.677156 c 0,1.311981 1.115,2.368196 2.5,2.368196 l 39,0 c 1.385,0 2.5,-1.056215 2.5,-2.368196 l 0,-0.677156 c 0,1.491744 -1.267028,2.693823 -2.841797,2.693823 l -38.316406,0 c -1.574769,0 -2.841797,-1.202079 -2.841797,-2.693823 z"
         id="rect11-5"
         inkscape:connector-curvature="0" />
      <path
         d="m -46.416159,4.4076775 0,-0.633985 c 0,-1.228337 1.115,-2.217214 2.5,-2.217214 l 39.0000013,0 c 1.385,0 2.5,0.988877 2.5,2.217214 l 0,0.633985 c 0,-1.39664 -1.267028,-2.522082 -2.841797,-2.522082 l -38.3164073,0 c -1.574769,0 -2.841797,1.125442 -2.841797,2.522082 z"
         id="rect11-1"
         inkscape:connector-curvature="0"
         style="fill:#e6e6e6" />
    </g>
  </g>
</svg>
