<?xml version="1.0" encoding="UTF-8" standalone="no"?>
<svg
   xmlns:dc="http://purl.org/dc/elements/1.1/"
   xmlns:cc="http://creativecommons.org/ns#"
   xmlns:rdf="http://www.w3.org/1999/02/22-rdf-syntax-ns#"
   xmlns:svg="http://www.w3.org/2000/svg"
   xmlns="http://www.w3.org/2000/svg"
   xmlns:sodipodi="http://sodipodi.sourceforge.net/DTD/sodipodi-0.dtd"
   xmlns:inkscape="http://www.inkscape.org/namespaces/inkscape"
   height="64"
   viewBox="0 0 64 64"
   width="64"
   id="svg2"
   version="1.1"
   inkscape:version="0.91 r13725"
   sodipodi:docname="application-x-virtualbox-vbox.svg">
  <metadata
     id="metadata37">
    <rdf:RDF>
      <cc:Work
         rdf:about="">
        <dc:format>image/svg+xml</dc:format>
        <dc:type
           rdf:resource="http://purl.org/dc/dcmitype/StillImage" />
      </cc:Work>
    </rdf:RDF>
  </metadata>
  <defs
     id="defs35" />
  <sodipodi:namedview
     pagecolor="#ffffff"
     bordercolor="#666666"
     borderopacity="1"
     objecttolerance="10"
     gridtolerance="10"
     guidetolerance="10"
     inkscape:pageopacity="0"
     inkscape:pageshadow="2"
     inkscape:window-width="3798"
     inkscape:window-height="2046"
     id="namedview33"
     showgrid="false"
     inkscape:zoom="14.75"
     inkscape:cx="12.31295"
     inkscape:cy="27.601428"
     inkscape:window-x="19"
     inkscape:window-y="55"
     inkscape:window-maximized="0"
     inkscape:current-layer="svg2" />
  <linearGradient
     id="a"
     gradientTransform="matrix(1.0749904,0,0,1.1792904,113.08072,-0.434132)"
     gradientUnits="userSpaceOnUse"
     x1="-74.929466"
     x2="-75.259552"
     y1="52.199436"
     y2="2.356489">
    <stop
       offset="0"
       stop-color="#0cf"
       id="stop5" />
    <stop
       offset="1"
       stop-color="#5df"
       id="stop7" />
  </linearGradient>
  <rect
     style="fill:url(#a)"
     id="rect11"
     y="1.468998"
     x="10"
     width="44"
     ry="2.864331"
     height="60.531002" />
  <g
     style="fill-opacity:0.470588;fill-rule:evenodd"
     id="g25"
     transform="matrix(1.0555174,0,0,1.0555174,56.45665,3.219692)">
    <path
       inkscape:connector-curvature="0"
       id="path27"
       d="m -22.507006,38.651429 9.899608,-5.594836 -0.06738,-10.525372 -9.832219,5.387803 z" />
    <path
       inkscape:connector-curvature="0"
       id="path29"
       d="m -23.593813,38.603813 -9.935792,-5.615289 0.06762,-10.563842 9.868159,5.407495 z" />
    <path
       inkscape:connector-curvature="0"
       id="path31"
       d="m -22.910856,15.88165 -10.086339,5.616701 10.032161,5.50928 10.051775,-5.507412 z m -3.845661,2.687386 c 0.05754,-0.0031 0.117169,0.01011 0.165334,0.03923 l 1.455317,0.879916 c 0.08027,0.04853 0.106794,0.12949 0.06258,0.19616 l -0.439957,0.66881 1.406744,-0.40633 c 0.08503,-0.02515 0.18527,-0.0102 0.248469,0.03923 0.06492,0.04831 0.08333,0.119613 0.04764,0.18028 l -0.842552,1.385259 3.698074,-2.560348 c 0.08056,-0.05614 0.207032,-0.05931 0.297042,-0.0065 0.0917,0.06547 0.112184,0.144769 0.05324,0.213907 l -1.758897,2.056873 0.920082,0.556719 c 0.09647,0.0584 0.111106,0.160861 0.03269,0.228853 -0.07851,0.06808 -0.220761,0.07629 -0.317591,0.01775 l -1.073273,-0.648261 c -0.08758,-0.05295 -0.10899,-0.142968 -0.04951,-0.211105 l 0.917279,-1.074207 -3.231028,2.238087 c -0.07626,0.0526 -0.196719,0.05861 -0.285832,0.01214 -0.0052,-0.0028 -0.0097,-0.0043 -0.01494,-0.0075 -0.0782,-0.04728 -0.104918,-0.125141 -0.06352,-0.191489 l 1.079812,-1.776645 -1.430097,0.413803 c -0.08597,0.02496 -0.188481,0.0099 -0.251271,-0.0411 -0.06538,-0.04993 -0.0813,-0.12263 -0.04203,-0.183082 l 0.615567,-0.936896 -1.318939,-0.797715 c -0.09638,-0.0582 -0.111107,-0.160861 -0.03269,-0.228853 0.03938,-0.03415 0.09472,-0.05383 0.152257,-0.05698 z m 5.695165,3.535541 c 0.05758,-0.0032 0.1172,0.0092 0.165334,0.0383 l 0.553917,0.33534 c 0.09608,0.05809 0.111158,0.16175 0.03269,0.229787 -0.07851,0.06808 -0.221512,0.0749 -0.317592,0.01681 l -0.553917,-0.334405 c -0.09627,-0.0582 -0.111208,-0.161707 -0.03269,-0.229787 0.03921,-0.034 0.09468,-0.05286 0.152258,-0.05605 z m 1.157341,0.699636 c 0.0576,-0.0032 0.117294,0.0093 0.165335,0.0383 l 0.589412,0.356823 c 0.09602,0.05805 0.111157,0.161751 0.03269,0.229787 -0.07851,0.06808 -0.221574,0.0758 -0.317591,0.01775 l -0.589413,-0.356823 c -0.09608,-0.05809 -0.111208,-0.161707 -0.03269,-0.229787 0.03921,-0.034 0.09466,-0.05287 0.152257,-0.05605 z" />
  </g>
  <g
     transform="translate(56.391766,-0.17677748)"
     id="g4364">
    <g
       id="g4274">
      <path
         style="color:#000000;display:inline;overflow:visible;visibility:visible;opacity:0.07999998;fill:#ffffff;fill-opacity:1;fill-rule:nonzero;stroke:none;stroke-width:0.26458332;marker:none;enable-background:accumulate"
         d="m -24.211872,1.2694285 0,61.1690735 12.371744,0 c 10.5678581,0 9.8115271,0.439894 9.8115271,-10.648116 l 0,-19.936427 0,-19.936427 c 0,-10.700833 0.8143853,-10.6481035 -9.8115271,-10.6481035 z"
         id="path4231"
         inkscape:connector-curvature="0"
         sodipodi:nodetypes="ccsscssc" />
      <path
         inkscape:connector-curvature="0"
         style="color:#000000;display:inline;overflow:visible;visibility:visible;opacity:0.07999998;fill:#ffffff;fill-opacity:1;fill-rule:nonzero;stroke:none;stroke-width:0.26458332;marker:none;enable-background:accumulate"
         d="m -46.395136,31.853959 0,19.936427 c -1.236828,11.502216 0.0059,10.648116 9.81153,10.648116 l 24.743478,0 c 10.394983,0 9.811527,0.741004 9.811527,-10.648116 l 0,-19.936427 z"
         id="path4255"
         sodipodi:nodetypes="ccssscc" />
      <path
         style="color:#000000;display:inline;overflow:visible;visibility:visible;opacity:0.07999998;fill:#ffffff;fill-opacity:1;fill-rule:nonzero;stroke:none;stroke-width:2.11666656;stroke-linecap:butt;stroke-linejoin:miter;stroke-miterlimit:4;stroke-dasharray:none;stroke-dashoffset:0;stroke-opacity:1;marker:none;enable-background:accumulate"
         d="m -17.153556,62.438502 15.1249551,-16.384574 0,6.139813 c 0.9120172,11.193544 0.095941,10.244761 -9.6230261,10.244761 z"
         id="path4254"
         inkscape:connector-curvature="0"
         sodipodi:nodetypes="cccsc" />
    </g>
    <g
       id="g4319">
      <path
         style="fill:#666666"
         d="m -46.391766,59.131425 0,0.677156 c 0,1.311981 1.115,2.368196 2.5,2.368196 l 39,0 c 1.385,0 2.5,-1.056215 2.5,-2.368196 l 0,-0.677156 c 0,1.491744 -1.267028,2.693823 -2.841797,2.693823 l -38.316406,0 c -1.574769,0 -2.841797,-1.202079 -2.841797,-2.693823 z"
         id="rect11-5"
         inkscape:connector-curvature="0" />
      <path
         d="m -46.416159,4.4076775 0,-0.633985 c 0,-1.228337 1.115,-2.217214 2.5,-2.217214 l 39.0000013,0 c 1.385,0 2.5,0.988877 2.5,2.217214 l 0,0.633985 c 0,-1.39664 -1.267028,-2.522082 -2.841797,-2.522082 l -38.3164073,0 c -1.574769,0 -2.841797,1.125442 -2.841797,2.522082 z"
         id="rect11-1"
         inkscape:connector-curvature="0"
         style="fill:#e6e6e6" />
    </g>
  </g>
</svg>
