<?xml version="1.0" encoding="UTF-8" standalone="no"?>
<svg
   xmlns:dc="http://purl.org/dc/elements/1.1/"
   xmlns:cc="http://creativecommons.org/ns#"
   xmlns:rdf="http://www.w3.org/1999/02/22-rdf-syntax-ns#"
   xmlns:svg="http://www.w3.org/2000/svg"
   xmlns="http://www.w3.org/2000/svg"
   xmlns:sodipodi="http://sodipodi.sourceforge.net/DTD/sodipodi-0.dtd"
   xmlns:inkscape="http://www.inkscape.org/namespaces/inkscape"
   height="64"
   viewBox="0 0 64 64"
   width="64"
   id="svg2"
   version="1.1"
   inkscape:version="0.91 r13725"
   sodipodi:docname="application-web-template.svg">
  <metadata
     id="metadata31">
    <rdf:RDF>
      <cc:Work
         rdf:about="">
        <dc:format>image/svg+xml</dc:format>
        <dc:type
           rdf:resource="http://purl.org/dc/dcmitype/StillImage" />
      </cc:Work>
    </rdf:RDF>
  </metadata>
  <defs
     id="defs29" />
  <sodipodi:namedview
     pagecolor="#ffffff"
     bordercolor="#666666"
     borderopacity="1"
     objecttolerance="10"
     gridtolerance="10"
     guidetolerance="10"
     inkscape:pageopacity="0"
     inkscape:pageshadow="2"
     inkscape:window-width="3798"
     inkscape:window-height="2046"
     id="namedview27"
     showgrid="false"
     inkscape:zoom="14.75"
     inkscape:cx="41.378105"
     inkscape:cy="28.567775"
     inkscape:window-x="19"
     inkscape:window-y="55"
     inkscape:window-maximized="0"
     inkscape:current-layer="svg2" />
  <linearGradient
     id="a"
     gradientTransform="matrix(1.0749904,0,0,1.1745822,113.08072,-0.42653417)"
     gradientUnits="userSpaceOnUse"
     x1="-74.929466"
     x2="-75.259552"
     y1="52.199436"
     y2="2.356489">
    <stop
       offset="0"
       stop-color="#8294a4"
       id="stop5" />
    <stop
       offset="1"
       stop-color="#aeb6be"
       id="stop7" />
  </linearGradient>
  <rect
     style="fill:url(#a)"
     id="rect13"
     y="1.468998"
     x="10"
     width="44"
     ry="2.8528955"
     height="60.289337" />
  <path
     style="fill:#3a4148"
     inkscape:connector-curvature="0"
     id="path25"
     d="m 32.099998,20.000002 c -6.094,0 -10.999999,4.906001 -10.999999,11.000001 0,6.093999 4.905999,10.999999 10.999999,10.999999 6.094,0 11.000001,-4.906 11.000001,-10.999999 0,-6.094 -4.906001,-11.000001 -11.000001,-11.000001 z m 0,1 c 1.661622,0 3.221543,0.407903 4.597656,1.119141 0.0043,0.03973 0.0032,0.069 0,0.113282 0.05799,0.02599 0.09146,0.133518 0.189453,0.1875 0.036,0.02 0.05975,0.02888 0.09375,0.04687 0.05799,0.032 0.105752,0.08464 0.09375,0.140625 -0.016,0.08197 -0.131505,0.0787 -0.1875,0.138672 0.008,0.11596 -0.06375,0.111479 -0.09375,0.189452 0.01801,0.04999 0.08576,0.03377 0.09375,0.09375 -0.01004,0.06397 -0.117751,0.0727 -0.09375,0.138672 0.10799,0.08397 0.226134,0.01399 0.328126,0 0.223981,-0.02799 0.422557,0.01422 0.560547,-0.09375 -0.018,-0.105961 0.152624,-0.138408 0.140625,-0.234376 -0.01004,-0.07198 -0.133505,-0.08869 -0.1875,-0.138671 -0.01211,-0.01125 -0.02762,-0.03941 -0.04102,-0.06056 0.165015,0.108417 0.322507,0.226003 0.480467,0.34375 -0.03892,0.03165 -0.07108,0.07165 -0.111328,0.08984 -0.04201,0.01798 -0.102626,0.02289 -0.140625,0.04687 -0.056,0.038 -0.07663,0.09668 -0.140625,0.138671 -0.04599,0.03199 -0.186379,0.140627 -0.234375,0.140627 -0.05799,0 -0.145504,-0.05893 -0.1875,-0.04492 -0.05999,0.01798 -0.02576,0.114681 -0.09375,0.138673 -0.131989,0.04798 -0.375879,-0.104184 -0.421875,0.09375 0.056,0.113961 0.228134,0.07865 0.328125,0.140624 0.062,0.03998 0.171502,0.213273 0.1875,0.28125 0.016,0.05599 0.024,0.268146 0,0.328126 -0.062,0.159945 -0.23789,0.144622 -0.421874,0.140624 -0.05,0 -0.09463,0.004 -0.140625,0 -0.309975,-0.02 -0.60806,-0.128176 -0.748048,0.09375 0.01004,0.169942 0.03801,0.273925 0,0.421876 -0.028,0.107968 -0.146624,0.187282 -0.140626,0.281249 0.0019,0.04798 0.08175,0.121524 0.09375,0.187501 0.008,0.03599 -0.016,0.108639 0,0.140625 0.05199,0.09796 0.189258,-0.01599 0.28125,0 0.08799,0.014 0.189454,0.136408 0.189454,0.234374 0,0.06997 -0.05171,0.213273 -0.0957,0.28125 -0.08799,0.131955 -0.249011,0.115526 -0.375,0.1875 -0.103996,0.05998 -0.125506,0.179238 -0.1875,0.283204 -0.06598,0.111961 -0.11975,0.168179 -0.09375,0.328124 -0.08999,0.177939 -0.190968,0.289029 -0.376953,0.375001 -0.054,0.02399 -0.137503,0.05776 -0.1875,0.09375 -0.03998,0.028 -0.08463,0.07664 -0.140626,0.140625 -0.06998,0.07798 -0.149503,0.127521 -0.187499,0.1875 -0.028,0.04598 -0.01689,0.125521 -0.04688,0.1875 -0.04401,0.08397 -0.131504,0.150404 -0.187501,0.234374 -0.026,0.03998 -0.06575,0.08864 -0.09375,0.140625 -0.064,0.11596 -0.152622,0.22616 -0.140624,0.328125 0.01004,0.09796 0.134625,0.101531 0.140624,0.187501 0.006,0.04798 -0.04887,0.08668 -0.04688,0.138672 0.0019,0.07597 0.04088,0.129473 0.04688,0.189453 0.01399,0.147949 -0.06577,0.179284 -0.09375,0.281249 -0.01399,0.04798 0.01201,0.10264 0,0.140626 -0.024,0.07397 -0.138626,0.144451 -0.140625,0.232421 -0.0019,0.06197 0.08775,0.101487 0.09375,0.189452 0.004,0.05998 -0.05692,0.13152 -0.04492,0.187501 0.02199,0.107968 0.244131,0.244153 0.328124,0.328125 0.113991,0.113962 0.231254,0.208167 0.281251,0.328126 0.04201,0.101966 0.06264,0.25215 0.140625,0.328125 0.05799,0.05598 0.160382,0.0807 0.234375,0.138671 0.06998,0.05398 0.158429,0.08264 0.232422,0.140625 0.121991,0.09597 0.274766,0.295247 0.46875,0.28125 0.101988,-0.008 0.214134,-0.07375 0.328124,-0.09375 0.11799,-0.02 0.25501,-0.05692 0.375001,-0.04492 0.092,0.01004 0.18721,0.05092 0.283203,0.04492 0.09999,-0.006 0.214135,-0.04376 0.328125,-0.09375 0.197983,-0.08597 0.506946,-0.229486 0.794922,-0.187499 0.21998,0.03199 0.222965,0.277032 0.376953,0.374999 0.175986,0.01599 0.326809,-0.03399 0.466797,0 0.105993,0.026 0.224377,0.199231 0.234374,0.283203 0.01004,0.08597 -0.08175,0.178441 -0.09375,0.232422 -0.028,0.115961 -0.02688,0.254152 -0.04687,0.328125 -0.016,0.05799 -0.04693,0.129519 -0.04491,0.187501 0,0.05198 0.08664,0.166397 0.140624,0.234374 0.06599,0.08397 0.152429,0.142407 0.232422,0.234375 0.14599,0.167944 0.226134,0.38745 0.328125,0.609374 0.026,0.05598 -0.024,0.07064 0,0.140627 -0.04399,0.335885 -0.155018,0.565625 -0.374999,0.937499 -0.103986,0.119958 -0.236375,0.271925 -0.234375,0.421875 -0.008,0.359877 0.203499,0.54079 0.187499,0.888671 -0.036,0.467841 -0.009,0.546959 -0.04491,0.796876 0.157986,0.07997 0.09093,0.300854 0.04491,0.466796 -0.068,0.197933 -0.149503,0.244999 -0.187499,0.376954 0.123868,0.05359 0.259904,0.04049 0.398437,0.0059 -1.821931,1.94193 -4.407738,3.158177 -7.292981,3.158177 -1.227716,0 -2.397572,-0.229579 -3.482423,-0.63086 -0.03984,-0.01577 -0.08378,-0.0248 -0.123046,-0.04688 -0.062,-0.03599 -0.10175,-0.111525 -0.09375,-0.187499 0.103997,-0.04398 0.30096,0.09907 0.376953,-0.04687 0.03801,-0.06998 -0.05,-0.211275 0,-0.281249 0.036,-0.04798 0.254131,-0.08175 0.328126,-0.09375 0.105991,-0.01799 0.221253,-0.0089 0.281249,-0.04687 0.06599,-0.04199 0.152624,-0.157293 0.140625,-0.28125 -0.006,-0.05799 -0.04776,-0.08864 -0.09375,-0.140626 -0.03801,-0.04398 -0.02088,-0.09869 -0.04687,-0.138671 -0.048,-0.06997 -0.120628,-0.08553 -0.140626,-0.1875 0.143988,-0.02799 0.354518,0.151728 0.562501,0.09375 0.098,-0.02799 0.235254,-0.236156 0.28125,-0.328126 0.014,-0.02799 -0.016,-0.106632 0,-0.140624 0.01799,-0.038 0.0897,-0.07375 0.0957,-0.09375 0.014,-0.05398 -0.01201,-0.05976 0,-0.09375 0.036,-0.101967 0.127503,-0.1604 0.1875,-0.234375 0.04599,-0.05599 0.09864,-0.129518 0.140623,-0.187498 0.04801,-0.06197 0.06176,-0.08664 0.09375,-0.140626 0.03,-0.181939 -0.09088,-0.306851 -0.04688,-0.466797 0.04801,-0.179939 0.294764,-0.294981 0.468751,-0.376953 0.05999,-0.02799 0.137501,-0.07575 0.1875,-0.09375 0.119989,-0.04199 0.263007,-0.05376 0.374999,-0.09375 0.187984,-0.06797 0.236132,-0.249934 0.328125,-0.421874 0.04401,-0.07996 0.08771,-0.176396 0.0957,-0.234375 0.008,-0.05198 -0.01004,-0.0787 0,-0.138672 0.01004,-0.05997 0.02893,-0.123475 0.04491,-0.189453 0.022,-0.08598 0.04688,-0.230206 0.04688,-0.326173 0,-0.07997 -0.04488,-0.117477 -0.04688,-0.189453 -0.01399,-0.259911 0.09152,-0.279923 0.1875,-0.421875 0.04801,-0.06997 0.05975,-0.182438 0.09375,-0.232421 0.161987,-0.239918 0.441874,-0.341201 0.421874,-0.705078 -0.008,-0.11996 -0.05066,-0.383887 -0.138671,-0.421875 -0.05,-0.02199 -0.160382,-0.01694 -0.234375,-0.04492 -0.23598,-0.08797 -0.410271,-0.35696 -0.656251,-0.376953 -0.05199,-0.0019 -0.08263,0.0019 -0.140624,0 -0.09599,-0.0019 -0.218181,-0.08175 -0.326171,-0.09375 -0.06801,-0.008 -0.194379,0.02 -0.234376,0 -0.062,-0.02999 -0.04376,-0.153511 -0.09375,-0.1875 -0.03999,-0.02799 -0.127457,-0.02488 -0.189453,-0.04687 -0.098,-0.03797 -0.167257,-0.08575 -0.28125,-0.09375 -0.036,-0.0019 -0.100628,0.006 -0.140624,0 -0.062,-0.01004 -0.129507,-0.05776 -0.187501,-0.09375 -0.07201,-0.04399 -0.110627,-0.07671 -0.140625,-0.138672 0.06599,-0.215927 -0.143503,-0.250995 -0.1875,-0.376953 -0.02,-0.05799 0.02,-0.135517 0,-0.1875 -0.026,-0.07397 -0.105509,-0.125521 -0.1875,-0.1875 -0.143988,-0.111963 -0.262767,-0.208383 -0.46875,-0.234375 -0.092,-0.01004 -0.218134,0.008 -0.328125,0 -0.11599,-0.008 -0.240131,-0.08753 -0.328125,-0.1875 -0.084,-0.09796 -0.113507,-0.188391 -0.1875,-0.234374 -0.06998,-0.04398 -0.186377,-0.04776 -0.234375,-0.09375 -0.02199,-0.02 -0.02493,-0.04777 -0.04492,-0.09375 -0.036,-0.07198 -0.09088,-0.101487 -0.04688,-0.189453 -0.08,-0.03998 -0.05268,0.06287 -0.138673,0.04687 -0.078,-0.109962 -0.152139,-0.174614 -0.328125,-0.140625 -0.08,0.01599 -0.140383,0.138626 -0.234375,0.140625 -0.07799,0.0019 -0.132383,-0.126631 -0.234375,-0.140625 -0.07799,-0.01004 -0.18038,0.05888 -0.234375,0.04688 -0.086,-0.01599 -0.109506,-0.08864 -0.1875,-0.140624 -0.05799,-0.038 -0.155503,-0.140671 -0.1875,-0.138672 -0.09999,0.0019 -0.190137,0.212646 -0.328124,0.138672 -0.06801,-0.08598 0.124921,-0.107532 0.04491,-0.1875 -0.05999,-0.05998 -0.09068,0.01489 -0.138672,0.04687 -0.056,0.038 -0.125506,0.07176 -0.1875,0.09375 -0.137989,0.05198 -0.220134,0.03777 -0.328125,0.09375 -0.09999,0.05198 -0.131459,0.13241 -0.189453,0.234375 -0.04599,0.08398 -0.117506,0.228424 -0.1875,0.23242 -0.08399,0.006 -0.15838,-0.106685 -0.234375,-0.138669 -0.229981,-0.09997 -0.370563,0.04294 -0.560546,0.04491 -0.175986,0.0019 -0.429875,-0.25593 -0.421876,-0.421873 0.006,-0.101967 0.08175,-0.249044 0.09375,-0.375001 0.01004,-0.09997 0.09177,-0.191233 0.09375,-0.283203 0.0019,-0.121959 -0.20321,-0.218423 -0.283203,-0.232422 -0.187982,-0.03399 -0.440313,0.08398 -0.654296,0 -0.03999,-0.06797 0.06975,-0.123475 0.09375,-0.189454 0.01399,-0.03798 -0.014,-0.05175 0,-0.09375 0.024,-0.06397 0.108675,-0.119522 0.138671,-0.187499 0.02199,-0.05198 0.02489,-0.123522 0.04687,-0.1875 0.026,-0.07198 0.08775,-0.135518 0.09375,-0.1875 0.008,-0.06797 -0.03975,-0.145469 -0.09375,-0.189453 -0.165985,0.01004 -0.28096,0.0029 -0.376953,0.04687 -0.215982,0.09796 -0.157019,0.400775 -0.375,0.468749 -0.074,0.02399 -0.197257,0.03093 -0.28125,0.04491 -0.03657,0.0071 -0.07814,0.01312 -0.11914,0.02344 0.139668,-0.725997 0.355869,-1.423858 0.642577,-2.083984 0.04809,-1.4e-5 0.09796,-0.0064 0.13086,0 0.07599,0.014 0.123459,0.08775 0.189454,0.09375 0.183985,0.014 0.223013,-0.154404 0.374999,-0.234376 0.155987,0.02199 0.234964,-0.01599 0.376953,0 0.09599,0.01004 0.205256,0.134627 0.28125,0.140627 0.064,0.0019 0.08064,-0.05689 0.140626,-0.04687 0.06,0.01004 0.177499,0.115522 0.187499,0.187499 0.01004,0.08997 -0.07288,0.183237 -0.04688,0.283202 0.09399,0.09597 0.287887,0.13152 0.421875,0.187501 0.08799,-0.07198 0.014,-0.224162 0,-0.328126 -0.0019,-0.04598 0.006,-0.09863 0,-0.140624 -0.01004,-0.07198 -0.04492,-0.125522 -0.04492,-0.187501 0,-0.285902 0.229891,-0.403662 0.421875,-0.515624 0.08199,-0.04799 0.16238,-0.151513 0.234375,-0.1875 0.101989,-0.04999 0.150382,-0.04575 0.234374,-0.09375 0.151988,-0.08597 0.303886,-0.185235 0.421875,-0.283202 0.05401,-0.129956 -0.006,-0.293918 0,-0.421875 0.05401,-0.03399 0.08067,0.006 0.138673,0 0.092,-0.02 0.137457,-0.135518 0.189453,-0.1875 0.03,-0.02999 0.102678,-0.06376 0.138671,-0.09375 0.092,-0.07198 0.107505,-0.15551 0.187501,-0.187501 0.028,-0.01004 0.09663,-0.03488 0.140624,-0.04687 0.06001,-0.01599 0.138384,-0.05976 0.234376,-0.09375 0.062,-0.02199 0.210377,-0.02094 0.234374,-0.04491 0.03,-0.02999 -0.008,-0.14347 0,-0.189454 0.04801,-0.225922 0.407393,-0.250198 0.609376,-0.326172 0.139986,-0.05398 0.265889,-0.170615 0.421875,-0.140624 -0.03,0.107968 -0.166623,0.104417 -0.140625,0.234374 0.03399,0.181937 0.264129,-0.06776 0.328124,-0.09375 0.121991,-0.05198 0.35564,-0.08264 0.515626,-0.140624 0.139989,-0.04998 0.366364,-0.119305 0.234374,-0.28125 -0.10999,-0.008 -0.138383,0.09869 -0.234374,0.138672 -0.06599,0.01004 -0.08267,-0.04093 -0.138672,-0.04492 -0.054,-0.0019 -0.08664,0.05493 -0.140625,0.04492 -0.05401,-0.01004 -0.132626,-0.123522 -0.140625,-0.187501 -0.022,-0.167943 0.16638,-0.204168 0.234374,-0.328123 -0.04599,-0.15195 -0.247011,-0.03377 -0.374999,-0.09375 0.014,-0.08997 0.08152,-0.169506 0.1875,-0.1875 0.086,-0.014 0.27613,0.0029 0.328125,0.04491 0.03,0.02599 -0.0011,0.09863 0.04491,0.140625 0.05199,0.04598 0.12146,0.01004 0.189453,0 0.024,-0.113962 -0.160624,-0.06665 -0.140624,-0.140625 0.135988,-0.08797 0.396513,-0.02294 0.5625,-0.04491 0.09599,-0.014 0.195256,-0.09464 0.281249,-0.140625 0.08,-0.04598 0.150383,-0.120901 0.234376,-0.04491 0.024,0.08197 -0.04776,0.145516 -0.09375,0.1875 -0.153988,0.135955 -0.301886,0.26393 -0.421875,0.421876 0.074,0.07198 0.204134,0.03092 0.328125,0.04492 0.048,0.006 0.08867,0.03888 0.138672,0.04687 0.06,0.01004 0.141456,-0.01004 0.189452,0 0.084,0.02 0.103502,0.140624 0.1875,0.140624 0.135989,0 0.122923,-0.142405 0.04492,-0.234374 0.024,-0.09397 0.08089,-0.168395 0.04688,-0.234375 -0.062,-0.123957 -0.316124,0.01732 -0.328124,-0.140625 -0.008,-0.09997 0.104633,-0.111525 0.140625,-0.187501 -0.016,-0.191933 0.15867,-0.201058 0.138672,-0.374999 -0.01004,-0.07198 -0.08867,-0.07265 -0.138672,-0.140625 -0.026,-0.03599 -0.01688,-0.114634 -0.04688,-0.140624 -0.103986,-0.08797 -0.316126,-0.06448 -0.328125,-0.232423 -0.006,-0.09997 0.014,-0.175239 0,-0.283202 -0.01399,-0.101968 -0.09951,-0.401883 -0.187501,-0.421876 -0.111989,-0.02399 -0.194134,0.172396 -0.328123,0.234375 -0.07199,0.03399 -0.207257,0.06087 -0.281251,0.04687 -0.04801,-0.01004 -0.134627,-0.04865 -0.140624,-0.140626 -0.01004,-0.10596 0.07376,-0.122412 0.09375,-0.234375 0.861561,-0.240453 1.76671,-0.378909 2.707028,-0.378909 z m -4.033202,0.847657 c -0.02879,0.411302 -0.395683,0.624415 -0.828126,0.613281 -0.092,0.08797 -0.04377,0.25304 -0.09375,0.375 -0.04201,0.101967 -0.179259,0.197451 -0.28125,0.189454 -0.074,-0.006 -0.1875,-0.119478 -0.1875,-0.189454 0,-0.08598 0.118922,-0.134456 0.04492,-0.232421 0.0031,-0.02054 0.03001,-0.04123 0.05078,-0.06251 0.413525,-0.260349 0.8431,-0.494889 1.294921,-0.69336 z m 8.347655,0.476562 c -0.03678,0.0068 -0.05726,0.02576 -0.08984,0.04491 -0.07599,0.04598 -0.08263,0.118633 -0.140626,0.140624 -0.08199,0.02999 -0.1755,0.01978 -0.187499,0.09375 -0.01004,0.06198 0.04887,0.08268 0.04687,0.138671 -0.03,0.07398 -0.07775,0.09752 -0.09375,0.187501 0.101989,0.165943 0.340809,-0.009 0.466796,-0.04492 0.056,-0.01599 0.110629,-0.0029 0.140626,-0.04688 0.03399,-0.05398 0.01893,-0.156446 0.04492,-0.232422 0.02799,-0.08398 0.103757,-0.06664 0.09375,-0.140624 -0.008,-0.07398 -0.157261,-0.152622 -0.28125,-0.140625 z M 25.467186,23.51758 c 0.09728,0.04983 0.26147,0.274972 0.07421,0.355469 -0.02,0.01004 -0.280129,0.05493 -0.328124,0.04492 -0.03873,-0.0056 -0.07093,-0.04114 -0.103515,-0.07617 0.114959,-0.112265 0.237144,-0.217585 0.357421,-0.32422 z m 0.353516,0.447266 c 0.04801,0.0019 0.08463,0.08975 0.140625,0.09375 0.054,0.004 0.108625,-0.05688 0.140625,-0.04687 0.08399,0.02199 0.124921,0.172397 0.04492,0.234377 -0.066,0.008 -0.09068,-0.05492 -0.138673,-0.04491 -0.135988,0.02399 -0.181212,0.289248 -0.283203,0.28125 -0.09599,-0.01004 -0.14292,-0.211273 -0.04491,-0.28125 0.0019,-0.05998 -0.05089,-0.08064 -0.04687,-0.140625 0.03,-0.038 0.107505,-0.09975 0.1875,-0.09375 l 0,-0.0019 z m -0.466798,0.04687 c 0.028,0 0.03493,-0.01201 0.04492,0 -0.01399,0.105959 -0.05667,0.139469 -0.138672,0.189452 -0.141988,0.08597 -0.237207,0.191064 -0.283203,0.375 -0.01399,0.05399 -0.164428,0.201497 -0.232422,0.187501 -0.157987,-0.03399 0.05775,-0.329017 0.09375,-0.375 0.03999,-0.04998 0.09267,-0.08464 0.138673,-0.140625 0.04599,-0.05599 0.04977,-0.15551 0.09375,-0.1875 0.04801,-0.03399 0.19921,-0.05088 0.283203,-0.04687 l 0,-0.0019 z m 14.148438,0.267578 c 0.06315,0.06955 0.128262,0.137655 0.189453,0.208984 -0.06305,-0.07378 -0.165964,-0.102078 -0.189453,-0.208984 z m -0.611328,0.01953 c 0.157987,-0.01004 0.256133,0.185284 0.328125,0.281251 0.06,0.07798 0.230134,0.180392 0.328126,0.234375 0.056,0.02999 0.125503,0.06576 0.187499,0.09375 0.129991,0.05799 0.369001,0.247043 0.374996,0.374999 0.0023,0.06397 -0.05488,0.129473 -0.04491,0.189453 0.09799,0.01599 0.185499,-0.136408 0.187503,-0.234375 0,-0.02324 -0.0079,-0.0377 -0.01761,-0.05273 0.283031,0.395997 0.538052,0.811545 0.761716,1.248047 -0.08816,0.02587 -0.163531,0.06843 -0.177736,0.154295 -0.01996,0.111965 0.07424,0.261258 -0.09375,0.28125 -0.105991,0.014 -0.230966,-0.10864 -0.376949,-0.140624 -0.06002,-0.014 -0.139505,0.01599 -0.187503,0 -0.109991,-0.038 -0.09351,-0.166445 -0.187496,-0.232421 -0.05398,-0.038 -0.197213,-0.08375 -0.283207,-0.09375 -0.054,-0.006 -0.08267,0.008 -0.138671,0 -0.068,-0.008 -0.17838,-0.0129 -0.234375,-0.04688 -0.054,-0.03399 -0.173501,-0.09464 -0.1875,-0.140625 -0.02199,-0.07397 0.134671,-0.170445 0.138672,-0.232422 0.004,-0.04799 -0.03493,-0.06866 -0.04492,-0.140624 -0.008,-0.04398 0.01004,-0.112634 0,-0.140626 -0.01399,-0.05198 -0.107461,-0.09174 -0.189452,-0.09375 -0.07201,0 -0.125507,0.04687 -0.187501,0.04687 -0.08799,0.0019 -0.265008,-0.05687 -0.375,-0.04687 -0.06599,0.006 -0.127458,0.04289 -0.189453,0.04687 -0.173986,0.014 -0.285887,-0.01004 -0.421874,0 -0.098,0.006 -0.283009,0.05175 -0.375,0.09375 -0.04599,0.02199 -0.08064,0.06376 -0.140626,0.09375 -0.02799,0.01399 -0.05775,0.02893 -0.09375,0.04491 -0.056,0.026 -0.133504,0.0817 -0.1875,0.0957 -0.07799,0.02 -0.186136,-0.006 -0.328124,0 -0.10199,0.006 -0.27925,-0.01866 -0.281251,-0.140625 -0.0019,-0.185938 0.33964,-0.10864 0.515625,-0.140626 0.06599,-0.01399 0.107505,-0.09269 0.1875,-0.138672 0.03801,-0.02199 0.05775,-0.02287 0.09375,-0.04687 0.06001,-0.04199 0.177502,-0.139516 0.1875,-0.1875 0.008,-0.04398 -0.05092,-0.10864 -0.04492,-0.140624 0.008,-0.04199 0.08468,-0.0847 0.138671,-0.138672 0.084,-0.08398 0.130385,-0.180394 0.234375,-0.234375 0.07,-0.038 0.202377,-0.03777 0.234375,-0.09375 0.008,-0.06397 -0.0019,-0.08264 0,-0.140625 0.04401,-0.03998 0.05775,-0.08575 0.09375,-0.09375 0.107989,-0.02399 0.202136,0.05092 0.328126,0.04492 0.054,-0.0019 0.129505,-0.0068 0.1875,-0.04492 0.04801,-0.03199 0.09264,-0.06976 0.140625,-0.09375 0.05199,-0.028 0.07663,-0.08975 0.140624,-0.09375 z m -12.513672,0.0957 0.0019,0 c 0.04599,-0.0019 0.09063,0 0.140624,0 0.05,0 0.118673,-0.02 0.138671,0 -0.032,0.131955 -0.317882,0.09291 -0.421873,0.04492 0.006,-0.04998 0.07663,-0.03892 0.140624,-0.04492 z m 13.314453,0.0957 c 0.05712,0.06662 0.11649,0.131087 0.171871,0.199219 -0.0093,-0.0052 -0.02313,-0.0075 -0.03122,-0.01367 -0.05563,-0.0437 -0.08536,-0.117923 -0.140622,-0.185546 z m -13.783203,0.138673 c 0.03399,0 0.0597,-0.014 0.0957,0 -0.092,0.07798 -0.216967,0.137518 -0.376953,0.1875 -0.07599,0.02399 -0.173502,0.03709 -0.1875,-0.04688 -0.01601,-0.103963 0.07264,-0.08375 0.140624,-0.09375 0.08799,-0.01004 0.224181,-0.04293 0.326172,-0.04492 l 0.0019,-0.0019 z m 13.029297,0.0019 c -0.06599,0.02199 -0.098,0.169506 0,0.1875 0.04599,-0.028 0.05888,-0.103527 0.04688,-0.1875 -0.026,-0.028 -0.02689,-0.008 -0.04688,0 z m -0.04492,0.28125 c -0.032,0.01004 -0.05976,0.009 -0.09375,0.04491 0.0019,0.11196 0.022,0.185235 0,0.283203 0.064,0.123956 0.200425,0.03709 0.232422,-0.04687 0.03801,-0.207928 -0.04268,-0.30724 -0.138672,-0.28125 z m 0.888672,0.562501 c -0.08799,-0.004 -0.180425,0.0029 -0.232423,0.04492 0.074,0.119957 0.209015,0.157511 0.375002,0.1875 0.05995,-0.04398 0.06577,-0.156448 0.09375,-0.232422 -0.07197,0 -0.146384,0.004 -0.234379,0 l -0.0019,0 z m -17.572267,4.119106 c 0.112736,0.102436 0.191252,0.273081 0.326171,0.339843 0.05,0.02599 0.123505,0.03288 0.187501,0.04687 0.05199,0.01004 0.09063,0.02892 0.140624,0.04492 0.105994,0.03599 0.244133,0.05772 0.328126,0.0957 0.12799,0.05598 0.218133,0.262193 0.328125,0.326172 0.006,0.06397 -0.02,0.141469 0,0.189453 0.05199,0.06997 0.150381,0.09269 0.234375,0.138672 0.101989,0.05598 0.13643,0.190391 0.232421,0.234375 0.03399,0.01399 0.08863,-0.01599 0.140626,0 0.131989,0.03998 0.169213,0.221489 0.283203,0.187499 0.074,-0.02199 0.08175,-0.115523 0.09375,-0.187499 0.05,-0.05399 0.109506,-0.140625 0.187499,-0.140625 0.12399,-0.0019 0.141503,0.161245 0.1875,0.283203 0.026,0.06798 0.07574,0.115524 0.09375,0.1875 0.03,0.123957 0.026,0.488525 0,0.562499 -0.032,0.09197 -0.158381,0.132458 -0.234375,0.232422 -0.036,0.04799 -0.06575,0.108641 -0.09375,0.140626 -0.04801,0.05998 -0.102669,0.08665 -0.138673,0.140624 -0.02,0.02999 -0.02887,0.09668 -0.04688,0.138672 -0.06,0.127955 -0.143747,0.223007 -0.09375,0.376954 0.02,0.06197 0.09375,0.113525 0.09375,0.187499 0,0.08797 -0.173501,0.138409 -0.187499,0.234376 -0.01004,0.06998 0.07174,0.18728 0.09375,0.281249 0.016,0.06997 0.145504,0.141516 0.1875,0.187501 0.07,0.07798 0.125458,0.183238 0.189453,0.283203 0.125989,0.193934 0.202182,0.41944 0.326172,0.609374 0.06599,0.09796 0.19038,0.177285 0.234375,0.281251 0.02199,0.05198 -0.02,0.139517 0,0.187499 0.07199,0.161945 0.400512,0.341904 0.562501,0.421875 0.07599,0.03798 0.164379,0.05571 0.234374,0.0957 0.105993,0.05998 0.321004,0.187282 0.375,0.281251 0.04801,0.08397 0.06975,0.287921 0.09375,0.421875 0.03,0.175939 -0.008,0.325689 0,0.515624 0.006,0.103964 0.04687,0.177286 0.04687,0.28125 0,0.03599 0.0019,0.104637 0,0.140626 -0.0019,0.123957 0.01004,0.249043 0,0.374999 -0.006,0.06798 -0.004,0.131472 0,0.189453 0.006,0.06197 0.04093,0.08469 0.04492,0.138672 0.004,0.05799 -0.05092,0.143467 -0.04492,0.189453 0.014,0.125957 0.116626,0.210212 0.140624,0.326171 0.02,0.09197 0.05692,0.311914 0.04491,0.421876 -0.008,0.05799 -0.03693,0.125476 -0.04491,0.189454 -0.006,0.04998 0.008,0.09269 0,0.138671 -0.0064,0.04466 -0.01738,0.08232 -0.02931,0.121094 -2.781989,-1.772039 -4.62695,-4.875047 -4.62695,-8.431627 0,-0.478912 0.0449,-0.945663 0.109375,-1.40625 z m 3.890625,1.095703 c 0.09599,-0.04398 0.07799,0.128628 0,0.140624 -0.074,0.01004 -0.07201,-0.106632 0,-0.140624 z" />
  <g
     transform="translate(56.391766,-0.17677748)"
     id="g4364">
    <g
       id="g4274">
      <path
         style="color:#000000;display:inline;overflow:visible;visibility:visible;opacity:0.07999998;fill:#ffffff;fill-opacity:1;fill-rule:nonzero;stroke:none;stroke-width:0.26458332;marker:none;enable-background:accumulate"
         d="m -24.211872,1.2694285 0,61.1690735 12.371744,0 c 10.5678581,0 9.8115271,0.439894 9.8115271,-10.648116 l 0,-19.936427 0,-19.936427 c 0,-10.700833 0.8143853,-10.6481035 -9.8115271,-10.6481035 z"
         id="path4231"
         inkscape:connector-curvature="0"
         sodipodi:nodetypes="ccsscssc" />
      <path
         inkscape:connector-curvature="0"
         style="color:#000000;display:inline;overflow:visible;visibility:visible;opacity:0.07999998;fill:#ffffff;fill-opacity:1;fill-rule:nonzero;stroke:none;stroke-width:0.26458332;marker:none;enable-background:accumulate"
         d="m -46.395136,31.853959 0,19.936427 c -1.236828,11.502216 0.0059,10.648116 9.81153,10.648116 l 24.743478,0 c 10.394983,0 9.811527,0.741004 9.811527,-10.648116 l 0,-19.936427 z"
         id="path4255"
         sodipodi:nodetypes="ccssscc" />
      <path
         style="color:#000000;display:inline;overflow:visible;visibility:visible;opacity:0.07999998;fill:#ffffff;fill-opacity:1;fill-rule:nonzero;stroke:none;stroke-width:2.11666656;stroke-linecap:butt;stroke-linejoin:miter;stroke-miterlimit:4;stroke-dasharray:none;stroke-dashoffset:0;stroke-opacity:1;marker:none;enable-background:accumulate"
         d="m -17.153556,62.438502 15.1249551,-16.384574 0,6.139813 c 0.9120172,11.193544 0.095941,10.244761 -9.6230261,10.244761 z"
         id="path4254"
         inkscape:connector-curvature="0"
         sodipodi:nodetypes="cccsc" />
    </g>
    <g
       id="g4319">
      <path
         style="fill:#666666"
         d="m -46.391766,59.131425 0,0.677156 c 0,1.311981 1.115,2.368196 2.5,2.368196 l 39,0 c 1.385,0 2.5,-1.056215 2.5,-2.368196 l 0,-0.677156 c 0,1.491744 -1.267028,2.693823 -2.841797,2.693823 l -38.316406,0 c -1.574769,0 -2.841797,-1.202079 -2.841797,-2.693823 z"
         id="rect11-5"
         inkscape:connector-curvature="0" />
      <path
         d="m -46.416159,4.4076775 0,-0.633985 c 0,-1.228337 1.115,-2.217214 2.5,-2.217214 l 39.0000013,0 c 1.385,0 2.5,0.988877 2.5,2.217214 l 0,0.633985 c 0,-1.39664 -1.267028,-2.522082 -2.841797,-2.522082 l -38.3164073,0 c -1.574769,0 -2.841797,1.125442 -2.841797,2.522082 z"
         id="rect11-1"
         inkscape:connector-curvature="0"
         style="fill:#e6e6e6" />
    </g>
  </g>
</svg>
