<?xml version="1.0" encoding="UTF-8" standalone="no"?>
<svg
   xmlns:dc="http://purl.org/dc/elements/1.1/"
   xmlns:cc="http://creativecommons.org/ns#"
   xmlns:rdf="http://www.w3.org/1999/02/22-rdf-syntax-ns#"
   xmlns:svg="http://www.w3.org/2000/svg"
   xmlns="http://www.w3.org/2000/svg"
   xmlns:sodipodi="http://sodipodi.sourceforge.net/DTD/sodipodi-0.dtd"
   xmlns:inkscape="http://www.inkscape.org/namespaces/inkscape"
   height="64"
   viewBox="0 0 64 64"
   width="64"
   id="svg2"
   version="1.1"
   inkscape:version="0.91 r13725"
   sodipodi:docname="application-x-sqlite.svg">
  <metadata
     id="metadata31">
    <rdf:RDF>
      <cc:Work
         rdf:about="">
        <dc:format>image/svg+xml</dc:format>
        <dc:type
           rdf:resource="http://purl.org/dc/dcmitype/StillImage" />
      </cc:Work>
    </rdf:RDF>
  </metadata>
  <defs
     id="defs29" />
  <sodipodi:namedview
     pagecolor="#ffffff"
     bordercolor="#666666"
     borderopacity="1"
     objecttolerance="10"
     gridtolerance="10"
     guidetolerance="10"
     inkscape:pageopacity="0"
     inkscape:pageshadow="2"
     inkscape:window-width="3798"
     inkscape:window-height="2046"
     id="namedview27"
     showgrid="false"
     inkscape:zoom="14.75"
     inkscape:cx="27.421214"
     inkscape:cy="17.070575"
     inkscape:window-x="19"
     inkscape:window-y="55"
     inkscape:window-maximized="0"
     inkscape:current-layer="svg2" />
  <linearGradient
     id="a"
     gradientTransform="matrix(1.0749904,0,0,1.1732614,113.08072,-0.4244026)"
     gradientUnits="userSpaceOnUse"
     x1="-74.929466"
     x2="-75.259552"
     y1="52.199436"
     y2="2.356489">
    <stop
       offset="0"
       stop-color="#8cbdf8"
       id="stop5" />
    <stop
       offset="1"
       stop-color="#d5e8ff"
       id="stop7" />
  </linearGradient>
  <rect
     style="fill:url(#a)"
     id="rect13"
     y="1.468998"
     x="10"
     width="44"
     ry="2.8496873"
     height="60.221542" />
  <path
     style="fill:#3f546c"
     inkscape:connector-curvature="0"
     id="path25"
     d="m 19.928547,27.711041 c 0.339597,0.360045 0.839958,0.360045 1.004425,0.360045 0.304959,0 0.682015,-0.0505 1.222302,-0.163849 0.424386,-0.08902 0.789807,-0.177775 1.112041,-0.255953 0.633891,-0.153978 1.092034,-0.265297 1.523296,-0.265297 0.243085,0 0.686597,0.105329 1.156286,0.216909 0.731284,0.173721 1.641312,0.389836 2.52155,0.389836 0.888698,0 1.824111,-0.0691 2.413492,-0.122425 0.195755,0.73384 0.661478,1.943979 1.718609,2.810203 1.437271,1.177528 2.502865,1.702833 2.54755,1.724603 0.272964,0.133089 0.601192,0.06337 0.796241,-0.169402 0.195051,-0.232597 0.206685,-0.568052 0.02812,-0.813517 -0.006,-0.0084 -0.724233,-1.023815 -0.696646,-2.16503 0.0109,-0.454001 0.02741,-0.809727 0.04425,-1.080665 0.895221,0.263887 2.419486,0.853796 3.205768,1.964252 1.191101,1.681943 1.67974,4.271448 1.548854,5.120925 -0.136261,0.885085 -0.152567,0.885085 -0.572546,0.885085 -0.915052,0 -1.683795,0.03746 -2.549665,0.508823 -0.765923,0.416806 -1.187753,0.872834 -1.233233,0.923513 -0.171781,0.19082 -0.217525,0.463872 -0.117311,0.700171 0.100218,0.236475 0.328226,0.39345 0.584797,0.402616 0.247493,0.0092 0.996404,0.07165 1.477728,0.246346 0.2556,0.09282 0.475771,0.201396 0.688713,0.306458 0.340654,0.16808 0.662447,0.326816 1.037828,0.371151 0.122071,0.01446 0.247404,0.02151 0.366039,0.0193 0.138377,0.32144 0.373883,0.704578 0.769976,1.008567 0.303196,0.232773 0.61168,0.37635 0.883851,0.502918 0.334221,0.155563 0.598283,0.278428 0.801002,0.529798 0.531298,0.658834 0.709602,1.373196 0.711275,1.380335 0.06945,0.285303 0.319238,0.492077 0.612563,0.505385 0.01011,5.29e-4 0.02035,7.05e-4 0.0305,7.05e-4 0.281249,0 0.53359,-0.177334 0.625342,-0.445627 0.04134,-0.120485 0.389748,-1.22477 -0.07395,-2.841139 -0.165788,-0.577835 -0.422623,-1.07802 -0.670909,-1.5619 -0.404025,-0.786986 -0.752966,-1.466621 -0.606568,-2.29944 0.688185,-3.914312 0.640677,-7.096987 -0.14111,-9.459271 -1.215603,-3.673958 -4.158366,-5.720971 -4.735936,-6.093884 -0.286538,-0.185178 -0.544431,-0.348059 -0.76178,-0.483438 0.201572,-0.160589 0.45779,-0.329286 0.762397,-0.45876 0.693295,-0.294735 0.984681,-0.375294 1.065416,-0.394508 0.0052,1.76e-4 0.01022,1.76e-4 0.01524,1.76e-4 0.287772,8.9e-5 0.508998,-0.189938 0.593172,-0.47057 0.08743,-0.291386 -0.075,-0.604188 -0.336866,-0.758871 -0.04979,-0.02953 -1.240811,-0.721941 -2.810467,-0.721941 -0.323908,0 -0.645701,0.0297 -0.956389,0.08831 -0.968023,0.18271 -1.652152,0.455675 -2.313719,0.719561 -0.645966,0.257717 -1.256148,0.501154 -2.167145,0.693032 -0.442543,0.09325 -0.850095,0.165171 -1.244161,0.234801 -1.355832,0.239384 -2.526749,0.446156 -4.277441,1.340143 -2.284898,1.166952 -3.569691,2.443723 -3.617815,3.594898 -0.01011,0.242645 -0.0048,0.459465 0.01595,0.65002 -0.213824,0.106912 -0.473656,0.242028 -0.736132,0.391334 -1.068502,0.607715 -1.516596,1.06286 -1.546475,1.570802 -0.02071,0.353435 0.07403,0.644203 0.281689,0.864461 z" />
  <g
     transform="translate(56.391766,-0.17677748)"
     id="g4364">
    <g
       id="g4274">
      <path
         style="color:#000000;display:inline;overflow:visible;visibility:visible;opacity:0.185;fill:#ffffff;fill-opacity:1;fill-rule:nonzero;stroke:none;stroke-width:0.26458332;marker:none;enable-background:accumulate"
         d="m -24.211872,1.2694285 0,61.1690735 12.371744,0 c 10.5678581,0 9.8115271,0.439894 9.8115271,-10.648116 l 0,-19.936427 0,-19.936427 c 0,-10.700833 0.8143853,-10.6481035 -9.8115271,-10.6481035 z"
         id="path4231"
         inkscape:connector-curvature="0"
         sodipodi:nodetypes="ccsscssc" />
      <path
         inkscape:connector-curvature="0"
         style="color:#000000;display:inline;overflow:visible;visibility:visible;opacity:0.185;fill:#ffffff;fill-opacity:1;fill-rule:nonzero;stroke:none;stroke-width:0.26458332;marker:none;enable-background:accumulate"
         d="m -46.395136,31.853959 0,19.936427 c -1.236828,11.502216 0.0059,10.648116 9.81153,10.648116 l 24.743478,0 c 10.394983,0 9.811527,0.741004 9.811527,-10.648116 l 0,-19.936427 z"
         id="path4255"
         sodipodi:nodetypes="ccssscc" />
      <path
         style="color:#000000;display:inline;overflow:visible;visibility:visible;opacity:0.185;fill:#ffffff;fill-opacity:1;fill-rule:nonzero;stroke:none;stroke-width:2.11666656;stroke-linecap:butt;stroke-linejoin:miter;stroke-miterlimit:4;stroke-dasharray:none;stroke-dashoffset:0;stroke-opacity:1;marker:none;enable-background:accumulate"
         d="m -17.153556,62.438502 15.1249551,-16.384574 0,6.139813 c 0.9120172,11.193544 0.095941,10.244761 -9.6230261,10.244761 z"
         id="path4254"
         inkscape:connector-curvature="0"
         sodipodi:nodetypes="cccsc" />
    </g>
    <g
       id="g4319">
      <path
         style="fill:#666666"
         d="m -46.391766,59.131425 0,0.677156 c 0,1.311981 1.115,2.368196 2.5,2.368196 l 39,0 c 1.385,0 2.5,-1.056215 2.5,-2.368196 l 0,-0.677156 c 0,1.491744 -1.267028,2.693823 -2.841797,2.693823 l -38.316406,0 c -1.574769,0 -2.841797,-1.202079 -2.841797,-2.693823 z"
         id="rect11-5"
         inkscape:connector-curvature="0" />
      <path
         d="m -46.416159,4.4076775 0,-0.633985 c 0,-1.228337 1.115,-2.217214 2.5,-2.217214 l 39.0000013,0 c 1.385,0 2.5,0.988877 2.5,2.217214 l 0,0.633985 c 0,-1.39664 -1.267028,-2.522082 -2.841797,-2.522082 l -38.3164073,0 c -1.574769,0 -2.841797,1.125442 -2.841797,2.522082 z"
         id="rect11-1"
         inkscape:connector-curvature="0"
         style="fill:#e6e6e6" />
    </g>
  </g>
</svg>
