<?xml version="1.0" encoding="UTF-8" standalone="no"?>
<svg
   xmlns:dc="http://purl.org/dc/elements/1.1/"
   xmlns:cc="http://creativecommons.org/ns#"
   xmlns:rdf="http://www.w3.org/1999/02/22-rdf-syntax-ns#"
   xmlns:svg="http://www.w3.org/2000/svg"
   xmlns="http://www.w3.org/2000/svg"
   xmlns:sodipodi="http://sodipodi.sourceforge.net/DTD/sodipodi-0.dtd"
   xmlns:inkscape="http://www.inkscape.org/namespaces/inkscape"
   height="64"
   viewBox="0 0 64 64"
   width="64"
   id="svg2"
   version="1.1"
   inkscape:version="0.91 r13725"
   sodipodi:docname="application-database.svg">
  <metadata
     id="metadata41">
    <rdf:RDF>
      <cc:Work
         rdf:about="">
        <dc:format>image/svg+xml</dc:format>
        <dc:type
           rdf:resource="http://purl.org/dc/dcmitype/StillImage" />
      </cc:Work>
    </rdf:RDF>
  </metadata>
  <defs
     id="defs39" />
  <sodipodi:namedview
     pagecolor="#ffffff"
     bordercolor="#666666"
     borderopacity="1"
     objecttolerance="10"
     gridtolerance="10"
     guidetolerance="10"
     inkscape:pageopacity="0"
     inkscape:pageshadow="2"
     inkscape:window-width="3798"
     inkscape:window-height="2046"
     id="namedview37"
     showgrid="false"
     inkscape:zoom="20.85965"
     inkscape:cx="35.891033"
     inkscape:cy="38.933942"
     inkscape:window-x="19"
     inkscape:window-y="1105"
     inkscape:window-maximized="0"
     inkscape:current-layer="svg2" />
  <linearGradient
     id="a"
     gradientTransform="matrix(1.0749904,0,0,1.1759239,113.08072,-0.42869934)"
     gradientUnits="userSpaceOnUse"
     x1="-74.929466"
     x2="-75.259552"
     y1="52.199436"
     y2="2.356489">
    <stop
       offset="0"
       stop-color="#8549a0"
       id="stop5" />
    <stop
       offset="1"
       stop-color="#c16fe3"
       id="stop7" />
  </linearGradient>
  <rect
     style="fill:url(#a)"
     id="rect13"
     y="1.468998"
     x="10"
     width="44"
     ry="2.8561542"
     height="60.358204" />
  <g
     id="g27"
     transform="matrix(0.86557709,0,0,0.86557709,12.551931,-855.85861)">
    <path
       style="fill:#3d2248;fill-rule:evenodd"
       inkscape:connector-curvature="0"
       id="path29"
       d="m 11.447345,1036.9442 11.636697,0 -3.21e-4,-24.4983 -11.533282,3e-4 c -1.268259,-0.094 -1.7825661,0.023 -1.7825661,1.1721 l 0,22.0916 c -0.07966,1.261 0.4462081,1.2343 1.6794721,1.2343 z" />
    <path
       style="fill:none;stroke:#3d2248;stroke-width:0.81170797"
       inkscape:connector-curvature="0"
       id="path31"
       d="m 33.843953,1036.9367 -5.282394,0 -2.708421,-2.2737 0,-19.9506 1.855796,-2.2737 6.135019,0 c 0.848365,-0.094 0.916631,0.023 0.916631,1.1721 l 0,22.0916 c 0.05328,1.261 -0.09168,1.2343 -0.916631,1.2343 z" />
    <path
       style="fill:#3d2248;fill-rule:evenodd"
       inkscape:connector-curvature="0"
       id="path33"
       d="m 31.841628,1038.1035 -10.029586,-1.1715 -2e-5,-24.4861 9.945926,-0.9324 c 1.230149,-0.094 1.296492,0.2446 1.296492,1.3937 l -0.08368,23.3688 c 0.07726,1.261 0.06707,1.8275 -1.129132,1.8275 z" />
    <path
       style="fill:#a35cc1"
       inkscape:connector-curvature="0"
       id="path35"
       transform="matrix(1.0005486,0,0,1.0005486,-46.689623,-4.9179975)"
       d="m 74.319489,1024.9433 c 0.0389,-0.1073 0.06639,-0.2164 0.06639,-0.3323 3e-6,-1.4221 -3.072802,-2.1892 -5.964686,-2.1892 -2.889022,0 -5.961006,0.7671 -5.961006,2.1892 0,0.1167 0.02697,0.226 0.06629,0.3333 l -0.01539,0.028 c -0.132182,0.2397 -0.197528,0.4817 -0.197528,0.7199 l 0,1.7595 c 0,0.271 0.08523,0.531 0.236377,0.7769 l -0.01974,0.034 c -0.144118,0.25 -0.216512,0.5031 -0.216512,0.7534 l 0,1.759 c 0,0.2623 0.08045,0.5141 0.223376,0.7532 l -0.0072,0.015 c -0.144118,0.2495 -0.216512,0.5031 -0.216512,0.7528 l 0,1.7593 c 0,1.5639 2.682906,2.7884 6.107666,2.7884 3.428455,0 6.111351,-1.2245 6.111351,-2.7884 l 0,-1.7593 c 0,-0.2501 -0.0725,-0.5041 -0.218305,-0.7532 l -0.006,-0.015 c 0.141834,-0.2395 0.224281,-0.4911 0.224281,-0.754 l 0,-1.7593 c 0,-0.2502 -0.0725,-0.5044 -0.218304,-0.7539 l -0.01894,-0.033 c 0.151002,-0.2462 0.237202,-0.5059 0.237202,-0.7777 l 0,-1.7594 c 0,-0.2381 -0.06639,-0.4808 -0.197532,-0.7207 l -0.01557,-0.028 z m -0.441599,9.1067 c 0,1.0102 -2.239507,2.1343 -5.4566,2.1343 -3.214062,0 -5.453974,-1.1241 -5.453974,-2.1343 l 0,-1.6546 c 1.003035,0.9185 3.066596,1.5047 5.453974,1.5047 2.390657,0 4.454136,-0.5864 5.4566,-1.5057 z m 0,-3.2759 c 0,1.0092 -2.239507,2.1341 -5.4566,2.1341 -3.214062,0 -5.453974,-1.1249 -5.453974,-2.1341 l 0,-1.6551 c 1.003035,0.9182 3.066596,1.5047 5.453974,1.5047 2.390657,0 4.454136,-0.5865 5.4566,-1.5057 z m 0,-3.3235 c 0,1.0093 -2.239507,2.1342 -5.4566,2.1342 -3.214062,0 -5.453974,-1.1243 -5.453974,-2.1342 l 0,-1.4641 c 0.980215,0.8308 3.253079,1.2615 5.453974,1.2615 2.203835,0 4.475734,-0.4307 5.4566,-1.2615 z" />
  </g>
  <g
     transform="translate(56.391766,-0.17677748)"
     id="g4364">
    <g
       id="g4274">
      <path
         style="color:#000000;display:inline;overflow:visible;visibility:visible;opacity:0.07999998;fill:#ffffff;fill-opacity:1;fill-rule:nonzero;stroke:none;stroke-width:0.26458332;marker:none;enable-background:accumulate"
         d="m -24.211872,1.2694285 0,61.1690735 12.371744,0 c 10.5678581,0 9.8115271,0.439894 9.8115271,-10.648116 l 0,-19.936427 0,-19.936427 c 0,-10.700833 0.8143853,-10.6481035 -9.8115271,-10.6481035 z"
         id="path4231"
         inkscape:connector-curvature="0"
         sodipodi:nodetypes="ccsscssc" />
      <path
         inkscape:connector-curvature="0"
         style="color:#000000;display:inline;overflow:visible;visibility:visible;opacity:0.07999998;fill:#ffffff;fill-opacity:1;fill-rule:nonzero;stroke:none;stroke-width:0.26458332;marker:none;enable-background:accumulate"
         d="m -46.395136,31.853959 0,19.936427 c -1.236828,11.502216 0.0059,10.648116 9.81153,10.648116 l 24.743478,0 c 10.394983,0 9.811527,0.741004 9.811527,-10.648116 l 0,-19.936427 z"
         id="path4255"
         sodipodi:nodetypes="ccssscc" />
      <path
         style="color:#000000;display:inline;overflow:visible;visibility:visible;opacity:0.07999998;fill:#ffffff;fill-opacity:1;fill-rule:nonzero;stroke:none;stroke-width:2.11666656;stroke-linecap:butt;stroke-linejoin:miter;stroke-miterlimit:4;stroke-dasharray:none;stroke-dashoffset:0;stroke-opacity:1;marker:none;enable-background:accumulate"
         d="m -17.153556,62.438502 15.1249551,-16.384574 0,6.139813 c 0.9120172,11.193544 0.095941,10.244761 -9.6230261,10.244761 z"
         id="path4254"
         inkscape:connector-curvature="0"
         sodipodi:nodetypes="cccsc" />
    </g>
    <g
       id="g4319">
      <path
         style="fill:#666666"
         d="m -46.391766,59.131425 0,0.677156 c 0,1.311981 1.115,2.368196 2.5,2.368196 l 39,0 c 1.385,0 2.5,-1.056215 2.5,-2.368196 l 0,-0.677156 c 0,1.491744 -1.267028,2.693823 -2.841797,2.693823 l -38.316406,0 c -1.574769,0 -2.841797,-1.202079 -2.841797,-2.693823 z"
         id="rect11"
         inkscape:connector-curvature="0" />
      <path
         d="m -46.416159,4.4076775 0,-0.633985 c 0,-1.228337 1.115,-2.217214 2.5,-2.217214 l 39.0000013,0 c 1.385,0 2.5,0.988877 2.5,2.217214 l 0,0.633985 c 0,-1.39664 -1.267028,-2.522082 -2.841797,-2.522082 l -38.3164073,0 c -1.574769,0 -2.841797,1.125442 -2.841797,2.522082 z"
         id="rect11-1"
         inkscape:connector-curvature="0"
         style="fill:#ffffff" />
    </g>
  </g>
</svg>
