<?xml version="1.0" encoding="UTF-8" standalone="no"?>
<svg
   xmlns:dc="http://purl.org/dc/elements/1.1/"
   xmlns:cc="http://creativecommons.org/ns#"
   xmlns:rdf="http://www.w3.org/1999/02/22-rdf-syntax-ns#"
   xmlns:svg="http://www.w3.org/2000/svg"
   xmlns="http://www.w3.org/2000/svg"
   xmlns:sodipodi="http://sodipodi.sourceforge.net/DTD/sodipodi-0.dtd"
   xmlns:inkscape="http://www.inkscape.org/namespaces/inkscape"
   height="64"
   viewBox="0 0 64 64"
   width="64"
   id="svg2"
   version="1.1"
   inkscape:version="0.91 r13725"
   sodipodi:docname="application-vnd-google-earth-kml.svg">
  <metadata
     id="metadata39">
    <rdf:RDF>
      <cc:Work
         rdf:about="">
        <dc:format>image/svg+xml</dc:format>
        <dc:type
           rdf:resource="http://purl.org/dc/dcmitype/StillImage" />
      </cc:Work>
    </rdf:RDF>
  </metadata>
  <defs
     id="defs37" />
  <sodipodi:namedview
     pagecolor="#ffffff"
     bordercolor="#666666"
     borderopacity="1"
     objecttolerance="10"
     gridtolerance="10"
     guidetolerance="10"
     inkscape:pageopacity="0"
     inkscape:pageshadow="2"
     inkscape:window-width="3798"
     inkscape:window-height="2046"
     id="namedview35"
     showgrid="false"
     inkscape:zoom="14.75"
     inkscape:cx="26.12943"
     inkscape:cy="22.237714"
     inkscape:window-x="19"
     inkscape:window-y="55"
     inkscape:window-maximized="0"
     inkscape:current-layer="svg2" />
  <linearGradient
     id="a"
     gradientTransform="matrix(1.0749904,0,0,1.1745822,113.08072,-0.42653417)"
     gradientUnits="userSpaceOnUse"
     x1="-74.929466"
     x2="-75.259552"
     y1="52.199436"
     y2="2.356489">
    <stop
       offset="0"
       stop-color="#197cf1"
       id="stop5" />
    <stop
       offset="1"
       stop-color="#20bcfa"
       id="stop7" />
  </linearGradient>
  <rect
     style="fill:url(#a)"
     id="rect13"
     y="1.468998"
     x="10"
     width="44"
     ry="2.8528955"
     height="60.289337" />
  <g
     id="g25"
     transform="matrix(0.47144465,0,0,0.47144465,-185.91419,-216.03093)">
    <rect
       style="fill:#0b3969;stroke:#0b3969;stroke-width:2.75748205"
       id="rect27"
       y="500.65457"
       x="438.89392"
       width="46.665073"
       ry="23.332527"
       height="46.665051" />
    <path
       style="fill:#1ea8f7"
       inkscape:connector-curvature="0"
       id="path29"
       d="m 462.49862,500.44237 c -2.96354,0 -5.7986,0.5628 -8.41097,1.58759 1.00273,-0.14096 2.20328,-0.22817 3.64406,-0.22817 8.21723,0 12.87687,3.66749 16.26357,7.55521 2.26018,2.5946 6.18546,10.32632 9.10046,10.32632 0.84815,-0.0753 1.5146,-0.74977 2.03891,-1.78251 -2.83139,-10.08267 -11.89331,-17.45844 -22.63603,-17.45844 z" />
    <path
       style="fill:#1da3f6"
       inkscape:connector-curvature="0"
       id="path31"
       d="m 447.84343,513.00865 c 7.89577,0 21.78969,17.29112 36.54986,19.04728 0.37657,-1.20967 0.66472,-2.46054 0.8537,-3.74467 -6.71062,-1.51083 -15.14665,-9.60437 -18.18084,-12.65343 -4.7428,-4.76652 -9.16953,-9.55083 -15.24337,-9.55083 -2.07203,0 -3.97389,0.36851 -5.61957,0.88007 -3.04795,2.93947 -5.33467,6.71069 -6.52022,10.96483 2.43585,-2.51659 5.21953,-4.94325 8.16044,-4.94325 z" />
    <path
       style="fill:#1b92f4;fill-rule:evenodd"
       inkscape:connector-curvature="0"
       id="path33"
       transform="matrix(1.533532e-4,0,0,1.5576713e-4,416.46258,514.64068)"
       d="m 358692.37,157585.85 c -89517.76,0 -157157.12,-48501.42 -181206.69,-48501.42 -9806.87,0 -15465.19,6884.85 -18729.25,15038.46 15450.51,32921.89 42088.06,59495.99 74990.51,74776.13 -4638.89,-11978.68 -7436.64,-27830.76 10263.82,-27830.76 15642.89,0 31231,13537.44 88960.61,13537.44 26359.63,0 50636.33,-5526.15 68485.1,-11126.13 9448.8,-8525.53 17848.78,-18201.65 24972.78,-28814.89 -17051.12,6100.77 -41883.61,12921.17 -67736.88,12921.17 z" />
  </g>
  <g
     transform="translate(56.391766,-0.17677748)"
     id="g4364">
    <g
       id="g4274">
      <path
         style="color:#000000;display:inline;overflow:visible;visibility:visible;opacity:0.07999998;fill:#ffffff;fill-opacity:1;fill-rule:nonzero;stroke:none;stroke-width:0.26458332;marker:none;enable-background:accumulate"
         d="m -24.211872,1.2694285 0,61.1690735 12.371744,0 c 10.5678581,0 9.8115271,0.439894 9.8115271,-10.648116 l 0,-19.936427 0,-19.936427 c 0,-10.700833 0.8143853,-10.6481035 -9.8115271,-10.6481035 z"
         id="path4231"
         inkscape:connector-curvature="0"
         sodipodi:nodetypes="ccsscssc" />
      <path
         inkscape:connector-curvature="0"
         style="color:#000000;display:inline;overflow:visible;visibility:visible;opacity:0.07999998;fill:#ffffff;fill-opacity:1;fill-rule:nonzero;stroke:none;stroke-width:0.26458332;marker:none;enable-background:accumulate"
         d="m -46.395136,31.853959 0,19.936427 c -1.236828,11.502216 0.0059,10.648116 9.81153,10.648116 l 24.743478,0 c 10.394983,0 9.811527,0.741004 9.811527,-10.648116 l 0,-19.936427 z"
         id="path4255"
         sodipodi:nodetypes="ccssscc" />
      <path
         style="color:#000000;display:inline;overflow:visible;visibility:visible;opacity:0.07999998;fill:#ffffff;fill-opacity:1;fill-rule:nonzero;stroke:none;stroke-width:2.11666656;stroke-linecap:butt;stroke-linejoin:miter;stroke-miterlimit:4;stroke-dasharray:none;stroke-dashoffset:0;stroke-opacity:1;marker:none;enable-background:accumulate"
         d="m -17.153556,62.438502 15.1249551,-16.384574 0,6.139813 c 0.9120172,11.193544 0.095941,10.244761 -9.6230261,10.244761 z"
         id="path4254"
         inkscape:connector-curvature="0"
         sodipodi:nodetypes="cccsc" />
    </g>
    <g
       id="g4319">
      <path
         style="fill:#666666"
         d="m -46.391766,59.131425 0,0.677156 c 0,1.311981 1.115,2.368196 2.5,2.368196 l 39,0 c 1.385,0 2.5,-1.056215 2.5,-2.368196 l 0,-0.677156 c 0,1.491744 -1.267028,2.693823 -2.841797,2.693823 l -38.316406,0 c -1.574769,0 -2.841797,-1.202079 -2.841797,-2.693823 z"
         id="rect11-5"
         inkscape:connector-curvature="0" />
      <path
         d="m -46.416159,4.4076775 0,-0.633985 c 0,-1.228337 1.115,-2.217214 2.5,-2.217214 l 39.0000013,0 c 1.385,0 2.5,0.988877 2.5,2.217214 l 0,0.633985 c 0,-1.39664 -1.267028,-2.522082 -2.841797,-2.522082 l -38.3164073,0 c -1.574769,0 -2.841797,1.125442 -2.841797,2.522082 z"
         id="rect11-1"
         inkscape:connector-curvature="0"
         style="fill:#e6e6e6" />
    </g>
  </g>
</svg>
