<?xml version="1.0" encoding="UTF-8" standalone="no"?>
<svg
   xmlns:dc="http://purl.org/dc/elements/1.1/"
   xmlns:cc="http://creativecommons.org/ns#"
   xmlns:rdf="http://www.w3.org/1999/02/22-rdf-syntax-ns#"
   xmlns:svg="http://www.w3.org/2000/svg"
   xmlns="http://www.w3.org/2000/svg"
   xmlns:sodipodi="http://sodipodi.sourceforge.net/DTD/sodipodi-0.dtd"
   xmlns:inkscape="http://www.inkscape.org/namespaces/inkscape"
   height="64"
   viewBox="0 0 64 64"
   width="64"
   id="svg2"
   version="1.1"
   inkscape:version="0.91 r13725"
   sodipodi:docname="application-rss.svg">
  <metadata
     id="metadata37">
    <rdf:RDF>
      <cc:Work
         rdf:about="">
        <dc:format>image/svg+xml</dc:format>
        <dc:type
           rdf:resource="http://purl.org/dc/dcmitype/StillImage" />
      </cc:Work>
    </rdf:RDF>
  </metadata>
  <defs
     id="defs35" />
  <sodipodi:namedview
     pagecolor="#ffffff"
     bordercolor="#666666"
     borderopacity="1"
     objecttolerance="10"
     gridtolerance="10"
     guidetolerance="10"
     inkscape:pageopacity="0"
     inkscape:pageshadow="2"
     inkscape:window-width="3798"
     inkscape:window-height="2046"
     id="namedview33"
     showgrid="false"
     inkscape:zoom="10.429825"
     inkscape:cx="35.562592"
     inkscape:cy="31.250305"
     inkscape:window-x="19"
     inkscape:window-y="55"
     inkscape:window-maximized="0"
     inkscape:current-layer="svg2" />
  <linearGradient
     id="a"
     gradientTransform="matrix(1.0749904,0,0,1.1787258,113.08072,-0.43322107)"
     gradientUnits="userSpaceOnUse"
     x1="-74.929466"
     x2="-75.259552"
     y1="52.199436"
     y2="2.356489">
    <stop
       offset="0"
       stop-color="#ff721a"
       id="stop5" />
    <stop
       offset="1"
       stop-color="#fbb521"
       id="stop7" />
  </linearGradient>
  <linearGradient
     gradientUnits="userSpaceOnUse"
     x1="283.0882"
     x2="276.28381"
     y1="773.44452"
     y2="-9.985648"
     id="linearGradient9">
    <stop
       offset="0"
       stop-color="#d3d3d3"
       id="stop11" />
    <stop
       offset="1"
       stop-color="#fcf9f9"
       id="stop13" />
  </linearGradient>
  <rect
     style="fill:url(#a)"
     id="rect19"
     y="1.468998"
     x="10"
     width="44"
     ry="2.8629596"
     height="60.502022" />
  <path
     style="fill:#692c0b"
     inkscape:connector-curvature="0"
     id="path31"
     d="m 23.094073,20.000161 c 1.829308,0 3.590419,0.236686 5.283332,0.71006 1.692913,0.473374 3.277511,1.143318 4.753756,2.009833 1.476323,0.866514 2.820223,1.905529 4.031857,3.117045 1.211476,1.211516 2.250492,2.555416 3.117046,4.0317 0.866396,1.476402 1.53634,3.060961 2.009832,4.753913 0.473413,1.692873 0.7101,3.453866 0.7101,5.283332 0,0.577676 -0.204554,1.070951 -0.613742,1.480257 -0.409187,0.409305 -0.90258,0.613702 -1.480256,0.613702 -0.577716,0 -1.071109,-0.204476 -1.480414,-0.613702 -0.409109,-0.409188 -0.613703,-0.902581 -0.613703,-1.480257 0,-1.444309 -0.188586,-2.83627 -0.56568,-4.176276 -0.377095,-1.339731 -0.906749,-2.591481 -1.588729,-3.754857 -0.681979,-1.163416 -1.500235,-2.222489 -2.455124,-3.17726 -0.95481,-0.954771 -2.013805,-1.773146 -3.17722,-2.455125 -1.163376,-0.681979 -2.415009,-1.211515 -3.754897,-1.58861 -1.339888,-0.377094 -2.731927,-0.565641 -4.176118,-0.565641 -0.577677,0 -1.071109,-0.204594 -1.480296,-0.613781 -0.409188,-0.409188 -0.613781,-0.902619 -0.613781,-1.480296 0,-0.577676 0.204593,-1.071108 0.613781,-1.480296 0.409148,-0.409148 0.90258,-0.613741 1.480256,-0.613741 z m 0,7.91898 c 1.652797,0 3.205301,0.31692 4.657516,0.950759 1.452214,0.633839 2.719893,1.492331 3.803036,2.575474 1.083183,1.083182 1.941674,2.350783 2.575474,3.802918 0.633879,1.452372 0.950759,3.00472 0.950759,4.657673 0,0.577677 -0.204554,1.070951 -0.613703,1.480257 -0.409187,0.409187 -0.90258,0.613702 -1.480413,0.613702 -0.577677,0 -1.071069,-0.204475 -1.480257,-0.613702 -0.409187,-0.409188 -0.613781,-0.90258 -0.613781,-1.480257 0,-1.075198 -0.204594,-2.086093 -0.613781,-3.03284 -0.409187,-0.946747 -0.966806,-1.773146 -1.672855,-2.479155 -0.706049,-0.706088 -1.532447,-1.263707 -2.479194,-1.672894 -0.946748,-0.409109 -1.957681,-0.613703 -3.032801,-0.613703 -0.577676,0 -1.071108,-0.204554 -1.480296,-0.613741 -0.409187,-0.409227 -0.613781,-0.902659 -0.613781,-1.480336 0,-0.577676 0.204594,-1.071108 0.613781,-1.480295 0.409188,-0.409266 0.90262,-0.61386 1.480296,-0.61386 z m 3.851176,10.999882 c 0,0.41725 -0.07622,0.802328 -0.228664,1.155392 -0.152442,0.353142 -0.361048,0.661921 -0.625816,0.926729 -0.264768,0.26465 -0.577676,0.473334 -0.938724,0.625816 -0.361047,0.152403 -0.742153,0.228545 -1.143317,0.228545 -0.417211,0 -0.802329,-0.07622 -1.155353,-0.228545 -0.353025,-0.152403 -0.661921,-0.361205 -0.92669,-0.625816 -0.264768,-0.264769 -0.473373,-0.573665 -0.625816,-0.926729 -0.152442,-0.353064 -0.228663,-0.738142 -0.228663,-1.155392 0,-0.401046 0.07622,-0.782231 0.228663,-1.143161 0.152443,-0.361205 0.361048,-0.674073 0.625816,-0.938763 0.264769,-0.264768 0.573665,-0.473334 0.92669,-0.625816 0.353024,-0.152403 0.738142,-0.228664 1.155353,-0.228664 0.401164,0 0.78227,0.07626 1.143317,0.228664 0.361048,0.152482 0.673956,0.361048 0.938724,0.625816 0.264768,0.26469 0.473374,0.577676 0.625816,0.938763 0.152443,0.360969 0.228664,0.742036 0.228664,1.143161 z" />
  <g
     transform="translate(56.391766,-0.17677748)"
     id="g4364">
    <g
       id="g4274">
      <path
         style="color:#000000;display:inline;overflow:visible;visibility:visible;opacity:0.07999998;fill:#ffffff;fill-opacity:1;fill-rule:nonzero;stroke:none;stroke-width:0.26458332;marker:none;enable-background:accumulate"
         d="m -24.211872,1.2694285 0,61.1690735 12.371744,0 c 10.5678581,0 9.8115271,0.439894 9.8115271,-10.648116 l 0,-19.936427 0,-19.936427 c 0,-10.700833 0.8143853,-10.6481035 -9.8115271,-10.6481035 z"
         id="path4231"
         inkscape:connector-curvature="0"
         sodipodi:nodetypes="ccsscssc" />
      <path
         inkscape:connector-curvature="0"
         style="color:#000000;display:inline;overflow:visible;visibility:visible;opacity:0.07999998;fill:#ffffff;fill-opacity:1;fill-rule:nonzero;stroke:none;stroke-width:0.26458332;marker:none;enable-background:accumulate"
         d="m -46.395136,31.853959 0,19.936427 c -1.236828,11.502216 0.0059,10.648116 9.81153,10.648116 l 24.743478,0 c 10.394983,0 9.811527,0.741004 9.811527,-10.648116 l 0,-19.936427 z"
         id="path4255"
         sodipodi:nodetypes="ccssscc" />
      <path
         style="color:#000000;display:inline;overflow:visible;visibility:visible;opacity:0.07999998;fill:#ffffff;fill-opacity:1;fill-rule:nonzero;stroke:none;stroke-width:2.11666656;stroke-linecap:butt;stroke-linejoin:miter;stroke-miterlimit:4;stroke-dasharray:none;stroke-dashoffset:0;stroke-opacity:1;marker:none;enable-background:accumulate"
         d="m -17.153556,62.438502 15.1249551,-16.384574 0,6.139813 c 0.9120172,11.193544 0.095941,10.244761 -9.6230261,10.244761 z"
         id="path4254"
         inkscape:connector-curvature="0"
         sodipodi:nodetypes="cccsc" />
    </g>
    <g
       id="g4319">
      <path
         style="fill:#666666"
         d="m -46.391766,59.131425 0,0.677156 c 0,1.311981 1.115,2.368196 2.5,2.368196 l 39,0 c 1.385,0 2.5,-1.056215 2.5,-2.368196 l 0,-0.677156 c 0,1.491744 -1.267028,2.693823 -2.841797,2.693823 l -38.316406,0 c -1.574769,0 -2.841797,-1.202079 -2.841797,-2.693823 z"
         id="rect11-5"
         inkscape:connector-curvature="0" />
      <path
         d="m -46.416159,4.4076775 0,-0.633985 c 0,-1.228337 1.115,-2.217214 2.5,-2.217214 l 39.0000013,0 c 1.385,0 2.5,0.988877 2.5,2.217214 l 0,0.633985 c 0,-1.39664 -1.267028,-2.522082 -2.841797,-2.522082 l -38.3164073,0 c -1.574769,0 -2.841797,1.125442 -2.841797,2.522082 z"
         id="rect11-1"
         inkscape:connector-curvature="0"
         style="fill:#e6e6e6" />
    </g>
  </g>
</svg>
