<?xml version="1.0" encoding="UTF-8" standalone="no"?>
<svg
   xmlns:dc="http://purl.org/dc/elements/1.1/"
   xmlns:cc="http://creativecommons.org/ns#"
   xmlns:rdf="http://www.w3.org/1999/02/22-rdf-syntax-ns#"
   xmlns:svg="http://www.w3.org/2000/svg"
   xmlns="http://www.w3.org/2000/svg"
   xmlns:sodipodi="http://sodipodi.sourceforge.net/DTD/sodipodi-0.dtd"
   xmlns:inkscape="http://www.inkscape.org/namespaces/inkscape"
   height="64"
   viewBox="0 0 64 64"
   width="64"
   id="svg2"
   version="1.1"
   inkscape:version="0.91 r13725"
   sodipodi:docname="application-sql.svg">
  <metadata
     id="metadata31">
    <rdf:RDF>
      <cc:Work
         rdf:about="">
        <dc:format>image/svg+xml</dc:format>
        <dc:type
           rdf:resource="http://purl.org/dc/dcmitype/StillImage" />
      </cc:Work>
    </rdf:RDF>
  </metadata>
  <defs
     id="defs29" />
  <sodipodi:namedview
     pagecolor="#ffffff"
     bordercolor="#666666"
     borderopacity="1"
     objecttolerance="10"
     gridtolerance="10"
     guidetolerance="10"
     inkscape:pageopacity="0"
     inkscape:pageshadow="2"
     inkscape:window-width="3798"
     inkscape:window-height="2046"
     id="namedview27"
     showgrid="false"
     inkscape:zoom="14.75"
     inkscape:cx="24.921892"
     inkscape:cy="36.419263"
     inkscape:window-x="19"
     inkscape:window-y="55"
     inkscape:window-maximized="0"
     inkscape:current-layer="svg2" />
  <linearGradient
     id="a"
     gradientTransform="matrix(1.0749904,0,0,1.1759031,113.08072,-0.42866573)"
     gradientUnits="userSpaceOnUse"
     x1="-74.929466"
     x2="-75.259552"
     y1="52.199436"
     y2="2.356489">
    <stop
       offset="0"
       stop-color="#8cbdf8"
       id="stop5" />
    <stop
       offset="1"
       stop-color="#d5e8ff"
       id="stop7" />
  </linearGradient>
  <rect
     style="fill:url(#a)"
     id="rect13"
     y="1.468998"
     x="10"
     width="44"
     ry="2.8561037"
     height="60.357136" />
  <path
     style="fill:#3f546c"
     inkscape:connector-curvature="0"
     id="path25"
     d="m 21.25326,28.633662 c 0.30233,0.320534 0.747782,0.320534 0.8942,0.320534 0.271493,0 0.607171,-0.04496 1.088168,-0.145869 0.377814,-0.07925 0.703134,-0.158266 0.990006,-0.227865 0.564328,-0.13708 0.972195,-0.236183 1.35613,-0.236183 0.216409,0 0.611251,0.09377 1.029396,0.193105 0.651034,0.154657 1.461196,0.347056 2.244837,0.347056 0.791173,0 1.623934,-0.06152 2.148637,-0.10899 0.174273,0.653309 0.588888,1.730648 1.53001,2.501813 1.279546,1.048307 2.228202,1.515965 2.267984,1.535346 0.243009,0.118484 0.535217,0.05642 0.708862,-0.150812 0.173646,-0.207072 0.184003,-0.505714 0.02503,-0.724242 -0.0053,-0.0075 -0.644756,-0.911462 -0.620196,-1.927441 0.0097,-0.404179 0.0244,-0.720868 0.03939,-0.962073 0.79698,0.234928 2.153973,0.760101 2.853969,1.748696 1.060391,1.497368 1.495407,3.802702 1.378884,4.558958 -0.121308,0.787956 -0.135824,0.787956 -0.509715,0.787956 -0.814635,0 -1.499017,0.03335 -2.269867,0.452985 -0.681871,0.371066 -1.057409,0.77705 -1.097898,0.822168 -0.15293,0.169879 -0.193654,0.412967 -0.104438,0.623334 0.08922,0.210525 0.292207,0.350273 0.520622,0.358434 0.220333,0.0082 0.887059,0.06379 1.315563,0.219312 0.227551,0.08263 0.42356,0.179295 0.613134,0.272827 0.303271,0.149635 0.589751,0.290952 0.923938,0.330421 0.108675,0.01287 0.220254,0.01915 0.32587,0.01718 0.123191,0.286165 0.332853,0.627258 0.685479,0.897887 0.269924,0.207229 0.544555,0.33505 0.786858,0.447728 0.297544,0.138492 0.532628,0.247874 0.7131,0.471659 0.472994,0.586534 0.631731,1.222502 0.633221,1.228858 0.06183,0.253994 0.284205,0.438076 0.54534,0.449924 0.009,4.71e-4 0.01812,6.28e-4 0.02715,6.28e-4 0.250385,0 0.475034,-0.157874 0.556717,-0.396725 0.0368,-0.107263 0.346977,-1.090364 -0.06583,-2.529354 -0.147595,-0.514424 -0.376245,-0.959719 -0.597284,-1.390498 -0.359688,-0.700623 -0.670336,-1.305675 -0.540004,-2.047101 0.612664,-3.484758 0.57037,-6.318168 -0.125624,-8.421217 -1.082204,-3.27078 -3.70203,-5.093155 -4.216218,-5.425145 -0.255093,-0.164857 -0.484685,-0.309863 -0.678183,-0.430386 0.179452,-0.142966 0.407553,-0.29315 0.678732,-0.408416 0.617214,-0.262391 0.876623,-0.334109 0.948498,-0.351215 0.0046,1.57e-4 0.0091,1.57e-4 0.01357,1.57e-4 0.256192,7.9e-5 0.453141,-0.169094 0.528077,-0.41893 0.07784,-0.259409 -0.06677,-0.537885 -0.299898,-0.675593 -0.04433,-0.02629 -1.104645,-0.642716 -2.502048,-0.642716 -0.288363,0 -0.574843,0.02644 -0.851436,0.07862 -0.861793,0.16266 -1.470846,0.40567 -2.059813,0.640597 -0.575078,0.229435 -1.118299,0.446158 -1.929324,0.616979 -0.393978,0.08302 -0.756806,0.147045 -1.107627,0.209034 -1.207044,0.213114 -2.249466,0.397195 -3.808038,1.193077 -2.034155,1.038891 -3.177955,2.17555 -3.220798,3.200396 -0.009,0.216017 -0.0043,0.409044 0.0142,0.578687 -0.190359,0.09518 -0.421677,0.215468 -0.655349,0.34839 -0.951245,0.541024 -1.350166,0.946222 -1.376766,1.398423 -0.01844,0.314649 0.06591,0.573508 0.250777,0.769595 z" />
  <g
     transform="translate(56.391766,-0.17677748)"
     id="g4364">
    <g
       id="g4274">
      <path
         style="color:#000000;display:inline;overflow:visible;visibility:visible;opacity:0.07999998;fill:#ffffff;fill-opacity:1;fill-rule:nonzero;stroke:none;stroke-width:0.26458332;marker:none;enable-background:accumulate"
         d="m -24.211872,1.2694285 0,61.1690735 12.371744,0 c 10.5678581,0 9.8115271,0.439894 9.8115271,-10.648116 l 0,-19.936427 0,-19.936427 c 0,-10.700833 0.8143853,-10.6481035 -9.8115271,-10.6481035 z"
         id="path4231"
         inkscape:connector-curvature="0"
         sodipodi:nodetypes="ccsscssc" />
      <path
         inkscape:connector-curvature="0"
         style="color:#000000;display:inline;overflow:visible;visibility:visible;opacity:0.07999998;fill:#ffffff;fill-opacity:1;fill-rule:nonzero;stroke:none;stroke-width:0.26458332;marker:none;enable-background:accumulate"
         d="m -46.395136,31.853959 0,19.936427 c -1.236828,11.502216 0.0059,10.648116 9.81153,10.648116 l 24.743478,0 c 10.394983,0 9.811527,0.741004 9.811527,-10.648116 l 0,-19.936427 z"
         id="path4255"
         sodipodi:nodetypes="ccssscc" />
      <path
         style="color:#000000;display:inline;overflow:visible;visibility:visible;opacity:0.07999998;fill:#ffffff;fill-opacity:1;fill-rule:nonzero;stroke:none;stroke-width:2.11666656;stroke-linecap:butt;stroke-linejoin:miter;stroke-miterlimit:4;stroke-dasharray:none;stroke-dashoffset:0;stroke-opacity:1;marker:none;enable-background:accumulate"
         d="m -17.153556,62.438502 15.1249551,-16.384574 0,6.139813 c 0.9120172,11.193544 0.095941,10.244761 -9.6230261,10.244761 z"
         id="path4254"
         inkscape:connector-curvature="0"
         sodipodi:nodetypes="cccsc" />
    </g>
    <g
       id="g4319">
      <path
         style="fill:#666666"
         d="m -46.391766,59.131425 0,0.677156 c 0,1.311981 1.115,2.368196 2.5,2.368196 l 39,0 c 1.385,0 2.5,-1.056215 2.5,-2.368196 l 0,-0.677156 c 0,1.491744 -1.267028,2.693823 -2.841797,2.693823 l -38.316406,0 c -1.574769,0 -2.841797,-1.202079 -2.841797,-2.693823 z"
         id="rect11-5"
         inkscape:connector-curvature="0" />
      <path
         d="m -46.416159,4.4076775 0,-0.633985 c 0,-1.228337 1.115,-2.217214 2.5,-2.217214 l 39.0000013,0 c 1.385,0 2.5,0.988877 2.5,2.217214 l 0,0.633985 c 0,-1.39664 -1.267028,-2.522082 -2.841797,-2.522082 l -38.3164073,0 c -1.574769,0 -2.841797,1.125442 -2.841797,2.522082 z"
         id="rect11-1"
         inkscape:connector-curvature="0"
         style="fill:#e6e6e6" />
    </g>
  </g>
</svg>
