<?xml version="1.0" encoding="UTF-8" standalone="no"?>
<svg
   xmlns:dc="http://purl.org/dc/elements/1.1/"
   xmlns:cc="http://creativecommons.org/ns#"
   xmlns:rdf="http://www.w3.org/1999/02/22-rdf-syntax-ns#"
   xmlns:svg="http://www.w3.org/2000/svg"
   xmlns="http://www.w3.org/2000/svg"
   xmlns:sodipodi="http://sodipodi.sourceforge.net/DTD/sodipodi-0.dtd"
   xmlns:inkscape="http://www.inkscape.org/namespaces/inkscape"
   height="64"
   viewBox="0 0 64 64"
   width="64"
   id="svg2"
   version="1.1"
   inkscape:version="0.91 r13725"
   sodipodi:docname="application-x-gnome-theme-package.svg">
  <metadata
     id="metadata61">
    <rdf:RDF>
      <cc:Work
         rdf:about="">
        <dc:format>image/svg+xml</dc:format>
        <dc:type
           rdf:resource="http://purl.org/dc/dcmitype/StillImage" />
      </cc:Work>
    </rdf:RDF>
  </metadata>
  <defs
     id="defs59" />
  <sodipodi:namedview
     pagecolor="#ffffff"
     bordercolor="#666666"
     borderopacity="1"
     objecttolerance="10"
     gridtolerance="10"
     guidetolerance="10"
     inkscape:pageopacity="0"
     inkscape:pageshadow="2"
     inkscape:window-width="3798"
     inkscape:window-height="2046"
     id="namedview57"
     showgrid="false"
     inkscape:zoom="20.85965"
     inkscape:cx="36.240943"
     inkscape:cy="30.668647"
     inkscape:window-x="19"
     inkscape:window-y="1105"
     inkscape:window-maximized="0"
     inkscape:current-layer="svg2" />
  <linearGradient
     id="a"
     gradientTransform="matrix(1.0749904,0,0,1.1756166,113.08072,-0.42820321)"
     gradientUnits="userSpaceOnUse"
     x1="-74.929466"
     x2="-75.259552"
     y1="52.199436"
     y2="2.356489">
    <stop
       offset="0"
       stop-color="#269de0"
       id="stop5" />
    <stop
       offset="1"
       stop-color="#1ab4fd"
       id="stop7" />
  </linearGradient>
  <rect
     height="60.342426"
     ry="2.8554075"
     width="44"
     x="10"
     y="1.4689982"
     id="rect9"
     style="fill:url(#a);stroke-width:1.06513202" />
  <g
     transform="matrix(0.97803305,0,0,1.1370197,-438.38298,-582.27706)"
     id="g11"
     style="opacity:0.8;fill:#ffffff">
    <g
       id="g13"
       style="fill:#ffffff">
      <circle
         cx="497.14267"
         cy="518.38727"
         r="2.037385"
         id="circle15"
         style="opacity:1" />
    </g>
    <path
       d="m 496.04758,513.40009 -28.42874,53.06757 33.66652,0 c 1.19393,-0.3774 2.30955,-0.85425 2.15671,-2.94176 l 0,-47.8465 c 0,0 -0.18548,-2.27931 -2.527,-2.27931 z"
       id="path21"
       inkscape:connector-curvature="0"
       style="fill:#ffffff;fill-rule:evenodd"
       sodipodi:nodetypes="cccccsc" />
  </g>
  <g
     id="g4234"
     transform="translate(-10.372881,4.6779661)">
    <path
       style="fill:#ffd600"
       inkscape:connector-curvature="0"
       id="path31"
       d="m 53.898359,22.514535 c 4.068607,-2.811882 0.724976,-7.880835 -3.631604,-4.746003 -0.638232,0.145884 -4.303475,5.524181 -6.49885,7.928866 3.570045,-1.426162 9.667892,-2.700798 10.130454,-3.182863 z" />
    <path
       style="fill:#78be16"
       inkscape:connector-curvature="0"
       id="path33"
       d="m 53.798797,32.123386 c 4.862985,0.900803 6.097807,-5.04477 0.802734,-5.921843 -0.553611,-0.349512 -6.951346,0.845832 -10.204438,0.985719 3.529092,1.524742 8.733705,4.948255 9.401704,4.936124 z" />
    <path
       style="fill:#19b271"
       inkscape:connector-curvature="0"
       id="path35"
       d="m 46.321757,38.79191 c 2.62412,4.192156 7.839724,1.082372 4.906102,-3.412148 -0.116786,-0.644209 -5.322874,-4.550102 -7.625283,-6.852492 1.262426,3.631171 2.258605,9.780648 2.719181,10.26464 z" />
    <path
       style="fill:#ffa31e"
       inkscape:connector-curvature="0"
       id="path37"
       d="m 47.078996,15.849058 c 0.871942,-4.868235 -5.080808,-6.0677858 -5.926502,-0.76764 -0.346209,0.555695 0.886982,6.946234 1.046156,10.198422 1.503823,-3.538057 4.896449,-8.762842 4.880346,-9.430782 z" />
    <path
       style="fill:#fb5336"
       inkscape:connector-curvature="0"
       id="path39"
       d="m 37.261877,15.65819 c -2.976561,-3.949698 -7.903936,-0.400689 -4.592825,3.823474 0.172033,0.631685 5.696274,4.072991 8.189059,6.167742 -1.571574,-3.508467 -3.095549,-9.548826 -3.596234,-9.991216 z" />
    <path
       style="fill:#eb60a4"
       inkscape:connector-curvature="0"
       id="path41"
       d="m 30.610773,21.820191 c -4.846176,-0.987272 -6.186715,4.935337 -0.908118,5.906625 0.547281,0.359283 6.965306,-0.72187 10.220364,-0.803797 -3.50135,-1.587361 -8.644149,-5.103064 -9.312246,-5.102828 z" />
  </g>
  <g
     transform="translate(56.39177,-0.17677748)"
     id="g4364">
    <g
       id="g4274">
      <path
         style="color:#000000;display:inline;overflow:visible;visibility:visible;opacity:0.07999998;fill:#020202;fill-opacity:1;fill-rule:nonzero;stroke:none;stroke-width:0.26458332;marker:none;enable-background:accumulate"
         d="m -24.211872,1.2694285 0,61.1690735 12.371744,0 c 10.5678581,0 9.8115271,0.439894 9.8115271,-10.648116 l 0,-19.936427 0,-19.936427 c 0,-10.700833 0.8143853,-10.6481035 -9.8115271,-10.6481035 z"
         id="path4231"
         inkscape:connector-curvature="0"
         sodipodi:nodetypes="ccsscssc" />
      <path
         inkscape:connector-curvature="0"
         style="color:#000000;display:inline;overflow:visible;visibility:visible;opacity:0.325;fill:#ffffff;fill-opacity:1;fill-rule:nonzero;stroke:none;stroke-width:0.26458332;marker:none;enable-background:accumulate"
         d="m -46.395136,31.853959 0,19.936427 c -1.236828,11.502216 0.0059,10.648116 9.81153,10.648116 l 24.743478,0 c 10.394983,0 9.811527,0.741004 9.811527,-10.648116 l 0,-19.936427 z"
         id="path4255"
         sodipodi:nodetypes="ccssscc" />
    </g>
    <g
       id="g4319">
      <path
         style="fill:#666666"
         d="m -46.391766,59.131425 0,0.677156 c 0,1.311981 1.115,2.368196 2.5,2.368196 l 39,0 c 1.385,0 2.5,-1.056215 2.5,-2.368196 l 0,-0.677156 c 0,1.491744 -1.267028,2.693823 -2.841797,2.693823 l -38.316406,0 c -1.574769,0 -2.841797,-1.202079 -2.841797,-2.693823 z"
         id="rect11-5"
         inkscape:connector-curvature="0" />
      <path
         d="m -46.416159,4.4076775 0,-0.633985 c 0,-1.228337 1.115,-2.217214 2.5,-2.217214 l 39.0000013,0 c 1.385,0 2.5,0.988877 2.5,2.217214 l 0,0.633985 c 0,-1.39664 -1.267028,-2.522082 -2.841797,-2.522082 l -38.3164073,0 c -1.574769,0 -2.841797,1.125442 -2.841797,2.522082 z"
         id="rect11-1"
         inkscape:connector-curvature="0"
         style="fill:#e6e6e6" />
    </g>
  </g>
  <path
     style="color:#000000;display:inline;overflow:visible;visibility:visible;opacity:0.146;fill:#000000;fill-opacity:1;fill-rule:nonzero;stroke:none;stroke-width:2.11666656;stroke-linecap:butt;stroke-linejoin:miter;stroke-miterlimit:4;stroke-dasharray:none;stroke-dashoffset:0;stroke-opacity:1;marker:none;enable-background:accumulate"
     d="m 39.23821,62.261725 15.124955,-16.384574 0,6.139813 c 0.912017,11.193544 0.09594,10.244761 -9.623026,10.244761 z"
     id="path4254"
     inkscape:connector-curvature="0"
     sodipodi:nodetypes="cccsc" />
</svg>
