<?xml version="1.0" encoding="UTF-8" standalone="no"?>
<svg
   xmlns:dc="http://purl.org/dc/elements/1.1/"
   xmlns:cc="http://creativecommons.org/ns#"
   xmlns:rdf="http://www.w3.org/1999/02/22-rdf-syntax-ns#"
   xmlns:svg="http://www.w3.org/2000/svg"
   xmlns="http://www.w3.org/2000/svg"
   xmlns:sodipodi="http://sodipodi.sourceforge.net/DTD/sodipodi-0.dtd"
   xmlns:inkscape="http://www.inkscape.org/namespaces/inkscape"
   height="64"
   viewBox="0 0 64 64"
   width="64"
   id="svg2"
   version="1.1"
   inkscape:version="0.91 r13725"
   sodipodi:docname="application-x-rpm-opensuse.svg">
  <metadata
     id="metadata31">
    <rdf:RDF>
      <cc:Work
         rdf:about="">
        <dc:format>image/svg+xml</dc:format>
        <dc:type
           rdf:resource="http://purl.org/dc/dcmitype/StillImage" />
      </cc:Work>
    </rdf:RDF>
  </metadata>
  <defs
     id="defs29" />
  <sodipodi:namedview
     pagecolor="#ffffff"
     bordercolor="#666666"
     borderopacity="1"
     objecttolerance="10"
     gridtolerance="10"
     guidetolerance="10"
     inkscape:pageopacity="0"
     inkscape:pageshadow="2"
     inkscape:window-width="3798"
     inkscape:window-height="2046"
     id="namedview27"
     showgrid="false"
     inkscape:zoom="20.85965"
     inkscape:cx="22.983874"
     inkscape:cy="25.990594"
     inkscape:window-x="19"
     inkscape:window-y="55"
     inkscape:window-maximized="0"
     inkscape:current-layer="svg2" />
  <linearGradient
     id="a"
     gradientTransform="matrix(1.0749904,0,0,1.1759239,113.08072,-0.42869934)"
     gradientUnits="userSpaceOnUse"
     x1="-74.929466"
     x2="-75.259552"
     y1="52.199436"
     y2="2.356489">
    <stop
       offset="0"
       stop-color="#54b60f"
       id="stop5" />
    <stop
       offset="1"
       stop-color="#92dc41"
       id="stop7" />
  </linearGradient>
  <rect
     style="fill:url(#a)"
     id="rect13"
     y="1.468998"
     x="10"
     width="44"
     ry="2.8561542"
     height="60.358204" />
  <path
     style="fill:#ffffff;fill-opacity:0.85"
     inkscape:connector-curvature="0"
     id="path25"
     d="m 31.75688,17.845222 c -7.288175,0 -13.197237,5.908403 -13.197237,13.197237 0,7.288835 5.909062,13.197238 13.197237,13.197238 7.288174,0 13.197238,-5.908403 13.197238,-13.197238 0,-7.288834 -5.909064,-13.197237 -13.197238,-13.197237 z m 0.06321,1.827684 c 6.279577,0 11.3747,5.090636 11.3747,11.369421 0,6.279576 -5.095454,11.369421 -11.3747,11.369421 -3.390765,0 -6.433322,-1.486076 -8.516177,-3.840066 0.856435,-0.664681 2.289325,-0.502532 4.053928,-0.301373 0.845679,0.09621 1.809671,0.20626 2.804742,0.228457 2.779867,0.01617 5.770889,-0.491201 7.616787,-1.297815 1.193492,-0.52341 1.957612,-0.868115 2.435286,-1.302701 0.172231,-0.141276 0.262671,-0.377295 0.35484,-0.622183 l 0.06321,-0.165269 c 0.07737,-0.197795 0.188398,-0.623411 0.238178,-0.855511 0.02217,-0.101596 0.03313,-0.210839 -0.03887,-0.267349 l -0.257623,0.04863 c -0.810046,0.485737 -2.833777,1.410851 -4.729626,1.448528 -2.349307,0.04909 -7.084278,-2.365011 -7.577853,-2.619982 l -0.04863,-0.05833 c -0.118406,-0.282559 -0.827005,-1.964739 -0.977057,-2.318622 3.408252,2.244321 6.233912,3.486577 8.399381,3.679652 2.407837,0.213942 4.286066,-1.100648 5.089317,-1.66239 0.156757,-0.106969 0.276569,-0.190851 0.325682,-0.209017 l 0.05345,-0.0875 C 40.975107,31.362305 39.712131,27.267202 38.760612,26.283348 38.496666,26.013465 38.287489,25.7515 37.861218,25.500752 34.418059,23.494112 26.243031,22.285246 25.859652,22.229817 l -0.06322,0.01944 -0.02428,0.05347 c 0,0 -0.03068,1.697627 -0.03405,1.886018 -0.280542,-0.09285 -1.150471,-0.377639 -2.396422,-0.719381 1.625702,-2.011588 4.117143,-3.796318 8.477246,-3.796318 z m 3.004022,6.017744 c 0.058,-8.77e-4 0.116585,-0.0019 0.174988,0 1.928842,0.06929 3.444216,1.693864 3.378296,3.621321 -0.03431,0.932452 -0.427438,1.793967 -1.108305,2.430403 -0.682823,0.639802 -1.570338,0.973297 -2.5082,0.943009 -1.925477,-0.07199 -3.44085,-1.696571 -3.378296,-3.621321 0.033,-0.933771 0.428263,-1.800896 1.113122,-2.435286 0.639551,-0.599816 1.458096,-0.925062 2.328389,-0.938126 z m -0.09236,1.030506 c -0.561748,0.03415 -1.091874,0.262242 -1.506861,0.651356 -0.472956,0.444028 -0.752044,1.04522 -0.772896,1.696439 -0.04441,1.345524 1.008467,2.477847 2.352672,2.527667 0.653257,0.02019 1.272939,-0.208674 1.749887,-0.651356 0.475642,-0.446047 0.752705,-1.052745 0.772897,-1.701323 0.04507,-1.347569 -1.012624,-2.47567 -2.357489,-2.522783 -0.08141,-0.0031 -0.157938,-0.0049 -0.238184,0 z m 0.641629,1.220084 c 0.59742,0 1.079138,0.324645 1.079138,0.724264 0,0.397607 -0.481691,0.724266 -1.079138,0.724266 -0.599431,0 -1.083955,-0.327339 -1.083955,-0.724266 0,-0.399625 0.484536,-0.724264 1.083955,-0.724264 z" />
  <g
     transform="translate(56.391766,-0.17677748)"
     id="g4364">
    <g
       id="g4274">
      <path
         style="color:#000000;display:inline;overflow:visible;visibility:visible;opacity:0.07999998;fill:#ffffff;fill-opacity:1;fill-rule:nonzero;stroke:none;stroke-width:0.26458332;marker:none;enable-background:accumulate"
         d="m -24.211872,1.2694285 0,61.1690735 12.371744,0 c 10.5678581,0 9.8115271,0.439894 9.8115271,-10.648116 l 0,-19.936427 0,-19.936427 c 0,-10.700833 0.8143853,-10.6481035 -9.8115271,-10.6481035 z"
         id="path4231"
         inkscape:connector-curvature="0"
         sodipodi:nodetypes="ccsscssc" />
      <path
         inkscape:connector-curvature="0"
         style="color:#000000;display:inline;overflow:visible;visibility:visible;opacity:0.07999998;fill:#ffffff;fill-opacity:1;fill-rule:nonzero;stroke:none;stroke-width:0.26458332;marker:none;enable-background:accumulate"
         d="m -46.395136,31.853959 0,19.936427 c -1.236828,11.502216 0.0059,10.648116 9.81153,10.648116 l 24.743478,0 c 10.394983,0 9.811527,0.741004 9.811527,-10.648116 l 0,-19.936427 z"
         id="path4255"
         sodipodi:nodetypes="ccssscc" />
      <path
         style="color:#000000;display:inline;overflow:visible;visibility:visible;opacity:0.07999998;fill:#ffffff;fill-opacity:1;fill-rule:nonzero;stroke:none;stroke-width:2.11666656;stroke-linecap:butt;stroke-linejoin:miter;stroke-miterlimit:4;stroke-dasharray:none;stroke-dashoffset:0;stroke-opacity:1;marker:none;enable-background:accumulate"
         d="m -17.153556,62.438502 15.1249551,-16.384574 0,6.139813 c 0.9120172,11.193544 0.095941,10.244761 -9.6230261,10.244761 z"
         id="path4254"
         inkscape:connector-curvature="0"
         sodipodi:nodetypes="cccsc" />
    </g>
    <g
       id="g4319">
      <path
         style="fill:#666666"
         d="m -46.391766,59.131425 0,0.677156 c 0,1.311981 1.115,2.368196 2.5,2.368196 l 39,0 c 1.385,0 2.5,-1.056215 2.5,-2.368196 l 0,-0.677156 c 0,1.491744 -1.267028,2.693823 -2.841797,2.693823 l -38.316406,0 c -1.574769,0 -2.841797,-1.202079 -2.841797,-2.693823 z"
         id="rect11-5"
         inkscape:connector-curvature="0" />
      <path
         d="m -46.416159,4.4076775 0,-0.633985 c 0,-1.228337 1.115,-2.217214 2.5,-2.217214 l 39.0000013,0 c 1.385,0 2.5,0.988877 2.5,2.217214 l 0,0.633985 c 0,-1.39664 -1.267028,-2.522082 -2.841797,-2.522082 l -38.3164073,0 c -1.574769,0 -2.841797,1.125442 -2.841797,2.522082 z"
         id="rect11-1"
         inkscape:connector-curvature="0"
         style="fill:#e6e6e6" />
    </g>
  </g>
</svg>
