<?xml version="1.0" encoding="UTF-8" standalone="no"?>
<svg
   xmlns:dc="http://purl.org/dc/elements/1.1/"
   xmlns:cc="http://creativecommons.org/ns#"
   xmlns:rdf="http://www.w3.org/1999/02/22-rdf-syntax-ns#"
   xmlns:svg="http://www.w3.org/2000/svg"
   xmlns="http://www.w3.org/2000/svg"
   xmlns:sodipodi="http://sodipodi.sourceforge.net/DTD/sodipodi-0.dtd"
   xmlns:inkscape="http://www.inkscape.org/namespaces/inkscape"
   height="64"
   viewBox="0 0 64 64"
   width="64"
   id="svg2"
   version="1.1"
   inkscape:version="0.91 r13725"
   sodipodi:docname="ai.svg">
  <metadata
     id="metadata31">
    <rdf:RDF>
      <cc:Work
         rdf:about="">
        <dc:format>image/svg+xml</dc:format>
        <dc:type
           rdf:resource="http://purl.org/dc/dcmitype/StillImage" />
      </cc:Work>
    </rdf:RDF>
  </metadata>
  <defs
     id="defs29" />
  <sodipodi:namedview
     pagecolor="#ffffff"
     bordercolor="#666666"
     borderopacity="1"
     objecttolerance="10"
     gridtolerance="10"
     guidetolerance="10"
     inkscape:pageopacity="0"
     inkscape:pageshadow="2"
     inkscape:window-width="3798"
     inkscape:window-height="2046"
     id="namedview27"
     showgrid="false"
     inkscape:zoom="20.85965"
     inkscape:cx="30.584602"
     inkscape:cy="36.799081"
     inkscape:window-x="19"
     inkscape:window-y="1105"
     inkscape:window-maximized="0"
     inkscape:current-layer="svg2" />
  <linearGradient
     id="a"
     gradientTransform="matrix(1.0749904,0,0,1.1777918,56.688954,-0.25493683)"
     gradientUnits="userSpaceOnUse"
     x1="-74.929466"
     x2="-75.259552"
     y1="52.199436"
     y2="2.356489">
    <stop
       offset="0"
       stop-color="#ffa400"
       id="stop5" />
    <stop
       offset="1"
       stop-color="#fd0"
       id="stop7" />
  </linearGradient>
  <g
     transform="translate(56.391766 -.176777)"
     id="g9">
    <rect
       height="60.454082"
       ry="2.8606911"
       width="44"
       x="-46.391766"
       y="1.645775"
       id="rect13"
       style="fill:url(#a)" />
    <g
       transform="matrix(.81954967 0 0 .81954967 -4.334283 10.721775)"
       id="g17"
       fill="#fff">
      <g
         id="g19"
         fill="#fff" />
      <path
         d="m -34.742069,37.217098 8.672711,0 0,1.126385 3.15372,0 0,-1.126385 8.710139,0 0,1.27328 3.153648,0 0,-3.153647 -1.163597,0 0,-8.819751 1.126313,0 0,-3.15372 -1.126313,0 0,-8.187879 1.163669,0 0,-3.15372 -3.153648,0 0,0.641481 -8.710139,0 0,-1.126313 -3.15372,0 0,1.126313 -8.672783,0 0,-0.788448 -3.15372,0 0,3.15372 1.126313,0 0,8.334846 -1.126313,0 0,3.15372 1.126313,0 0,8.672711 -1.126313,0 0,3.153792 3.15372,0 z m -0.901022,0 0,0.225292 -1.351604,0 0,-1.351605 0.225291,0 0.901094,0 0.225291,0 0,0.225292 0,0.901021 z m 10.474827,-24.553956 0,-0.225292 1.351604,0 0,0.225292 0,0.471176 0,0.429846 0,0.225219 -1.351604,0 0,-0.225219 0,-0.429846 z m 1.351604,24.553956 0,0.225292 -1.351604,0 0,-0.225292 0,-0.471176 0,-0.429773 0,-0.225292 1.351604,0 0,0.225292 0,0.429773 z m 0.150074,-11.770072 c 0.08757,0.08801 0.08757,0.230494 0,0.318501 -0.04444,0.04393 -0.101591,0.06597 -0.159684,0.06597 -0.05723,0 -0.115102,-0.02204 -0.159322,-0.06597 l -0.506798,-0.50687 -0.50687,0.50687 c -0.04422,0.04393 -0.101807,0.06597 -0.159467,0.06597 -0.05766,0 -0.115247,-0.02204 -0.159539,-0.06597 -0.08772,-0.08801 -0.08772,-0.230494 0,-0.318501 l 0.50687,-0.50687 -0.50687,-0.506869 c -0.08772,-0.08772 -0.08772,-0.230783 0,-0.318573 0.08779,-0.08779 0.230783,-0.08779 0.318573,0 l 0.507303,0.506869 0.506798,-0.506869 c 0.08801,-0.08779 0.230566,-0.08779 0.318573,0 0.08801,0.08779 0.08801,0.230783 0,0.318573 l -0.50687,0.506869 z m 11.713785,12.142258 -1.351532,0 0,-0.372186 0,-0.901021 0,-0.07832 0.187864,0 0.901093,0 0.262648,0 0,1.351532 z m -2.252626,-2.252553 0,0.979418 -7.055858,0 c 3.932486,-1.114969 7.029919,-4.21233 8.144816,-8.145249 l 0,7.165831 z m 2.215198,-9.720772 -0.225219,0 -0.471176,0 -0.429845,0 -0.22522,0 0,-1.351605 0.22522,0 0.429845,0 0.471176,0 0.225219,0 z m -1.314104,-12.693204 1.088885,0 0.262647,0 0,1.351604 -0.262647,0 -0.901094,0 -0.187863,0 0,-0.710123 0,-0.641481 z m -0.901094,0.641481 0,1.611145 1.088885,0 0,6.534032 c -1.114896,-3.933136 -4.212329,-7.030136 -8.144815,-8.145249 l 7.05593,0 z m -22.789268,-0.78852 0.225291,0 1.126313,0 0,0.788448 0,0.563156 -0.225291,0 -0.901094,0 -0.225292,0 0,-1.351604 z m 2.252626,2.252698 0,-1.464178 7.01843,0 c -3.932703,1.115041 -7.02963,4.212041 -8.144743,8.144743 l 0,-6.680565 1.126313,0 z m -2.252626,9.235868 0.225291,0 0.471176,0 0.429846,0 0.225291,0 0,1.351604 -0.225291,0 -0.429846,0 -0.471176,0 -0.225291,0 z m 1.126313,3.906618 c 1.115113,3.932919 4.21204,7.03028 8.144815,8.145249 l -7.018502,0 0,-1.126385 -1.126313,0 z"
         id="path25"
         inkscape:connector-curvature="0"
         style="fill:#6f4a00" />
    </g>
  </g>
  <g
     transform="translate(56.391766,-0.17677748)"
     id="g4364">
    <g
       id="g4274">
      <path
         style="color:#000000;display:inline;overflow:visible;visibility:visible;opacity:0.07999998;fill:#ffffff;fill-opacity:1;fill-rule:nonzero;stroke:none;stroke-width:0.26458332;marker:none;enable-background:accumulate"
         d="m -24.211872,1.2694285 0,61.1690735 12.371744,0 c 10.5678581,0 9.8115271,0.439894 9.8115271,-10.648116 l 0,-19.936427 0,-19.936427 c 0,-10.700833 0.8143853,-10.6481035 -9.8115271,-10.6481035 z"
         id="path4231"
         inkscape:connector-curvature="0"
         sodipodi:nodetypes="ccsscssc" />
      <path
         inkscape:connector-curvature="0"
         style="color:#000000;display:inline;overflow:visible;visibility:visible;opacity:0.07999998;fill:#ffffff;fill-opacity:1;fill-rule:nonzero;stroke:none;stroke-width:0.26458332;marker:none;enable-background:accumulate"
         d="m -46.395136,31.853959 0,19.936427 c -1.236828,11.502216 0.0059,10.648116 9.81153,10.648116 l 24.743478,0 c 10.394983,0 9.811527,0.741004 9.811527,-10.648116 l 0,-19.936427 z"
         id="path4255"
         sodipodi:nodetypes="ccssscc" />
      <path
         style="color:#000000;display:inline;overflow:visible;visibility:visible;opacity:0.07999998;fill:#ffffff;fill-opacity:1;fill-rule:nonzero;stroke:none;stroke-width:2.11666656;stroke-linecap:butt;stroke-linejoin:miter;stroke-miterlimit:4;stroke-dasharray:none;stroke-dashoffset:0;stroke-opacity:1;marker:none;enable-background:accumulate"
         d="m -17.153556,62.438502 15.1249551,-16.384574 0,6.139813 c 0.9120172,11.193544 0.095941,10.244761 -9.6230261,10.244761 z"
         id="path4254"
         inkscape:connector-curvature="0"
         sodipodi:nodetypes="cccsc" />
    </g>
    <g
       id="g4319">
      <path
         style="fill:#666666"
         d="m -46.391766,59.131425 0,0.677156 c 0,1.311981 1.115,2.368196 2.5,2.368196 l 39,0 c 1.385,0 2.5,-1.056215 2.5,-2.368196 l 0,-0.677156 c 0,1.491744 -1.267028,2.693823 -2.841797,2.693823 l -38.316406,0 c -1.574769,0 -2.841797,-1.202079 -2.841797,-2.693823 z"
         id="rect11"
         inkscape:connector-curvature="0" />
      <path
         d="m -46.416159,4.4076775 0,-0.633985 c 0,-1.228337 1.115,-2.217214 2.5,-2.217214 l 39.0000013,0 c 1.385,0 2.5,0.988877 2.5,2.217214 l 0,0.633985 c 0,-1.39664 -1.267028,-2.522082 -2.841797,-2.522082 l -38.3164073,0 c -1.574769,0 -2.841797,1.125442 -2.841797,2.522082 z"
         id="rect11-1"
         inkscape:connector-curvature="0"
         style="fill:#ffffff" />
    </g>
  </g>
</svg>
