<?xml version="1.0" encoding="UTF-8" standalone="no"?>
<svg
   xmlns:dc="http://purl.org/dc/elements/1.1/"
   xmlns:cc="http://creativecommons.org/ns#"
   xmlns:rdf="http://www.w3.org/1999/02/22-rdf-syntax-ns#"
   xmlns:svg="http://www.w3.org/2000/svg"
   xmlns="http://www.w3.org/2000/svg"
   xmlns:sodipodi="http://sodipodi.sourceforge.net/DTD/sodipodi-0.dtd"
   xmlns:inkscape="http://www.inkscape.org/namespaces/inkscape"
   height="64"
   viewBox="0 0 64 64"
   width="64"
   id="svg2"
   version="1.1"
   inkscape:version="0.91 r13725"
   sodipodi:docname="application-pdf.svg">
  <metadata
     id="metadata31">
    <rdf:RDF>
      <cc:Work
         rdf:about="">
        <dc:format>image/svg+xml</dc:format>
        <dc:type
           rdf:resource="http://purl.org/dc/dcmitype/StillImage" />
      </cc:Work>
    </rdf:RDF>
  </metadata>
  <defs
     id="defs29" />
  <sodipodi:namedview
     pagecolor="#ffffff"
     bordercolor="#666666"
     borderopacity="1"
     objecttolerance="10"
     gridtolerance="10"
     guidetolerance="10"
     inkscape:pageopacity="0"
     inkscape:pageshadow="2"
     inkscape:window-width="3798"
     inkscape:window-height="2046"
     id="namedview27"
     showgrid="false"
     inkscape:zoom="20.85965"
     inkscape:cx="29.548309"
     inkscape:cy="20.019031"
     inkscape:window-x="19"
     inkscape:window-y="55"
     inkscape:window-maximized="0"
     inkscape:current-layer="svg2" />
  <linearGradient
     id="a"
     gradientTransform="matrix(1.0749904,0,0,1.1768579,113.08072,-0.43020658)"
     gradientUnits="userSpaceOnUse"
     x1="-74.929466"
     x2="-75.259552"
     y1="52.199436"
     y2="2.356489">
    <stop
       offset="0"
       stop-color="#f10614"
       id="stop5" />
    <stop
       offset="1"
       stop-color="#ff433e"
       id="stop7" />
  </linearGradient>
  <rect
     style="fill:url(#a)"
     id="rect13"
     y="1.468998"
     x="10"
     width="44"
     ry="2.8584225"
     height="60.406143" />
  <path
     style="fill:#ffffff"
     inkscape:connector-curvature="0"
     id="path25"
     d="m 42.643895,33.435711 c -0.439759,-0.433232 -1.415061,-0.662724 -2.899181,-0.682216 -1.004624,-0.01565 -2.213797,0.07683 -3.485638,0.255386 -0.569496,-0.328516 -1.156383,-0.686057 -1.617188,-1.116729 -1.239418,-1.157278 -2.273993,-2.763865 -2.918669,-4.530372 0.042,-0.165041 0.07775,-0.310021 0.111047,-0.457988 0,0 0.698129,-3.965534 0.513326,-5.306065 -0.02542,-0.183821 -0.04107,-0.237317 -0.09052,-0.380305 L 32.196437,21.06234 C 32.00656,20.624413 31.634234,20.160449 31.0505,20.185632 l -0.34232,-0.01565 -0.0094,-1.42e-4 c -0.650924,0 -1.181449,0.332927 -1.320717,0.830469 -0.423307,1.560632 0.01337,3.895391 0.80504,6.919481 l -0.20262,0.492562 c -0.566782,1.381648 -1.277038,2.773256 -1.903709,4.000676 l -0.08148,0.159919 c -0.659278,1.290306 -1.257487,2.385552 -1.799768,3.313338 l -0.559914,0.296077 c -0.04078,0.02134 -1.000361,0.528985 -1.22544,0.665144 -1.909399,1.140062 -3.174681,2.434353 -3.384603,3.461305 -0.06683,0.327663 -0.01707,0.747095 0.322646,0.941445 l 0.541541,0.272459 c 0.234914,0.11809 0.482638,0.177277 0.736423,0.177277 1.359943,0 2.938778,-1.694088 5.11372,-5.489743 2.511136,-0.817664 5.370158,-1.497035 7.875853,-1.871792 1.909527,1.075185 4.258069,1.821853 5.740386,1.821853 0.263193,0 0.490066,-0.02561 0.674437,-0.07398 0.284291,-0.07541 0.523904,-0.23746 0.669983,-0.457277 0.287563,-0.432948 0.345905,-1.028945 0.267825,-1.639454 -0.02326,-0.180976 -0.167976,-0.405061 -0.324501,-0.557866 z m -20.312508,7.236331 c 0.247972,-0.67809 1.229645,-2.01862 2.681091,-3.208053 0.09126,-0.07398 0.316028,-0.284553 0.521865,-0.480183 -1.51783,2.420836 -2.534275,3.385756 -3.202956,3.688236 z m 8.596816,-19.796938 c 0.437166,0 0.685819,1.102075 0.706482,2.135003 0.02062,1.033071 -0.220996,1.758113 -0.520688,2.294495 -0.248219,-0.794188 -0.368184,-2.045937 -0.368184,-2.864739 0,0 -0.01824,-1.564759 0.18239,-1.564759 z m -2.564468,14.107723 c 0.304519,-0.545062 0.621349,-1.119859 0.945111,-1.729657 0.789199,-1.492481 1.287617,-2.660146 1.65883,-3.620228 0.738282,1.343376 1.657718,2.485145 2.738574,3.400126 0.134807,0.113822 0.27766,0.228781 0.42769,0.343172 -2.197953,0.434797 -4.097639,0.963781 -5.770205,1.606587 z m 13.857844,-0.122358 c -0.133882,0.08252 -0.517346,0.132318 -0.764018,0.132318 -0.796065,0 -1.781026,-0.363944 -3.161819,-0.955957 0.530525,-0.03984 1.017007,-0.05976 1.453246,-0.05976 0.798475,0 1.035007,0 1.815787,0.19563 0.78079,0.199187 0.790627,0.60368 0.656804,0.687338 z" />
  <g
     transform="translate(56.391766,-0.17677748)"
     id="g4364">
    <g
       id="g4274">
      <path
         style="color:#000000;display:inline;overflow:visible;visibility:visible;opacity:0.07999998;fill:#ffffff;fill-opacity:1;fill-rule:nonzero;stroke:none;stroke-width:0.26458332;marker:none;enable-background:accumulate"
         d="m -24.211872,1.2694285 0,61.1690735 12.371744,0 c 10.5678581,0 9.8115271,0.439894 9.8115271,-10.648116 l 0,-19.936427 0,-19.936427 c 0,-10.700833 0.8143853,-10.6481035 -9.8115271,-10.6481035 z"
         id="path4231"
         inkscape:connector-curvature="0"
         sodipodi:nodetypes="ccsscssc" />
      <path
         inkscape:connector-curvature="0"
         style="color:#000000;display:inline;overflow:visible;visibility:visible;opacity:0.07999998;fill:#ffffff;fill-opacity:1;fill-rule:nonzero;stroke:none;stroke-width:0.26458332;marker:none;enable-background:accumulate"
         d="m -46.395136,31.853959 0,19.936427 c -1.236828,11.502216 0.0059,10.648116 9.81153,10.648116 l 24.743478,0 c 10.394983,0 9.811527,0.741004 9.811527,-10.648116 l 0,-19.936427 z"
         id="path4255"
         sodipodi:nodetypes="ccssscc" />
      <path
         style="color:#000000;display:inline;overflow:visible;visibility:visible;opacity:0.07999998;fill:#ffffff;fill-opacity:1;fill-rule:nonzero;stroke:none;stroke-width:2.11666656;stroke-linecap:butt;stroke-linejoin:miter;stroke-miterlimit:4;stroke-dasharray:none;stroke-dashoffset:0;stroke-opacity:1;marker:none;enable-background:accumulate"
         d="m -17.153556,62.438502 15.1249551,-16.384574 0,6.139813 c 0.9120172,11.193544 0.095941,10.244761 -9.6230261,10.244761 z"
         id="path4254"
         inkscape:connector-curvature="0"
         sodipodi:nodetypes="cccsc" />
    </g>
    <g
       id="g4319">
      <path
         style="fill:#666666"
         d="m -46.391766,59.131425 0,0.677156 c 0,1.311981 1.115,2.368196 2.5,2.368196 l 39,0 c 1.385,0 2.5,-1.056215 2.5,-2.368196 l 0,-0.677156 c 0,1.491744 -1.267028,2.693823 -2.841797,2.693823 l -38.316406,0 c -1.574769,0 -2.841797,-1.202079 -2.841797,-2.693823 z"
         id="rect11-5"
         inkscape:connector-curvature="0" />
      <path
         d="m -46.416159,4.4076775 0,-0.633985 c 0,-1.228337 1.115,-2.217214 2.5,-2.217214 l 39.0000013,0 c 1.385,0 2.5,0.988877 2.5,2.217214 l 0,0.633985 c 0,-1.39664 -1.267028,-2.522082 -2.841797,-2.522082 l -38.3164073,0 c -1.574769,0 -2.841797,1.125442 -2.841797,2.522082 z"
         id="rect11-1"
         inkscape:connector-curvature="0"
         style="fill:#e6e6e6" />
    </g>
  </g>
</svg>
