<?xml version="1.0" encoding="UTF-8" standalone="no"?>
<svg
   xmlns:dc="http://purl.org/dc/elements/1.1/"
   xmlns:cc="http://creativecommons.org/ns#"
   xmlns:rdf="http://www.w3.org/1999/02/22-rdf-syntax-ns#"
   xmlns:svg="http://www.w3.org/2000/svg"
   xmlns="http://www.w3.org/2000/svg"
   xmlns:sodipodi="http://sodipodi.sourceforge.net/DTD/sodipodi-0.dtd"
   xmlns:inkscape="http://www.inkscape.org/namespaces/inkscape"
   height="64"
   viewBox="0 0 64 64"
   width="64"
   id="svg2"
   version="1.1"
   inkscape:version="0.91 r13725"
   sodipodi:docname="application-x-krita.svg">
  <metadata
     id="metadata43">
    <rdf:RDF>
      <cc:Work
         rdf:about="">
        <dc:format>image/svg+xml</dc:format>
        <dc:type
           rdf:resource="http://purl.org/dc/dcmitype/StillImage" />
      </cc:Work>
    </rdf:RDF>
  </metadata>
  <defs
     id="defs41" />
  <sodipodi:namedview
     pagecolor="#ffffff"
     bordercolor="#666666"
     borderopacity="1"
     objecttolerance="10"
     gridtolerance="10"
     guidetolerance="10"
     inkscape:pageopacity="0"
     inkscape:pageshadow="2"
     inkscape:window-width="3798"
     inkscape:window-height="2046"
     id="namedview39"
     showgrid="false"
     inkscape:zoom="14.75"
     inkscape:cx="31.745885"
     inkscape:cy="26.000739"
     inkscape:window-x="19"
     inkscape:window-y="1105"
     inkscape:window-maximized="0"
     inkscape:current-layer="svg2" />
  <linearGradient
     id="a"
     gradientTransform="matrix(1.0749904,0,0,1.1745822,113.08072,-0.42653417)"
     gradientUnits="userSpaceOnUse"
     x1="-74.929466"
     x2="-75.259552"
     y1="52.199436"
     y2="2.356489">
    <stop
       offset="0"
       stop-color="#aa49ee"
       id="stop5" />
    <stop
       offset="1"
       stop-color="#f461d4"
       id="stop7" />
  </linearGradient>
  <rect
     style="fill:url(#a)"
     id="rect13"
     y="1.468998"
     x="10"
     width="44"
     ry="2.8528955"
     height="60.289337" />
  <g
     transform="matrix(0.05937864,0,0,0.05937864,18.792857,18.218387)"
     id="g31"
     style="opacity:0.84600004;fill:#4d2167">
    <path
       d="m 296.003,284.517 -52.542,-30.805 c -2.865,0.345 -5.734,0.913 -8.59,1.73 -13.717,3.937 -33.557,15.227 -50.186,46.668 -13.202,24.961 -8.33,46.331 -4.031,65.187 4.108,18.023 7.354,32.259 -4.718,46.5 -1.187,1.399 -1.511,3.336 -0.845,5.047 0.419,1.076 1.188,1.952 2.15,2.512 0.571,0.33 1.21,0.551 1.885,0.637 30.535,3.836 76.235,-14.17 104.421,-62.771 12.802,-22.074 18.3,-43.299 15.902,-61.38 -0.624,-4.717 -1.796,-9.17 -3.446,-13.325 z"
       id="path33"
       inkscape:connector-curvature="0" />
    <path
       d="m 418.939,11.153 c -10.538,-6.111 -24.009,-3.033 -30.847,7.05 -4.299,6.338 -105.41,155.47 -118.428,177.916 -6.509,11.224 -13.845,29.443 -19.947,46.1 l 52.542,30.805 c 11.443,-13.576 23.674,-29.061 30.275,-40.443 13.17,-22.708 92.25,-184.284 95.609,-191.151 5.357,-10.945 1.337,-24.166 -9.204,-30.277 z"
       id="path35"
       inkscape:connector-curvature="0" />
    <path
       d="m 166.592,341.074 c -4.498,-1.502 -8.881,-2.384 -13.327,-2.657 -0.747,-0.046 -1.549,-0.069 -2.383,-0.069 -6.69,0 -15.097,1.466 -23.227,2.884 -7.245,1.265 -14.089,2.457 -18.864,2.457 -3.359,0 -4.52,-0.616 -4.895,-0.936 -4.059,-5.095 1.807,-18.923 4.318,-24.849 0.642,-1.512 1.148,-2.706 1.44,-3.559 4.072,-11.981 7.063,-24.737 1.425,-36.843 -4.687,-10.065 -15.643,-18.076 -27.824,-20.391 -3.548,-0.838 -7.62,-1.228 -12.816,-1.228 -4.277,0 -8.854,0.271 -13.281,0.534 -4.54,0.27 -9.235,0.548 -13.731,0.548 -15.464,0 -24.366,-3.528 -29.749,-11.769 -9.992,-15.865 2.009,-44.283 14.332,-56.117 0.758,-0.728 0.823,-1.918 0.149,-2.725 -0.675,-0.807 -1.857,-0.955 -2.708,-0.337 -15.781,11.433 -26.229,32.205 -25.406,50.514 0.439,9.764 4.197,23.327 19.612,32.506 8.298,4.94 21.718,5.98 34.696,6.986 12.768,0.989 25.971,2.013 30.04,6.977 1.066,1.301 1.472,2.876 1.233,4.859 -0.888,9.078 -5.293,18.018 -9.554,26.661 -8.047,16.327 -16.368,33.209 -1.986,51.944 12.631,16.451 29.399,16.451 46.625,16.331 1.41,-0.01 2.823,-0.02 4.235,-0.02 7.515,0 16.196,0.23 24.068,2.972 5.602,2.171 8.419,6.662 9.737,15.571 1.009,5.462 3.436,9.762 6.657,13 0.471,-2.511 1.577,-4.904 3.29,-6.927 8.458,-9.986 6.803,-19.319 2.577,-37.812 -1.962,-8.595 -4.137,-18.122 -4.683,-28.505 z"
       id="path37"
       inkscape:connector-curvature="0" />
  </g>
  <g
     transform="translate(56.391766,-0.17677748)"
     id="g4364">
    <g
       id="g4274">
      <path
         style="color:#000000;display:inline;overflow:visible;visibility:visible;opacity:0.07999998;fill:#ffffff;fill-opacity:1;fill-rule:nonzero;stroke:none;stroke-width:0.26458332;marker:none;enable-background:accumulate"
         d="m -24.211872,1.2694285 0,61.1690735 12.371744,0 c 10.5678581,0 9.8115271,0.439894 9.8115271,-10.648116 l 0,-19.936427 0,-19.936427 c 0,-10.700833 0.8143853,-10.6481035 -9.8115271,-10.6481035 z"
         id="path4231"
         inkscape:connector-curvature="0"
         sodipodi:nodetypes="ccsscssc" />
      <path
         inkscape:connector-curvature="0"
         style="color:#000000;display:inline;overflow:visible;visibility:visible;opacity:0.07999998;fill:#ffffff;fill-opacity:1;fill-rule:nonzero;stroke:none;stroke-width:0.26458332;marker:none;enable-background:accumulate"
         d="m -46.395136,31.853959 0,19.936427 c -1.236828,11.502216 0.0059,10.648116 9.81153,10.648116 l 24.743478,0 c 10.394983,0 9.811527,0.741004 9.811527,-10.648116 l 0,-19.936427 z"
         id="path4255"
         sodipodi:nodetypes="ccssscc" />
      <path
         style="color:#000000;display:inline;overflow:visible;visibility:visible;opacity:0.07999998;fill:#ffffff;fill-opacity:1;fill-rule:nonzero;stroke:none;stroke-width:2.11666656;stroke-linecap:butt;stroke-linejoin:miter;stroke-miterlimit:4;stroke-dasharray:none;stroke-dashoffset:0;stroke-opacity:1;marker:none;enable-background:accumulate"
         d="m -17.153556,62.438502 15.1249551,-16.384574 0,6.139813 c 0.9120172,11.193544 0.095941,10.244761 -9.6230261,10.244761 z"
         id="path4254"
         inkscape:connector-curvature="0"
         sodipodi:nodetypes="cccsc" />
    </g>
    <g
       id="g4319">
      <path
         style="fill:#666666"
         d="m -46.391766,59.131425 0,0.677156 c 0,1.311981 1.115,2.368196 2.5,2.368196 l 39,0 c 1.385,0 2.5,-1.056215 2.5,-2.368196 l 0,-0.677156 c 0,1.491744 -1.267028,2.693823 -2.841797,2.693823 l -38.316406,0 c -1.574769,0 -2.841797,-1.202079 -2.841797,-2.693823 z"
         id="rect11-5"
         inkscape:connector-curvature="0" />
      <path
         d="m -46.416159,4.4076775 0,-0.633985 c 0,-1.228337 1.115,-2.217214 2.5,-2.217214 l 39.0000013,0 c 1.385,0 2.5,0.988877 2.5,2.217214 l 0,0.633985 c 0,-1.39664 -1.267028,-2.522082 -2.841797,-2.522082 l -38.3164073,0 c -1.574769,0 -2.841797,1.125442 -2.841797,2.522082 z"
         id="rect11-1"
         inkscape:connector-curvature="0"
         style="fill:#e6e6e6" />
    </g>
  </g>
</svg>
