<?xml version="1.0" encoding="UTF-8" standalone="no"?>
<svg
   xmlns:dc="http://purl.org/dc/elements/1.1/"
   xmlns:cc="http://creativecommons.org/ns#"
   xmlns:rdf="http://www.w3.org/1999/02/22-rdf-syntax-ns#"
   xmlns:svg="http://www.w3.org/2000/svg"
   xmlns="http://www.w3.org/2000/svg"
   xmlns:sodipodi="http://sodipodi.sourceforge.net/DTD/sodipodi-0.dtd"
   xmlns:inkscape="http://www.inkscape.org/namespaces/inkscape"
   height="64"
   viewBox="0 0 64 64"
   width="64"
   id="svg2"
   version="1.1"
   inkscape:version="0.91 r13725"
   sodipodi:docname="application-image-tiff.svg">
  <metadata
     id="metadata27">
    <rdf:RDF>
      <cc:Work
         rdf:about="">
        <dc:format>image/svg+xml</dc:format>
        <dc:type
           rdf:resource="http://purl.org/dc/dcmitype/StillImage" />
      </cc:Work>
    </rdf:RDF>
  </metadata>
  <defs
     id="defs25" />
  <sodipodi:namedview
     pagecolor="#ffffff"
     bordercolor="#666666"
     borderopacity="1"
     objecttolerance="10"
     gridtolerance="10"
     guidetolerance="10"
     inkscape:pageopacity="0"
     inkscape:pageshadow="2"
     inkscape:window-width="3798"
     inkscape:window-height="2046"
     id="namedview23"
     showgrid="false"
     inkscape:zoom="20.85965"
     inkscape:cx="30.271454"
     inkscape:cy="28.552168"
     inkscape:window-x="19"
     inkscape:window-y="1105"
     inkscape:window-maximized="0"
     inkscape:current-layer="svg2" />
  <linearGradient
     id="a"
     gradientUnits="userSpaceOnUse"
     x1="30.601029"
     x2="31.877571"
     y1="62.523117"
     y2="1.97774"
     gradientTransform="translate(0,-0.28763664)">
    <stop
       offset="0"
       stop-color="#e51021"
       id="stop5" />
    <stop
       offset="1"
       stop-color="#ff1e1c"
       id="stop7" />
  </linearGradient>
  <rect
     height="60.531002"
     ry="2.864331"
     width="44"
     x="10"
     y="1.4468625"
     id="rect9"
     style="fill:url(#a)" />
  <path
     d="m 23.957035,21 c -0.52985,0 -0.957031,0.464509 -0.957031,1.042969 l 0,15.912109 C 23.000004,38.533538 23.427185,39 23.957035,39 L 40.04297,39 C 40.57282,39 41,38.533538 41,37.955078 L 41,22.042969 C 41,21.464509 40.57282,21 40.04297,21 Z m 10.181641,6.431641 3.861328,5.136718 -12,0 3,-3.849609 2.138672,2.574219 z"
     id="path13"
     inkscape:connector-curvature="0"
     style="fill:#65070e" />
  <g
     transform="translate(56.391766,-0.17677748)"
     id="g4364">
    <g
       id="g4274">
      <path
         style="color:#000000;display:inline;overflow:visible;visibility:visible;opacity:0.07999998;fill:#ffffff;fill-opacity:1;fill-rule:nonzero;stroke:none;stroke-width:0.26458332;marker:none;enable-background:accumulate"
         d="m -24.211872,1.2694285 0,61.1690735 12.371744,0 c 10.5678581,0 9.8115271,0.439894 9.8115271,-10.648116 l 0,-19.936427 0,-19.936427 c 0,-10.700833 0.8143853,-10.6481035 -9.8115271,-10.6481035 z"
         id="path4231"
         inkscape:connector-curvature="0"
         sodipodi:nodetypes="ccsscssc" />
      <path
         inkscape:connector-curvature="0"
         style="color:#000000;display:inline;overflow:visible;visibility:visible;opacity:0.07999998;fill:#ffffff;fill-opacity:1;fill-rule:nonzero;stroke:none;stroke-width:0.26458332;marker:none;enable-background:accumulate"
         d="m -46.395136,31.853959 0,19.936427 c -1.236828,11.502216 0.0059,10.648116 9.81153,10.648116 l 24.743478,0 c 10.394983,0 9.811527,0.741004 9.811527,-10.648116 l 0,-19.936427 z"
         id="path4255"
         sodipodi:nodetypes="ccssscc" />
      <path
         style="color:#000000;display:inline;overflow:visible;visibility:visible;opacity:0.07999998;fill:#ffffff;fill-opacity:1;fill-rule:nonzero;stroke:none;stroke-width:2.11666656;stroke-linecap:butt;stroke-linejoin:miter;stroke-miterlimit:4;stroke-dasharray:none;stroke-dashoffset:0;stroke-opacity:1;marker:none;enable-background:accumulate"
         d="m -17.153556,62.438502 15.1249551,-16.384574 0,6.139813 c 0.9120172,11.193544 0.095941,10.244761 -9.6230261,10.244761 z"
         id="path4254"
         inkscape:connector-curvature="0"
         sodipodi:nodetypes="cccsc" />
    </g>
    <g
       id="g4319">
      <path
         style="fill:#666666"
         d="m -46.391766,59.131425 0,0.677156 c 0,1.311981 1.115,2.368196 2.5,2.368196 l 39,0 c 1.385,0 2.5,-1.056215 2.5,-2.368196 l 0,-0.677156 c 0,1.491744 -1.267028,2.693823 -2.841797,2.693823 l -38.316406,0 c -1.574769,0 -2.841797,-1.202079 -2.841797,-2.693823 z"
         id="rect11"
         inkscape:connector-curvature="0" />
      <path
         d="m -46.416159,4.4076775 0,-0.633985 c 0,-1.228337 1.115,-2.217214 2.5,-2.217214 l 39.0000013,0 c 1.385,0 2.5,0.988877 2.5,2.217214 l 0,0.633985 c 0,-1.39664 -1.267028,-2.522082 -2.841797,-2.522082 l -38.3164073,0 c -1.574769,0 -2.841797,1.125442 -2.841797,2.522082 z"
         id="rect11-1"
         inkscape:connector-curvature="0"
         style="fill:#e6e6e6" />
    </g>
  </g>
</svg>
