<?xml version="1.0" encoding="UTF-8" standalone="no"?>
<svg
   xmlns:dc="http://purl.org/dc/elements/1.1/"
   xmlns:cc="http://creativecommons.org/ns#"
   xmlns:rdf="http://www.w3.org/1999/02/22-rdf-syntax-ns#"
   xmlns:svg="http://www.w3.org/2000/svg"
   xmlns="http://www.w3.org/2000/svg"
   xmlns:sodipodi="http://sodipodi.sourceforge.net/DTD/sodipodi-0.dtd"
   xmlns:inkscape="http://www.inkscape.org/namespaces/inkscape"
   height="64"
   viewBox="0 0 64 64"
   width="64"
   id="svg2"
   version="1.1"
   inkscape:version="0.91 r13725"
   sodipodi:docname="application-javascript.svg">
  <metadata
     id="metadata47">
    <rdf:RDF>
      <cc:Work
         rdf:about="">
        <dc:format>image/svg+xml</dc:format>
        <dc:type
           rdf:resource="http://purl.org/dc/dcmitype/StillImage" />
      </cc:Work>
    </rdf:RDF>
  </metadata>
  <defs
     id="defs45" />
  <sodipodi:namedview
     pagecolor="#ffffff"
     bordercolor="#666666"
     borderopacity="1"
     objecttolerance="10"
     gridtolerance="10"
     guidetolerance="10"
     inkscape:pageopacity="0"
     inkscape:pageshadow="2"
     inkscape:window-width="3798"
     inkscape:window-height="2046"
     id="namedview43"
     showgrid="false"
     inkscape:zoom="29.5"
     inkscape:cx="20.615798"
     inkscape:cy="26.689643"
     inkscape:window-x="19"
     inkscape:window-y="1105"
     inkscape:window-maximized="0"
     inkscape:current-layer="svg2" />
  <linearGradient
     id="a"
     gradientTransform="matrix(1.0749904,0,0,1.1792904,113.08072,-0.434132)"
     gradientUnits="userSpaceOnUse"
     x1="-74.929466"
     x2="-75.259552"
     y1="52.199436"
     y2="2.356489">
    <stop
       offset="0"
       stop-color="#ffa400"
       id="stop5" />
    <stop
       offset="1"
       stop-color="#fd0"
       id="stop7" />
  </linearGradient>
  <rect
     style="fill:url(#a)"
     id="rect11"
     y="1.468998"
     x="10"
     width="44"
     ry="2.864331"
     height="60.531002" />
  <g
     style="fill-opacity:0.58823494"
     id="g37"
     transform="translate(56.391766,1.823223)">
    <path
       style="fill-opacity:0.58823494"
       inkscape:connector-curvature="0"
       id="path39"
       d="m -28.187435,21.910658 1.915201,0 0,10.230943 q 0,2.073974 -1.250339,3.244926 -1.240415,1.170952 -3.314389,1.170952 -2.15336,0 -3.354082,-1.101489 -1.200722,-1.101488 -1.200722,-3.086152 l 1.905278,0 q 0,1.240415 0.674786,1.935047 0.684709,0.694633 1.97474,0.694633 1.180875,0 1.905278,-0.744249 0.734325,-0.744249 0.744249,-2.083898 z" />
    <path
       style="fill-opacity:0.58823494"
       inkscape:connector-curvature="0"
       id="path41"
       d="m -18.750358,29.918778 q -2.45106,-0.704556 -3.572395,-1.726658 -1.111412,-1.032025 -1.111412,-2.54037 0,-1.706811 1.359495,-2.818223 1.369418,-1.121335 3.552548,-1.121335 1.488498,0 2.649527,0.575552 1.170952,0.575553 1.806044,1.587732 0.645016,1.012178 0.645016,2.2129 l -1.915201,0 q 0,-1.309878 -0.833559,-2.054127 -0.833559,-0.754173 -2.351827,-0.754173 -1.409111,0 -2.202977,0.62517 -0.783942,0.615246 -0.783942,1.716734 0,0.883176 0.744249,1.498421 0.754172,0.605323 2.550293,1.111412 1.806045,0.50609 2.818223,1.121335 1.022102,0.605323 1.508345,1.419035 0.496166,0.813713 0.496166,1.915201 0,1.756428 -1.369418,2.818223 -1.369418,1.051872 -3.661705,1.051872 -1.488499,0 -2.77853,-0.565629 -1.290032,-0.575553 -1.994588,-1.567885 -0.694632,-0.992332 -0.694632,-2.252594 l 1.915201,0 q 0,1.309879 0.962562,2.073974 0.972485,0.754173 2.589987,0.754173 1.508344,0 2.312133,-0.615246 0.803789,-0.615246 0.803789,-1.677041 0,-1.061796 -0.744249,-1.637348 -0.744249,-0.585476 -2.699143,-1.151105 z" />
  </g>
  <g
     transform="translate(56.391766,-0.17677748)"
     id="g4364">
    <g
       id="g4274">
      <path
         style="color:#000000;display:inline;overflow:visible;visibility:visible;opacity:0.07999998;fill:#ffffff;fill-opacity:1;fill-rule:nonzero;stroke:none;stroke-width:0.26458332;marker:none;enable-background:accumulate"
         d="m -24.211872,1.2694285 0,61.1690735 12.371744,0 c 10.5678581,0 9.8115271,0.439894 9.8115271,-10.648116 l 0,-19.936427 0,-19.936427 c 0,-10.700833 0.8143853,-10.6481035 -9.8115271,-10.6481035 z"
         id="path4231"
         inkscape:connector-curvature="0"
         sodipodi:nodetypes="ccsscssc" />
      <path
         inkscape:connector-curvature="0"
         style="color:#000000;display:inline;overflow:visible;visibility:visible;opacity:0.07999998;fill:#ffffff;fill-opacity:1;fill-rule:nonzero;stroke:none;stroke-width:0.26458332;marker:none;enable-background:accumulate"
         d="m -46.395136,31.853959 0,19.936427 c -1.236828,11.502216 0.0059,10.648116 9.81153,10.648116 l 24.743478,0 c 10.394983,0 9.811527,0.741004 9.811527,-10.648116 l 0,-19.936427 z"
         id="path4255"
         sodipodi:nodetypes="ccssscc" />
      <path
         style="color:#000000;display:inline;overflow:visible;visibility:visible;opacity:0.07999998;fill:#ffffff;fill-opacity:1;fill-rule:nonzero;stroke:none;stroke-width:2.11666656;stroke-linecap:butt;stroke-linejoin:miter;stroke-miterlimit:4;stroke-dasharray:none;stroke-dashoffset:0;stroke-opacity:1;marker:none;enable-background:accumulate"
         d="m -17.153556,62.438502 15.1249551,-16.384574 0,6.139813 c 0.9120172,11.193544 0.095941,10.244761 -9.6230261,10.244761 z"
         id="path4254"
         inkscape:connector-curvature="0"
         sodipodi:nodetypes="cccsc" />
    </g>
    <g
       id="g4319">
      <path
         style="fill:#666666"
         d="m -46.391766,59.131425 0,0.677156 c 0,1.311981 1.115,2.368196 2.5,2.368196 l 39,0 c 1.385,0 2.5,-1.056215 2.5,-2.368196 l 0,-0.677156 c 0,1.491744 -1.267028,2.693823 -2.841797,2.693823 l -38.316406,0 c -1.574769,0 -2.841797,-1.202079 -2.841797,-2.693823 z"
         id="rect11-5"
         inkscape:connector-curvature="0" />
      <path
         d="m -46.416159,4.4076775 0,-0.633985 c 0,-1.228337 1.115,-2.217214 2.5,-2.217214 l 39.0000013,0 c 1.385,0 2.5,0.988877 2.5,2.217214 l 0,0.633985 c 0,-1.39664 -1.267028,-2.522082 -2.841797,-2.522082 l -38.3164073,0 c -1.574769,0 -2.841797,1.125442 -2.841797,2.522082 z"
         id="rect11-1"
         inkscape:connector-curvature="0"
         style="fill:#e6e6e6" />
    </g>
  </g>
</svg>
