<?xml version="1.0" encoding="UTF-8" standalone="no"?>
<svg
   xmlns:dc="http://purl.org/dc/elements/1.1/"
   xmlns:cc="http://creativecommons.org/ns#"
   xmlns:rdf="http://www.w3.org/1999/02/22-rdf-syntax-ns#"
   xmlns:svg="http://www.w3.org/2000/svg"
   xmlns="http://www.w3.org/2000/svg"
   xmlns:sodipodi="http://sodipodi.sourceforge.net/DTD/sodipodi-0.dtd"
   xmlns:inkscape="http://www.inkscape.org/namespaces/inkscape"
   height="64"
   viewBox="0 0 64 64"
   width="64"
   id="svg2"
   version="1.1"
   inkscape:version="0.91 r13725"
   sodipodi:docname="application-x-smb-workgroup.svg">
  <metadata
     id="metadata33">
    <rdf:RDF>
      <cc:Work
         rdf:about="">
        <dc:format>image/svg+xml</dc:format>
        <dc:type
           rdf:resource="http://purl.org/dc/dcmitype/StillImage" />
      </cc:Work>
    </rdf:RDF>
  </metadata>
  <defs
     id="defs31" />
  <sodipodi:namedview
     pagecolor="#ffffff"
     bordercolor="#666666"
     borderopacity="1"
     objecttolerance="10"
     gridtolerance="10"
     guidetolerance="10"
     inkscape:pageopacity="0"
     inkscape:pageshadow="2"
     inkscape:window-width="3798"
     inkscape:window-height="2046"
     id="namedview29"
     showgrid="false"
     inkscape:zoom="20.85965"
     inkscape:cx="43.675042"
     inkscape:cy="32.662602"
     inkscape:window-x="19"
     inkscape:window-y="55"
     inkscape:window-maximized="0"
     inkscape:current-layer="svg2" />
  <linearGradient
     id="a"
     gradientTransform="matrix(1.0749904,0,0,1.1789657,113.08072,-0.433608)"
     gradientUnits="userSpaceOnUse"
     x1="-74.929466"
     x2="-75.259552"
     y1="52.199436"
     y2="2.356489">
    <stop
       offset="0"
       stop-color="#197cf1"
       id="stop5" />
    <stop
       offset="1"
       stop-color="#20bcfa"
       id="stop7" />
  </linearGradient>
  <rect
     style="fill:url(#a)"
     id="rect11"
     y="1.468998"
     x="10"
     width="44"
     ry="2.8635421"
     height="60.514336" />
  <path
     style="fill:#0b3969;stroke-width:0.2;stroke-linejoin:round"
     inkscape:connector-curvature="0"
     id="path27"
     d="m 22.911562,28.480774 c 1.767309,0 3.199983,1.432674 3.199983,3.199984 0,1.011385 -0.469188,1.913179 -1.201769,2.499587 1.00992,3.073668 3.831663,5.326636 7.201769,5.500396 0,1.240623 0.513448,2.361297 1.339452,3.161179 l -0.939435,0.03885 c -5.158737,0 -9.502838,-3.487731 -10.803032,-8.233819 -1.171099,-0.475503 -1.996952,-1.624371 -1.996952,-2.966198 0,-1.76731 1.432674,-3.199984 3.199984,-3.199984 z m 13.2,-8.000033 c 1.767309,0 3.199983,1.432724 3.199983,3.200033 0,1.76731 -1.432674,3.199983 -3.199983,3.199983 -1.764026,0 -3.194678,-1.427368 -3.199984,-3.190181 -0.13253,-0.0065 -0.265869,-0.0098 -0.400016,-0.0098 -3.107723,0 -5.801533,1.772009 -7.126232,4.360725 -0.704892,-0.480102 -1.556564,-0.760725 -2.473768,-0.760725 l -0.728085,0.05992 c 1.695613,-4.030182 5.681381,-6.859958 10.328085,-6.859958 0.809633,0 1.599157,0.08594 2.360033,0.249094 0.381322,-0.160421 0.800287,-0.249094 1.239967,-0.249094 z m 0.400016,16.000017 c 0.706055,0 1.358704,0.228682 1.887916,0.615966 1.31131,-1.424842 2.112051,-3.326854 2.112051,-5.415966 C 40.511545,29.932951 39.951056,28.316059 39,27 c 0.88901,-0.774266 1.46405,-1.899891 1.508766,-3.160472 1.981137,2.020295 3.202812,4.788126 3.202812,7.84123 0,3.473078 -1.580867,6.57696 -4.062265,8.63131 -0.293153,1.46496 -1.586526,2.568707 -3.137735,2.568707 -1.767309,0 -3.200033,-1.432724 -3.200033,-3.200034 0,-1.767309 1.432724,-3.199983 3.200033,-3.199983 z" />
  <g
     transform="translate(56.391766,-0.17677748)"
     id="g4364">
    <g
       id="g4274">
      <path
         style="color:#000000;display:inline;overflow:visible;visibility:visible;opacity:0.07999998;fill:#ffffff;fill-opacity:1;fill-rule:nonzero;stroke:none;stroke-width:0.26458332;marker:none;enable-background:accumulate"
         d="m -24.211872,1.2694285 0,61.1690735 12.371744,0 c 10.5678581,0 9.8115271,0.439894 9.8115271,-10.648116 l 0,-19.936427 0,-19.936427 c 0,-10.700833 0.8143853,-10.6481035 -9.8115271,-10.6481035 z"
         id="path4231"
         inkscape:connector-curvature="0"
         sodipodi:nodetypes="ccsscssc" />
      <path
         inkscape:connector-curvature="0"
         style="color:#000000;display:inline;overflow:visible;visibility:visible;opacity:0.07999998;fill:#ffffff;fill-opacity:1;fill-rule:nonzero;stroke:none;stroke-width:0.26458332;marker:none;enable-background:accumulate"
         d="m -46.395136,31.853959 0,19.936427 c -1.236828,11.502216 0.0059,10.648116 9.81153,10.648116 l 24.743478,0 c 10.394983,0 9.811527,0.741004 9.811527,-10.648116 l 0,-19.936427 z"
         id="path4255"
         sodipodi:nodetypes="ccssscc" />
      <path
         style="color:#000000;display:inline;overflow:visible;visibility:visible;opacity:0.07999998;fill:#ffffff;fill-opacity:1;fill-rule:nonzero;stroke:none;stroke-width:2.11666656;stroke-linecap:butt;stroke-linejoin:miter;stroke-miterlimit:4;stroke-dasharray:none;stroke-dashoffset:0;stroke-opacity:1;marker:none;enable-background:accumulate"
         d="m -17.153556,62.438502 15.1249551,-16.384574 0,6.139813 c 0.9120172,11.193544 0.095941,10.244761 -9.6230261,10.244761 z"
         id="path4254"
         inkscape:connector-curvature="0"
         sodipodi:nodetypes="cccsc" />
    </g>
    <g
       id="g4319">
      <path
         style="fill:#666666"
         d="m -46.391766,59.131425 0,0.677156 c 0,1.311981 1.115,2.368196 2.5,2.368196 l 39,0 c 1.385,0 2.5,-1.056215 2.5,-2.368196 l 0,-0.677156 c 0,1.491744 -1.267028,2.693823 -2.841797,2.693823 l -38.316406,0 c -1.574769,0 -2.841797,-1.202079 -2.841797,-2.693823 z"
         id="rect11-5"
         inkscape:connector-curvature="0" />
      <path
         d="m -46.416159,4.4076775 0,-0.633985 c 0,-1.228337 1.115,-2.217214 2.5,-2.217214 l 39.0000013,0 c 1.385,0 2.5,0.988877 2.5,2.217214 l 0,0.633985 c 0,-1.39664 -1.267028,-2.522082 -2.841797,-2.522082 l -38.3164073,0 c -1.574769,0 -2.841797,1.125442 -2.841797,2.522082 z"
         id="rect11-1"
         inkscape:connector-curvature="0"
         style="fill:#e6e6e6" />
    </g>
  </g>
</svg>
