<?xml version="1.0" encoding="UTF-8" standalone="no"?>
<svg
   xmlns:dc="http://purl.org/dc/elements/1.1/"
   xmlns:cc="http://creativecommons.org/ns#"
   xmlns:rdf="http://www.w3.org/1999/02/22-rdf-syntax-ns#"
   xmlns:svg="http://www.w3.org/2000/svg"
   xmlns="http://www.w3.org/2000/svg"
   xmlns:sodipodi="http://sodipodi.sourceforge.net/DTD/sodipodi-0.dtd"
   xmlns:inkscape="http://www.inkscape.org/namespaces/inkscape"
   height="64"
   viewBox="0 0 64 64"
   width="64"
   id="svg2"
   version="1.1"
   inkscape:version="0.91 r13725"
   sodipodi:docname="application-x-osm+xml.svg">
  <metadata
     id="metadata37">
    <rdf:RDF>
      <cc:Work
         rdf:about="">
        <dc:format>image/svg+xml</dc:format>
        <dc:type
           rdf:resource="http://purl.org/dc/dcmitype/StillImage" />
      </cc:Work>
    </rdf:RDF>
  </metadata>
  <defs
     id="defs35" />
  <sodipodi:namedview
     pagecolor="#ffffff"
     bordercolor="#666666"
     borderopacity="1"
     objecttolerance="10"
     gridtolerance="10"
     guidetolerance="10"
     inkscape:pageopacity="0"
     inkscape:pageshadow="2"
     inkscape:window-width="3798"
     inkscape:window-height="2046"
     id="namedview33"
     showgrid="false"
     inkscape:zoom="20.85965"
     inkscape:cx="33.865602"
     inkscape:cy="28.736327"
     inkscape:window-x="19"
     inkscape:window-y="1105"
     inkscape:window-maximized="0"
     inkscape:current-layer="svg2" />
  <linearGradient
     id="a"
     gradientTransform="matrix(1.0749904,0,0,1.1749899,113.12866,-0.42719209)"
     gradientUnits="userSpaceOnUse"
     x1="-74.929466"
     x2="-75.259552"
     y1="52.199436"
     y2="2.356489">
    <stop
       offset="0"
       stop-color="#1b92f4"
       id="stop5" />
    <stop
       offset="1"
       stop-color="#20b9fa"
       id="stop7" />
  </linearGradient>
  <rect
     style="fill:url(#a)"
     id="rect13"
     y="1.468998"
     x="10.047939"
     width="44"
     ry="2.8538857"
     height="60.310265" />
  <g
     style="fill:#0c426b;stroke-opacity:0.8"
     id="g25"
     transform="matrix(0.16384937,0,0,0.16384935,5.4392682,-0.74554896)">
    <path
       inkscape:connector-curvature="0"
       id="path27"
       d="m 129.532,225.558 c -0.133,-0.919 -0.625,-1.747 -1.368,-2.303 l -37.7,-28.193 37.7,-28.193 c 0.743,-0.556 1.235,-1.384 1.368,-2.303 0.132,-0.919 -0.105,-1.852 -0.662,-2.597 l -5.989,-8.008 c -1.159,-1.548 -3.351,-1.865 -4.899,-0.706 l -52.157,39.004 c -0.883,0.66 -1.404,1.699 -1.404,2.803 0,1.104 0.521,2.143 1.404,2.803 l 52.157,39.004 c 0.628,0.471 1.364,0.697 2.093,0.697 1.066,0 2.119,-0.484 2.806,-1.403 l 5.989,-8.008 c 0.556,-0.745 0.794,-1.678 0.662,-2.597 z" />
    <path
       inkscape:connector-curvature="0"
       id="path29"
       d="m 259.766,192.259 -52.155,-39.004 c -1.548,-1.158 -3.74,-0.841 -4.898,0.706 l -5.989,8.008 c -0.556,0.744 -0.794,1.678 -0.662,2.597 0.133,0.918 0.624,1.747 1.368,2.303 l 37.699,28.193 -37.699,28.193 c -0.744,0.556 -1.235,1.385 -1.368,2.303 -0.132,0.919 0.105,1.853 0.662,2.597 l 5.989,8.008 c 0.688,0.919 1.74,1.403 2.806,1.403 0.729,0 1.464,-0.227 2.093,-0.697 l 52.155,-39.004 c 0.883,-0.66 1.404,-1.699 1.404,-2.803 0,-1.104 -0.522,-2.143 -1.405,-2.803 z" />
    <path
       inkscape:connector-curvature="0"
       id="path31"
       d="m 196.264,132.436 -9.211,-3.895 c -0.854,-0.362 -1.818,-0.368 -2.679,-0.02 -0.86,0.349 -1.547,1.025 -1.908,1.88 l -55,130.084 c -0.753,1.78 0.08,3.834 1.861,4.587 l 9.211,3.895 c 0.435,0.185 0.899,0.276 1.363,0.276 0.447,0 0.894,-0.086 1.316,-0.257 0.86,-0.349 1.546,-1.025 1.908,-1.88 l 55,-130.084 c 0.752,-1.78 -0.081,-3.833 -1.861,-4.586 z" />
  </g>
  <g
     transform="translate(56.391766,-0.17677748)"
     id="g4364">
    <g
       id="g4274">
      <path
         style="color:#000000;display:inline;overflow:visible;visibility:visible;opacity:0.07999998;fill:#ffffff;fill-opacity:1;fill-rule:nonzero;stroke:none;stroke-width:0.26458332;marker:none;enable-background:accumulate"
         d="m -24.211872,1.2694285 0,61.1690735 12.371744,0 c 10.5678581,0 9.8115271,0.439894 9.8115271,-10.648116 l 0,-19.936427 0,-19.936427 c 0,-10.700833 0.8143853,-10.6481035 -9.8115271,-10.6481035 z"
         id="path4231"
         inkscape:connector-curvature="0"
         sodipodi:nodetypes="ccsscssc" />
      <path
         inkscape:connector-curvature="0"
         style="color:#000000;display:inline;overflow:visible;visibility:visible;opacity:0.07999998;fill:#ffffff;fill-opacity:1;fill-rule:nonzero;stroke:none;stroke-width:0.26458332;marker:none;enable-background:accumulate"
         d="m -46.395136,31.853959 0,19.936427 c -1.236828,11.502216 0.0059,10.648116 9.81153,10.648116 l 24.743478,0 c 10.394983,0 9.811527,0.741004 9.811527,-10.648116 l 0,-19.936427 z"
         id="path4255"
         sodipodi:nodetypes="ccssscc" />
      <path
         style="color:#000000;display:inline;overflow:visible;visibility:visible;opacity:0.07999998;fill:#ffffff;fill-opacity:1;fill-rule:nonzero;stroke:none;stroke-width:2.11666656;stroke-linecap:butt;stroke-linejoin:miter;stroke-miterlimit:4;stroke-dasharray:none;stroke-dashoffset:0;stroke-opacity:1;marker:none;enable-background:accumulate"
         d="m -17.153556,62.438502 15.1249551,-16.384574 0,6.139813 c 0.9120172,11.193544 0.095941,10.244761 -9.6230261,10.244761 z"
         id="path4254"
         inkscape:connector-curvature="0"
         sodipodi:nodetypes="cccsc" />
    </g>
    <g
       id="g4319">
      <path
         style="fill:#666666"
         d="m -46.391766,59.131425 0,0.677156 c 0,1.311981 1.115,2.368196 2.5,2.368196 l 39,0 c 1.385,0 2.5,-1.056215 2.5,-2.368196 l 0,-0.677156 c 0,1.491744 -1.267028,2.693823 -2.841797,2.693823 l -38.316406,0 c -1.574769,0 -2.841797,-1.202079 -2.841797,-2.693823 z"
         id="rect11-5"
         inkscape:connector-curvature="0" />
      <path
         d="m -46.416159,4.4076775 0,-0.633985 c 0,-1.228337 1.115,-2.217214 2.5,-2.217214 l 39.0000013,0 c 1.385,0 2.5,0.988877 2.5,2.217214 l 0,0.633985 c 0,-1.39664 -1.267028,-2.522082 -2.841797,-2.522082 l -38.3164073,0 c -1.574769,0 -2.841797,1.125442 -2.841797,2.522082 z"
         id="rect11-1"
         inkscape:connector-curvature="0"
         style="fill:#e6e6e6" />
    </g>
  </g>
</svg>
