<?xml version="1.0" encoding="UTF-8" standalone="no"?>
<svg
   xmlns:dc="http://purl.org/dc/elements/1.1/"
   xmlns:cc="http://creativecommons.org/ns#"
   xmlns:rdf="http://www.w3.org/1999/02/22-rdf-syntax-ns#"
   xmlns:svg="http://www.w3.org/2000/svg"
   xmlns="http://www.w3.org/2000/svg"
   xmlns:sodipodi="http://sodipodi.sourceforge.net/DTD/sodipodi-0.dtd"
   xmlns:inkscape="http://www.inkscape.org/namespaces/inkscape"
   height="64"
   viewBox="0 0 64 64"
   width="64"
   id="svg2"
   version="1.1"
   inkscape:version="0.91 r13725"
   sodipodi:docname="application-drawing.svg">
  <metadata
     id="metadata39">
    <rdf:RDF>
      <cc:Work
         rdf:about="">
        <dc:format>image/svg+xml</dc:format>
        <dc:type
           rdf:resource="http://purl.org/dc/dcmitype/StillImage" />
      </cc:Work>
    </rdf:RDF>
  </metadata>
  <defs
     id="defs37" />
  <sodipodi:namedview
     pagecolor="#ffffff"
     bordercolor="#666666"
     borderopacity="1"
     objecttolerance="10"
     gridtolerance="10"
     guidetolerance="10"
     inkscape:pageopacity="0"
     inkscape:pageshadow="2"
     inkscape:window-width="3798"
     inkscape:window-height="2046"
     id="namedview35"
     showgrid="false"
     inkscape:zoom="20.85965"
     inkscape:cx="28.563738"
     inkscape:cy="32.571482"
     inkscape:window-x="19"
     inkscape:window-y="1105"
     inkscape:window-maximized="0"
     inkscape:current-layer="svg2" />
  <linearGradient
     id="a"
     gradientTransform="matrix(1.0749904,0,0,1.1768579,113.08072,-0.43020658)"
     gradientUnits="userSpaceOnUse"
     x1="-74.929466"
     x2="-75.259552"
     y1="52.199436"
     y2="2.356489">
    <stop
       offset="0"
       stop-color="#2aaa76"
       id="stop5" />
    <stop
       offset="1"
       stop-color="#3ec380"
       id="stop7" />
  </linearGradient>
  <rect
     style="fill:url(#a)"
     id="rect13"
     y="1.468998"
     x="10"
     width="44"
     ry="2.8584225"
     height="60.406143" />
  <g
     style="fill:#ffffff"
     id="g17"
     transform="matrix(0.81954967,0,0,0.81954967,52.057483,14.544998)">
    <g
       style="fill:#ffffff"
       id="g19" />
    <path
       style="fill:#144e36"
       inkscape:connector-curvature="0"
       id="path33"
       transform="matrix(0.07225513,0,0,0.07225513,-38.072579,6.6560997)"
       d="m 44.405,355.411 120.029,0 0,15.589 43.647,0 0,-15.589 120.547,0 0,17.622 43.646,0 0,-43.646 -16.104,0 0,-122.064 15.588,0 0,-43.647 -15.588,0 0,-113.319 16.105,0 0,-43.647 -43.646,0 0,8.878 -120.547,0 0,-15.588 -43.647,0 0,15.588 -120.03,0 0,-10.912 -43.647,0 0,43.647 15.588,0 0,115.353 -15.588,0 0,43.647 15.588,0 0,120.029 -15.588,0 0,43.648 43.647,0 z m -12.47,0 0,3.118 -18.706,0 0,-18.706 3.118,0 12.471,0 3.118,0 0,3.118 0,12.47 z m 144.97,-339.823 0,-3.118 18.706,0 0,3.118 0,6.521 0,5.949 0,3.117 -18.706,0 0,-3.117 0,-5.949 z m 18.706,339.823 0,3.118 -18.706,0 0,-3.118 0,-6.521 0,-5.948 0,-3.118 18.706,0 0,3.118 0,5.948 z m 2.077,-162.896 c 1.212,1.218 1.212,3.19 0,4.408 -0.615,0.608 -1.406,0.913 -2.21,0.913 -0.792,0 -1.593,-0.305 -2.205,-0.913 l -7.014,-7.015 -7.015,7.015 c -0.612,0.608 -1.409,0.913 -2.207,0.913 -0.798,0 -1.595,-0.305 -2.208,-0.913 -1.214,-1.218 -1.214,-3.19 0,-4.408 l 7.015,-7.015 -7.015,-7.015 c -1.214,-1.214 -1.214,-3.194 0,-4.409 1.215,-1.215 3.194,-1.215 4.409,0 l 7.021,7.015 7.014,-7.015 c 1.218,-1.215 3.191,-1.215 4.409,0 1.218,1.215 1.218,3.194 0,4.409 l -7.015,7.015 z m 162.117,168.047 -18.705,0 0,-5.151 0,-12.47 0,-1.084 2.6,0 12.471,0 3.635,0 0,18.705 z m -31.176,-31.175 0,13.555 -97.652,0 C 285.402,327.511 328.27,284.644 343.7,230.213 l 0,99.174 z m 30.658,-134.534 -3.117,0 -6.521,0 -5.949,0 -3.117,0 0,-18.706 3.117,0 5.949,0 6.521,0 3.117,0 z M 341.1,19.181 l 15.07,0 3.635,0 0,18.706 -3.635,0 -12.471,0 -2.6,0 0,-9.828 0,-8.878 z m -12.471,8.878 0,22.298 15.07,0 0,90.43 C 328.269,86.353 285.401,43.491 230.976,28.058 l 97.653,0 z m -315.4,-10.913 3.118,0 15.588,0 0,10.912 0,7.794 -3.118,0 -12.471,0 -3.118,0 0,-18.706 z m 31.176,31.177 0,-20.264 97.134,0 C 87.111,43.491 44.25,86.353 28.817,140.781 l 0,-92.458 15.588,0 z m -31.176,127.823 3.118,0 6.521,0 5.949,0 3.118,0 0,18.706 -3.118,0 -5.949,0 -6.521,0 -3.118,0 z m 15.588,54.067 c 15.433,54.431 58.294,97.298 112.723,112.729 l -97.135,0 0,-15.589 -15.588,0 z" />
  </g>
  <g
     transform="translate(56.391766,-0.17677748)"
     id="g4364">
    <g
       id="g4274">
      <path
         style="color:#000000;display:inline;overflow:visible;visibility:visible;opacity:0.07999998;fill:#ffffff;fill-opacity:1;fill-rule:nonzero;stroke:none;stroke-width:0.26458332;marker:none;enable-background:accumulate"
         d="m -24.211872,1.2694285 0,61.1690735 12.371744,0 c 10.5678581,0 9.8115271,0.439894 9.8115271,-10.648116 l 0,-19.936427 0,-19.936427 c 0,-10.700833 0.8143853,-10.6481035 -9.8115271,-10.6481035 z"
         id="path4231"
         inkscape:connector-curvature="0"
         sodipodi:nodetypes="ccsscssc" />
      <path
         inkscape:connector-curvature="0"
         style="color:#000000;display:inline;overflow:visible;visibility:visible;opacity:0.07999998;fill:#ffffff;fill-opacity:1;fill-rule:nonzero;stroke:none;stroke-width:0.26458332;marker:none;enable-background:accumulate"
         d="m -46.395136,31.853959 0,19.936427 c -1.236828,11.502216 0.0059,10.648116 9.81153,10.648116 l 24.743478,0 c 10.394983,0 9.811527,0.741004 9.811527,-10.648116 l 0,-19.936427 z"
         id="path4255"
         sodipodi:nodetypes="ccssscc" />
      <path
         style="color:#000000;display:inline;overflow:visible;visibility:visible;opacity:0.07999998;fill:#ffffff;fill-opacity:1;fill-rule:nonzero;stroke:none;stroke-width:2.11666656;stroke-linecap:butt;stroke-linejoin:miter;stroke-miterlimit:4;stroke-dasharray:none;stroke-dashoffset:0;stroke-opacity:1;marker:none;enable-background:accumulate"
         d="m -17.153556,62.438502 15.1249551,-16.384574 0,6.139813 c 0.9120172,11.193544 0.095941,10.244761 -9.6230261,10.244761 z"
         id="path4254"
         inkscape:connector-curvature="0"
         sodipodi:nodetypes="cccsc" />
    </g>
    <g
       id="g4319">
      <path
         style="fill:#666666"
         d="m -46.391766,59.131425 0,0.677156 c 0,1.311981 1.115,2.368196 2.5,2.368196 l 39,0 c 1.385,0 2.5,-1.056215 2.5,-2.368196 l 0,-0.677156 c 0,1.491744 -1.267028,2.693823 -2.841797,2.693823 l -38.316406,0 c -1.574769,0 -2.841797,-1.202079 -2.841797,-2.693823 z"
         id="rect11"
         inkscape:connector-curvature="0" />
      <path
         d="m -46.416159,4.4076775 0,-0.633985 c 0,-1.228337 1.115,-2.217214 2.5,-2.217214 l 39.0000013,0 c 1.385,0 2.5,0.988877 2.5,2.217214 l 0,0.633985 c 0,-1.39664 -1.267028,-2.522082 -2.841797,-2.522082 l -38.3164073,0 c -1.574769,0 -2.841797,1.125442 -2.841797,2.522082 z"
         id="rect11-1"
         inkscape:connector-curvature="0"
         style="fill:#ffffff" />
    </g>
  </g>
</svg>
