<?xml version="1.0" encoding="UTF-8" standalone="no"?>
<!-- Created with Inkscape (http://www.inkscape.org/) -->

<svg
   xmlns:dc="http://purl.org/dc/elements/1.1/"
   xmlns:cc="http://creativecommons.org/ns#"
   xmlns:rdf="http://www.w3.org/1999/02/22-rdf-syntax-ns#"
   xmlns:svg="http://www.w3.org/2000/svg"
   xmlns="http://www.w3.org/2000/svg"
   xmlns:xlink="http://www.w3.org/1999/xlink"
   xmlns:sodipodi="http://sodipodi.sourceforge.net/DTD/sodipodi-0.dtd"
   xmlns:inkscape="http://www.inkscape.org/namespaces/inkscape"
   width="128"
   height="128"
   viewBox="0 0 33.866666 33.866668"
   version="1.1"
   id="svg366"
   inkscape:version="0.91 r13725"
   sodipodi:docname="folder-remote.svg">
  <defs
     id="defs360">
    <clipPath
       clipPathUnits="userSpaceOnUse"
       id="clipPath977">
      <path
         id="path979"
         d="M 78.994141,52 C 43.625611,52 40,53.999146 40,89.296875 V 140 H 264 V 108.92188 C 264,73.624145 260.37439,68 225.00586,68 H 138 L 122,52 Z"
         style="color:#000000;display:inline;overflow:visible;visibility:visible;fill:#f6531e;fill-opacity:1;fill-rule:nonzero;stroke:none;stroke-width:1;marker:none;enable-background:accumulate"
         inkscape:connector-curvature="0" />
    </clipPath>
    <clipPath
       clipPathUnits="userSpaceOnUse"
       id="clipPath977-3">
      <path
         id="path979-6"
         d="M 78.994141,52 C 43.625611,52 40,53.999146 40,89.296875 V 140 H 264 V 108.92188 C 264,73.624145 260.37439,68 225.00586,68 H 138 L 122,52 Z"
         style="color:#000000;display:inline;overflow:visible;visibility:visible;fill:#f6531e;fill-opacity:1;fill-rule:nonzero;stroke:none;stroke-width:1;marker:none;enable-background:accumulate"
         inkscape:connector-curvature="0" />
    </clipPath>
    <clipPath
       clipPathUnits="userSpaceOnUse"
       id="clipPath977-3-4">
      <path
         id="path979-6-2"
         d="M 78.994141,52 C 43.625611,52 40,53.999146 40,89.296875 L 40,140 l 224,0 0,-31.07812 C 264,73.624145 260.37439,68 225.00586,68 L 138,68 122,52 Z"
         style="color:#000000;display:inline;overflow:visible;visibility:visible;fill:#f6531e;fill-opacity:1;fill-rule:nonzero;stroke:none;stroke-width:1;marker:none;enable-background:accumulate"
         inkscape:connector-curvature="0" />
    </clipPath>
    <filter
       inkscape:collect="always"
       style="color-interpolation-filters:sRGB"
       id="filter1344-3"
       x="-0.011357143"
       width="1.0227143"
       y="-0.01272"
       height="1.02544">
      <feGaussianBlur
         inkscape:collect="always"
         stdDeviation="1.06"
         id="feGaussianBlur1346-5" />
    </filter>
    <filter
       inkscape:collect="always"
       style="color-interpolation-filters:sRGB"
       id="filter959-1"
       x="-0.011357143"
       width="1.0227143"
       y="-0.01272"
       height="1.02544">
      <feGaussianBlur
         inkscape:collect="always"
         stdDeviation="1.06"
         id="feGaussianBlur961-7" />
    </filter>
    <linearGradient
       inkscape:collect="always"
       xlink:href="#linearGradient1055"
       id="linearGradient4251"
       gradientUnits="userSpaceOnUse"
       gradientTransform="translate(-27.28,-38.771199)"
       x1="264"
       y1="252"
       x2="48"
       y2="52" />
    <linearGradient
       inkscape:collect="always"
       id="linearGradient1055">
      <stop
         style="stop-color:#000000;stop-opacity:1;"
         offset="0"
         id="stop1051" />
      <stop
         id="stop1059"
         offset="0.1589853"
         style="stop-color:#000000;stop-opacity:0.43290043" />
      <stop
         style="stop-color:#000000;stop-opacity:0.0995671"
         offset="0.19443204"
         id="stop1061" />
      <stop
         style="stop-color:#000000;stop-opacity:0;"
         offset="1"
         id="stop1053" />
    </linearGradient>
    <filter
       inkscape:collect="always"
       style="color-interpolation-filters:sRGB"
       id="filter1067-6"
       x="-0.056785714"
       width="1.1135714"
       y="-0.063600004"
       height="1.1272">
      <feGaussianBlur
         inkscape:collect="always"
         stdDeviation="5.3"
         id="feGaussianBlur1069-9" />
    </filter>
    <clipPath
       clipPathUnits="userSpaceOnUse"
       id="clipPath977-3-4-4">
      <path
         id="path979-6-2-4"
         d="M 78.994141,52 C 43.625611,52 40,53.999146 40,89.296875 L 40,140 l 224,0 0,-31.07812 C 264,73.624145 260.37439,68 225.00586,68 L 138,68 122,52 Z"
         style="color:#000000;display:inline;overflow:visible;visibility:visible;fill:#f6531e;fill-opacity:1;fill-rule:nonzero;stroke:none;stroke-width:1;marker:none;enable-background:accumulate"
         inkscape:connector-curvature="0" />
    </clipPath>
    <filter
       inkscape:collect="always"
       style="color-interpolation-filters:sRGB"
       id="filter989-2"
       x="-0.053571429"
       width="1.1071429"
       y="-0.06818182"
       height="1.1363636">
      <feGaussianBlur
         inkscape:collect="always"
         stdDeviation="5"
         id="feGaussianBlur991-6" />
    </filter>
    <radialGradient
       inkscape:collect="always"
       xlink:href="#linearGradient1361"
       id="radialGradient1371-4"
       cx="152"
       cy="-0.12591045"
       fx="152"
       fy="-0.12591045"
       r="112"
       gradientTransform="matrix(0.14218346,0,0,0.03740052,258.31512,44.007158)"
       gradientUnits="userSpaceOnUse" />
    <linearGradient
       inkscape:collect="always"
       id="linearGradient1361">
      <stop
         style="stop-color:#ffffff;stop-opacity:1;"
         offset="0"
         id="stop1357" />
      <stop
         style="stop-color:#ffffff;stop-opacity:0.20392157"
         offset="1"
         id="stop1359" />
    </linearGradient>
    <radialGradient
       inkscape:collect="always"
       xlink:href="#linearGradient1361"
       id="radialGradient1363-8"
       cx="148"
       cy="39.683556"
       fx="148"
       fy="39.683556"
       r="112"
       gradientTransform="matrix(0.14218346,0,0,0.03613103,258.31512,47.687245)"
       gradientUnits="userSpaceOnUse" />
  </defs>
  <sodipodi:namedview
     id="base"
     pagecolor="#ffffff"
     bordercolor="#666666"
     borderopacity="1.0"
     inkscape:pageopacity="0.0"
     inkscape:pageshadow="2"
     inkscape:zoom="6.5625"
     inkscape:cx="68.20557"
     inkscape:cy="42.774284"
     inkscape:document-units="mm"
     inkscape:current-layer="layer1"
     showgrid="false"
     units="px"
     inkscape:window-width="1890"
     inkscape:window-height="2046"
     inkscape:window-x="1927"
     inkscape:window-y="1105"
     inkscape:window-maximized="0" />
  <metadata
     id="metadata363">
    <rdf:RDF>
      <cc:Work
         rdf:about="">
        <dc:format>image/svg+xml</dc:format>
        <dc:type
           rdf:resource="http://purl.org/dc/dcmitype/StillImage" />
        <dc:title />
      </cc:Work>
    </rdf:RDF>
  </metadata>
  <g
     inkscape:label="Livello 1"
     inkscape:groupmode="layer"
     id="layer1"
     transform="translate(0,-263.13332)">
    <g
       style="color:#000000"
       transform="matrix(0.95489872,0,0,0.95489872,-250.3686,225.89957)"
       id="g902">
      <path
         style="color:#000000;display:inline;overflow:visible;visibility:visible;opacity:0.1;fill:#000000;fill-opacity:1;fill-rule:nonzero;stroke:none;stroke-width:1;marker:none;filter:url(#filter1344-3);enable-background:accumulate"
         d="M 51.714141,15.228801 C 16.345611,15.228801 12.72,17.227947 12.72,52.525676 l 0,41.625005 0,9.078119 0,73.07812 c 0,35.29774 3.625611,38.92188 38.994141,38.92188 l 146.011719,0 c 35.36853,0 38.99414,-3.62414 38.99414,-38.92188 l 0,-73.07812 0,-25.078119 0,-6 c 0,-35.29774 -3.62561,-40.92188 -38.99414,-40.92188 l -87.00586,0 -16,-16 z"
         id="path2049-8"
         inkscape:connector-curvature="0"
         transform="matrix(0.14218346,0,0,0.14218346,262.19388,40.984065)" />
      <path
         style="color:#000000;display:inline;overflow:visible;visibility:visible;opacity:0.1;fill:#000000;fill-opacity:1;fill-rule:nonzero;stroke:none;stroke-width:1;marker:none;filter:url(#filter959-1);enable-background:accumulate"
         d="M 51.714141,14.228801 C 16.345611,14.228801 12.72,16.227947 12.72,51.525676 l 0,41.625005 0,60.656239 0,29.5 c 0,35.29774 3.625611,38.92188 38.994141,38.92188 l 146.011719,0 c 35.36853,0 38.99414,-3.62414 38.99414,-38.92188 l 0,-29.5 0,-76.656239 0,-6 c 0,-35.297735 -3.62561,-40.92188 -38.99414,-40.92188 l -87.00586,0 -16,-16 z"
         id="path2055-9"
         inkscape:connector-curvature="0"
         sodipodi:nodetypes="ssccssssccssccs"
         transform="matrix(0.14218346,0,0,0.14218346,262.19388,40.984065)" />
      <path
         inkscape:connector-curvature="0"
         id="path2057-2"
         d="M 51.714141,13.228801 C 16.345611,13.228801 12.72,15.227947 12.72,50.525676 l 0,41.625005 0,9.078119 0,81.07812 c 0,35.29774 3.625611,38.92188 38.994141,38.92188 l 146.011719,0 c 35.36853,0 38.99414,-3.62414 38.99414,-38.92188 l 0,-81.07812 0,-25.078119 0,-6 c 0,-35.29774 -3.62561,-40.92188 -38.99414,-40.92188 l -87.00586,0 -16,-16 z"
         style="color:#000000;display:inline;overflow:visible;visibility:visible;opacity:0.4;fill:url(#linearGradient4251);fill-opacity:1;fill-rule:nonzero;stroke:none;stroke-width:1;marker:none;filter:url(#filter1067-6);enable-background:accumulate"
         sodipodi:nodetypes="ssccssssccssccs"
         transform="matrix(0.14218346,0,0,0.14218346,262.19388,40.984065)" />
      <path
         style="color:#000000;display:inline;overflow:visible;visibility:visible;fill:#666666;fill-opacity:1;fill-rule:nonzero;stroke:none;stroke-width:0.1357708;marker:none;enable-background:accumulate"
         d="m 269.54678,42.864974 c -5.02882,0 -5.54433,0.28425 -5.54433,5.303002 l 0,7.209142 31.8491,0 0,-4.418794 c 0,-5.018752 -0.5155,-5.818418 -5.54432,-5.818418 l -12.3708,0 -2.27493,-2.274932 z"
         id="path2059-8"
         inkscape:connector-curvature="0"
         sodipodi:nodetypes="ssccssccs" />
      <path
         sodipodi:nodetypes="ssssssssccs"
         style="color:#000000;display:inline;overflow:visible;visibility:visible;opacity:0.5;fill:#1a1a1a;fill-opacity:1;fill-rule:nonzero;stroke:none;stroke-width:1;marker:none;filter:url(#filter989-2);enable-background:accumulate"
         d="M 78.99353,92 C 43.625,92 40,95.625 40,130.92273 l 0,82.15454 C 40,248.375 43.625,252 78.99353,252 l 146.01294,0 C 260.375,252 264,248.375 264,213.07727 l 0,-98.15454 C 264,79.625 260.375,76 225.00647,76 L 143.75,76 127.74218,92 Z"
         id="path2061-8"
         inkscape:connector-curvature="0"
         clip-path="url(#clipPath977-3-4-4)"
         transform="matrix(0.14218346,0,0,0.14218346,258.31512,36.608909)" />
      <path
         style="color:#000000;display:inline;overflow:visible;visibility:visible;opacity:0.17300002;fill:#000000;fill-opacity:1;fill-rule:nonzero;stroke:none;stroke-width:0.1357708;marker:none;enable-background:accumulate"
         d="m 269.54678,42.864974 c -5.02882,0 -5.54433,0.28425 -5.54433,5.303002 l 0,7.209142 31.8491,0 0,-4.418794 c 0,-5.018752 -0.5155,-5.818418 -5.54432,-5.818418 l -12.3708,0 -2.27493,-2.274932 z"
         id="path2059-5"
         inkscape:connector-curvature="0"
         sodipodi:nodetypes="ssccssccs" />
      <path
         inkscape:connector-curvature="0"
         id="path2063-8"
         d="m 269.54669,49.689782 c -5.02882,0 -5.54424,0.515415 -5.54424,5.534168 l 0,11.681019 c 0,5.018753 0.51542,5.534168 5.54424,5.534168 l 20.76062,0 c 5.02882,0 5.54424,-0.515415 5.54424,-5.534168 l 0,-13.955952 c 0,-5.018752 -0.51542,-5.534168 -5.54424,-5.534168 l -11.55332,0 -2.27605,2.274933 z"
         style="color:#000000;display:inline;overflow:visible;visibility:visible;fill:#666666;fill-opacity:1;fill-rule:nonzero;stroke:none;stroke-width:0.1357708;marker:none;enable-background:accumulate"
         sodipodi:nodetypes="ssssssssccs" />
      <path
         style="color:#000000;display:inline;overflow:visible;visibility:visible;opacity:0.4;fill:url(#radialGradient1371-4);fill-opacity:1;fill-rule:nonzero;stroke:none;stroke-width:0.1357708;marker:none;enable-background:accumulate"
         d="m 269.54678,42.864974 c -5.02882,0 -5.54433,0.28425 -5.54433,5.303002 l 0,0.284365 c 0,-5.018752 0.51551,-5.302991 5.54433,-5.302991 l 6.11472,0 2.27493,2.274932 12.3708,0 c 5.02882,0 5.54432,0.799656 5.54432,5.818408 l 0,-0.284366 c 0,-5.018752 -0.5155,-5.818418 -5.54432,-5.818418 l -12.3708,0 -2.27493,-2.274932 z"
         id="path2065-6"
         inkscape:connector-curvature="0"
         sodipodi:nodetypes="sscsccscssccs" />
      <path
         style="color:#000000;display:inline;overflow:visible;visibility:visible;opacity:0.4;fill:url(#radialGradient1363-8);fill-opacity:1;fill-rule:nonzero;stroke:none;stroke-width:0.1357708;marker:none;enable-background:accumulate"
         d="m 278.75399,47.414849 -2.27605,2.274933 -6.93116,0 c -5.02882,0 -5.54433,0.51529 -5.54433,5.534042 l 0,0.284376 c 0,-5.018753 0.51551,-5.534053 5.54433,-5.534053 l 6.93116,0 2.27605,-2.274933 11.55324,0 c 5.02882,0 5.54432,0.515291 5.54432,5.534043 l 0,-0.284365 c 0,-5.018753 -0.5155,-5.534043 -5.54432,-5.534043 z"
         id="path2067-8"
         inkscape:connector-curvature="0"
         sodipodi:nodetypes="ccsscsccscssc" />
      <path
         style="color:#000000;display:inline;overflow:visible;visibility:visible;opacity:0.1;fill:#ffffff;fill-opacity:1;fill-rule:nonzero;stroke:none;stroke-width:0.1357708;marker:none;enable-background:accumulate"
         d="m 295.85155,63.055021 -9.09974,9.099749 3.55542,0 c 5.02882,0 5.54432,-0.515299 5.54432,-5.534051 z"
         id="path2069-3"
         inkscape:connector-curvature="0"
         sodipodi:nodetypes="ccssc" />
      <path
         style="color:#000000;display:inline;overflow:visible;visibility:visible;opacity:0.2;fill:#491706;fill-opacity:1;fill-rule:nonzero;stroke:none;stroke-width:0.1357708;marker:none;enable-background:accumulate"
         d="m 264.00245,66.620719 0,0.284365 c 0,5.018762 0.51551,5.534053 5.54433,5.534053 l 20.76045,0 c 5.02882,0 5.54432,-0.515291 5.54432,-5.534053 l 0,-0.284365 c 0,5.018752 -0.5155,5.534051 -5.54432,5.534051 l -20.76045,0 c -5.02882,0 -5.54433,-0.515299 -5.54433,-5.534051 z"
         id="path2089-8"
         inkscape:connector-curvature="0" />
      <path
         style="color:#000000;display:inline;overflow:visible;visibility:visible;opacity:0.07999998;fill:#ffffff;fill-opacity:0.82795697;fill-rule:nonzero;stroke:none;stroke-width:0.26458332;marker:none;enable-background:accumulate"
         d="m 279.68129,47.655 0,24.527229 8.98153,0 c 7.03079,0 7.12288,-0.705604 7.12288,-4.269614 l 0,-7.994 0,-7.994 c 0,-3.740114 0.0285,-4.269615 -7.12288,-4.269615 z"
         id="path4231"
         inkscape:connector-curvature="0"
         sodipodi:nodetypes="ccsscssc" />
    </g>
    <g
       style="color:#000000"
       transform="matrix(0.26458334,0,0,0.26458334,-123.00441,284.20393)"
       id="g4" />
    <path
       inkscape:connector-curvature="0"
       d="m 16.72583,276.37226 c -4.070863,0 -7.3780941,3.20783 -7.3780941,7.15635 0,3.94852 3.3072311,7.15635 7.3780941,7.15635 4.070866,0 7.378097,-3.20783 7.378097,-7.15635 0,-3.94852 -3.307231,-7.15635 -7.378097,-7.15635 z m -0.03689,0.89633 -0.01844,0.55194 0.84387,0.12255 0.569958,-0.53494 a 6.3931199,6.2009768 0 0 1 1.597359,0.55909 l -0.198287,0.30951 0.562581,0.48306 -0.562581,0.45621 0.219498,0.54568 1.250588,-0.57609 0.782076,0.57609 0.04058,-0.12435 c 0.169696,0.20754 0.322792,0.4267 0.46482,0.65302 l -0.788535,0.13866 -0.468508,-0.48574 -1.436886,0.0912 -0.876147,1.33466 0.594857,1.42411 1.937674,0.57609 0.375359,2.214 0.467588,1.15127 0.330171,-0.18159 a 6.4576782,6.263595 0 0 1 -5.650707,3.23736 c -3.561773,0 -6.455834,-2.80708 -6.455834,-6.26181 0,-0.72637 0.133729,-1.42143 0.368906,-2.06997 l 0.03136,0.12165 0.999734,0.27284 1.312378,0.93927 0.03136,1.36507 0.844794,1.12176 0.498019,3.0325 0.906585,0.54568 -0.24901,-1.12176 1.530953,-2.06192 0.656651,-1.3937 -1.530953,-1.39549 -1.657305,-0.75679 -0.687086,0.39271 -0.813435,-1.18259 -0.468509,0.2129 -0.405796,-0.66733 0.719365,-0.36318 0.686162,0.3936 1.188797,-1.42501 1.718172,-1.03051 -0.468508,-0.84982 -1.406448,0.48663 -0.175231,-0.18875 a 6.4069536,6.2143949 0 0 1 2.78892,-0.63781 z"
       font-weight="400"
       overflow="visible"
       style="color:#000000;font-weight:400;line-height:normal;font-family:sans-serif;text-indent:0;text-align:start;text-decoration:none;text-decoration-line:none;text-decoration-style:solid;text-decoration-color:#000000;text-transform:none;white-space:normal;overflow:visible;isolation:auto;mix-blend-mode:normal;fill:#f9f9f9;marker:none"
       white-space="normal"
       id="path6" />
    <ellipse
       style="opacity:1;fill:#f9f9f9;fill-opacity:0.36021507"
       id="path4370"
       cx="16.610792"
       cy="283.72546"
       rx="6.8136506"
       ry="6.6221433" />
  </g>
</svg>
