<?xml version="1.0" encoding="UTF-8" standalone="no"?>
<!-- Created with Inkscape (http://www.inkscape.org/) -->

<svg
   xmlns:dc="http://purl.org/dc/elements/1.1/"
   xmlns:cc="http://creativecommons.org/ns#"
   xmlns:rdf="http://www.w3.org/1999/02/22-rdf-syntax-ns#"
   xmlns:svg="http://www.w3.org/2000/svg"
   xmlns="http://www.w3.org/2000/svg"
   xmlns:xlink="http://www.w3.org/1999/xlink"
   xmlns:sodipodi="http://sodipodi.sourceforge.net/DTD/sodipodi-0.dtd"
   xmlns:inkscape="http://www.inkscape.org/namespaces/inkscape"
   width="128"
   height="128"
   viewBox="0 0 33.866666 33.866668"
   version="1.1"
   id="svg366"
   inkscape:version="0.91 r13725"
   sodipodi:docname="user-home.svg">
  <defs
     id="defs360">
    <clipPath
       clipPathUnits="userSpaceOnUse"
       id="clipPath977">
      <path
         id="path979"
         d="M 78.994141,52 C 43.625611,52 40,53.999146 40,89.296875 V 140 H 264 V 108.92188 C 264,73.624145 260.37439,68 225.00586,68 H 138 L 122,52 Z"
         style="color:#000000;display:inline;overflow:visible;visibility:visible;fill:#f6531e;fill-opacity:1;fill-rule:nonzero;stroke:none;stroke-width:1;marker:none;enable-background:accumulate"
         inkscape:connector-curvature="0" />
    </clipPath>
    <clipPath
       clipPathUnits="userSpaceOnUse"
       id="clipPath977-3">
      <path
         id="path979-6"
         d="M 78.994141,52 C 43.625611,52 40,53.999146 40,89.296875 V 140 H 264 V 108.92188 C 264,73.624145 260.37439,68 225.00586,68 H 138 L 122,52 Z"
         style="color:#000000;display:inline;overflow:visible;visibility:visible;fill:#f6531e;fill-opacity:1;fill-rule:nonzero;stroke:none;stroke-width:1;marker:none;enable-background:accumulate"
         inkscape:connector-curvature="0" />
    </clipPath>
    <filter
       inkscape:collect="always"
       style="color-interpolation-filters:sRGB"
       id="filter1344-3"
       x="-0.011357143"
       width="1.0227143"
       y="-0.01272"
       height="1.02544">
      <feGaussianBlur
         inkscape:collect="always"
         stdDeviation="1.06"
         id="feGaussianBlur1346-5" />
    </filter>
    <filter
       inkscape:collect="always"
       style="color-interpolation-filters:sRGB"
       id="filter959-1"
       x="-0.011357143"
       width="1.0227143"
       y="-0.01272"
       height="1.02544">
      <feGaussianBlur
         inkscape:collect="always"
         stdDeviation="1.06"
         id="feGaussianBlur961-7" />
    </filter>
    <linearGradient
       inkscape:collect="always"
       xlink:href="#linearGradient1055"
       id="linearGradient4251"
       gradientUnits="userSpaceOnUse"
       gradientTransform="translate(-27.28,-38.771199)"
       x1="264"
       y1="252"
       x2="48"
       y2="52" />
    <linearGradient
       inkscape:collect="always"
       id="linearGradient1055">
      <stop
         style="stop-color:#000000;stop-opacity:1;"
         offset="0"
         id="stop1051" />
      <stop
         id="stop1059"
         offset="0.1589853"
         style="stop-color:#000000;stop-opacity:0.43290043" />
      <stop
         style="stop-color:#000000;stop-opacity:0.0995671"
         offset="0.19443204"
         id="stop1061" />
      <stop
         style="stop-color:#000000;stop-opacity:0;"
         offset="1"
         id="stop1053" />
    </linearGradient>
    <filter
       inkscape:collect="always"
       style="color-interpolation-filters:sRGB"
       id="filter1067-6"
       x="-0.056785714"
       width="1.1135714"
       y="-0.063600004"
       height="1.1272">
      <feGaussianBlur
         inkscape:collect="always"
         stdDeviation="5.3"
         id="feGaussianBlur1069-9" />
    </filter>
    <clipPath
       clipPathUnits="userSpaceOnUse"
       id="clipPath977-3-4">
      <path
         id="path979-6-2"
         d="M 78.994141,52 C 43.625611,52 40,53.999146 40,89.296875 L 40,140 l 224,0 0,-31.07812 C 264,73.624145 260.37439,68 225.00586,68 L 138,68 122,52 Z"
         style="color:#000000;display:inline;overflow:visible;visibility:visible;fill:#f6531e;fill-opacity:1;fill-rule:nonzero;stroke:none;stroke-width:1;marker:none;enable-background:accumulate"
         inkscape:connector-curvature="0" />
    </clipPath>
    <filter
       inkscape:collect="always"
       style="color-interpolation-filters:sRGB"
       id="filter989-2"
       x="-0.053571429"
       width="1.1071429"
       y="-0.06818182"
       height="1.1363636">
      <feGaussianBlur
         inkscape:collect="always"
         stdDeviation="5"
         id="feGaussianBlur991-6" />
    </filter>
    <radialGradient
       inkscape:collect="always"
       xlink:href="#linearGradient1361"
       id="radialGradient1371-4"
       cx="152"
       cy="-0.12591045"
       fx="152"
       fy="-0.12591045"
       r="112"
       gradientTransform="matrix(0.14218346,0,0,0.03740052,258.31512,44.007158)"
       gradientUnits="userSpaceOnUse" />
    <linearGradient
       inkscape:collect="always"
       id="linearGradient1361">
      <stop
         style="stop-color:#ffffff;stop-opacity:1;"
         offset="0"
         id="stop1357" />
      <stop
         style="stop-color:#ffffff;stop-opacity:0.20392157"
         offset="1"
         id="stop1359" />
    </linearGradient>
    <radialGradient
       inkscape:collect="always"
       xlink:href="#linearGradient1361"
       id="radialGradient1363-8"
       cx="148"
       cy="39.683556"
       fx="148"
       fy="39.683556"
       r="112"
       gradientTransform="matrix(0.14218346,0,0,0.03613103,258.31512,47.687245)"
       gradientUnits="userSpaceOnUse" />
  </defs>
  <sodipodi:namedview
     id="base"
     pagecolor="#ffffff"
     bordercolor="#666666"
     borderopacity="1.0"
     inkscape:pageopacity="0.0"
     inkscape:pageshadow="2"
     inkscape:zoom="6.5625"
     inkscape:cx="23.847619"
     inkscape:cy="64"
     inkscape:document-units="mm"
     inkscape:current-layer="layer1"
     showgrid="false"
     units="px"
     inkscape:window-width="3798"
     inkscape:window-height="2046"
     inkscape:window-x="19"
     inkscape:window-y="1105"
     inkscape:window-maximized="0" />
  <metadata
     id="metadata363">
    <rdf:RDF>
      <cc:Work
         rdf:about="">
        <dc:format>image/svg+xml</dc:format>
        <dc:type
           rdf:resource="http://purl.org/dc/dcmitype/StillImage" />
        <dc:title />
      </cc:Work>
    </rdf:RDF>
  </metadata>
  <g
     inkscape:label="Livello 1"
     inkscape:groupmode="layer"
     id="layer1"
     transform="translate(0,-263.13332)">
    <g
       style="color:#000000"
       transform="matrix(0.95489872,0,0,0.95489872,-250.3686,225.89957)"
       id="g902">
      <path
         style="color:#000000;display:inline;overflow:visible;visibility:visible;opacity:0.1;fill:#000000;fill-opacity:1;fill-rule:nonzero;stroke:none;stroke-width:1;marker:none;filter:url(#filter1344-3);enable-background:accumulate"
         d="M 51.714141,15.228801 C 16.345611,15.228801 12.72,17.227947 12.72,52.525676 l 0,41.625005 0,9.078119 0,73.07812 c 0,35.29774 3.625611,38.92188 38.994141,38.92188 l 146.011719,0 c 35.36853,0 38.99414,-3.62414 38.99414,-38.92188 l 0,-73.07812 0,-25.078119 0,-6 c 0,-35.29774 -3.62561,-40.92188 -38.99414,-40.92188 l -87.00586,0 -16,-16 z"
         id="path2049-8"
         inkscape:connector-curvature="0"
         transform="matrix(0.14218346,0,0,0.14218346,262.19388,40.984065)" />
      <path
         style="color:#000000;display:inline;overflow:visible;visibility:visible;opacity:0.1;fill:#000000;fill-opacity:1;fill-rule:nonzero;stroke:none;stroke-width:1;marker:none;filter:url(#filter959-1);enable-background:accumulate"
         d="M 51.714141,14.228801 C 16.345611,14.228801 12.72,16.227947 12.72,51.525676 l 0,41.625005 0,60.656239 0,29.5 c 0,35.29774 3.625611,38.92188 38.994141,38.92188 l 146.011719,0 c 35.36853,0 38.99414,-3.62414 38.99414,-38.92188 l 0,-29.5 0,-76.656239 0,-6 c 0,-35.297735 -3.62561,-40.92188 -38.99414,-40.92188 l -87.00586,0 -16,-16 z"
         id="path2055-9"
         inkscape:connector-curvature="0"
         sodipodi:nodetypes="ssccssssccssccs"
         transform="matrix(0.14218346,0,0,0.14218346,262.19388,40.984065)" />
      <path
         inkscape:connector-curvature="0"
         id="path2057-2"
         d="M 51.714141,13.228801 C 16.345611,13.228801 12.72,15.227947 12.72,50.525676 l 0,41.625005 0,9.078119 0,81.07812 c 0,35.29774 3.625611,38.92188 38.994141,38.92188 l 146.011719,0 c 35.36853,0 38.99414,-3.62414 38.99414,-38.92188 l 0,-81.07812 0,-25.078119 0,-6 c 0,-35.29774 -3.62561,-40.92188 -38.99414,-40.92188 l -87.00586,0 -16,-16 z"
         style="color:#000000;display:inline;overflow:visible;visibility:visible;opacity:0.4;fill:url(#linearGradient4251);fill-opacity:1;fill-rule:nonzero;stroke:none;stroke-width:1;marker:none;filter:url(#filter1067-6);enable-background:accumulate"
         sodipodi:nodetypes="ssccssssccssccs"
         transform="matrix(0.14218346,0,0,0.14218346,262.19388,40.984065)" />
      <path
         style="color:#000000;display:inline;overflow:visible;visibility:visible;fill:#666666;fill-opacity:1;fill-rule:nonzero;stroke:none;stroke-width:0.1357708;marker:none;enable-background:accumulate"
         d="m 269.54678,42.864974 c -5.02882,0 -5.54433,0.28425 -5.54433,5.303002 l 0,7.209142 31.8491,0 0,-4.418794 c 0,-5.018752 -0.5155,-5.818418 -5.54432,-5.818418 l -12.3708,0 -2.27493,-2.274932 z"
         id="path2059-8"
         inkscape:connector-curvature="0"
         sodipodi:nodetypes="ssccssccs" />
      <path
         sodipodi:nodetypes="ssssssssccs"
         style="color:#000000;display:inline;overflow:visible;visibility:visible;opacity:0.5;fill:#1a1a1a;fill-opacity:1;fill-rule:nonzero;stroke:none;stroke-width:1;marker:none;filter:url(#filter989-2);enable-background:accumulate"
         d="M 78.99353,92 C 43.625,92 40,95.625 40,130.92273 l 0,82.15454 C 40,248.375 43.625,252 78.99353,252 l 146.01294,0 C 260.375,252 264,248.375 264,213.07727 l 0,-98.15454 C 264,79.625 260.375,76 225.00647,76 L 143.75,76 127.74218,92 Z"
         id="path2061-8"
         inkscape:connector-curvature="0"
         clip-path="url(#clipPath977-3-4)"
         transform="matrix(0.14218346,0,0,0.14218346,258.31512,36.608909)" />
      <path
         style="color:#000000;display:inline;overflow:visible;visibility:visible;opacity:0.17300002;fill:#000000;fill-opacity:1;fill-rule:nonzero;stroke:none;stroke-width:0.1357708;marker:none;enable-background:accumulate"
         d="m 269.54678,42.864974 c -5.02882,0 -5.54433,0.28425 -5.54433,5.303002 l 0,7.209142 31.8491,0 0,-4.418794 c 0,-5.018752 -0.5155,-5.818418 -5.54432,-5.818418 l -12.3708,0 -2.27493,-2.274932 z"
         id="path2059-5"
         inkscape:connector-curvature="0"
         sodipodi:nodetypes="ssccssccs" />
      <path
         inkscape:connector-curvature="0"
         id="path2063-8"
         d="m 269.54669,49.689782 c -5.02882,0 -5.54424,0.515415 -5.54424,5.534168 l 0,11.681019 c 0,5.018753 0.51542,5.534168 5.54424,5.534168 l 20.76062,0 c 5.02882,0 5.54424,-0.515415 5.54424,-5.534168 l 0,-13.955952 c 0,-5.018752 -0.51542,-5.534168 -5.54424,-5.534168 l -11.55332,0 -2.27605,2.274933 z"
         style="color:#000000;display:inline;overflow:visible;visibility:visible;fill:#666666;fill-opacity:1;fill-rule:nonzero;stroke:none;stroke-width:0.1357708;marker:none;enable-background:accumulate"
         sodipodi:nodetypes="ssssssssccs" />
      <path
         style="color:#000000;display:inline;overflow:visible;visibility:visible;opacity:0.4;fill:url(#radialGradient1371-4);fill-opacity:1;fill-rule:nonzero;stroke:none;stroke-width:0.1357708;marker:none;enable-background:accumulate"
         d="m 269.54678,42.864974 c -5.02882,0 -5.54433,0.28425 -5.54433,5.303002 l 0,0.284365 c 0,-5.018752 0.51551,-5.302991 5.54433,-5.302991 l 6.11472,0 2.27493,2.274932 12.3708,0 c 5.02882,0 5.54432,0.799656 5.54432,5.818408 l 0,-0.284366 c 0,-5.018752 -0.5155,-5.818418 -5.54432,-5.818418 l -12.3708,0 -2.27493,-2.274932 z"
         id="path2065-6"
         inkscape:connector-curvature="0"
         sodipodi:nodetypes="sscsccscssccs" />
      <path
         style="color:#000000;display:inline;overflow:visible;visibility:visible;opacity:0.4;fill:url(#radialGradient1363-8);fill-opacity:1;fill-rule:nonzero;stroke:none;stroke-width:0.1357708;marker:none;enable-background:accumulate"
         d="m 278.75399,47.414849 -2.27605,2.274933 -6.93116,0 c -5.02882,0 -5.54433,0.51529 -5.54433,5.534042 l 0,0.284376 c 0,-5.018753 0.51551,-5.534053 5.54433,-5.534053 l 6.93116,0 2.27605,-2.274933 11.55324,0 c 5.02882,0 5.54432,0.515291 5.54432,5.534043 l 0,-0.284365 c 0,-5.018753 -0.5155,-5.534043 -5.54432,-5.534043 z"
         id="path2067-8"
         inkscape:connector-curvature="0"
         sodipodi:nodetypes="ccsscsccscssc" />
      <path
         style="color:#000000;display:inline;overflow:visible;visibility:visible;opacity:0.1;fill:#ffffff;fill-opacity:1;fill-rule:nonzero;stroke:none;stroke-width:0.1357708;marker:none;enable-background:accumulate"
         d="m 295.85155,63.055021 -9.09974,9.099749 3.55542,0 c 5.02882,0 5.54432,-0.515299 5.54432,-5.534051 z"
         id="path2069-3"
         inkscape:connector-curvature="0"
         sodipodi:nodetypes="ccssc" />
      <path
         style="color:#000000;display:inline;overflow:visible;visibility:visible;opacity:0.2;fill:#491706;fill-opacity:1;fill-rule:nonzero;stroke:none;stroke-width:0.1357708;marker:none;enable-background:accumulate"
         d="m 264.00245,66.620719 0,0.284365 c 0,5.018762 0.51551,5.534053 5.54433,5.534053 l 20.76045,0 c 5.02882,0 5.54432,-0.515291 5.54432,-5.534053 l 0,-0.284365 c 0,5.018752 -0.5155,5.534051 -5.54432,5.534051 l -20.76045,0 c -5.02882,0 -5.54433,-0.515299 -5.54433,-5.534051 z"
         id="path2089-8"
         inkscape:connector-curvature="0" />
      <path
         style="color:#000000;display:inline;overflow:visible;visibility:visible;opacity:0.07999998;fill:#ffffff;fill-opacity:0.82795697;fill-rule:nonzero;stroke:none;stroke-width:0.26458332;marker:none;enable-background:accumulate"
         d="m 279.68129,47.655 0,24.527229 8.98153,0 c 7.03079,0 7.12288,-0.705604 7.12288,-4.269614 l 0,-7.994 0,-7.994 c 0,-3.740114 0.0285,-4.269615 -7.12288,-4.269615 z"
         id="path4231"
         inkscape:connector-curvature="0"
         sodipodi:nodetypes="ccsscssc" />
    </g>
    <path
       style="color:#000000;clip-rule:nonzero;display:inline;overflow:visible;visibility:visible;opacity:1;isolation:auto;mix-blend-mode:normal;color-interpolation:sRGB;color-interpolation-filters:linearRGB;solid-color:#000000;solid-opacity:1;fill:#ffffff;fill-opacity:0.390625;fill-rule:nonzero;stroke:none;stroke-width:0.18544844;stroke-linecap:round;stroke-linejoin:round;stroke-miterlimit:4;stroke-dasharray:none;stroke-dashoffset:0;stroke-opacity:0.20105818;marker:none;color-rendering:auto;image-rendering:auto;shape-rendering:auto;text-rendering:auto;enable-background:accumulate"
       d="m 16.819888,276.00798 c -0.01654,0 -0.03569,0.003 -0.05241,0.008 l 0,13.89489 7.743236,0 c 0,-2.53008 -4.273471,-3.64875 -5.97829,-4.10763 0,0 0.07019,-1.4185 0.234943,-1.93872 0.164758,-0.52019 0.189556,-1.11203 0.260193,-1.27754 0.0706,-0.16569 0.902388,-0.92124 0.94946,-1.63059 -0.01127,-0.42321 -0.09484,-0.52467 -0.302913,-0.52467 l 0,-2.19813 c 0,-1.1871 -1.723391,-2.22349 -2.854204,-2.22349 z"
       id="path7768"
       inkscape:connector-curvature="0" />
    <path
       style="color:#000000;clip-rule:nonzero;display:inline;overflow:visible;visibility:visible;opacity:1;isolation:auto;mix-blend-mode:normal;color-interpolation:sRGB;color-interpolation-filters:linearRGB;solid-color:#000000;solid-opacity:1;fill:#ffffff;fill-opacity:0.49479167;fill-rule:nonzero;stroke:none;stroke-width:0.18544844;stroke-linecap:round;stroke-linejoin:round;stroke-miterlimit:4;stroke-dasharray:none;stroke-dashoffset:0;stroke-opacity:0.20105818;marker:none;color-rendering:auto;image-rendering:auto;shape-rendering:auto;text-rendering:auto;enable-background:accumulate"
       d="m 24.685216,290.3887 c 0,-2.70478 -4.370513,-3.90115 -6.113849,-4.39172 0,0 0.07223,-1.51666 0.240712,-2.0728 0.168479,-0.55609 0.192569,-1.18804 0.264765,-1.36502 0.07219,-0.17673 0.923181,-0.98586 0.971316,-1.74415 -0.01153,-0.45248 -0.09662,-0.55973 -0.309372,-0.55973 l 0,-2.35044 c 0,-1.26907 -1.761598,-2.37726 -2.917957,-2.37726 -1.156352,0 -2.917949,1.10819 -2.917949,2.37726 l 0,2.35044 c -0.212742,0 -0.297846,0.10736 -0.309372,0.55973 0.04811,0.75834 0.89911,1.56722 0.971321,1.74415 0.07223,0.17714 0.09628,0.80893 0.264763,1.36502 0.168518,0.55614 0.240712,2.0728 0.240712,2.0728 -1.743347,0.49057 -6.1138598,1.68694 -6.1138598,4.39172 z"
       id="path6496-5-8-5"
       inkscape:connector-curvature="0"
       sodipodi:nodetypes="ccccccscsccccccc"
       inkscape:label="user" />
    <path
       style="color:#000000;font-style:normal;font-variant:normal;font-weight:normal;font-stretch:normal;font-size:medium;line-height:normal;font-family:sans-serif;text-indent:0;text-align:start;text-decoration:none;text-decoration-line:none;text-decoration-style:solid;text-decoration-color:#000000;letter-spacing:normal;word-spacing:normal;text-transform:none;direction:ltr;writing-mode:lr-tb;baseline-shift:baseline;text-anchor:start;white-space:normal;clip-rule:nonzero;display:inline;overflow:visible;visibility:visible;opacity:1;isolation:auto;mix-blend-mode:normal;color-interpolation:sRGB;color-interpolation-filters:linearRGB;solid-color:#000000;solid-opacity:1;fill:#fbfbfb;fill-opacity:1;fill-rule:evenodd;stroke:none;stroke-width:0.5;stroke-linecap:butt;stroke-linejoin:miter;stroke-miterlimit:4;stroke-dasharray:none;stroke-dashoffset:0;stroke-opacity:1;color-rendering:auto;image-rendering:auto;shape-rendering:auto;text-rendering:auto;enable-background:accumulate"
       d="m 18.501343,285.78941 -0.174751,0.67681 c 1.069761,0.27667 2.249467,0.61937 3.240588,1.08445 0.82234,0.38588 1.485607,0.86134 1.889208,1.41409 l -13.230294,-0.0431 c 0.407962,-0.52796 1.056647,-0.9831 1.850379,-1.35556 0.991116,-0.46511 2.170828,-0.80778 3.240585,-1.08447 l -0.172798,-0.67677 c -1.083967,0.28043 -2.299721,0.62842 -3.362908,1.12734 -1.022764,0.47992 -1.9124904,1.10615 -2.3843273,1.9875 l -0.00789,0 c -0.010896,0.0152 -0.017283,0.0378 -0.027053,0.0548 -0.00789,0.015 -0.021416,0.0302 -0.029306,0.0449 l 0.00601,0.002 c -0.1494651,0.28835 -0.2028938,0.64015 -0.1767055,0.89137 l 15.2942513,-0.0114 c 0.217548,-0.0706 -0.06297,-0.72728 -0.178621,-0.88158 l 0.03306,-0.0152 c -0.454865,-0.93788 -1.385261,-1.58808 -2.448449,-2.08701 -1.063187,-0.49889 -2.277001,-0.84696 -3.360969,-1.12736 z"
       id="path7743"
       inkscape:connector-curvature="0" />
    <path
       style="color:#000000;font-style:normal;font-variant:normal;font-weight:normal;font-stretch:normal;font-size:medium;line-height:normal;font-family:sans-serif;text-indent:0;text-align:start;text-decoration:none;text-decoration-line:none;text-decoration-style:solid;text-decoration-color:#000000;letter-spacing:normal;word-spacing:normal;text-transform:none;direction:ltr;writing-mode:lr-tb;baseline-shift:baseline;text-anchor:start;white-space:normal;clip-rule:nonzero;display:inline;overflow:visible;visibility:visible;opacity:1;isolation:auto;mix-blend-mode:normal;color-interpolation:sRGB;color-interpolation-filters:linearRGB;solid-color:#000000;solid-opacity:1;fill:#eeeeee;fill-opacity:1;fill-rule:evenodd;stroke:none;stroke-width:0.5;stroke-linecap:butt;stroke-linejoin:miter;stroke-miterlimit:4;stroke-dasharray:none;stroke-dashoffset:0;stroke-opacity:1;color-rendering:auto;image-rendering:auto;shape-rendering:auto;text-rendering:auto;enable-background:accumulate"
       d="m 16.771347,276.00212 c -1.467019,0.13815 -2.338338,1.04716 -2.564899,1.45897 -0.403695,0.57763 -0.180764,1.40421 -0.242684,2.45558 l -0.0056,0.51573 0.535504,-0.53328 c -0.05884,-1.03869 -0.05471,-1.71573 0.196093,-2.18643 0.245689,-0.46112 1.091136,-0.94985 2.081434,-0.94985 1.00095,0 1.603176,0.40894 1.953284,0.90109 0.35668,0.50137 0.557349,1.15018 0.425217,2.25082 l 0.524048,0.52455 -0.0037,-0.50704 c 0.01841,-1.15733 0.212962,-1.98274 -0.363068,-2.66434 -0.521686,-0.63088 -1.537597,-1.24999 -2.535778,-1.2658 z"
       id="path7748"
       inkscape:connector-curvature="0"
       sodipodi:nodetypes="ccccccssccccc" />
    <path
       style="color:#000000;font-style:normal;font-variant:normal;font-weight:normal;font-stretch:normal;font-size:medium;line-height:normal;font-family:sans-serif;text-indent:0;text-align:start;text-decoration:none;text-decoration-line:none;text-decoration-style:solid;text-decoration-color:#000000;letter-spacing:normal;word-spacing:normal;text-transform:none;direction:ltr;writing-mode:lr-tb;baseline-shift:baseline;text-anchor:start;white-space:normal;clip-rule:nonzero;display:inline;overflow:visible;visibility:visible;opacity:1;isolation:auto;mix-blend-mode:normal;color-interpolation:sRGB;color-interpolation-filters:linearRGB;solid-color:#000000;solid-opacity:1;fill:#ffffff;fill-opacity:1;fill-rule:evenodd;stroke:none;stroke-width:0.5;stroke-linecap:butt;stroke-linejoin:miter;stroke-miterlimit:4;stroke-dasharray:none;stroke-dashoffset:0;stroke-opacity:1;color-rendering:auto;image-rendering:auto;shape-rendering:auto;text-rendering:auto;enable-background:accumulate"
       d="m 14.845048,282.65313 -0.115085,0.21137 0.266729,1.48066 0.11069,1.46754 0.49706,-0.0302 -0.160587,-1.57605 z"
       id="path7762"
       inkscape:connector-curvature="0"
       sodipodi:nodetypes="ccccccc" />
    <path
       sodipodi:nodetypes="ccccccc"
       inkscape:connector-curvature="0"
       id="path7766"
       d="m 18.789318,282.66853 0.115085,0.21137 -0.26673,1.48063 -0.11069,1.46757 -0.49706,-0.0302 0.160587,-1.57606 z"
       style="color:#000000;font-style:normal;font-variant:normal;font-weight:normal;font-stretch:normal;font-size:medium;line-height:normal;font-family:sans-serif;text-indent:0;text-align:start;text-decoration:none;text-decoration-line:none;text-decoration-style:solid;text-decoration-color:#000000;letter-spacing:normal;word-spacing:normal;text-transform:none;direction:ltr;writing-mode:lr-tb;baseline-shift:baseline;text-anchor:start;white-space:normal;clip-rule:nonzero;display:inline;overflow:visible;visibility:visible;opacity:1;isolation:auto;mix-blend-mode:normal;color-interpolation:sRGB;color-interpolation-filters:linearRGB;solid-color:#000000;solid-opacity:1;fill:#ffffff;fill-opacity:1;fill-rule:evenodd;stroke:none;stroke-width:0.5;stroke-linecap:butt;stroke-linejoin:miter;stroke-miterlimit:4;stroke-dasharray:none;stroke-dashoffset:0;stroke-opacity:1;color-rendering:auto;image-rendering:auto;shape-rendering:auto;text-rendering:auto;enable-background:accumulate" />
  </g>
</svg>
