<?xml version="1.0" encoding="UTF-8" standalone="no"?>
<svg
   xmlns:dc="http://purl.org/dc/elements/1.1/"
   xmlns:cc="http://creativecommons.org/ns#"
   xmlns:rdf="http://www.w3.org/1999/02/22-rdf-syntax-ns#"
   xmlns:svg="http://www.w3.org/2000/svg"
   xmlns="http://www.w3.org/2000/svg"
   xmlns:sodipodi="http://sodipodi.sourceforge.net/DTD/sodipodi-0.dtd"
   xmlns:inkscape="http://www.inkscape.org/namespaces/inkscape"
   height="24"
   width="24"
   version="1.1"
   id="svg2"
   sodipodi:docname="dropboxstatus-busy.svg"
   inkscape:version="0.92.2 (unknown)">
  <metadata
     id="metadata8">
    <rdf:RDF>
      <cc:Work
         rdf:about="">
        <dc:format>image/svg+xml</dc:format>
        <dc:type
           rdf:resource="http://purl.org/dc/dcmitype/StillImage" />
      </cc:Work>
    </rdf:RDF>
  </metadata>
  <sodipodi:namedview
     pagecolor="#ffffff"
     bordercolor="#666666"
     borderopacity="1"
     objecttolerance="10"
     gridtolerance="10"
     guidetolerance="10"
     inkscape:pageopacity="0"
     inkscape:pageshadow="2"
     inkscape:window-width="1450"
     inkscape:window-height="695"
     id="namedview6"
     showgrid="false"
     inkscape:zoom="9.8333333"
     inkscape:cx="-2.1916336"
     inkscape:cy="12"
     inkscape:window-x="0"
     inkscape:window-y="34"
     inkscape:window-maximized="0"
     inkscape:current-layer="svg2" />
  <defs
     id="defs8">
    <style
       type="text/css"
       id="current-color-scheme">
   .ColorScheme-Text { color:#5c616c; } .ColorScheme-Highlight { color:#5294e2; } .ColorScheme-ButtonBackground { color:#d3dae3; }
  </style>
  </defs>
  <path
     style="color:#d3dae3;fill:#fdfeff;fill-opacity:1;stroke-width:1.26250672"
     d="M 6.3249061,1.5373859 0.0123725,5.3249061 5.0623994,9.0927309 0,12.889846 6.3249061,16.687467 11.374933,12.899946 5.0623994,9.1124262 11.374933,5.3249061 l 6.312534,3.8072154 -6.312534,3.7678245 2.243853,1.684185 c 1.154247,-1.831392 3.166367,-2.943535 5.331187,-2.946691 1.356563,0.0038 2.676009,0.443291 3.762902,1.255108 l 0.03699,-0.02222 -5.0624,-3.7578506 L 22.737493,5.3249566 16.42496,1.5374364 11.374933,5.3052615 6.3249061,1.5374364 Z M 18.949973,12.899946 c -2.789004,0 -5.050027,2.261023 -5.050027,5.050027 C 13.899946,20.738976 16.160969,23 18.949973,23 21.738976,23 24,20.738976 24,17.949973 24,15.160969 21.738976,12.899946 18.949973,12.899946 Z m -7.57504,1.262507 -5.0500269,3.78752 -1.2625067,-0.757012 v 0.757012 l 6.3125336,3.78752 1.864218,-1.117028 c -0.393474,-0.835438 -0.598858,-1.747057 -0.601661,-2.670454 -3.03e-4,-0.847205 0.169933,-1.685825 0.500558,-2.465802 l -1.767509,-1.325632 z m 7.57504,0 a 3.7875201,3.7875201 0 0 1 3.78752,3.78752 H 21.474986 A 2.5250134,2.5250134 0 0 0 18.949973,15.42496 Z m -3.78752,3.78752 h 1.262507 a 2.5250134,2.5250134 0 0 0 2.525013,2.525013 v 1.262507 a 3.7875201,3.7875201 0 0 1 -3.78752,-3.78752 z"
     id="path4"
     class="ColorScheme-ButtonBackground"
     inkscape:connector-curvature="0" />
</svg>
