<?xml version="1.0" encoding="UTF-8" standalone="no"?>
<svg
   xmlns:dc="http://purl.org/dc/elements/1.1/"
   xmlns:cc="http://creativecommons.org/ns#"
   xmlns:rdf="http://www.w3.org/1999/02/22-rdf-syntax-ns#"
   xmlns:svg="http://www.w3.org/2000/svg"
   xmlns="http://www.w3.org/2000/svg"
   xmlns:sodipodi="http://sodipodi.sourceforge.net/DTD/sodipodi-0.dtd"
   xmlns:inkscape="http://www.inkscape.org/namespaces/inkscape"
   height="24"
   width="24"
   version="1.1"
   id="svg2"
   sodipodi:docname="dropboxstatus-idle.svg"
   inkscape:version="0.92.2 (unknown)">
  <metadata
     id="metadata8">
    <rdf:RDF>
      <cc:Work
         rdf:about="">
        <dc:format>image/svg+xml</dc:format>
        <dc:type
           rdf:resource="http://purl.org/dc/dcmitype/StillImage" />
      </cc:Work>
    </rdf:RDF>
  </metadata>
  <sodipodi:namedview
     pagecolor="#ffffff"
     bordercolor="#666666"
     borderopacity="1"
     objecttolerance="10"
     gridtolerance="10"
     guidetolerance="10"
     inkscape:pageopacity="0"
     inkscape:pageshadow="2"
     inkscape:window-width="1264"
     inkscape:window-height="763"
     id="namedview6"
     showgrid="false"
     inkscape:zoom="9.8333333"
     inkscape:cx="-24.305085"
     inkscape:cy="12"
     inkscape:window-x="0"
     inkscape:window-y="34"
     inkscape:window-maximized="0"
     inkscape:current-layer="svg2" />
  <defs
     id="defs8">
    <style
       type="text/css"
       id="current-color-scheme">
   .ColorScheme-Text { color:#5c616c; } .ColorScheme-Highlight { color:#5294e2; } .ColorScheme-ButtonBackground { color:#d3dae3; }
  </style>
  </defs>
  <path
     style="color:#d3dae3;fill:#ffffff;fill-opacity:1;stroke-width:1.26250672"
     d="M 6.3249061,1.537386 0.0123725,5.3249062 5.0623994,9.0927309 0,12.889846 6.3249061,16.687467 11.374933,12.899946 5.0623994,9.1124262 l 6.3125336,-3.78752 6.312534,3.8072153 -6.312534,3.7678245 2.243853,1.684185 a 6.3125336,6.3125336 0 0 1 5.331566,-2.941641 6.3125336,6.3125336 0 0 1 3.762901,1.255108 l 0.03699,-0.02222 L 17.688855,9.1257331 22.738882,5.338213 16.426348,1.5506929 11.376322,5.318518 6.3262948,1.5506929 Z M 18.949973,12.899946 A 5.0500269,5.0500269 0 0 0 13.899946,17.949973 5.0500269,5.0500269 0 0 0 18.949973,23 5.0500269,5.0500269 0 0 0 24,17.949973 5.0500269,5.0500269 0 0 0 18.949973,12.899946 Z m 0,0.621394 a 4.4187735,4.4187735 0 0 1 0.685504,0.05921 c -0.250381,-0.03939 -0.503224,-0.06123 -0.757013,-0.05668 a 4.4187735,4.4187735 0 0 1 0.07197,-0.01262 z m -0.0863,0.0025 c -0.202797,0.0038 -0.404924,0.02399 -0.606597,0.05668 a 4.4187735,4.4187735 0 0 1 0.606597,-0.05668 z m -0.638652,0.06161 c -0.208036,0.03535 -0.415352,0.08446 -0.618919,0.150415 a 4.4187735,4.4187735 0 0 1 0.618919,-0.150415 z m 1.605277,0.03207 a 4.4187735,4.4187735 0 0 1 0.507958,0.135619 c -0.166008,-0.0553 -0.33661,-0.100626 -0.507958,-0.135619 z m -2.234005,0.120821 c -0.193493,0.06325 -0.382981,0.143006 -0.569605,0.234259 a 4.4187735,4.4187735 0 0 1 0.569605,-0.234259 z m 2.934317,0.08384 a 4.4187735,4.4187735 0 0 1 0.466042,0.214525 c -0.15193,-0.08029 -0.306662,-0.15294 -0.466042,-0.214525 z m -3.558249,0.177533 c -0.190057,0.09621 -0.375077,0.204577 -0.554808,0.330424 -0.250329,0.175286 -0.478415,0.373676 -0.680567,0.586876 -0.193542,0.204109 -0.362326,0.424354 -0.510432,0.65591 a 4.4187735,4.4187735 0 0 1 0.510432,-0.65591 4.4187735,4.4187735 0 0 1 1.235388,-0.9173 z m 4.219045,0.145492 a 4.4187735,4.4187735 0 0 1 0.532627,0.36494 C 21.55551,14.37261 21.375426,14.254881 21.191403,14.145207 Z m -9.817252,0 -5.0500263,3.78752 L 5.06162,17.175727 v 0.757012 l 6.312533,3.78752 1.864218,-1.117028 a 6.3125336,6.3125336 0 0 1 -0.602216,-2.676515 6.3125336,6.3125336 0 0 1 0.499953,-2.461887 l -1.76246,-1.325632 z M 21.725699,14.4929 a 4.4187735,4.4187735 0 0 1 0.547409,0.532627 4.4187735,4.4187735 0 0 1 0.0025,0.0025 4.4187735,4.4187735 0 0 1 0.900029,1.63482 4.4187735,4.4187735 0 0 1 0.133156,0.552347 4.4187735,4.4187735 0 0 1 0.05425,0.581938 c -0.0063,-0.193162 -0.02399,-0.387589 -0.05555,-0.580753 -0.0303,-0.189375 -0.07575,-0.373701 -0.132563,-0.551715 -0.05681,-0.179276 -0.123725,-0.352239 -0.199476,-0.52394 l -4.016792,4.58896 -0.433986,0.512893 -0.495635,-0.473441 -1.896285,-1.896284 c -0.238008,-0.237983 -0.237996,-0.671881 0,-0.909889 0.238007,-0.237982 0.671893,-0.238007 0.909888,0 l 1.422846,1.422845 3.807215,-4.359562 c -0.169833,-0.19579 -0.352088,-0.37307 -0.547411,-0.532626 z m -6.541806,1.129351 c -0.136842,0.222705 -0.250821,0.45473 -0.345219,0.695364 a 4.4187735,4.4187735 0 0 1 0.345219,-0.695364 z m -0.367414,0.75455 c -0.09091,0.241139 -0.160338,0.489852 -0.207051,0.742354 a 4.4187735,4.4187735 0 0 1 0.207127,-0.742216 z m -0.221923,0.826058 c -0.04274,0.255733 -0.0644,0.516567 -0.06165,0.776732 a 4.4187735,4.4187735 0 0 1 -0.0025,-0.05668 4.4187735,4.4187735 0 0 1 0.06411,-0.72002 z m 8.771013,0.641113 a 4.4187735,4.4187735 0 0 1 0.0025,0.0789 4.4187735,4.4187735 0 0 1 -0.02712,0.480839 c 0.01996,-0.185702 0.02833,-0.372237 0.02465,-0.559745 z m -8.8277,0.221924 c 0.0071,0.235432 0.0336,0.469197 0.07891,0.702761 a 4.4187735,4.4187735 0 0 1 -0.07891,-0.702761 z m 0.115898,0.870435 c 0.05282,0.224613 0.122627,0.448252 0.212063,0.665783 a 4.4187735,4.4187735 0 0 1 -0.212063,-0.665783 z m 0.283572,0.826058 c 0.101826,0.222024 0.220648,0.439718 0.362478,0.648512 a 4.4187735,4.4187735 0 0 1 -0.362478,-0.648512 z m 7.984344,0.08131 c -0.0043,0.0088 -0.008,0.01817 -0.01237,0.02714 a 4.4187735,4.4187735 0 0 1 -0.0937,0.189869 c -0.0046,0.0088 -0.01015,0.01629 -0.01479,0.02462 0.04407,-0.07878 0.08184,-0.160604 0.120822,-0.241656 z m -0.244118,0.441385 c -0.0088,0.01364 -0.01583,0.02828 -0.02465,0.04191 a 4.4187735,4.4187735 0 0 1 -0.12822,0.184944 c 0.05375,-0.07436 0.104192,-0.149821 0.152876,-0.226859 z m -7.286557,0.249054 c 0.138471,0.189389 0.290174,0.362024 0.451245,0.522754 a 4.4187735,4.4187735 0 0 1 -0.451245,-0.522754 z m 6.963482,0.20219 c -0.0051,0.0063 -0.0095,0.01339 -0.01479,0.01969 a 4.4187735,4.4187735 0 0 1 -0.212062,0.229321 c 0.07826,-0.08117 0.155818,-0.163115 0.22686,-0.249054 z m -6.359373,0.468516 c 0.158192,0.143232 0.326484,0.27024 0.500559,0.387136 a 4.4187735,4.4187735 0 0 1 -0.502477,-0.386327 z m 5.405044,0.39206 a 4.4187735,4.4187735 0 0 1 -0.584401,0.327961 c -0.0091,0.0038 -0.01808,0.0075 -0.02712,0.01262 0.209248,-0.09658 0.413976,-0.2081 0.611533,-0.340296 z m -4.675188,0.140554 c 0.158356,0.09267 0.323403,0.172497 0.490698,0.244119 a 4.4187735,4.4187735 0 0 1 -0.490698,-0.244119 z m 3.891046,0.276173 c -0.0058,0.0025 -0.01149,0.005 -0.01726,0.0075 A 4.4187735,4.4187735 0 0 1 20.021758,22.2061 c 0.200271,-0.05063 0.39981,-0.112491 0.594262,-0.192344 z m -3.060065,0.09621 c 0.170111,0.05668 0.340006,0.109964 0.515355,0.145491 a 4.4187735,4.4187735 0 0 1 -0.515355,-0.145491 z m 2.160023,0.160288 a 4.4187735,4.4187735 0 0 1 -0.544948,0.06413 c -0.0058,2.91e-4 -0.01149,-2.65e-4 -0.01726,0 0.188353,-0.0088 0.375052,-0.03093 0.562206,-0.06413 z m -1.380929,0.02714 c 0.173582,0.02437 0.349575,0.03586 0.525228,0.03939 -0.0074,-1.64e-4 -0.01477,1.89e-4 -0.0222,0 a 4.4187735,4.4187735 0 0 1 -0.4833,-0.03699 c -0.0065,-8.97e-4 -0.01315,-0.0013 -0.01974,-0.0025 z"
     id="path4"
     class="ColorScheme-ButtonBackground"
     inkscape:connector-curvature="0" />
</svg>
