<?xml version="1.0" encoding="UTF-8" standalone="no"?>
<!-- Created with Inkscape (http://www.inkscape.org/) -->

<svg
   xmlns:dc="http://purl.org/dc/elements/1.1/"
   xmlns:cc="http://creativecommons.org/ns#"
   xmlns:rdf="http://www.w3.org/1999/02/22-rdf-syntax-ns#"
   xmlns:svg="http://www.w3.org/2000/svg"
   xmlns="http://www.w3.org/2000/svg"
   xmlns:xlink="http://www.w3.org/1999/xlink"
   xmlns:sodipodi="http://sodipodi.sourceforge.net/DTD/sodipodi-0.dtd"
   xmlns:inkscape="http://www.inkscape.org/namespaces/inkscape"
   width="16"
   height="16"
   id="svg3165"
   version="1.1"
   inkscape:version="0.92.2 (unknown)"
   sodipodi:docname="lollypop.svg">
  <defs
     id="defs3167">
    <radialGradient
       inkscape:collect="always"
       xlink:href="#linearGradient5906"
       id="radialGradient5912"
       cx="125.6516"
       cy="1053.6141"
       fx="125.6516"
       fy="1053.6141"
       r="127.77745"
       gradientUnits="userSpaceOnUse"
       gradientTransform="matrix(0.73504867,-0.01300132,0.00259775,0.35804546,32.195813,671.24168)" />
    <linearGradient
       inkscape:collect="always"
       id="linearGradient5906">
      <stop
         style="stop-color:#000000;stop-opacity:1;"
         offset="0"
         id="stop5908" />
      <stop
         style="stop-color:#f50183;stop-opacity:0"
         offset="1"
         id="stop5910" />
    </linearGradient>
    <radialGradient
       inkscape:collect="always"
       xlink:href="#linearGradient5432"
       id="radialGradient5136"
       cx="80.386749"
       cy="852.18683"
       fx="80.386749"
       fy="852.18683"
       r="109.64706"
       gradientUnits="userSpaceOnUse"
       gradientTransform="matrix(0.75888909,0.75888909,-0.89866973,0.89866973,784.24581,24.332633)" />
    <linearGradient
       id="linearGradient5432"
       inkscape:collect="always">
      <stop
         id="stop5434"
         offset="0"
         style="stop-color:#ffbcac;stop-opacity:1" />
      <stop
         id="stop5436"
         offset="1"
         style="stop-color:#ff3677;stop-opacity:1" />
    </linearGradient>
    <radialGradient
       inkscape:collect="always"
       xlink:href="#linearGradient4814"
       id="radialGradient5450"
       cx="64.786438"
       cy="868.7785"
       fx="64.786438"
       fy="868.7785"
       r="60.941174"
       gradientUnits="userSpaceOnUse"
       gradientTransform="matrix(1.1525388,0.66541854,-0.80501768,1.3943316,699.13037,-411.99831)" />
    <linearGradient
       inkscape:collect="always"
       id="linearGradient4814">
      <stop
         style="stop-color:#ffffff;stop-opacity:1"
         offset="0"
         id="stop4816" />
      <stop
         style="stop-color:#fffbf1;stop-opacity:1"
         offset="1"
         id="stop4818" />
    </linearGradient>
    <linearGradient
       inkscape:collect="always"
       xlink:href="#linearGradient5436"
       id="linearGradient5442"
       x1="128"
       y1="1031.1857"
       x2="127.05883"
       y2="815.65631"
       gradientUnits="userSpaceOnUse" />
    <linearGradient
       inkscape:collect="always"
       id="linearGradient5436">
      <stop
         style="stop-color:#c50047;stop-opacity:0.57823128"
         offset="0"
         id="stop5438" />
      <stop
         style="stop-color:#ffc1d7;stop-opacity:0.71372551"
         offset="1"
         id="stop5440" />
    </linearGradient>
    <clipPath
       clipPathUnits="userSpaceOnUse"
       id="clipPath5154">
      <circle
         r="109.64706"
         cy="924.36218"
         cx="128"
         id="circle5156"
         style="fill:url(#radialGradient5158);fill-opacity:1;stroke:none" />
    </clipPath>
    <radialGradient
       inkscape:collect="always"
       xlink:href="#linearGradient6001"
       id="radialGradient6007"
       cx="102.27371"
       cy="827.03925"
       fx="102.27371"
       fy="827.03925"
       r="93.226768"
       gradientTransform="matrix(1.4543001,0,0,0.7948134,-58.791779,197.2402)"
       gradientUnits="userSpaceOnUse" />
    <linearGradient
       inkscape:collect="always"
       id="linearGradient6001">
      <stop
         style="stop-color:#ffffff;stop-opacity:1;"
         offset="0"
         id="stop6003" />
      <stop
         style="stop-color:#ffffff;stop-opacity:0;"
         offset="1"
         id="stop6005" />
    </linearGradient>
    <linearGradient
       inkscape:collect="always"
       xlink:href="#linearGradient6001"
       id="linearGradient6198"
       x1="125.88235"
       y1="910.90009"
       x2="125.88235"
       y2="956.55133"
       gradientUnits="userSpaceOnUse"
       gradientTransform="matrix(1.0302364,0,0,1.0299408,-3.4803214,-28.583242)" />
    <radialGradient
       inkscape:collect="always"
       xlink:href="#linearGradient6177"
       id="radialGradient6208"
       cx="113.59127"
       cy="905.62823"
       fx="113.59127"
       fy="905.62823"
       r="32.762299"
       gradientTransform="matrix(1.5735434,0,0,1.7216413,-66.581494,-661.84942)"
       gradientUnits="userSpaceOnUse" />
    <linearGradient
       id="linearGradient6177"
       inkscape:collect="always">
      <stop
         id="stop6179"
         offset="0"
         style="stop-color:#ffcbb6;stop-opacity:1" />
      <stop
         id="stop6181"
         offset="1"
         style="stop-color:#ff2b79;stop-opacity:1" />
    </linearGradient>
    <linearGradient
       inkscape:collect="always"
       xlink:href="#linearGradient6058"
       id="linearGradient6064"
       x1="137.75073"
       y1="818.62317"
       x2="137.75073"
       y2="1030.603"
       gradientUnits="userSpaceOnUse" />
    <linearGradient
       inkscape:collect="always"
       id="linearGradient6058">
      <stop
         id="stop6062"
         offset="0"
         style="stop-color:#ffffff;stop-opacity:1" />
      <stop
         id="stop6060"
         offset="1"
         style="stop-color:#0a0a0a;stop-opacity:0.85714287" />
    </linearGradient>
    <clipPath
       clipPathUnits="userSpaceOnUse"
       id="clipPath3236">
      <circle
         r="109.64706"
         cy="924.36218"
         cx="128"
         id="circle3238"
         style="fill:url(#radialGradient5158);fill-opacity:1;stroke:none" />
    </clipPath>
    <linearGradient
       inkscape:collect="always"
       xlink:href="#linearGradient6001"
       id="linearGradient4812"
       x1="111.67825"
       y1="123.82807"
       x2="133.09865"
       y2="129.8658"
       gradientUnits="userSpaceOnUse"
       gradientTransform="matrix(0.9753759,0,0,0.9753759,3.9025941,798.70919)" />
    <clipPath
       clipPathUnits="userSpaceOnUse"
       id="clipPath4688">
      <path
         sodipodi:nodetypes="ccccccccccc"
         inkscape:connector-curvature="0"
         id="path4690"
         d="m 106.42383,889.60156 c -2.2448,-0.0524 -4.09304,1.75264 -4.09375,3.99805 v 32.64453 32.64453 c -4e-5,3.07923 3.33305,5.004 6,3.46485 l 28.26953,-16.32227 28.27148,-16.32227 c 2.66559,-1.54001 2.66559,-5.38772 0,-6.92773 l -28.27148,-16.32227 -28.26953,-16.32226 c -0.58054,-0.3353 -1.23603,-0.51932 -1.90625,-0.53516 z"
         style="color:#000000;font-style:normal;font-variant:normal;font-weight:normal;font-stretch:normal;font-size:medium;line-height:normal;font-family:sans-serif;text-indent:0;text-align:start;text-decoration:none;text-decoration-line:none;letter-spacing:normal;word-spacing:normal;text-transform:none;writing-mode:lr-tb;direction:ltr;baseline-shift:baseline;text-anchor:start;display:inline;overflow:visible;visibility:visible;fill:url(#radialGradient4692);fill-opacity:1;fill-rule:nonzero;stroke:#a7003f;stroke-width:1;stroke-linecap:round;stroke-linejoin:round;stroke-miterlimit:4;stroke-dasharray:none;stroke-dashoffset:0;stroke-opacity:1;enable-background:accumulate" />
    </clipPath>
    <linearGradient
       inkscape:collect="always"
       xlink:href="#linearGradient4690"
       id="linearGradient4696"
       x1="132.13025"
       y1="811.94482"
       x2="132.13025"
       y2="1034.0607"
       gradientUnits="userSpaceOnUse" />
    <linearGradient
       inkscape:collect="always"
       id="linearGradient4690">
      <stop
         style="stop-color:#ffffff;stop-opacity:0"
         offset="0"
         id="stop4692" />
      <stop
         id="stop4698"
         offset="0.49187705"
         style="stop-color:#ffffff;stop-opacity:1" />
      <stop
         style="stop-color:#ffffff;stop-opacity:0;"
         offset="1"
         id="stop4694" />
    </linearGradient>
    <clipPath
       clipPathUnits="userSpaceOnUse"
       id="clipPath4564">
      <circle
         style="fill:url(#radialGradient4568);fill-opacity:1;stroke:none"
         id="circle4566"
         cx="128"
         cy="924.36218"
         r="109.64706" />
    </clipPath>
    <linearGradient
       inkscape:collect="always"
       xlink:href="#linearGradient6001"
       id="linearGradient5494"
       x1="130.81476"
       y1="797.09662"
       x2="130.81476"
       y2="869.2215"
       gradientUnits="userSpaceOnUse"
       gradientTransform="matrix(0.89532561,0,0,0.89532561,13.39832,96.702213)" />
    <linearGradient
       inkscape:collect="always"
       xlink:href="#linearGradient5532"
       id="linearGradient5538"
       x1="89.853088"
       y1="838.67029"
       x2="89.853088"
       y2="1064.4746"
       gradientUnits="userSpaceOnUse" />
    <linearGradient
       inkscape:collect="always"
       id="linearGradient5532">
      <stop
         style="stop-color:#ffffff;stop-opacity:0.44897959"
         offset="0"
         id="stop5534" />
      <stop
         style="stop-color:#e20053;stop-opacity:0.27210885"
         offset="1"
         id="stop5536" />
    </linearGradient>
    <linearGradient
       inkscape:collect="always"
       xlink:href="#linearGradient6001"
       id="linearGradient5682"
       gradientUnits="userSpaceOnUse"
       gradientTransform="matrix(0.89571902,0,0,0.89569187,-978.82687,-1178.5871)"
       x1="130.81476"
       y1="797.09662"
       x2="130.81476"
       y2="869.2215" />
    <radialGradient
       inkscape:collect="always"
       xlink:href="#linearGradient6001"
       id="radialGradient6175"
       cx="121.00076"
       cy="893.57086"
       fx="121.00076"
       fy="893.57086"
       r="23.090113"
       gradientTransform="matrix(-0.99728124,1.3274369,-0.93371492,-0.70108225,1076.8672,1369.0319)"
       gradientUnits="userSpaceOnUse" />
    <clipPath
       clipPathUnits="userSpaceOnUse"
       id="clipPath6215">
      <path
         sodipodi:nodetypes="ccccccccccccccccccccccccccccccccccccccccccccccccccccccccccccccc"
         id="path6217"
         d="m 105.17325,806.18572 c -3.06859,0.56361 -6.11393,1.24721 -9.129005,2.04923 -3.838255,1.06506 -7.62084,2.32142 -11.333578,3.76438 -3.712189,1.44307 -7.34989,3.07087 -10.899472,4.87732 -3.549153,1.80656 -7.005749,3.78947 -10.35684,5.94129 -3.351877,2.15253 -6.593991,4.47137 -9.714191,6.94783 -3.119992,2.47544 -6.114241,5.10535 -8.971529,7.87988 -0.367219,0.38909 -0.731819,0.78065 -1.093777,1.17464 2.60205,17.85956 16.832359,40.03752 30.863064,55.74236 -4.76734,8.84435 -7.265993,18.73329 -7.272057,28.78068 0.02104,2.87431 0.246096,5.7435 0.673482,8.58593 -20.257302,-9.18513 -43.077023,-26.53494 -52.798465,-47.36396 -0.440667,1.15171 -0.863474,2.31018 -1.268271,3.47498 -1.176789,3.80495 -2.162562,7.66637 -2.953625,11.56979 -0.79154,3.90311 -1.3874065,7.84335 -1.7853678,11.80598 -0.39733,3.96334 -0.5961891,7.94407 -0.5958321,11.92728 -4.394e-4,2.81936 0.098928,5.63785 0.2979155,8.45018 0.282275,3.97319 0.763088,7.92978 1.4406374,11.85493 0.625626,3.51826 1.408798,7.00668 2.347153,10.45473 16.778133,6.68355 43.114514,5.45001 63.748015,1.14301 6.818545,11.02763 16.987182,19.58379 29.018153,24.41667 -18.071844,12.93645 -44.490188,24.02095 -67.37308,22.03245 1.384097,1.665 2.813203,3.2921 4.285735,4.8794 2.774977,2.8571 5.691103,5.5737 8.737453,8.1395 3.046107,2.5658 6.218619,4.9777 9.505651,7.2266 3.287242,2.2488 6.684891,4.3319 10.180217,6.2413 3.495379,1.9096 7.084075,3.6433 10.752641,5.1944 3.66896,1.5509 7.413193,2.9174 11.218668,4.0942 1.438565,0.3959 2.884421,0.7648 4.336807,1.1066 14.138748,-11.1844 26.206378,-34.5828 32.780368,-54.56406 12.95816,-0.38251 25.45395,-4.90132 35.65955,-12.89544 2.15922,22.12638 -1.46693,50.5581 -14.64692,69.3832 3.06859,-0.5636 6.11393,-1.2473 9.129,-2.0493 3.83826,-1.0651 7.62084,-2.3214 11.33358,-3.7644 3.71219,-1.4431 7.34989,-3.0709 10.89947,-4.8773 3.54915,-1.8066 7.00575,-3.7895 10.35684,-5.9413 3.35188,-2.1525 6.59399,-4.4714 9.71419,-6.9478 3.11999,-2.4754 6.11424,-5.1054 8.97153,-7.8799 0.36722,-0.3891 0.73182,-0.7806 1.09378,-1.1746 -2.60204,-17.85957 -16.83236,-40.03755 -30.86307,-55.74238 4.76735,-8.84435 7.266,-18.7333 7.27207,-28.78069 -0.021,-2.8743 -0.24611,-5.74349 -0.6735,-8.58592 20.25731,9.18513 43.07704,26.53494 52.79848,47.36396 0.44067,-1.15171 0.86347,-2.31018 1.26827,-3.47499 1.17679,-3.80495 2.16256,-7.66636 2.95362,-11.56978 0.79154,-3.90311 1.38741,-7.84335 1.78537,-11.80598 0.39733,-3.96334 0.59619,-7.94408 0.59583,-11.92729 4.4e-4,-2.81936 -0.0989,-5.63784 -0.29791,-8.45017 -0.28228,-3.97319 -0.76309,-7.92978 -1.44064,-11.85493 -0.62776,-3.53416 -1.41449,-7.03823 -2.35779,-10.50154 -20.56165,-7.32804 -45.89823,-4.79548 -63.74906,-1.11372 -6.81835,-11.01918 -16.98234,-19.56874 -29.00647,-24.39915 18.07184,-12.93645 44.49019,-24.02091 67.37307,-22.03241 -1.38409,-1.66502 -2.8132,-3.2921 -4.28573,-4.87944 -2.77498,-2.85712 -5.6911,-5.57368 -8.73745,-8.13949 -3.04611,-2.56581 -6.21862,-4.97769 -9.50565,-7.22659 -3.28724,-2.24885 -6.68489,-4.3319 -10.18022,-6.24135 -3.49538,-1.90963 -7.08407,-3.64325 -10.75264,-5.19438 -3.66896,-1.55092 -7.41319,-2.91736 -11.21867,-4.09421 -1.42662,-0.39262 -2.86041,-0.75869 -4.30063,-1.09804 -14.14688,11.18369 -26.2293,34.57475 -32.8107,54.55552 -12.96018,0.38127 -25.4582,4.90015 -35.665394,12.89544 -2.15922,-22.12637 1.466931,-50.55807 14.646924,-69.38315 z"
         style="fill:url(#radialGradient6219);fill-opacity:1;stroke:none"
         inkscape:connector-curvature="0" />
    </clipPath>
  </defs>
  <sodipodi:namedview
     id="base"
     pagecolor="#ffffff"
     bordercolor="#666666"
     borderopacity="1.0"
     inkscape:pageopacity="0.0"
     inkscape:pageshadow="2"
     inkscape:zoom="19.571428"
     inkscape:cx="14.2786"
     inkscape:cy="7.937665"
     inkscape:document-units="px"
     inkscape:current-layer="g4562"
     showgrid="false"
     inkscape:window-width="1920"
     inkscape:window-height="1013"
     inkscape:window-x="0"
     inkscape:window-y="34"
     inkscape:window-maximized="1" />
  <metadata
     id="metadata3170">
    <rdf:RDF>
      <cc:Work
         rdf:about="">
        <dc:format>image/svg+xml</dc:format>
        <dc:type
           rdf:resource="http://purl.org/dc/dcmitype/StillImage" />
        <dc:title />
      </cc:Work>
    </rdf:RDF>
  </metadata>
  <g
     inkscape:label="Livello 1"
     inkscape:groupmode="layer"
     id="layer1"
     transform="translate(0,-1036.3622)">
    <g
       style="display:inline;enable-background:new"
       id="g4562"
       transform="matrix(1.4066969,0,0,1.4066969,-425.48274,718.22861)">
      <path
         style="display:inline;fill:#808080;fill-opacity:1;stroke:none;stroke-width:0.76678586;enable-background:new"
         d="m 307.13749,226.51191 c -0.13697,0.0257 -0.27301,0.0565 -0.40757,0.093 -0.17132,0.0484 -0.33961,0.10488 -0.50533,0.17062 -0.16569,0.0657 -0.32867,0.14076 -0.48711,0.22299 -0.15841,0.0822 -0.31268,0.17237 -0.46225,0.27031 -0.14961,0.0979 -0.29482,0.20319 -0.43409,0.31591 -0.13924,0.11267 -0.27175,0.23186 -0.39929,0.35814 -0.0165,0.0176 -0.0336,0.0361 -0.0497,0.054 0.1161,0.81281 0.36342,1.56172 1.0703,2.36848 -0.24018,0.45434 -0.36587,0.96205 -0.36616,1.47819 7.6e-4,0.14765 0.0133,0.29492 0.0348,0.44093 -1.02056,-0.47184 -1.57746,-1.25837 -2.01138,-2.20632 -0.0197,0.0524 -0.0399,0.10574 -0.058,0.15881 -0.0525,0.17317 -0.0956,0.34942 -0.13089,0.52707 -0.0353,0.17763 -0.0617,0.35689 -0.0795,0.53722 -0.0177,0.18038 -0.0265,0.36099 -0.0265,0.54229 -3e-5,0.1283 0.004,0.25718 0.0132,0.38518 0.0127,0.18082 0.0329,0.36027 0.063,0.53889 0.0278,0.16013 0.0641,0.31947 0.10604,0.4764 0.74888,0.30418 1.50865,0.45945 2.54818,0.23821 0.34351,0.5665 0.85518,1.00693 1.46132,1.25519 -0.91047,0.66455 -1.85487,0.76286 -2.87624,0.67236 0.0618,0.0758 0.12481,0.14907 0.19053,0.22131 0.12387,0.13003 0.25504,0.25489 0.39101,0.37166 0.13597,0.11681 0.27743,0.22539 0.42415,0.32774 0.14673,0.10232 0.29794,0.19692 0.45397,0.28381 0.15601,0.0869 0.31673,0.16591 0.48047,0.23651 0.16376,0.0706 0.33051,0.13395 0.50036,0.18752 0.0642,0.018 0.12903,0.0335 0.19385,0.049 0.63108,-0.50901 1.14173,-1.10046 1.47291,-2.12689 0.65285,-0.0197 1.28183,-0.25157 1.79599,-0.66223 0.10883,1.13664 -0.27989,2.02021 -0.86817,2.87697 0.13698,-0.0257 0.27301,-0.0566 0.40758,-0.093 0.17132,-0.0484 0.33961,-0.10488 0.50533,-0.17063 0.16568,-0.0657 0.32867,-0.14078 0.4871,-0.22299 0.15841,-0.0823 0.31269,-0.17237 0.46225,-0.2703 0.14962,-0.0979 0.29316,-0.2032 0.43243,-0.31591 0.13925,-0.11266 0.27341,-0.23187 0.40095,-0.35814 0.0163,-0.0178 0.0336,-0.0361 0.0497,-0.054 -0.11611,-0.81281 -0.36509,-1.56174 -1.07197,-2.36849 0.24019,-0.45435 0.36753,-0.96205 0.36782,-1.47819 -7.5e-4,-0.14766 -0.0133,-0.29489 -0.0348,-0.44091 1.02056,0.47184 1.57747,1.25835 2.01138,2.2063 0.0197,-0.0524 0.0382,-0.10574 0.0563,-0.1588 0.0525,-0.17316 0.0972,-0.34943 0.13255,-0.52708 0.0353,-0.17765 0.0618,-0.35688 0.0795,-0.53722 0.0177,-0.18038 0.0265,-0.36101 0.0265,-0.54229 3e-5,-0.12831 -0.004,-0.25716 -0.0133,-0.38516 -0.0127,-0.18082 -0.0345,-0.36028 -0.0646,-0.53891 -0.028,-0.16084 -0.0623,-0.32048 -0.10438,-0.47809 -0.91776,-0.33352 -1.64885,-0.4273 -2.54818,-0.2382 -0.34351,-0.56606 -0.85553,-1.00366 -1.46131,-1.25182 0.91046,-0.66453 1.85486,-0.76454 2.87623,-0.67405 -0.0618,-0.0757 -0.12481,-0.14907 -0.19053,-0.22131 -0.12385,-0.13004 -0.25504,-0.2532 -0.39101,-0.36997 -0.13596,-0.1168 -0.27742,-0.22708 -0.42415,-0.32943 -0.14671,-0.10232 -0.29794,-0.1969 -0.45396,-0.2838 -0.15602,-0.0869 -0.31675,-0.16592 -0.48048,-0.23652 -0.16377,-0.0706 -0.33051,-0.13396 -0.50036,-0.18751 -0.0636,-0.0178 -0.12791,-0.0336 -0.19219,-0.049 -0.63144,0.50898 -1.14299,1.10049 -1.47457,2.12691 -0.65293,0.0197 -1.2834,0.25149 -1.79765,0.66222 -0.10882,-1.13664 0.28155,-2.02022 0.86983,-2.87698 z m -0.24355,3.42265 c 0.0344,8.5e-4 0.068,0.01 0.0977,0.027 l 1.44475,0.85144 1.4464,0.84975 c 0.13626,0.0803 0.13626,0.28134 0,0.36152 l -1.4464,0.84974 -1.44475,0.85144 c -0.13632,0.0802 -0.30651,-0.0203 -0.30651,-0.18076 v -1.70119 -1.70118 c 4e-5,-0.11693 0.094,-0.21143 0.20876,-0.20778 z"
         id="path4569"
         inkscape:connector-curvature="0" />
    </g>
  </g>
</svg>
