<?xml version="1.0" encoding="UTF-8" standalone="no"?>
<svg
   xmlns:dc="http://purl.org/dc/elements/1.1/"
   xmlns:cc="http://creativecommons.org/ns#"
   xmlns:rdf="http://www.w3.org/1999/02/22-rdf-syntax-ns#"
   xmlns:svg="http://www.w3.org/2000/svg"
   xmlns="http://www.w3.org/2000/svg"
   xmlns:sodipodi="http://sodipodi.sourceforge.net/DTD/sodipodi-0.dtd"
   xmlns:inkscape="http://www.inkscape.org/namespaces/inkscape"
   width="16"
   height="16"
   viewBox="0 0 16 16"
   version="1.1"
   id="svg7"
   sodipodi:docname="virtualbox.svg"
   inkscape:version="0.92.2 (unknown)">
  <metadata
     id="metadata11">
    <rdf:RDF>
      <cc:Work
         rdf:about="">
        <dc:format>image/svg+xml</dc:format>
        <dc:type
           rdf:resource="http://purl.org/dc/dcmitype/StillImage" />
      </cc:Work>
    </rdf:RDF>
  </metadata>
  <sodipodi:namedview
     pagecolor="#ffffff"
     bordercolor="#666666"
     borderopacity="1"
     objecttolerance="10"
     gridtolerance="10"
     guidetolerance="10"
     inkscape:pageopacity="0"
     inkscape:pageshadow="2"
     inkscape:window-width="1315"
     inkscape:window-height="812"
     id="namedview9"
     showgrid="false"
     inkscape:zoom="14.75"
     inkscape:cx="8"
     inkscape:cy="8"
     inkscape:window-x="0"
     inkscape:window-y="34"
     inkscape:window-maximized="0"
     inkscape:current-layer="svg7" />
  <defs
     id="defs3">
    <style
       type="text/css"
       id="current-color-scheme">
   .ColorScheme-Text { color:#5c616c; } .ColorScheme-Highlight { color:#5294e2; } .ColorScheme-ButtonBackground { color:#d3dae3; }
  </style>
  </defs>
  <path
     style="fill:#808080;opacity:1;fill-opacity:1"
     class="ColorScheme-Text"
     d="M 7.0273438 1 A 1.0001 1.0001 0 0 0 6.0136719 1.8359375 L 4.8046875 9.0917969 L 3.9707031 5.7578125 A 1.0001 1.0001 0 0 0 3 5.0585938 L 0 5.0585938 L 0 7.0585938 L 2.21875 7.0585938 L 4.0292969 14.300781 A 1.0001 1.0001 0 0 0 5.9863281 14.222656 L 7.3535156 6.0195312 L 8.5585938 9.3945312 A 1.0001 1.0001 0 0 0 10.457031 9.3457031 L 11.048828 7.3710938 L 12.050781 10.375 A 1.0001 1.0001 0 0 0 13 11.074219 L 16 11.074219 L 16 9.0742188 L 13.720703 9.0742188 L 11.949219 3.7578125 A 1.0001 1.0001 0 0 0 10.042969 3.7871094 L 9.4179688 5.8710938 L 7.9414062 1.7382812 A 1.0001 1.0001 0 0 0 7.0273438 1.0742188 L 7.0273438 1 z"
     id="path5" />
</svg>
