<?xml version="1.0" encoding="UTF-8" standalone="no"?>
<!-- Created with Inkscape (http://www.inkscape.org/) -->

<svg
   xmlns:dc="http://purl.org/dc/elements/1.1/"
   xmlns:cc="http://creativecommons.org/ns#"
   xmlns:rdf="http://www.w3.org/1999/02/22-rdf-syntax-ns#"
   xmlns:svg="http://www.w3.org/2000/svg"
   xmlns="http://www.w3.org/2000/svg"
   xmlns:sodipodi="http://sodipodi.sourceforge.net/DTD/sodipodi-0.dtd"
   xmlns:inkscape="http://www.inkscape.org/namespaces/inkscape"
   width="24"
   height="24"
   viewBox="0 0 24 24.000001"
   id="svg4747"
   version="1.1"
   inkscape:version="0.92.2 5c3e80d, 2017-08-06"
   sodipodi:docname="max_button_unmaximize_prelight.svg">
  <defs
     id="defs4749" />
  <sodipodi:namedview
     id="base"
     pagecolor="#808080"
     bordercolor="#666666"
     borderopacity="1.0"
     inkscape:pageopacity="0"
     inkscape:pageshadow="2"
     inkscape:zoom="20.375"
     inkscape:cx="11.685121"
     inkscape:cy="23.145428"
     inkscape:document-units="px"
     inkscape:current-layer="layer1"
     showgrid="false"
     units="px"
     inkscape:window-width="1920"
     inkscape:window-height="999"
     inkscape:window-x="0"
     inkscape:window-y="28"
     inkscape:window-maximized="1"
     inkscape:document-rotation="0"
     inkscape:measure-start="0,0"
     inkscape:measure-end="0,0" />
  <metadata
     id="metadata4752">
    <rdf:RDF>
      <cc:Work
         rdf:about="">
        <dc:format>image/svg+xml</dc:format>
        <dc:type
           rdf:resource="http://purl.org/dc/dcmitype/StillImage" />
        <dc:title></dc:title>
        <cc:license
           rdf:resource="http://creativecommons.org/licenses/by-sa/4.0/" />
      </cc:Work>
      <cc:License
         rdf:about="http://creativecommons.org/licenses/by-sa/4.0/">
        <cc:permits
           rdf:resource="http://creativecommons.org/ns#Reproduction" />
        <cc:permits
           rdf:resource="http://creativecommons.org/ns#Distribution" />
        <cc:requires
           rdf:resource="http://creativecommons.org/ns#Notice" />
        <cc:requires
           rdf:resource="http://creativecommons.org/ns#Attribution" />
        <cc:permits
           rdf:resource="http://creativecommons.org/ns#DerivativeWorks" />
        <cc:requires
           rdf:resource="http://creativecommons.org/ns#ShareAlike" />
      </cc:License>
    </rdf:RDF>
  </metadata>
  <g
     inkscape:label="Layer 1"
     inkscape:groupmode="layer"
     id="layer1"
     transform="translate(0,-1028.3622)">
    <path
       id="rect4656-2"
       transform="translate(0,1028.3622)"
       style="opacity:1;fill:#2e3436;fill-opacity:1;fill-rule:evenodd;stroke:none;stroke-width:0;stroke-linecap:square;stroke-linejoin:round;stroke-miterlimit:4;stroke-dasharray:none;stroke-dashoffset:478.43673706;stroke-opacity:0.4"
       d="m 7,8 v 9 h 9 V 8 Z M 8.8007812,9.8007812 H 14.199219 V 15.199219 H 8.8007812 Z" />
    <path
       id="rect4656-2-3"
       transform="translate(0,1028.3622)"
       style="opacity:1;fill:#2e3436;fill-opacity:1;fill-rule:evenodd;stroke:none;stroke-width:0;stroke-linecap:square;stroke-linejoin:round;stroke-miterlimit:4;stroke-dasharray:none;stroke-dashoffset:478.43673706;stroke-opacity:0.4"
       d="m 10,5 v 4.4589844 c 0.03632,-0.00859 0.07212,-0.019675 0.109375,-0.023437 0.04155,0 0.08341,2.606e-4 0.125,-0.00977 0.0328,0 0.235759,-0.034156 0.248047,-0.035156 0.180852,-0.018 0.357014,-0.062938 0.537109,-0.085937 0.07116,-0.01 0.141647,-0.011531 0.212891,-0.019531 0.11885,-0.014 0.313653,-0.046453 0.427734,-0.064453 0.04688,-0.00587 0.09374,-0.011886 0.140625,-0.017578 V 6.8007812 h 5.398438 v 5.3984378 h -2.763672 c 0.0097,0.02768 0.02027,0.05493 0.03125,0.08203 0.0084,0.021 0.01891,0.0415 0.02734,0.0625 0.02068,0.051 0.03885,0.102997 0.05859,0.154297 0.0089,0.03 0.01904,0.05984 0.02734,0.08984 0.02614,0.095 0.02792,0.128756 0.0625,0.222656 0.01547,0.042 0.03511,0.084 0.05273,0.125 0.06263,0.1461 0.05692,0.128584 0.125,0.271484 0.0229,0.046 0.04554,0.09403 0.06836,0.140625 0.05051,0.1031 0.0804,0.161378 0.121094,0.267578 0.07374,0.1924 0.01652,0.06032 0.07813,0.232422 0.0093,0.026 0.02063,0.05017 0.03125,0.07617 0.01093,0.022 0.02213,0.04245 0.0332,0.06445 0.0029,0.0057 0.0033,0.0068 0.0059,0.01172 H 19 V 5 Z m 1.800781,4.6523438 c -0.02343,0.00266 -0.04688,0.00498 -0.07031,0.00781 -0.139558,0.022 -0.315527,0.052359 -0.457031,0.068359 -0.05475,0.00894 -0.109389,0.010431 -0.164063,0.015625 h 0.02344 0.138672 0.128907 0.134765 0.126953 0.132813 c 0.0039,0 0.0023,0.00356 0.0059,0.00391 z m 2.515625,2.5468752 c -2e-6,0.04884 10e-6,0.09767 0,0.146484 1.87e-4,0.1363 9.12e-4,0.271903 -0.002,0.408203 -7.34e-4,0.064 -0.001,0.12906 0.002,0.19336 0.0014,0.039 0.005,0.07779 0.0059,0.117187 4.86e-4,0.02 9e-5,0.04055 0,0.06055 -0.0072,0.061 -0.0041,0.05433 -0.01953,0.111328 -0.003,0.011 -0.01014,0.0212 -0.01172,0.0332 -3.91e-4,0.0039 5.14e-4,0.0078 0,0.01172 -7.5e-5,0.0097 2.17e-4,0.0193 0,0.0293 -0.001,0.048 -1.8e-4,0.04766 -0.0059,0.09766 -0.0047,0.015 -0.01014,0.02992 -0.01563,0.04492 -9.41e-4,0.01887 -0.0018,0.03772 -0.0039,0.05664 -0.0087,0.079 -0.0047,0.0092 -0.01563,0.07422 -0.0024,0.015 -0.0023,0.03195 -0.0039,0.04687 -0.003,0.018 -0.0069,0.03574 -0.0098,0.05274 -10e-4,0.0062 -0.0061,0.0027 -0.0078,0.0078 v 0.08984 c 0,0.03218 -0.01605,0.04073 -0.03125,0.04883 0.0041,0.01167 0.0067,0.0232 0.0098,0.03516 0.01063,0.041 0.01014,0.05666 0.01563,0.09766 0.0041,0.0272 0.0049,0.02938 0.0059,0.03711 h 0.830078 c -0.0067,-0.01339 -0.01268,-0.02715 -0.01953,-0.04102 -0.01147,-0.028 -0.02497,-0.05598 -0.03516,-0.08398 -0.0595,-0.1667 -0.0043,-0.04131 -0.07422,-0.224609 -0.03982,-0.1041 -0.06937,-0.162072 -0.119141,-0.263672 -0.02299,-0.047 -0.04725,-0.09403 -0.07031,-0.140625 -0.06671,-0.1401 -0.06398,-0.132391 -0.125,-0.275391 -0.01859,-0.044 -0.03838,-0.08851 -0.05469,-0.132812 -0.03494,-0.095 -0.03852,-0.12961 -0.06445,-0.22461 -0.0076,-0.028 -0.01723,-0.05503 -0.02539,-0.08203 -0.01925,-0.05 -0.03648,-0.100691 -0.05664,-0.150391 -0.0091,-0.023 -0.02018,-0.04341 -0.0293,-0.06641 -0.01529,-0.03767 -0.02731,-0.07742 -0.04297,-0.115234 z m -0.08789,0.0039 c -0.0037,0.01426 -0.01185,0.03842 -0.01758,0.05859 4.24e-4,0.0014 0.0016,0.0025 0.002,0.0039 0.0077,0.028 0.0012,0.05698 0.01367,0.08398 8e-4,0.0046 0.0015,0.0055 0.002,0.0078 -1.4e-5,-0.0059 8e-6,-0.01172 0,-0.01758 8e-6,-0.04556 -2.4e-5,-0.09115 0,-0.136719 z m -0.173828,1.791016 c -4.89e-4,0.0029 -1.09e-4,0.0059 -0.002,0.0059 h 0.002 z M 14.052734,14 c -7.34e-4,-2.2e-5 -0.0025,-0.0029 -0.0039,-0.0039 1.36e-4,9.31e-4 -1.37e-4,0.003 0,0.0039 z" />
  </g>
</svg>
